<?xml version="1.0" encoding="utf-8"?>
<!-- Generator: Adobe Illustrator 19.1.0, SVG Export Plug-In . SVG Version: 6.00 Build 0)  -->
<svg version="1.1" id="Layer_1" xmlns="http://www.w3.org/2000/svg" xmlns:xlink="http://www.w3.org/1999/xlink" x="0px" y="0px"
	 viewBox="0 0 71.6 25.3" style="enable-background:new 0 0 71.6 25.3;" xml:space="preserve">
<style type="text/css">
	.st0{fill:#3E4951;}
	.st1{fill:#E32628;}
</style>
<path class="st0" d="M12.8,25.2C5.6,25.2,0,19.8,0,12.7C0,5.5,5.6,0,12.8,0c2.7,0,4.8,0.6,7,2v4.6c-2.5-2.2-4.5-3.1-7.1-3.1
	c-5,0-8.6,3.8-8.6,9.1c0,5.3,3.5,8.9,8.6,8.9c2.8,0,4.6-0.8,7.2-3v4.6C17.4,24.6,15.4,25.2,12.8,25.2"/>
<path class="st0" d="M37.5,25.2c-7.2,0-12.8-5.4-12.8-12.6C24.7,5.5,30.3,0,37.5,0c2.7,0,4.8,0.6,7,2v4.6C42,4.5,40,3.6,37.3,3.6
	c-5.1,0-8.6,3.8-8.6,9.1c0,5.3,3.5,8.9,8.6,8.9c2.8,0,4.6-0.8,7.2-3v4.6C42.1,24.6,40.1,25.2,37.5,25.2"/>
<path class="st1" d="M57.7,8.6c-4.7,0-8.3,3.6-8.3,8.3c0,4.7,3.7,8.4,8.3,8.4c4.5,0,8.1-3.6,8.1-8.3C65.8,12.3,62.2,8.6,57.7,8.6
	 M57.7,21.8c-2.6,0-4.6-2.1-4.6-4.9c0-2.8,2-4.9,4.7-4.9c2.6,0,4.6,2.2,4.6,4.9C62.4,19.6,60.4,21.8,57.7,21.8z"/>
<polyline class="st1" points="54.8,0.6 52.7,4.1 67.8,4.1 67.8,24.5 71.6,24.5 71.6,0.6 54.8,0.6 "/>
</svg>
