<?xml version="1.0" encoding="UTF-8" standalone="no"?>
<svg width="274px" height="258px" viewBox="0 0 274 258" version="1.1" xmlns="http://www.w3.org/2000/svg" xmlns:xlink="http://www.w3.org/1999/xlink" xmlns:sketch="http://www.bohemiancoding.com/sketch/ns">
    <!-- Generator: Sketch 3.4.3 (16044) - http://www.bohemiancoding.com/sketch -->
    <title>Airplane Copy</title>
    <desc>Created with Sketch.</desc>
    <defs></defs>
    <g id="Page-1" stroke="none" stroke-width="1" fill="none" fill-rule="evenodd" sketch:type="MSPage">
        <g id="Desktop-HD" sketch:type="MSArtboardGroup" transform="translate(-73.000000, -1202.000000)" fill="#000000">
            <g id="AirScreens" sketch:type="MSLayerGroup" transform="translate(-78.000000, -708.000000)">
                <path d="M316.66982,2035.75262 C321.041611,2031.42172 322.904789,2029.63582 323.934942,2028.6531 C324.357814,2028.24678 324.643968,2028.0011 324.904685,2027.71763 C326.656581,2026.00732 328.430734,2025.13484 330.281194,2025.13484 C332.319244,2025.13484 334.430422,2026.20575 336.579753,2028.31923 C340.678109,2032.36979 340.862519,2036.25658 337.212471,2039.89768 C336.951753,2040.15596 336.665599,2040.42683 336.268164,2040.84575 C335.161703,2041.96391 333.126833,2044.06793 327.823452,2049.3217 C325.972992,2051.15485 324.208378,2052.60688 322.580482,2053.6526 C331.050629,2079.26944 340.566827,2108.90851 345.161183,2123.20519 C346.639643,2127.75971 347.558514,2130.66378 347.76836,2131.22758 C350.079846,2138.15386 344.601593,2145.58725 342.131134,2148.45352 C340.789391,2150.00319 338.827649,2150.88827 336.789599,2150.88827 C336.465292,2150.88827 336.144164,2150.88827 335.807139,2150.84102 C333.460679,2150.51975 331.336783,2148.93228 330.36704,2146.81565 C327.276581,2140.1004 298.972808,2083.31686 295.793323,2076.99218 C293.443684,2072.38096 284.080101,2060.19776 280.341027,2055.4007 C278.690874,2056.95038 276.964414,2058.55045 276.430261,2059.0922 C263.486578,2072.04709 244.199824,2089.62894 230.563013,2100.87667 C229.71727,2101.60111 228.4264,2102.51139 226.836657,2103.5823 C227.879528,2107.236 230.499424,2117.16398 234.635933,2133.14892 C235.033369,2134.6734 234.499215,2136.24827 233.268755,2137.22154 L228.477271,2141.02328 C227.768246,2141.59968 226.900247,2141.87056 226.003632,2141.87056 C225.682504,2141.87056 225.358197,2141.83276 225.037069,2141.77291 C224.22948,2141.59968 223.460044,2141.13352 222.862301,2140.44372 C222.665173,2140.18545 222.528455,2139.99961 222.391738,2139.76653 C220.751123,2136.79002 207.947338,2117.29942 207.858313,2117.12934 C207.460877,2116.40175 207.187441,2115.87259 206.926724,2115.41903 C206.443442,2115.63951 205.96016,2115.87259 205.473699,2116.14347 C203.883957,2116.9561 202.678932,2117.5703 201.524779,2118.14985 C194.943246,2121.53268 190.794018,2123.6493 188.298122,2123.6493 C187.477815,2123.6493 186.819662,2123.40362 186.33638,2122.92486 L185.067766,2121.65552 C183.055152,2119.66173 185.328484,2115.30879 189.875147,2106.5966 C190.46971,2105.45325 191.092889,2104.25949 191.751043,2103.00275 C192.059453,2102.38855 192.358324,2101.80899 192.644478,2101.23259 C192.13576,2100.97431 191.588889,2100.66564 190.956172,2100.34751 C190.755864,2100.23412 171.046238,2087.55012 168.226035,2085.98784 C167.819061,2085.77996 167.606036,2085.63192 167.39619,2085.47129 C166.550447,2084.64605 166.178447,2083.98146 166.003575,2083.24442 C165.704704,2082.07586 165.990857,2080.84432 166.785728,2079.8616 L170.610649,2075.13698 C171.392802,2074.18891 172.524698,2073.65976 173.717005,2073.65976 C174.050851,2073.65976 174.400594,2073.71015 174.73444,2073.79519 C190.9053,2077.89301 200.930215,2080.50099 204.6057,2081.52151 C205.674007,2079.94664 206.592878,2078.66784 207.311441,2077.83001 C218.665381,2064.32077 236.400547,2045.21444 249.490486,2032.39184 C249.96105,2031.91308 251.092946,2030.75713 253.216842,2028.51766 C246.635309,2023.45918 235.879112,2015.41474 231.418295,2013.20992 C223.619019,2009.37353 161.09763,1979.05727 160.91322,1978.95963 C158.776606,1977.99896 157.186864,1975.89493 156.862557,1973.57042 C156.528711,1971.19552 157.434864,1968.84581 159.285324,1967.28039 C161.695373,1965.26455 167.259472,1961.16674 173.097006,1961.16674 C174.276595,1961.16674 175.468901,1961.33997 176.64849,1961.74629 C177.195362,1961.90378 180.012385,1962.77941 184.285613,1964.1212 C198.183141,1968.41429 230.550295,1978.45252 255.08002,1986.47491 C256.135609,1984.90004 257.575916,1983.21493 259.34053,1981.46682 C264.656628,1976.20045 266.755088,1974.18462 267.883806,1973.10111 C268.306677,1972.71999 268.592831,1972.42391 268.866266,1972.15304 C270.592727,1970.45533 272.392315,1969.60805 274.230057,1969.60805 C276.280825,1969.60805 278.379285,1970.65376 280.528616,1972.80503 C284.601536,1976.86505 284.8241,1980.74238 281.174052,1984.37088 C280.913334,1984.62916 280.62718,1984.93784 280.217027,1985.33155 C279.234566,1986.33947 277.460414,1988.17262 273.187186,1992.40587 L284.277229,1996.03438 C297.914039,1981.96133 327.003145,1952.38211 336.5416,1944.08884 C347.781078,1934.32149 361.443324,1927.11173 371.067625,1927.11173 C374.545981,1927.11173 377.51562,1928.04406 379.639516,1930.16068 C387.686791,1938.09803 379.016337,1957.70832 365.592552,1972.88063 C357.357686,1982.16921 327.387863,2011.08384 313.092899,2024.65293 C314.161206,2028.0011 315.353513,2031.73985 316.66982,2035.75262 Z" id="Airplane-Copy" sketch:type="MSShapeGroup" transform="translate(269.766096, 2039.000000) rotate(-315.000000) translate(-269.766096, -2039.000000) "></path>
            </g>
        </g>
    </g>
</svg>