<?xml version="1.0" encoding="UTF-8" standalone="no"?>
<svg width="4000px" height="1589px" viewBox="0 0 4000 1589" version="1.1" xmlns="http://www.w3.org/2000/svg" xmlns:xlink="http://www.w3.org/1999/xlink" xmlns:sketch="http://www.bohemiancoding.com/sketch/ns">
    <!-- Generator: Sketch 3.5.2 (25235) - http://www.bohemiancoding.com/sketch -->
    <title>Group 11</title>
    <desc>Created with Sketch.</desc>
    <defs>
        <linearGradient x1="50%" y1="100%" x2="50%" y2="0%" id="linearGradient-1">
            <stop stop-color="#383A43" offset="0%"></stop>
            <stop stop-color="#191A1E" offset="100%"></stop>
        </linearGradient>
        <rect id="path-2" x="0" y="0" width="4000" height="1589"></rect>
        <path id="path-4" d="M0,1.18648343 L1346.2593,1.18648343 L1346.2593,307.428904 L0,307.428904"></path>
        <path id="path-6" d="M0,1.18648343 L1346.2593,1.18648343 L1346.2593,307.428904 L0,307.428904"></path>
        <path id="path-8" d="M0,1.18648343 L1346.2593,1.18648343 L1346.2593,307.428904 L0,307.428904"></path>
        <path id="path-10" d="M0,1.18648343 L1346.2593,1.18648343 L1346.2593,307.428904 L0,307.428904"></path>
        <linearGradient x1="100%" y1="100%" x2="0%" y2="0%" id="linearGradient-12">
            <stop stop-color="#6058A6" offset="0%"></stop>
            <stop stop-color="#ED3895" offset="100%"></stop>
        </linearGradient>
        <linearGradient x1="64.1906753%" y1="50%" x2="100%" y2="100%" id="linearGradient-13">
            <stop stop-color="#000000" stop-opacity="0" offset="0%"></stop>
            <stop stop-color="#24252D" stop-opacity="0.854817708" offset="100%"></stop>
        </linearGradient>
        <path id="path-14" d="M18.0661366,82.2485538 C27.5822281,81.92501 37.7931059,82.0805599 50.2372255,82.8458653 C68.450553,83.9907124 88.1278947,86.2804066 108.884637,90.0509357 C165.199551,100.29234 220.918934,119.487195 272.928654,149.850531 C290.769774,160.266151 307.940922,171.876394 324.305622,184.687482 L346.749702,164.242006 C327.339109,148.487914 306.855319,134.376429 285.496842,121.882663 C230.751401,89.9389398 172.215652,69.7734535 113.18983,59.0778439 C74.9765819,52.1029873 42.6379999,50.0808389 19.368861,50.7341484 C18.1219677,50.7901463 17.2410779,50.8461443 16.7013778,50.8461443 L2.95453379,51.6114497 L4.25725817,82.9578612 L18.0661366,82.2485538"></path>
        <linearGradient x1="0%" y1="-49.7001377%" x2="100%" y2="50%" id="linearGradient-15">
            <stop stop-color="#6058A6" offset="0%"></stop>
            <stop stop-color="#ED3895" offset="100%"></stop>
        </linearGradient>
        <linearGradient x1="27.1039279%" y1="37.5540029%" x2="4.37215083%" y2="6.53743258%" id="linearGradient-16">
            <stop stop-color="#000000" stop-opacity="0" offset="0%"></stop>
            <stop stop-color="#24252D" stop-opacity="0.8" offset="99.1669324%"></stop>
        </linearGradient>
        <path id="path-17" d="M645.414776,262.126433 L625.985572,281.6075 L656.053692,311.721957 C655.762129,311.697069 655.513991,311.690847 655.216226,311.665959 C636.308112,310.241122 615.867746,307.298118 594.285945,302.606734 C535.483448,289.68365 477.202041,265.542309 422.85362,227.426366 C408.505041,217.346734 394.590704,206.389801 381.104405,194.555566 L358.647918,214.403731 C374.634207,228.900979 391.209824,242.147607 408.393379,254.149836 C465.793897,294.375034 527.158419,319.84166 589.068844,333.411832 C611.79208,338.376984 633.37388,341.475537 653.311767,343.01237 C653.85767,343.055924 654.36015,343.087034 654.893647,343.124366 L625.985572,372.069088 L645.414776,391.550154 L709.868616,326.847627 L645.414776,262.126433"></path>
        <linearGradient x1="0%" y1="100%" x2="100%" y2="0%" id="linearGradient-18">
            <stop stop-color="#6058A6" offset="0%"></stop>
            <stop stop-color="#ED3895" offset="100%"></stop>
        </linearGradient>
        <path id="path-19" d="M645.414776,2.34569217 L625.985572,21.826759 L655.464364,51.3501259 C637.220019,52.4327531 616.09107,54.8219992 592.654438,59.0778439 C533.628617,69.7734535 475.142495,89.9389398 420.347426,121.882663 C389.956728,139.652681 361.377436,160.695469 335.062403,185.235017 C318.381328,200.765117 301.036483,214.783272 282.990649,227.426366 C228.642228,265.542309 170.360821,289.68365 111.558323,302.606734 C89.9765226,307.298118 69.5361567,310.241122 50.6838738,311.665959 C37.904768,312.642812 27.526397,312.866804 19.9705956,312.642812 C19.0400782,312.586814 18.4383436,312.586814 18.1777987,312.530816 L4.41234441,311.721957 L2.95453379,343.068368 L16.7013778,343.933225 C17.1852468,343.933225 18.0103056,343.989223 19.2075713,343.989223 C27.5822281,344.269213 38.8228785,344.045221 52.5200949,343.01237 C72.4703883,341.475537 94.0521889,338.376984 116.775424,333.411832 C178.68585,319.84166 240.050372,294.375034 297.450889,254.149836 C316.526496,240.778768 334.89491,225.957976 352.512707,209.544352 C377.295487,186.435862 404.206051,166.587698 432.952836,149.850531 C484.925335,119.480973 540.700549,100.29234 596.996853,90.0509357 C617.610915,86.2990726 637.189002,84.0218224 655.365109,82.8707533 L625.985572,112.288346 L645.414776,131.769413 L709.868616,67.0606636 L645.414776,2.34569217"></path>
        <linearGradient x1="0%" y1="0%" x2="100%" y2="100%" id="linearGradient-21">
            <stop stop-color="#6058A6" offset="0%"></stop>
            <stop stop-color="#ED3895" offset="100%"></stop>
        </linearGradient>
        <linearGradient x1="4.34100069%" y1="-52.6453427%" x2="4.34100069%" y2="252.730325%" id="linearGradient-22">
            <stop stop-color="#383A43" offset="0%"></stop>
            <stop stop-color="#191A1E" offset="100%"></stop>
        </linearGradient>
    </defs>
    <g id="sketch-pad" stroke="none" stroke-width="1" fill="none" fill-rule="evenodd" sketch:type="MSPage">
        <g id="Group-11" sketch:type="MSLayerGroup">
            <g id="Group-2-Copy">
                <mask id="mask-3" sketch:name="Mask" fill="white">
                    <use xlink:href="#path-2"></use>
                </mask>
                <use id="Mask" fill="url(#linearGradient-1)" sketch:type="MSShapeGroup" transform="translate(2000.000000, 794.500000) rotate(-180.000000) translate(-2000.000000, -794.500000) " xlink:href="#path-2"></use>
            </g>
            <g id="Page-1" transform="translate(1333.333333, 1107.484848)">
                <g id="Group-3">
                    <mask id="mask-5" sketch:name="Clip 2" fill="white">
                        <use xlink:href="#path-4"></use>
                    </mask>
                    <g id="Clip-2"></g>
                    <path d="M306.411965,154.307454 C306.411965,238.87442 237.819822,307.428664 153.206103,307.428664 C68.592384,307.428664 0.000240311613,238.87442 0.000240311613,154.307454 C0.000240311613,69.7404871 68.592384,1.18624325 153.206103,1.18624325 C237.819822,1.18624325 306.411965,69.7404871 306.411965,154.307454" id="Fill-1" fill="#6C57A4" sketch:type="MSShapeGroup" mask="url(#mask-5)"></path>
                </g>
                <g id="Group-6">
                    <mask id="mask-7" sketch:name="Clip 5" fill="white">
                        <use xlink:href="#path-6"></use>
                    </mask>
                    <g id="Clip-5"></g>
                    <path d="M653.028064,154.307454 C653.028064,238.87442 584.43592,307.428664 499.822201,307.428664 C415.208482,307.428664 346.616339,238.87442 346.616339,154.307454 C346.616339,69.7404871 415.208482,1.18624325 499.822201,1.18624325 C584.43592,1.18624325 653.028064,69.7404871 653.028064,154.307454" id="Fill-4" fill="#9E59A3" sketch:type="MSShapeGroup" mask="url(#mask-7)"></path>
                </g>
                <g id="Group-9">
                    <mask id="mask-9" sketch:name="Clip 8" fill="white">
                        <use xlink:href="#path-8"></use>
                    </mask>
                    <g id="Clip-8"></g>
                    <path d="M999.643922,154.307454 C999.643922,238.87442 931.051778,307.428664 846.438059,307.428664 C761.82434,307.428664 693.232196,238.87442 693.232196,154.307454 C693.232196,69.7404871 761.82434,1.18624325 846.438059,1.18624325 C931.051778,1.18624325 999.643922,69.7404871 999.643922,154.307454" id="Fill-7" fill="#D9499A" sketch:type="MSShapeGroup" mask="url(#mask-9)"></path>
                </g>
                <g id="Group-12">
                    <mask id="mask-11" sketch:name="Clip 11" fill="white">
                        <use xlink:href="#path-10"></use>
                    </mask>
                    <g id="Clip-11"></g>
                    <path d="M1346.26002,154.307454 C1346.26002,238.87442 1277.66788,307.428664 1193.05416,307.428664 C1108.44044,307.428664 1039.84829,238.87442 1039.84829,154.307454 C1039.84829,69.7404871 1108.44044,1.18624325 1193.05416,1.18624325 C1277.66788,1.18624325 1346.26002,69.7404871 1346.26002,154.307454" id="Fill-10" fill="#E93694" sketch:type="MSShapeGroup" mask="url(#mask-11)"></path>
                </g>
            </g>
            <g id="logo" transform="translate(655.555556, 359.284382)">
                <g>
                    <g id="Clip-2">
                        <use fill="url(#linearGradient-12)" sketch:type="MSShapeGroup" xlink:href="#path-14"></use>
                        <use fill="url(#linearGradient-13)" xlink:href="#path-14"></use>
                    </g>
                    <g id="Clip-8">
                        <use fill="url(#linearGradient-15)" sketch:type="MSShapeGroup" xlink:href="#path-17"></use>
                        <use fill="url(#linearGradient-16)" xlink:href="#path-17"></use>
                    </g>
                    <mask id="mask-20" sketch:name="Clip 5" fill="white">
                        <use xlink:href="#path-19"></use>
                    </mask>
                    <use id="Clip-5" fill="url(#linearGradient-18)" sketch:type="MSShapeGroup" xlink:href="#path-19"></use>
                </g>
                <g transform="translate(1036.408053, 40.897922)" id="Fill-1-+-Fill-3-+-Oval-1" fill="url(#linearGradient-21)" sketch:type="MSShapeGroup">
                    <g>
                        <path d="M1515.6015,161.0509 L1515.6015,159.696942 L1421.65503,21.9317757 L1463.68464,21.9317757 L1538.26613,133.995096 L1539.62343,133.995096 L1615.16439,21.9317757 L1654.86552,21.9317757 L1558.40336,161.436077 L1558.40336,162.59161 L1652.73596,300.753626 L1610.90527,300.753626 L1536.70991,189.647414 L1535.3643,189.647414 L1460.01055,300.753626 L1420.49664,300.753626 L1515.6015,161.0509 Z M1268.08185,161.0509 L1268.08185,159.696942 L1174.14708,21.9317757 L1216.17669,21.9317757 L1290.74648,133.995096 L1292.10378,133.995096 L1367.64475,21.9317757 L1407.35758,21.9317757 L1310.89542,161.436077 L1310.89542,162.59161 L1405.22801,300.753626 L1363.38562,300.753626 L1289.20196,189.647414 L1287.84466,189.647414 L1212.49091,300.753626 L1172.97699,300.753626 L1268.08185,161.0509 Z M1104.49598,21.9317757 L1139.36464,21.9317757 L1139.36464,300.753626 L1104.49598,300.753626 L1104.49598,21.9317757 Z M523.28002,4.75052299 L719.644401,4.75052299 L566.514819,300.753626 L551.841899,300.753626 L699.015727,16.2241449 L523.28002,16.2241449 L523.28002,4.75052299 Z M381.624615,251.684342 L381.624615,45.5093099 L266.979268,251.684342 L381.624615,251.684342 Z M381.624615,300.753626 L381.624615,264.745362 L247.532385,264.745362 L394.706213,0 L394.706213,251.684342 L429.223846,251.684342 L429.223846,264.745362 L394.706213,264.745362 L394.706213,300.753626 L381.624615,300.753626 Z M208.662019,110.802739 C208.662019,84.1554564 199.933153,60.9397556 182.475421,41.1556365 C165.017689,21.3715174 141.885025,11.4852939 113.054025,11.4852939 C84.2347264,11.4852939 60.2244946,21.8383993 41.0584324,42.5446101 C21.8806693,63.2508209 12.2976382,88.3807373 12.2976382,117.922687 L0,117.922687 C0,84.4239135 10.8467275,56.4576897 32.5284816,34.0356881 C54.2102358,11.6136864 81.2509987,0.396849586 113.650771,0.396849586 C146.050542,0.396849586 172.166935,11.3452294 191.999948,33.2419889 C211.832961,55.1387484 221.755318,81.1323963 221.755318,111.199589 C221.755318,154.724651 198.341832,191.141436 151.538261,220.414929 L43.6326288,287.692606 L220.561827,287.692606 L220.561827,300.753626 L2.37528121,300.753626 L140.820243,213.294981 C186.044194,184.803515 208.662019,150.639434 208.662019,110.802739 L208.662019,110.802739 Z" id="Fill-1"></path>
                        <path d="M1062.40586,89.0829472 C1062.40586,42.5815133 1024.44817,4.89247465 977.621196,4.89247465 C950.135799,4.89247465 925.786241,17.9301508 910.294259,38.0527592 C894.802277,17.9301508 870.45272,4.89247465 842.967323,4.89247465 C796.14035,4.89247465 758.182655,42.5815133 758.182655,89.0829472 L758.182655,302.296224 L793.051315,302.296224 L793.051315,89.0829472 L793.12152,89.0829472 C793.12152,61.7119978 815.458524,39.5234371 843.025827,39.5234371 C870.265506,39.5234371 892.368492,61.2100998 892.883331,88.1375114 C892.883331,88.4526567 892.836527,88.7678019 892.836527,89.0829472 L892.836527,302.296224 L927.705188,302.296224 L927.705188,89.0829472 L927.751991,89.0829472 L927.763692,89.0829472 C927.763692,61.7119978 950.112397,39.5234371 977.6797,39.5234371 C1005.2353,39.5234371 1027.58401,61.7119978 1027.58401,89.0829472 L1027.04577,89.0829472 L1027.04577,302.296224 L1061.90273,302.296224 L1061.90273,89.0829472 L1062.40586,89.0829472 Z" id="Fill-3"></path>
                        <ellipse id="Oval-1" cx="476.921347" cy="291.102242" rx="17.1202535" ry="17.1236613"></ellipse>
                    </g>
                </g>
            </g>
            <path d="M2300,779.684149 L1840.74074,259.277389 L3463.03061,259.277389 L3463.03061,768.575879 L2300,779.684149 Z" id="Path-177" fill="url(#linearGradient-22)" sketch:type="MSShapeGroup"></path>
            <g id="logo-copy" transform="translate(2214.814815, 403.731935)" stroke-width="7.40740741" stroke="#979797" sketch:type="MSShapeGroup">
                <g id="logo" transform="translate(3.074720, 0.154332)">
                    <g id="Fill-1-+-Fill-3-+-Oval-1">
                        <path d="M993.379274,157.346937 L993.379274,155.99298 L899.432807,18.227813 L941.462413,18.227813 L1016.0439,130.291133 L1017.40121,130.291133 L1092.94217,18.227813 L1132.6433,18.227813 L1036.18114,157.732115 L1036.18114,158.887647 L1130.51374,297.049664 L1088.68304,297.049664 L1014.48768,185.943451 L1013.14208,185.943451 L937.788333,297.049664 L898.274418,297.049664 L993.379274,157.346937 Z M745.859628,157.346937 L745.859628,155.99298 L651.924862,18.227813 L693.954468,18.227813 L768.524257,130.291133 L769.881561,130.291133 L845.422524,18.227813 L885.135354,18.227813 L788.673195,157.732115 L788.673195,158.887647 L883.005791,297.049664 L841.163399,297.049664 L766.97974,185.943451 L765.622436,185.943451 L690.268687,297.049664 L650.754773,297.049664 L745.859628,157.346937 Z M582.273759,18.227813 L617.142419,18.227813 L617.142419,297.049664 L582.273759,297.049664 L582.273759,18.227813 Z M1.05779787,1.04656029 L197.422179,1.04656029 L44.2925963,297.049664 L29.6196769,297.049664 L176.793505,12.5201822 L1.05779787,12.5201822 L1.05779787,1.04656029 Z" id="Fill-1"></path>
                        <path d="M540.183642,85.3789845 C540.183642,38.8775506 502.225946,1.18851194 455.398974,1.18851194 C427.913577,1.18851194 403.564019,14.2261881 388.072037,34.3487965 C372.580055,14.2261881 348.230498,1.18851194 320.745101,1.18851194 C273.918128,1.18851194 235.960432,38.8775506 235.960432,85.3789845 L235.960432,298.592261 L270.829093,298.592261 L270.829093,85.3789845 L270.899298,85.3789845 C270.899298,58.0080351 293.236302,35.8194744 320.803605,35.8194744 C348.043283,35.8194744 370.14627,57.5061371 370.661109,84.4335487 C370.661109,84.748694 370.614305,85.0638392 370.614305,85.3789845 L370.614305,298.592261 L405.482965,298.592261 L405.482965,85.3789845 L405.529769,85.3789845 L405.54147,85.3789845 C405.54147,58.0080351 427.890175,35.8194744 455.457478,35.8194744 C483.01308,35.8194744 505.361785,58.0080351 505.361785,85.3789845 L504.823544,85.3789845 L504.823544,298.592261 L539.680504,298.592261 L539.680504,85.3789845 L540.183642,85.3789845 Z" id="Fill-3"></path>
                    </g>
                </g>
            </g>
            <path d="M1685.18519,92.5990676 L2503.7037,1000.06993" id="Line" stroke="url(#linearGradient-15)" stroke-width="7.40740741" stroke-linecap="square" sketch:type="MSShapeGroup"></path>
        </g>
    </g>
</svg>