<?xml version="1.0" encoding="UTF-8" standalone="no"?>
<svg width="509px" height="144px" viewBox="0 0 509 144" version="1.1" xmlns="http://www.w3.org/2000/svg" xmlns:xlink="http://www.w3.org/1999/xlink" xmlns:sketch="http://www.bohemiancoding.com/sketch/ns">
    <!-- Generator: Sketch 3.5.2 (25235) - http://www.bohemiancoding.com/sketch -->
    <title>24.7MIXX + VirginAmericaLOGO</title>
    <desc>Created with Sketch.</desc>
    <defs>
        <linearGradient x1="100%" y1="100%" x2="0%" y2="0%" id="linearGradient-1">
            <stop stop-color="#6058A6" offset="0%"></stop>
            <stop stop-color="#ED3895" offset="100%"></stop>
        </linearGradient>
        <path id="path-2" d="M122.891377,5.70224014 C117.642692,1.29226743 113.454847,0.0899200194 106.475104,0.0899200194 L0.000616766676,0.0899200194 L69.7610395,135.961322 C72.4460305,141.188564 75.9595446,143.380236 80.9327399,143.380236 L171.829757,143.380236 C176.052553,143.380236 178.568961,141.209047 180.27946,137.409465 L192.740203,109.734991 L207.548771,76.8455666 L122.891377,5.70224014 Z"></path>
    </defs>
    <g id="sketch-pad" stroke="none" stroke-width="1" fill="none" fill-rule="evenodd" sketch:type="MSPage">
        <g id="Group-2" sketch:type="MSLayerGroup" transform="translate(-260.000000, -223.000000)">
            <g transform="translate(-32.906250, -322.434144)" id="24.7MIXX-+-VirginAmericaLOGO">
                <g transform="translate(293.625000, 545.796495)">
                    <path d="M483.05188,113.546453 L483.05188,113.308851 L466.545148,89.1328608 L473.929901,89.1328608 L487.034137,108.798512 L487.27262,108.798512 L500.545439,89.1328608 L507.52107,89.1328608 L490.572321,113.614047 L490.572321,113.816828 L507.146898,138.06246 L499.797095,138.06246 L486.760703,118.564769 L486.524276,118.564769 L473.284351,138.06246 L466.341615,138.06246 L483.05188,113.546453 Z M439.561788,113.546453 L439.561788,113.308851 L423.057112,89.1328608 L430.441865,89.1328608 L443.544045,108.798512 L443.782528,108.798512 L457.055347,89.1328608 L464.033034,89.1328608 L447.084286,113.614047 L447.084286,113.816828 L463.658862,138.06246 L456.307003,138.06246 L443.272667,118.564769 L443.034184,118.564769 L429.79426,138.06246 L422.851523,138.06246 L439.561788,113.546453 Z M410.819162,89.1328608 L416.945711,89.1328608 L416.945711,138.06246 L410.819162,138.06246 L410.819162,89.1328608 Z M308.697428,86.1177749 L343.199356,86.1177749 L316.293938,138.06246 L313.715853,138.06246 L339.574824,88.131246 L308.697428,88.131246 L308.697428,86.1177749 Z M283.808064,129.451441 L283.808064,93.2704106 L263.664464,129.451441 L283.808064,129.451441 Z M283.808064,138.06246 L283.808064,131.74348 L260.247577,131.74348 L286.106548,85.2841201 L286.106548,129.451441 L292.17142,129.451441 L292.17142,131.74348 L286.106548,131.74348 L286.106548,138.06246 L283.808064,138.06246 Z M253.417914,104.728556 C253.417914,100.052305 251.884221,95.9782527 248.816835,92.5063977 C245.749448,89.0345427 241.684956,87.2996394 236.619246,87.2996394 C231.555591,87.2996394 227.336907,89.1164744 223.969361,92.7501445 C220.599759,96.3838145 218.915986,100.793787 218.915986,105.978014 L216.755247,105.978014 C216.755247,100.099416 218.661056,95.1917085 222.470618,91.2569396 C226.28018,87.3221706 231.03134,85.353762 236.724096,85.353762 C242.416852,85.353762 247.005596,87.2750599 250.490328,91.1176557 C253.97506,94.9602515 255.718454,99.5217979 255.718454,104.798198 C255.718454,112.436279 251.60462,118.82695 243.381064,123.964066 L224.421657,135.770422 L255.508753,135.770422 L255.508753,138.06246 L217.172592,138.06246 L241.49787,122.714608 C249.443881,117.714728 253.417914,111.719377 253.417914,104.728556 L253.417914,104.728556 Z M300.379283,139.087613 C302.040605,139.087613 303.387373,137.742238 303.387373,136.082634 C303.387373,134.42303 302.040605,133.077655 300.379283,133.077655 C298.717961,133.077655 297.371193,134.42303 297.371193,136.082634 C297.371193,137.742238 298.717961,139.087613 300.379283,139.087613 Z M403.322138,100.892515 C403.322138,92.7321195 396.652834,86.1181846 388.425167,86.1181846 C383.595884,86.1181846 379.317579,88.4061268 376.595582,91.9373822 C373.873585,88.4061268 369.59528,86.1181846 364.765997,86.1181846 C356.53833,86.1181846 349.869026,92.7321195 349.869026,100.892515 L349.869026,138.308665 L355.995575,138.308665 L355.995575,100.892515 L356.00791,100.892515 C356.00791,96.0892701 359.932602,92.195467 364.776276,92.195467 C369.562386,92.195467 373.44596,96.0011935 373.536419,100.726603 C373.536419,100.781907 373.528196,100.837211 373.528196,100.892515 L373.528196,138.308665 L379.654745,138.308665 L379.654745,100.892515 L379.662968,100.892515 L379.665024,100.892515 C379.665024,96.0892701 383.591772,92.195467 388.435446,92.195467 C393.277065,92.195467 397.203812,96.0892701 397.203812,100.892515 L397.109242,100.892515 L397.109242,138.308665 L403.233735,138.308665 L403.233735,100.892515 L403.322138,100.892515 Z" id="24.7MIXX" opacity="0.7" fill="#CFD0D1" sketch:type="MSShapeGroup"></path>
                    <g id="VirginAmericaLOGO">
                        <mask id="mask-3" sketch:name="Mask" fill="white">
                            <use xlink:href="#path-2"></use>
                        </mask>
                        <use id="Mask" fill="url(#linearGradient-1)" sketch:type="MSShapeGroup" xlink:href="#path-2"></use>
                        <path d="M175.343271,67.3763127 C173.739677,68.4107001 171.862651,69.0190428 170.053469,69.5864197 C166.013647,70.8502159 162.356221,72.4908978 158.618614,74.4674996 C154.868673,76.4461497 151.022105,78.2465984 147.383182,80.4239328 C144.023859,82.4333072 140.676872,84.4283437 137.270264,86.3619313 C135.808527,87.1935379 134.587329,88.295519 133.109145,89.1066426 C132.249783,89.5797981 131.392478,90.1451267 130.642078,90.7923869 C130.0212,91.3249429 129.075491,91.8759334 128.551239,92.4699381 C127.566468,93.5862573 128.586189,95.1675387 128.014652,96.3371134 C127.833734,96.705806 127.994093,96.5870051 128.129782,96.8287035 C128.277806,97.0929332 128.016708,97.4759638 127.94064,97.7115174 C127.730939,98.375164 127.893355,99.7167953 127.915969,100.435746 C127.934472,101.072765 128.039323,101.685204 128.012596,102.326319 C127.98587,102.965386 127.64048,103.678192 127.955031,104.296776 C128.063993,105.134528 127.708325,105.957941 127.749442,106.795692 C127.792616,107.67441 127.86046,108.499871 127.848125,109.386782 C127.841957,109.812827 127.874852,110.247064 128.049602,110.644433 C127.90569,110.802152 127.654871,110.927097 127.568524,111.133975 C127.323873,111.71569 127.911858,111.72798 127.946808,112.086431 C127.866628,112.211377 127.739163,112.260536 127.57058,112.235956 C127.807007,112.649711 128.057826,113.157687 127.807007,113.579636 C127.624033,113.888928 127.416388,114.19822 127.698045,114.53414 C127.576748,114.855722 128.201738,115.111758 128.059882,115.410809 C127.952975,115.638169 127.741219,115.826612 127.65076,116.056021 C127.478065,116.486162 128.177067,116.590625 127.757666,116.971607 C127.473953,117.229692 127.737107,117.434521 127.926249,117.637302 C128.273694,118.014188 127.770001,118.053105 127.821398,118.493488 C127.922137,119.366061 128.487506,120.142363 128.475171,121.035419 C128.462836,121.914136 127.774113,122.614652 128.598524,123.17998 C129.030261,123.472886 129.505172,125.785408 128.538904,125.492502 C128.991199,125.629738 128.503954,126.22579 128.551239,126.5146 C128.631419,127.008238 129.577128,126.89763 129.610022,127.561277 C129.624413,127.882859 129.320142,128.077446 129.059044,128.177813 C129.163894,128.476863 129.258465,128.780011 129.404433,129.062675 C129.595631,129.441609 129.996529,129.95573 129.725152,130.457562 C129.634693,130.621425 129.441439,130.676729 129.494892,130.908186 C129.626469,131.475563 129.394154,131.219526 129.15567,131.791 C128.834952,132.567303 128.035211,133.126486 127.27042,133.417344 C125.504412,134.091232 123.541038,133.263722 122.661117,131.639426 C121.758582,129.978261 122.040239,127.886955 122.106027,126.076265 C122.188263,123.714584 122.358902,121.354952 122.375349,118.991223 C122.406187,115.234656 122.634391,111.410494 122.465808,107.643685 C122.432914,105.462254 122.422634,103.282872 122.451417,101.101441 C122.465808,100.009701 122.488423,98.9179614 122.523373,97.8262217 C122.535708,97.4595775 122.856427,96.5153148 122.219101,96.7508684 C120.455148,97.400177 118.837164,99.0982111 117.414489,100.267786 C112.796962,104.057126 108.202051,107.866949 103.465282,111.517006 C101.960372,112.678387 100.638435,113.997487 99.3082751,115.34936 C97.8814882,116.795454 96.1977151,118.001898 94.8572756,119.519682 C93.5970157,120.947342 92.2976939,122.299215 90.9901485,123.681812 C89.6024235,125.146341 88.315437,126.916065 86.7221231,128.161426 C86.0971329,128.620244 85.4988692,129.134365 84.9766734,129.705839 C84.4955954,130.230201 83.2970122,130.336713 82.5938982,130.226105 C81.0149755,129.98031 79.5594061,128.513733 79.7074301,126.860761 C79.8492865,125.310204 81.1568318,124.066891 82.1909439,123.02431 C83.7205253,121.479898 85.2398272,119.937534 86.8537,118.483247 C93.0809875,112.86683 99.5570376,107.516691 106.109156,102.28945 C109.464366,99.6143807 113.045725,97.2506517 116.483171,94.6861901 C118.232733,93.3814281 119.943232,92.027507 121.742135,90.7841938 C122.784471,90.0652433 122.624111,88.5208311 122.558323,87.384029 C122.50487,86.4500079 120.819041,87.7158523 120.448981,88.0906898 C120.12415,88.4225131 118.855667,88.7686744 118.415707,88.8628959 C117.414489,89.0759182 116.207682,89.3708723 115.187961,89.2786992 C114.21347,89.1926709 112.128798,88.4388994 111.781353,87.355353 C111.479137,86.4151869 111.039177,85.4873106 111.088519,84.4734061 C111.135804,83.5107088 111.24271,82.5500599 111.24271,81.5853144 C111.24271,80.7373215 110.965165,79.9139081 110.996004,79.0720601 C111.028898,78.0868316 111.255046,77.1200378 111.296163,76.1307127 C111.372231,74.2339943 111.645664,72.2348613 112.480355,70.5061029 C113.633709,67.392699 115.761554,64.4943658 118.960517,63.2674389 C120.395528,62.7184966 121.999121,62.9622434 121.637285,64.8118511 C121.351516,66.2681867 120.342075,66.9850889 119.593731,68.1464705 C119.560837,68.4987767 119.166106,68.74662 118.9893,69.0210911 C118.750817,69.3897837 118.594569,69.8014904 118.450657,70.2131971 C118.195727,70.9485339 117.805108,71.5548284 117.65914,72.3229379 C117.541954,72.9538118 117.190397,73.5293819 117.124608,74.1643524 C117.042373,74.9959589 117.182173,75.8111792 117.09377,76.6673652 C116.91902,78.3449164 116.032931,81.5914592 117.593351,82.8614003 C118.563731,83.652041 120.132374,83.0498431 120.921835,82.3001683 C121.955947,81.3169881 122.53982,79.8094452 122.607664,78.4022686 C122.733073,76.0262498 123.409461,73.7116799 123.43002,71.3295162 C123.450579,68.9514492 123.732235,66.5733822 123.859701,64.1994117 C123.964551,62.251486 124.560759,60.469472 126.639262,59.9164331 C128.670481,59.3756841 129.891679,60.7337017 129.87112,62.6406615 C129.83617,65.9486531 129.31603,69.2115823 129.110441,72.5298154 C128.822616,77.1814865 128.360041,81.7061636 128.384712,86.3844625 C128.783554,86.7224307 132.39164,84.0063955 132.817209,83.7237312 C135.206151,82.1444981 137.630045,80.6226171 140.074496,79.1314605 C143.805935,77.4067986 147.14881,74.975476 150.822684,73.1402064 C152.666816,72.2000403 154.426657,71.1062524 156.227616,70.086203 C156.739532,69.7973938 160.185202,68.283706 159.11614,67.6507838 C157.701688,66.8109841 157.896997,64.6336496 158.018295,63.2694872 C158.182766,61.4567487 158.073804,59.6481069 158.104642,57.839465 C158.135481,56.1578173 159.817198,50.4123582 156.297516,51.3627657 C155.559452,51.5634983 155.047535,52.0284606 154.498613,52.5343887 C153.996976,53.0013993 153.848952,53.8166195 153.024541,53.9128893 C152.788114,54.4188174 153.121168,54.3594169 152.564022,54.8714899 C152.720269,55.3118727 152.210409,56.3093909 152.103502,56.7784498 C152.031546,57.0979833 152.228912,57.3683579 151.908193,57.5404144 C151.62448,57.6940363 151.626536,57.8046441 151.865019,58.0729703 C152.290588,58.5522707 151.408612,58.4375663 151.542245,58.8820457 C151.770448,59.6358171 151.632704,59.7546181 151.342824,60.4223613 C151.077614,61.030704 151.649151,61.4342175 151.690269,62.0179807 C151.688213,61.9954495 151.192744,61.9319525 151.192744,61.9319525 C151.075558,62.6754825 150.839131,63.8471055 151.087893,64.5742492 C151.166017,64.8036579 151.400388,65.1149983 151.256476,65.3689865 C151.141346,65.575864 150.954261,65.8605766 151.065279,66.1125165 C151.196855,66.4054222 151.486736,66.4914505 151.314041,66.845805 C151.209191,67.0649723 150.909031,67.3640229 150.991267,67.638494 C151.096117,67.9908003 151.013881,68.3123821 151.057055,68.6646883 C151.094061,68.9575941 150.67466,69.1050711 150.612983,69.3733974 C150.469071,69.9981264 150.483462,70.1865693 149.918093,70.682256 C149.531585,71.0222724 149.177973,71.341806 148.713342,71.5773596 C147.786136,72.0464184 146.351125,72.400773 145.477373,71.6265186 C144.332242,70.6085175 144.872941,68.0727319 144.975736,66.7556802 C145.154598,64.4738829 145.201883,62.1941339 145.331404,59.9102883 C145.508211,56.7456771 144.90378,51.7601343 148.411126,50.15837 C149.718671,49.562317 151.266756,49.4803853 152.666816,49.7548565 C153.95997,50.2894607 155.308633,48.6057646 156.022027,47.7741581 C157.508434,46.0392548 161.922428,43.1429698 163.589754,46.3260156 C163.910473,46.9343584 163.970093,47.6369225 164.118117,48.2985208 C164.200353,48.6569719 164.307259,49.0113265 164.467618,49.3431498 C164.243527,49.5111097 163.99682,49.7138906 163.980373,50.0190861 C163.963926,50.3468129 164.669096,52.5794512 164.360712,52.7822321 C163.756281,53.1796007 164.070832,53.595404 164.013267,54.3245959 C163.959814,55.0210152 163.560971,56.2991494 163.988596,56.9238785 C164.229135,57.278233 163.984485,57.3417301 163.906361,57.7390987 C163.826181,58.154902 164.169515,58.6157677 164.151012,59.0520539 C164.118117,59.7648595 164.352489,61.0204625 163.988596,61.6574814 C163.96187,62.1306368 164.605363,62.7041586 164.32165,63.0114024 C164.017379,63.3350325 164.899355,64.0703693 165.117279,64.3714683 C165.908797,65.4714011 168.980295,63.4251574 169.728638,63.0195955 C171.284946,62.1797958 173.114687,60.9999796 174.964987,61.1331186 C176.83379,61.2662576 177.28403,61.7414613 178.040597,63.4517852 C177.958362,64.9511349 176.54391,66.6020583 175.343271,67.3763127 L175.343271,67.3763127 Z M90.6468151,69.2259203 C90.3075934,69.2750794 89.0617247,69.391832 89.0247187,68.8367449 C89.0041598,68.5110664 88.5847585,68.1874363 88.555976,67.7204257 C88.5251377,67.2144976 88.6834411,66.7065212 88.8684711,66.2395106 C89.3762757,64.9716178 90.1636812,64.5988287 91.129949,63.773367 C91.7158773,63.2735838 93.2146203,62.2985968 94.0205288,62.8454907 C94.460489,63.1445414 95.1882737,64.4083375 94.8737227,64.9511349 C94.849052,64.994149 95.1163176,64.5353316 94.8737227,64.9511349 C94.6187925,65.3853728 94.5879541,66.0101019 94.3453592,66.4054222 C93.9341814,67.0731654 93.3770355,67.4520995 92.7808278,67.91911 C92.1496699,68.4127484 91.4671147,69.1091677 90.6468151,69.2259203 L90.6468151,69.2259203 Z M92.1825641,80.3542909 C92.499171,81.1981872 91.8042805,82.5357218 91.8207276,83.4082942 C91.8392306,84.3668949 91.6007475,85.4422482 91.500009,86.4069937 C91.3745997,87.6052446 91.1731226,88.7543364 91.0086515,89.9607804 C90.8544598,91.0996308 90.7927832,92.2384811 90.6570945,93.3773315 C90.5296294,94.4383467 90.6221444,95.6099698 90.3569347,96.6382124 C90.1821842,97.3182453 89.9251981,98.0679202 89.9437011,98.7766292 C89.9519246,99.1289354 90.1677929,98.7602429 90.3425435,98.852416 C90.5728031,98.9732653 90.0711662,99.8519825 89.9108068,99.2579778 C89.7874535,99.3665373 89.8552978,99.6512499 89.6949385,99.7188435 C89.3474933,99.8601757 89.2673136,99.7823406 88.9424832,100.144888 C88.4552375,100.691782 87.4067341,101.279642 86.7344585,101.5705 C84.4503659,102.559825 84.4997072,99.5549802 84.4441982,98.2829908 C84.3249566,95.4215269 84.9787293,92.3859581 84.8944379,89.5900395 C84.8718231,88.8547027 85.0568531,88.0865932 85.1555358,87.3574012 C85.2480508,86.6732717 85.1432004,86.114088 85.1432004,85.4729726 C85.1452563,84.0289267 85.2973921,82.0072625 85.873041,80.712742 C86.6542788,78.9122933 87.7767941,77.339205 89.7401681,76.743152 C90.3857172,76.5444677 91.2923642,76.5219365 91.6870949,77.1835348 C91.8803484,77.5030684 91.8926837,78.9696454 92.3778735,78.9614523 C92.3819853,79.0065147 92.3573146,79.0269976 92.3244204,79.0310942 C92.2092906,79.1007361 91.9173544,79.1027844 91.8947396,79.3547243 C91.8639013,79.7275135 92.0592108,80.0224675 92.1825641,80.3542909 L92.1825641,80.3542909 Z M79.394935,85.0756039 C79.265414,85.4914072 79.0413221,85.8805827 78.9919808,86.3168689 C78.9364718,86.7777346 79.0824399,87.1157028 78.913857,87.5765685 C78.7576094,87.9985166 78.6650944,88.3221468 78.6280884,88.7707227 C78.5581882,89.6863093 78.2333578,90.5547851 78.1141162,91.4621784 C78.0729984,91.7755671 77.9311421,92.3347508 78.1223398,92.6297049 C78.2929786,92.8918863 78.5191263,93.037315 78.4533379,93.3998627 C78.2683079,94.4137672 77.7091061,95.2617601 77.5117408,96.2592783 C77.4027787,96.8061723 77.0368304,98.2235904 77.3164313,98.7233736 C77.5898645,99.2067705 77.0779482,100.331283 76.878527,100.980591 C76.4221196,102.473796 76.1630776,104.300873 76.0705626,105.85143 C75.953377,107.81779 75.490802,109.683784 75.3510015,111.637855 C75.1680274,114.169544 74.9686062,116.965462 74.3867896,119.441847 C74.1483065,120.468042 73.7474082,121.674486 72.7852521,122.245959 C71.843655,122.805143 70.3695827,122.811288 69.6191832,121.959198 C68.5172267,120.705644 68.4103205,118.559033 68.0772665,117.012573 C67.6393622,114.980667 67.5489031,112.889361 67.0719368,110.8636 C66.8971863,110.124167 67.0369867,108.862419 66.5291822,108.268414 C66.3585434,108.06973 66.1899605,106.992328 66.161178,106.707616 C66.1036132,106.166867 66.2557489,105.701905 66.1467868,105.130431 C66.0419365,104.593779 65.8918566,104.077609 65.7602797,103.551198 C65.3120959,101.754846 65.0407186,99.714747 64.8454091,97.8692359 C64.6521556,96.0564974 64.2204189,94.3011112 64.0600596,92.4678898 C63.8770855,90.3970666 63.3775045,88.3876921 63.1513567,86.3209655 C62.960159,84.577869 63.0095003,82.6647642 62.3392805,81.0158892 C62.1501388,80.5488786 61.9260469,80.0880129 61.9219351,79.5718433 C61.9219351,79.4079799 62.1419152,78.8672308 62.0637914,78.7136089 C61.8952085,78.3858822 61.5806575,78.8487962 61.5436515,78.3531096 C61.4305776,76.8086974 59.8598785,78.7709611 60.0017348,79.4100282 C59.5165451,79.008563 59.6090601,79.9118598 59.6152277,80.1494616 C59.6255072,80.5591201 59.1177026,81.0834828 58.9511756,81.4726583 C58.3097383,82.9556217 58.073311,84.641366 57.4647679,86.1755368 C56.9466839,87.4823471 56.4039292,88.9304895 55.2587991,89.8255931 C54.0972219,90.7329865 52.3414927,90.4544188 51.6260434,89.1086909 C50.8694763,87.6871763 51.9200355,85.9891422 52.3641075,84.641366 C52.9006945,83.0273119 53.2707545,81.2903603 54.0314334,79.7623345 C54.7921123,78.2343086 55.2032901,76.4379565 55.7481007,74.8239024 C56.7020331,71.9931629 57.6868039,69.1337472 58.5091595,66.2620418 C59.1958264,63.8593953 60.6904576,60.2441599 63.8400795,62.0138842 C65.3429343,62.8557322 65.4971259,64.5435248 65.7705592,66.0940819 C66.0851102,67.8965788 66.3729346,69.6990758 66.6915974,71.4995245 C67.1027752,73.8243359 67.5160088,75.9402216 67.7421566,78.3080471 C67.8449511,79.373159 68.2047316,80.3850152 68.5377856,81.3948232 C68.8071071,82.2100434 68.8585043,83.1829821 69.1812789,83.9613331 C69.3868678,84.4570198 69.2779056,85.0653625 69.4177061,85.6491257 C69.6274068,86.5176015 69.6746922,87.3819807 69.9584049,88.2340702 C70.2606205,89.151705 69.6767481,90.0037945 69.9810197,90.841546 C70.2380058,91.5441101 70.7231956,92.5662078 70.5546127,93.3220276 C70.3963092,94.0409781 70.7252514,94.6595623 70.6944131,95.4051406 C70.6697424,96.0544491 71.1508205,96.4333832 70.9781258,97.1564302 C70.82599,97.8303183 71.6339543,97.9511675 71.8169285,97.1973961 C71.9505612,96.6423089 71.973176,96.060594 71.9957908,95.4932171 C72.0595234,93.8607284 72.324733,92.2159499 72.639284,90.6121373 C73.4945338,86.2513236 74.0804622,81.8474957 74.9583267,77.4887303 C76.6420998,69.1419404 79.1235577,61.045042 81.2411233,52.8293428 C81.7057542,51.0227492 82.5363333,49.3329083 83.1017027,47.548846 C83.7698666,45.4411535 84.5839986,43.3785234 85.3529011,41.3077002 C86.9585503,36.9776109 88.5271936,32.6413767 90.1945195,28.3379152 C91.333482,25.3965678 92.906237,21.3860121 96.6376754,21.1443136 C99.8160796,20.9374361 102.283146,24.4359189 101.341549,27.3772662 C101.092787,28.1556172 100.515082,28.708656 100.101848,29.3845924 C99.9867184,29.5689387 100.027836,29.8249752 99.9723272,30.0318527 C99.8551415,30.4640423 99.6351614,30.3268067 99.3391134,30.5807949 C98.1138036,31.633617 96.8494319,32.7929503 95.9653997,34.1632577 C94.0780937,37.0882187 93.0008079,40.345003 91.4650589,43.4768414 C91.0209868,44.3801382 90.9798691,45.3981394 90.5522442,46.3280639 C90.2109666,47.0654491 89.6887708,47.7516269 89.4749584,48.538171 C88.9959363,50.3222334 88.1016246,51.9895431 87.5876524,53.7592674 C87.2751572,54.8366689 87.2936602,55.924312 86.7447379,56.9423131 C86.5535402,57.2679916 86.7303467,57.6510222 86.6008257,57.9910386 C86.3746779,58.1999644 86.2533804,58.5870916 86.1670331,58.8697559 C85.6551168,60.5595968 84.9992882,62.2658241 84.892382,64.0416933 C84.8286494,65.0863222 84.6559548,65.5041738 84.1049765,66.3357803 C83.6979105,66.9482196 83.6691281,67.7900676 83.3648565,68.4557625 C82.5671716,70.2111488 82.0593671,72.120157 81.5289477,73.9697646 C81.2596263,74.9078824 81.1444965,75.9156421 80.9697459,76.8742427 C80.8176101,77.6997044 80.5112827,78.4596207 80.505115,79.3096619 C80.4968915,80.1986207 80.2481289,80.6144239 79.9418015,81.4030164 C79.6663124,82.1137737 79.9191867,82.8839315 79.7259331,83.602882 C79.8081687,83.5025157 79.8431188,83.5107088 79.6375299,83.918319 C79.2551346,84.2460457 79.5203442,84.6720904 79.394935,85.0756039 L79.394935,85.0756039 Z M104.538456,70.5962277 C104.497339,70.3258532 106.485383,69.6847378 106.746481,69.6109992 C107.132988,69.5024398 107.644905,69.57413 108.0273,69.6601582 C108.890773,69.8526977 108.76742,70.2009073 109.014127,70.8686505 C109.285504,71.5998908 109.349237,71.7350781 109.186821,72.5462017 C109.049077,73.2282829 108.855823,73.8407222 108.206162,74.2012216 C107.445483,74.8095644 106.682749,75.4322451 105.926182,76.0323947 C105.173726,76.630496 104.571351,77.3494465 104.102608,78.1933428 C103.835342,78.6767397 103.878516,79.2113439 103.672927,79.6660647 C103.163067,80.790577 103.230911,81.9622001 103.084943,83.1338231 C102.762168,85.6921398 103.02121,88.295519 102.686101,90.8333528 C102.422947,92.8222443 100.235481,95.3498367 97.9883944,95.1921182 C96.1894916,95.0671724 96.181268,92.9000794 96.218274,91.5563999 C96.2388329,90.7657592 96.3971364,90.0263257 96.4793719,89.2438782 C96.5657193,88.4327546 96.3621863,87.8653777 96.5472163,87.0419643 C96.662346,86.5298913 96.4053599,85.9604661 96.5122661,85.3726063 C96.5677751,85.055121 96.5780546,84.8195674 96.643843,84.5246134 C96.8679349,83.5291435 96.9090527,82.4742731 96.9871765,81.4583202 C97.1639829,79.1703781 96.921388,76.7615867 97.5504901,74.5391898 C97.8362586,73.5334784 98.6318876,72.8370592 99.4521873,72.2246198 C99.8571974,71.952197 101.022886,71.9112312 101.271649,71.5425386 C102.29137,71.8088166 103.76133,70.8502159 104.707039,70.6290004 C104.682369,70.5224892 104.624804,70.5122477 104.538456,70.5962277 L104.538456,70.5962277 Z M133.8616,72.5462017 C133.894494,71.1062524 134.258387,69.7338968 134.295393,68.2755128 C134.357069,65.8503351 134.801141,63.6852904 134.97178,61.3379478 C135.068407,60.0024614 135.210263,58.2655098 135.938048,57.1348526 C136.560982,56.1639622 136.980384,55.2504239 138.11729,54.7649787 C138.581921,54.5662944 139.229526,54.5376183 139.729107,54.5867773 C140.738549,54.6891919 140.074496,55.4081424 140.500065,55.8731047 C140.547351,55.7993662 140.609028,55.7829799 140.687151,55.8239457 C140.689207,55.9693744 140.691263,56.1127549 140.691263,56.2581836 C141.190844,56.303246 140.652201,56.9505063 140.674816,57.3110057 C140.763219,58.1262259 140.68304,58.8922871 140.296532,59.6644932 C140.393159,59.6890727 140.493898,59.6972659 140.594636,59.6870244 C140.596692,59.7136522 140.520624,59.9328195 140.506233,59.9512541 C140.218409,60.139697 140.26775,60.2134355 140.304756,60.7746675 C140.327371,61.0880562 140.508289,61.7455579 140.269806,61.9954495 C140.228688,62.0384637 140.220465,62.9110361 140.249247,63.0523682 C140.292421,63.2633423 140.218409,64.6234082 140.238968,64.650036 C140.298588,64.6295531 140.345874,64.5947321 140.380824,64.5435248 C140.325315,64.5271385 140.463059,66.3173457 140.333538,66.4648227 C140.144397,66.6778451 139.910025,66.9093021 139.965534,67.2288356 C139.988149,67.3640229 140.446612,68.3123821 140.308868,68.3799757 C140.175235,68.4557625 140.072441,68.0952632 140.010764,68.0952632 C139.809287,68.0952632 140.360265,68.8613244 140.31298,68.9268697 C140.206073,69.0722984 139.901802,68.416845 139.776393,68.9657873 C139.657151,69.49015 139.741442,70.0759615 139.774337,70.6064692 C139.805175,71.0857695 139.753778,71.5036211 139.735275,71.9829214 C139.700325,72.7694655 140.000484,73.7567423 139.63248,74.4961757 C138.789566,76.1962581 134.994395,78.8569894 133.740303,76.2966244 C133.882159,76.5997716 134.114474,77.1056997 133.717688,76.2618034 C133.625173,76.0569742 133.649844,76.1081815 133.709464,76.2290307 C133.228386,75.1270496 133.832818,73.6891486 133.8616,72.5462017 L133.8616,72.5462017 Z M140.483618,43.3969581 C141.213459,43.3006883 141.813778,43.1818874 142.549787,43.284302 C143.526334,43.4194893 143.573619,44.8287142 143.306354,45.5456164 C142.874617,46.7069979 141.499227,48.2596033 140.442501,48.9109602 C139.965534,49.2059142 139.443339,48.9765055 138.908807,49.0051816 C138.084396,49.050244 137.586871,48.1756233 137.321661,47.528363 C137.654715,48.341535 136.762459,46.2010698 137.321661,47.528363 C136.704895,46.0720274 139.079446,43.5382902 140.483618,43.3969581 L140.483618,43.3969581 Z" id="Fill-5" fill-opacity="0.896484375" fill="#FFFFFF" sketch:type="MSShapeGroup" mask="url(#mask-3)"></path>
                    </g>
                </g>
            </g>
        </g>
    </g>
</svg>