<?xml version="1.0" encoding="UTF-8" standalone="no"?>
<svg width="1080px" height="702px" viewBox="0 0 1080 702" version="1.1" xmlns="http://www.w3.org/2000/svg" xmlns:xlink="http://www.w3.org/1999/xlink" xmlns:sketch="http://www.bohemiancoding.com/sketch/ns">
    <!-- Generator: Sketch 3.5.2 (25235) - http://www.bohemiancoding.com/sketch -->
    <title>Group 2</title>
    <desc>Created with Sketch.</desc>
    <defs>
        <linearGradient x1="50%" y1="100%" x2="50%" y2="0%" id="linearGradient-1">
            <stop stop-color="#383A43" offset="0%"></stop>
            <stop stop-color="#191A1E" offset="100%"></stop>
        </linearGradient>
        <rect id="path-2" x="0" y="0" width="1080" height="702"></rect>
        <linearGradient x1="50%" y1="95.1488294%" x2="50%" y2="16.3908259%" id="linearGradient-4">
            <stop stop-color="#383A43" offset="0%"></stop>
            <stop stop-color="#191A1E" offset="100%"></stop>
        </linearGradient>
    </defs>
    <g id="sketch-pad" stroke="none" stroke-width="1" fill="none" fill-rule="evenodd" sketch:type="MSPage">
        <g id="Group-2" sketch:type="MSLayerGroup">
            <mask id="mask-3" sketch:name="Mask" fill="white">
                <use xlink:href="#path-2"></use>
            </mask>
            <use id="Mask" fill="url(#linearGradient-1)" sketch:type="MSShapeGroup" transform="translate(540.000000, 351.000000) rotate(-180.000000) translate(-540.000000, -351.000000) " xlink:href="#path-2"></use>
            <g mask="url(#mask-3)" sketch:type="MSShapeGroup">
                <g transform="translate(-32.906250, -322.434144)">
                    <rect id="Rectangle-21-Copy" fill="url(#linearGradient-4)" transform="translate(573.328125, 724.389486) rotate(-180.000000) translate(-573.328125, -724.389486) " x="33.328125" y="278.434144" width="1080" height="891.910684"></rect>
                    <path d="M741.065654,561.415892 C756.743232,545.74455 763.424731,539.282259 767.118939,535.726289 C768.635388,534.256032 769.661557,533.36704 770.596511,532.341279 C776.878944,526.152524 783.24119,522.995461 789.877081,522.995461 C797.185683,522.995461 804.756528,526.870557 812.464196,534.518171 C827.161212,549.17515 827.822521,563.239466 814.733169,576.414791 C813.798215,577.349373 812.772046,578.329544 811.346812,579.84539 C807.378959,583.891445 800.081759,591.504868 781.063432,610.51563 C774.427541,617.148882 768.0995,622.403055 762.26174,626.186972 C792.636335,718.881533 826.762147,826.130496 843.237856,877.86302 C848.539728,894.343572 851.83487,904.851919 852.587394,906.892043 C860.876557,931.954792 841.231126,958.852513 832.371869,969.224092 C827.560278,974.831583 820.525321,978.034235 813.216719,978.034235 C812.053728,978.034235 810.902139,978.034235 809.69354,977.863275 C801.278956,976.700746 793.662504,970.956487 790.184932,963.297475 C779.102309,938.998348 677.602818,733.527114 666.200943,710.641256 C657.774957,693.955552 624.196436,649.870643 610.787831,632.512495 C604.870257,638.119986 598.679039,643.909834 596.763524,645.870177 C550.346491,692.747434 481.182717,756.367382 432.280076,797.067281 C429.247177,799.688669 424.618016,802.9825 418.917078,806.857595 C422.656893,820.078509 432.052038,856.002923 446.885877,913.84442 C448.311112,919.360732 446.395597,925.059402 441.983071,928.58118 L424.800446,942.337768 C422.257827,944.423481 419.145116,945.403653 415.929787,945.403653 C414.778197,945.403653 413.615206,945.266885 412.463617,945.050335 C409.567541,944.423481 406.808287,942.736675 404.664734,940.240658 C403.957818,939.306076 403.467537,938.633633 402.977257,937.79023 C397.093889,927.019744 351.178539,856.493008 350.859286,855.877552 C349.434052,853.244767 348.453491,851.330013 347.518537,849.688797 C345.785452,850.48661 344.052367,851.330013 342.30788,852.310185 C336.606942,855.250698 332.285632,857.473179 328.146751,859.57029 C304.54487,871.811032 289.665423,879.470044 280.714951,879.470044 C277.773267,879.470044 275.413079,878.581052 273.679994,876.848656 L269.130646,872.255529 C261.913259,865.041013 270.0656,849.28989 286.370281,817.764849 C288.502432,813.627615 290.737199,809.308023 293.097387,804.760485 C294.203369,802.538004 295.275146,800.440893 296.301314,798.35518 C294.477014,797.420598 292.515892,796.303659 290.246919,795.152528 C289.528601,794.742224 218.848377,748.845138 208.734914,743.192058 C207.275474,742.439833 206.511549,741.904158 205.759025,741.322894 C202.726126,738.336791 201.392107,735.931952 200.765004,733.264975 C199.693227,729.036562 200.719396,724.580202 203.569865,721.024233 L217.286321,703.928224 C220.091182,700.497624 224.150249,698.582871 228.425952,698.582871 C229.623149,698.582871 230.877356,698.765229 232.074552,699.072957 C290.064489,713.900895 326.014601,723.337892 339.195168,727.03063 C343.026198,721.331961 346.32134,716.704641 348.898164,713.672949 C389.614259,664.78976 453.213918,595.6535 500.155437,549.254931 C501.842915,547.522535 505.901982,543.339712 513.518435,535.236204 C489.916554,516.932077 451.344011,487.823272 435.34718,479.845134 C407.378381,465.963175 183.171911,356.263784 182.510602,355.910466 C174.848542,352.434278 169.147604,344.820855 167.984613,336.409618 C166.787416,327.816025 170.036951,319.313609 176.672842,313.649132 C185.315463,306.354835 205.268744,291.526896 226.202587,291.526896 C230.432682,291.526896 234.708386,292.15375 238.938481,293.624006 C240.899604,294.193873 251.001665,297.362334 266.325785,302.2176 C316.163381,317.752174 432.234468,354.075494 520.199934,383.104518 C523.985356,377.405848 529.150406,371.308272 535.478446,364.982748 C554.542381,345.926397 562.067619,338.6321 566.115284,334.711415 C567.631734,333.332337 568.657902,332.260987 569.638464,331.280816 C575.829682,325.13765 582.283143,322.071765 588.873427,322.071765 C596.227636,322.071765 603.752874,325.855682 611.460541,333.640065 C626.066343,348.331235 626.864474,362.36136 613.775122,375.491095 C612.840168,376.425677 611.813999,377.542616 610.343157,378.967284 C606.819978,382.614432 600.457732,389.247684 585.133612,404.565708 L624.903352,417.695443 C673.805994,366.77213 778.121748,259.739717 812.327373,229.730522 C852.633001,194.387373 901.626858,168.298863 936.140334,168.298863 C948.613985,168.298863 959.263336,171.672475 966.879789,179.331487 C995.737934,208.052783 964.645021,279.012617 916.506305,333.913601 C886.975449,367.524355 779.501375,472.15193 728.238545,521.251668 C732.069575,533.36704 736.345278,546.895682 741.065654,561.415892 Z" id="Airplane" fill="#3F4043" transform="translate(572.865321, 573.166549) rotate(-45.000000) translate(-572.865321, -573.166549) "></path>
                </g>
            </g>
        </g>
    </g>
</svg>