<?xml version="1.0" encoding="UTF-8" standalone="no"?>
<svg width="742px" height="356px" viewBox="0 0 742 356" version="1.1" xmlns="http://www.w3.org/2000/svg" xmlns:xlink="http://www.w3.org/1999/xlink" xmlns:sketch="http://www.bohemiancoding.com/sketch/ns">
    <!-- Generator: Sketch 3.5.1 (25234) - http://www.bohemiancoding.com/sketch -->
    <title>Box</title>
    <desc>Created with Sketch.</desc>
    <defs></defs>
    <g id="Companionship" stroke="none" stroke-width="1" fill="none" fill-rule="evenodd" sketch:type="MSPage">
        <g id="Box" sketch:type="MSLayerGroup" transform="translate(0.000000, -2.000000)">
            <g id="Page-1" transform="translate(456.000000, 25.000000)" sketch:type="MSShapeGroup">
                <path d="M285.289061,98.3051725 L266.274586,98.3051725 L266.274586,79.1992459 L285.289061,79.1992459 L285.289061,98.3051725 Z" id="Fill-1" fill="#1B75BB"></path>
                <path d="M266.274586,117.285814 L247.274497,117.285814 L247.274497,98.3051725 L266.274586,98.3051725 L266.274586,117.285814 Z" id="Fill-3" fill="#1B75BB"></path>
                <path d="M266.274586,98.3051725 L247.274497,98.3051725 L247.274497,79.1992459 L266.274586,79.1992459 L266.274586,98.3051725 Z" id="Fill-4" fill="#27A9E1"></path>
                <path d="M266.274586,79.1992459 L247.274497,79.1992459 L247.274497,60.1029566 L266.274586,60.1029566 L266.274586,79.1992459 Z" id="Fill-5" fill="#27A9E1"></path>
                <path d="M247.274497,250.873104 L228.260022,250.873104 L228.260022,231.767177 L247.274497,231.767177 L247.274497,250.873104 Z" id="Fill-6" fill="#E3D0B9"></path>
                <path d="M247.274497,231.771996 L228.260022,231.771996 L228.260022,212.796173 L247.274497,212.796173 L247.274497,231.771996 Z" id="Fill-7" fill="#E3D0B9"></path>
                <path d="M247.274497,212.791354 L228.260022,212.791354 L228.260022,193.685428 L247.274497,193.685428 L247.274497,212.791354 Z" id="Fill-8" fill="#E3D0B9"></path>
                <path d="M247.274497,193.685428 L228.260022,193.685428 L228.260022,174.579501 L247.274497,174.579501 L247.274497,193.685428 Z" id="Fill-9" fill="#E6E7E7"></path>
                <path d="M247.274497,155.492849 L228.260022,155.492849 L228.260022,136.386922 L247.274497,136.386922 L247.274497,155.492849 Z" id="Fill-10" fill="#221F20"></path>
                <path d="M247.274497,136.386922 L228.260022,136.386922 L228.260022,117.290633 L247.274497,117.290633 L247.274497,136.386922 Z" id="Fill-11" fill="#221F20"></path>
                <path d="M247.274497,117.285814 L228.260022,117.285814 L228.260022,98.3051725 L247.274497,98.3051725 L247.274497,117.285814 Z" id="Fill-12" fill="#C3996B"></path>
                <path d="M247.274497,98.3051725 L228.260022,98.3051725 L228.260022,79.1992459 L247.274497,79.1992459 L247.274497,98.3051725 Z" id="Fill-13" fill="#1B75BB"></path>
                <path d="M247.274497,79.1992459 L228.260022,79.1992459 L228.260022,60.1029566 L247.274497,60.1029566 L247.274497,79.1992459 Z" id="Fill-14" fill="#27A9E1"></path>
                <path d="M247.274497,60.1029566 L228.260022,60.1029566 L228.260022,40.9970299 L247.274497,40.9970299 L247.274497,60.1029566 Z" id="Fill-15" fill="#27A9E1"></path>
                <path d="M228.264818,308.166791 L209.370232,308.166791 L209.370232,289.084957 L228.264818,289.084957 L228.264818,308.166791 Z" id="Fill-16" fill="#A87B4F"></path>
                <path d="M228.264818,289.084957 L209.370232,289.084957 L209.370232,269.979031 L228.264818,269.979031 L228.264818,289.084957 Z" id="Fill-17" fill="#91268F"></path>
                <path d="M228.264818,269.979031 L209.370232,269.979031 L209.370232,250.873104 L228.264818,250.873104 L228.264818,269.979031 Z" id="Fill-18" fill="#E3D0B9"></path>
                <path d="M228.264818,250.873104 L209.370232,250.873104 L209.370232,231.767177 L228.264818,231.767177 L228.264818,250.873104 Z" id="Fill-19" fill="#E6E7E7"></path>
                <path d="M228.264818,231.771996 L209.370232,231.771996 L209.370232,212.796173 L228.264818,212.796173 L228.264818,231.771996 Z" id="Fill-20" fill="#E6E7E7"></path>
                <path d="M228.264818,212.791354 L209.370232,212.791354 L209.370232,193.685428 L228.264818,193.685428 L228.264818,212.791354 Z" id="Fill-21" fill="#E6E7E7"></path>
                <path d="M228.264818,193.685428 L209.370232,193.685428 L209.370232,174.579501 L228.264818,174.579501 L228.264818,193.685428 Z" id="Fill-22" fill="#E6E7E7"></path>
                <path d="M228.264818,174.579501 L209.370232,174.579501 L209.370232,155.48803 L228.264818,155.48803 L228.264818,174.579501 Z" id="Fill-23" fill="#221F20"></path>
                <path d="M228.264818,155.492849 L209.370232,155.492849 L209.370232,136.386922 L228.264818,136.386922 L228.264818,155.492849 Z" id="Fill-24" fill="#221F20"></path>
                <path d="M228.264818,136.386922 L209.370232,136.386922 L209.370232,117.290633 L228.264818,117.290633 L228.264818,136.386922 Z" id="Fill-25" fill="#E3D0B9"></path>
                <path d="M228.264818,117.285814 L209.370232,117.285814 L209.370232,98.3051725 L228.264818,98.3051725 L228.264818,117.285814 Z" id="Fill-26" fill="#E3D0B9"></path>
                <path d="M228.264818,98.3051725 L209.370232,98.3051725 L209.370232,79.1992459 L228.264818,79.1992459 L228.264818,98.3051725 Z" id="Fill-27" fill="#E3D0B9"></path>
                <path d="M228.264818,79.1992459 L209.370232,79.1992459 L209.370232,60.1029566 L228.264818,60.1029566 L228.264818,79.1992459 Z" id="Fill-28" fill="#1B75BB"></path>
                <path d="M228.264818,60.1029566 L209.370232,60.1029566 L209.370232,40.9970299 L228.264818,40.9970299 L228.264818,60.1029566 Z" id="Fill-29" fill="#1B75BB"></path>
                <path d="M228.264818,40.9970299 L209.370232,40.9970299 L209.370232,21.9007406 L228.264818,21.9007406 L228.264818,40.9970299 Z" id="Fill-30" fill="#27A9E1"></path>
                <path d="M209.365436,308.166791 L190.355757,308.166791 L190.355757,289.084957 L209.365436,289.084957 L209.365436,308.166791 Z" id="Fill-31" fill="#A87B4F"></path>
                <path d="M209.365436,289.084957 L190.355757,289.084957 L190.355757,269.979031 L209.365436,269.979031 L209.365436,289.084957 Z" id="Fill-32" fill="#652C90"></path>
                <path d="M209.365436,269.979031 L190.355757,269.979031 L190.355757,250.873104 L209.365436,250.873104 L209.365436,269.979031 Z" id="Fill-33" fill="#91268F"></path>
                <path d="M209.365436,250.873104 L190.355757,250.873104 L190.355757,231.767177 L209.365436,231.767177 L209.365436,250.873104 Z" id="Fill-34" fill="#E6E7E7"></path>
                <path d="M209.365436,231.771996 L190.355757,231.771996 L190.355757,212.796173 L209.365436,212.796173 L209.365436,231.771996 Z" id="Fill-35" fill="#F0F1F1"></path>
                <path d="M209.365436,212.791354 L190.355757,212.791354 L190.355757,193.685428 L209.365436,193.685428 L209.365436,212.791354 Z" id="Fill-36" fill="#E6E7E7"></path>
                <path d="M209.365436,193.685428 L190.355757,193.685428 L190.355757,174.579501 L209.365436,174.579501 L209.365436,193.685428 Z" id="Fill-37" fill="#E6E7E7"></path>
                <path d="M209.365436,174.579501 L190.355757,174.579501 L190.355757,155.48803 L209.365436,155.48803 L209.365436,174.579501 Z" id="Fill-38" fill="#221F20"></path>
                <path d="M209.365436,155.492849 L190.355757,155.492849 L190.355757,136.386922 L209.365436,136.386922 L209.365436,155.492849 Z" id="Fill-39" fill="#221F20"></path>
                <path d="M209.365436,136.386922 L190.355757,136.386922 L190.355757,117.290633 L209.365436,117.290633 L209.365436,136.386922 Z" id="Fill-40" fill="#EFE4D8"></path>
                <path d="M209.365436,117.285814 L190.355757,117.285814 L190.355757,98.3051725 L209.365436,98.3051725 L209.365436,117.285814 Z" id="Fill-41" fill="#EFE4D8"></path>
                <path d="M209.365436,98.3051725 L190.355757,98.3051725 L190.355757,79.1992459 L209.365436,79.1992459 L209.365436,98.3051725 Z" id="Fill-42" fill="#EFE4D8"></path>
                <path d="M209.365436,79.1992459 L190.355757,79.1992459 L190.355757,60.1029566 L209.365436,60.1029566 L209.365436,79.1992459 Z" id="Fill-43" fill="#221F20"></path>
                <path d="M209.365436,60.1029566 L190.355757,60.1029566 L190.355757,40.9970299 L209.365436,40.9970299 L209.365436,60.1029566 Z" id="Fill-44" fill="#27A9E1"></path>
                <path d="M209.365436,40.9970299 L190.355757,40.9970299 L190.355757,21.9007406 L209.365436,21.9007406 L209.365436,40.9970299 Z" id="Fill-45" fill="#27A9E1"></path>
                <path d="M209.365436,21.9007406 L190.355757,21.9007406 L190.355757,2.80445127 L209.365436,2.80445127 L209.365436,21.9007406 Z" id="Fill-46" fill="#27A9E1"></path>
                <path d="M190.355757,269.979031 L171.341282,269.979031 L171.341282,250.873104 L190.355757,250.873104 L190.355757,269.979031 Z" id="Fill-47" fill="#652C90"></path>
                <path d="M190.355757,250.873104 L171.341282,250.873104 L171.341282,231.767177 L190.355757,231.767177 L190.355757,250.873104 Z" id="Fill-48" fill="#E6E7E7"></path>
                <path d="M190.355757,231.771996 L171.341282,231.771996 L171.341282,212.796173 L190.355757,212.796173 L190.355757,231.771996 Z" id="Fill-49" fill="#E6E7E7"></path>
                <path d="M190.355757,212.791354 L171.341282,212.791354 L171.341282,193.685428 L190.355757,193.685428 L190.355757,212.791354 Z" id="Fill-50" fill="#E6E7E7"></path>
                <path d="M190.355757,193.685428 L171.341282,193.685428 L171.341282,174.579501 L190.355757,174.579501 L190.355757,193.685428 Z" id="Fill-51" fill="#221F20"></path>
                <path d="M190.355757,174.579501 L171.341282,174.579501 L171.341282,155.48803 L190.355757,155.48803 L190.355757,174.579501 Z" id="Fill-52" fill="#221F20"></path>
                <path d="M190.355757,155.492849 L171.341282,155.492849 L171.341282,136.386922 L190.355757,136.386922 L190.355757,155.492849 Z" id="Fill-53" fill="#221F20"></path>
                <path d="M190.355757,136.386922 L171.341282,136.386922 L171.341282,117.290633 L190.355757,117.290633 L190.355757,136.386922 Z" id="Fill-54" fill="#221F20"></path>
                <path d="M190.355757,117.285814 L171.341282,117.285814 L171.341282,98.3051725 L190.355757,98.3051725 L190.355757,117.285814 Z" id="Fill-55" fill="#EFE4D8"></path>
                <path d="M190.355757,98.3051725 L171.341282,98.3051725 L171.341282,79.1992459 L190.355757,79.1992459 L190.355757,98.3051725 Z" id="Fill-56" fill="#404041"></path>
                <path d="M190.355757,79.1992459 L171.341282,79.1992459 L171.341282,60.1029566 L190.355757,60.1029566 L190.355757,79.1992459 Z" id="Fill-57" fill="#221F20"></path>
                <path d="M190.355757,60.1029566 L171.341282,60.1029566 L171.341282,40.9970299 L190.355757,40.9970299 L190.355757,60.1029566 Z" id="Fill-58" fill="#1B75BB"></path>
                <path d="M190.355757,40.9970299 L171.341282,40.9970299 L171.341282,21.9007406 L190.355757,21.9007406 L190.355757,40.9970299 Z" id="Fill-59" fill="#1B75BB"></path>
                <path d="M190.355757,21.9007406 L171.341282,21.9007406 L171.341282,2.80445127 L190.355757,2.80445127 L190.355757,21.9007406 Z" id="Fill-60" fill="#27A9E1"></path>
                <path d="M171.341282,269.979031 L152.345989,269.979031 L152.345989,250.873104 L171.341282,250.873104 L171.341282,269.979031 Z" id="Fill-61" fill="#652C90"></path>
                <path d="M171.341282,250.873104 L152.345989,250.873104 L152.345989,231.767177 L171.341282,231.767177 L171.341282,250.873104 Z" id="Fill-62" fill="#F0F1F1"></path>
                <path d="M171.341282,231.771996 L152.345989,231.771996 L152.345989,212.796173 L171.341282,212.796173 L171.341282,231.771996 Z" id="Fill-63" fill="#E6E7E7"></path>
                <path d="M171.341282,212.791354 L152.345989,212.791354 L152.345989,193.685428 L171.341282,193.685428 L171.341282,212.791354 Z" id="Fill-64" fill="#0A0F0D"></path>
                <path d="M171.341282,193.685428 L152.345989,193.685428 L152.345989,174.579501 L171.341282,174.579501 L171.341282,193.685428 Z" id="Fill-65" fill="#221F20"></path>
                <path d="M171.341282,174.579501 L152.345989,174.579501 L152.345989,155.48803 L171.341282,155.48803 L171.341282,174.579501 Z" id="Fill-66" fill="#221F20"></path>
                <path d="M171.341282,155.492849 L152.345989,155.492849 L152.345989,136.386922 L171.341282,136.386922 L171.341282,155.492849 Z" id="Fill-67" fill="#E3D0B9"></path>
                <path d="M171.341282,136.386922 L152.345989,136.386922 L152.345989,117.290633 L171.341282,117.290633 L171.341282,136.386922 Z" id="Fill-68" fill="#221F20"></path>
                <path d="M171.341282,117.285814 L152.345989,117.285814 L152.345989,98.3051725 L171.341282,98.3051725 L171.341282,117.285814 Z" id="Fill-69" fill="#EFE4D8"></path>
                <path d="M171.341282,98.3051725 L152.345989,98.3051725 L152.345989,79.1992459 L171.341282,79.1992459 L171.341282,98.3051725 Z" id="Fill-70" fill="#EFE4D8"></path>
                <path d="M171.341282,79.1992459 L152.345989,79.1992459 L152.345989,60.1029566 L171.341282,60.1029566 L171.341282,79.1992459 Z" id="Fill-71" fill="#EFE4D8"></path>
                <path d="M171.341282,60.1029566 L152.345989,60.1029566 L152.345989,40.9970299 L171.341282,40.9970299 L171.341282,60.1029566 Z" id="Fill-72" fill="#1B75BB"></path>
                <path d="M171.341282,40.9970299 L152.345989,40.9970299 L152.345989,21.9007406 L171.341282,21.9007406 L171.341282,40.9970299 Z" id="Fill-73" fill="#27A9E1"></path>
                <path d="M171.341282,21.9007406 L152.345989,21.9007406 L152.345989,2.80445127 L171.341282,2.80445127 L171.341282,21.9007406 Z" id="Fill-74" fill="#27A9E1"></path>
                <path d="M152.350785,269.979031 L133.336309,269.979031 L133.336309,250.873104 L152.350785,250.873104 L152.350785,269.979031 Z" id="Fill-75" fill="#652C90"></path>
                <path d="M152.350785,250.873104 L133.336309,250.873104 L133.336309,231.767177 L152.350785,231.767177 L152.350785,250.873104 Z" id="Fill-76" fill="#E6E7E7"></path>
                <path d="M152.350785,231.771996 L133.336309,231.771996 L133.336309,212.796173 L152.350785,212.796173 L152.350785,231.771996 Z" id="Fill-77" fill="#F0F1F1"></path>
                <path d="M152.350785,212.791354 L133.336309,212.791354 L133.336309,193.685428 L152.350785,193.685428 L152.350785,212.791354 Z" id="Fill-78" fill="#E6E7E7"></path>
                <path d="M152.350785,193.685428 L133.336309,193.685428 L133.336309,174.579501 L152.350785,174.579501 L152.350785,193.685428 Z" id="Fill-79" fill="#221F20"></path>
                <path d="M152.350785,174.579501 L133.336309,174.579501 L133.336309,155.48803 L152.350785,155.48803 L152.350785,174.579501 Z" id="Fill-80" fill="#221F20"></path>
                <path d="M152.350785,155.492849 L133.336309,155.492849 L133.336309,136.386922 L152.350785,136.386922 L152.350785,155.492849 Z" id="Fill-81" fill="#E3D0B9"></path>
                <path d="M152.350785,136.386922 L133.336309,136.386922 L133.336309,117.290633 L152.350785,117.290633 L152.350785,136.386922 Z" id="Fill-82" fill="#221F20"></path>
                <path d="M152.350785,117.285814 L133.336309,117.285814 L133.336309,98.3051725 L152.350785,98.3051725 L152.350785,117.285814 Z" id="Fill-83" fill="#EFE4D8"></path>
                <path d="M152.350785,98.3051725 L133.336309,98.3051725 L133.336309,79.1992459 L152.350785,79.1992459 L152.350785,98.3051725 Z" id="Fill-84" fill="#EFE4D8"></path>
                <path d="M152.350785,79.1992459 L133.336309,79.1992459 L133.336309,60.1029566 L152.350785,60.1029566 L152.350785,79.1992459 Z" id="Fill-85" fill="#221F20"></path>
                <path d="M152.350785,60.1029566 L133.336309,60.1029566 L133.336309,40.9970299 L152.350785,40.9970299 L152.350785,60.1029566 Z" id="Fill-86" fill="#1B75BB"></path>
                <path d="M152.350785,40.9970299 L133.336309,40.9970299 L133.336309,21.9007406 L152.350785,21.9007406 L152.350785,40.9970299 Z" id="Fill-87" fill="#27A9E1"></path>
                <path d="M152.350785,21.9007406 L133.336309,21.9007406 L133.336309,2.80445127 L152.350785,2.80445127 L152.350785,21.9007406 Z" id="Fill-88" fill="#27A9E1"></path>
                <path d="M133.336309,308.166791 L114.321834,308.166791 L114.321834,289.084957 L133.336309,289.084957 L133.336309,308.166791 Z" id="Fill-89" fill="#A87B4F"></path>
                <path d="M133.336309,289.084957 L114.321834,289.084957 L114.321834,269.979031 L133.336309,269.979031 L133.336309,289.084957 Z" id="Fill-90" fill="#652C90"></path>
                <path d="M133.336309,269.979031 L114.321834,269.979031 L114.321834,250.873104 L133.336309,250.873104 L133.336309,269.979031 Z" id="Fill-91" fill="#91268F"></path>
                <path d="M133.336309,250.873104 L114.321834,250.873104 L114.321834,231.767177 L133.336309,231.767177 L133.336309,250.873104 Z" id="Fill-92" fill="#F0F1F1"></path>
                <path d="M133.336309,231.771996 L114.321834,231.771996 L114.321834,212.796173 L133.336309,212.796173 L133.336309,231.771996 Z" id="Fill-93" fill="#E6E7E7"></path>
                <path d="M133.336309,212.791354 L114.321834,212.791354 L114.321834,193.685428 L133.336309,193.685428 L133.336309,212.791354 Z" id="Fill-94" fill="#F0F1F1"></path>
                <path d="M133.336309,193.685428 L114.321834,193.685428 L114.321834,174.579501 L133.336309,174.579501 L133.336309,193.685428 Z" id="Fill-95" fill="#E6E7E7"></path>
                <path d="M133.336309,174.579501 L114.321834,174.579501 L114.321834,155.48803 L133.336309,155.48803 L133.336309,174.579501 Z" id="Fill-96" fill="#221F20"></path>
                <path d="M133.336309,155.492849 L114.321834,155.492849 L114.321834,136.386922 L133.336309,136.386922 L133.336309,155.492849 Z" id="Fill-97" fill="#221F20"></path>
                <path d="M133.336309,136.386922 L114.321834,136.386922 L114.321834,117.290633 L133.336309,117.290633 L133.336309,136.386922 Z" id="Fill-98" fill="#221F20"></path>
                <path d="M133.336309,117.285814 L114.321834,117.285814 L114.321834,98.3051725 L133.336309,98.3051725 L133.336309,117.285814 Z" id="Fill-99" fill="#EFE4D8"></path>
                <path d="M133.336309,98.3051725 L114.321834,98.3051725 L114.321834,79.1992459 L133.336309,79.1992459 L133.336309,98.3051725 Z" id="Fill-100" fill="#404041"></path>
                <path d="M133.336309,79.1992459 L114.321834,79.1992459 L114.321834,60.1029566 L133.336309,60.1029566 L133.336309,79.1992459 Z" id="Fill-101" fill="#221F20"></path>
                <path d="M133.336309,60.1029566 L114.321834,60.1029566 L114.321834,40.9970299 L133.336309,40.9970299 L133.336309,60.1029566 Z" id="Fill-102" fill="#27A9E1"></path>
                <path d="M133.336309,40.9970299 L114.321834,40.9970299 L114.321834,21.9007406 L133.336309,21.9007406 L133.336309,40.9970299 Z" id="Fill-103" fill="#27A9E1"></path>
                <path d="M114.321834,308.166791 L95.4368398,308.166791 L95.4368398,289.084957 L114.321834,289.084957 L114.321834,308.166791 Z" id="Fill-104" fill="#A87B4F"></path>
                <path d="M114.321834,289.084957 L95.4368398,289.084957 L95.4368398,269.979031 L114.321834,269.979031 L114.321834,289.084957 Z" id="Fill-105" fill="#652C90"></path>
                <path d="M114.321834,269.979031 L95.4368398,269.979031 L95.4368398,250.873104 L114.321834,250.873104 L114.321834,269.979031 Z" id="Fill-106" fill="#91268F"></path>
                <path d="M114.321834,250.873104 L95.4368398,250.873104 L95.4368398,231.767177 L114.321834,231.767177 L114.321834,250.873104 Z" id="Fill-107" fill="#E6E7E7"></path>
                <path d="M114.321834,231.771996 L95.4368398,231.771996 L95.4368398,212.796173 L114.321834,212.796173 L114.321834,231.771996 Z" id="Fill-108" fill="#E6E7E7"></path>
                <path d="M114.321834,212.791354 L95.4368398,212.791354 L95.4368398,193.685428 L114.321834,193.685428 L114.321834,212.791354 Z" id="Fill-109" fill="#E6E7E7"></path>
                <path d="M114.321834,193.685428 L95.4368398,193.685428 L95.4368398,174.579501 L114.321834,174.579501 L114.321834,193.685428 Z" id="Fill-110" fill="#E6E7E7"></path>
                <path d="M114.321834,174.579501 L95.4368398,174.579501 L95.4368398,155.48803 L114.321834,155.48803 L114.321834,174.579501 Z" id="Fill-111" fill="#221F20"></path>
                <path d="M114.321834,155.492849 L95.4368398,155.492849 L95.4368398,136.386922 L114.321834,136.386922 L114.321834,155.492849 Z" id="Fill-112" fill="#221F20"></path>
                <path d="M114.321834,136.386922 L95.4368398,136.386922 L95.4368398,117.290633 L114.321834,117.290633 L114.321834,136.386922 Z" id="Fill-113" fill="#E3D0B9"></path>
                <path d="M114.321834,117.285814 L95.4368398,117.285814 L95.4368398,98.3051725 L114.321834,98.3051725 L114.321834,117.285814 Z" id="Fill-114" fill="#E3D0B9"></path>
                <path d="M114.321834,98.3051725 L95.4368398,98.3051725 L95.4368398,79.1992459 L114.321834,79.1992459 L114.321834,98.3051725 Z" id="Fill-115" fill="#E3D0B9"></path>
                <path d="M114.321834,79.1992459 L95.4368398,79.1992459 L95.4368398,60.1029566 L114.321834,60.1029566 L114.321834,79.1992459 Z" id="Fill-116" fill="#27A9E1"></path>
                <path d="M114.321834,60.1029566 L95.4368398,60.1029566 L95.4368398,40.9970299 L114.321834,40.9970299 L114.321834,60.1029566 Z" id="Fill-117" fill="#27A9E1"></path>
                <path d="M95.4368398,193.685428 L76.4223646,193.685428 L76.4223646,174.579501 L95.4368398,174.579501 L95.4368398,193.685428 Z" id="Fill-118" fill="#E6E7E7"></path>
                <path d="M95.4368398,155.492849 L76.4223646,155.492849 L76.4223646,136.386922 L95.4368398,136.386922 L95.4368398,155.492849 Z" id="Fill-119" fill="#221F20"></path>
                <path d="M95.4368398,136.386922 L76.4223646,136.386922 L76.4223646,117.290633 L95.4368398,117.290633 L95.4368398,136.386922 Z" id="Fill-120" fill="#00A14B"></path>
                <path d="M95.4368398,117.285814 L76.4223646,117.285814 L76.4223646,98.3051725 L95.4368398,98.3051725 L95.4368398,117.285814 Z" id="Fill-121" fill="#C3996B"></path>
                <path d="M95.4368398,98.3051725 L76.4223646,98.3051725 L76.4223646,79.1992459 L95.4368398,79.1992459 L95.4368398,98.3051725 Z" id="Fill-122" fill="#4B4841"></path>
                <path d="M76.4223646,193.685428 L57.4078895,193.685428 L57.4078895,174.579501 L76.4223646,174.579501 L76.4223646,193.685428 Z" id="Fill-123" fill="#E3D0B9"></path>
                <path d="M76.4223646,136.386922 L57.4078895,136.386922 L57.4078895,117.290633 L76.4223646,117.290633 L76.4223646,136.386922 Z" id="Fill-124" fill="#2AB573"></path>
                <path d="M57.4126851,193.685428 L38.3982099,193.685428 L38.3982099,174.579501 L57.4126851,174.579501 L57.4126851,193.685428 Z" id="Fill-125" fill="#E3D0B9"></path>
                <path d="M57.4126851,174.579501 L38.3982099,174.579501 L38.3982099,155.48803 L57.4126851,155.48803 L57.4126851,174.579501 Z" id="Fill-126" fill="#E3D0B9"></path>
                <path d="M57.4126851,155.492849 L38.3982099,155.492849 L38.3982099,136.386922 L57.4126851,136.386922 L57.4126851,155.492849 Z" id="Fill-127" fill="#2AB573"></path>
                <path d="M57.4126851,136.386922 L38.3982099,136.386922 L38.3982099,117.290633 L57.4126851,117.290633 L57.4126851,136.386922 Z" id="Fill-128" fill="#2AB573"></path>
                <path d="M38.3982099,136.386922 L19.3885304,136.386922 L19.3885304,117.290633 L38.3982099,117.290633 L38.3982099,136.386922 Z" id="Fill-129" fill="#2AB573"></path>
                <path d="M38.3982099,117.285814 L19.3885304,117.285814 L19.3885304,98.3051725 L38.3982099,98.3051725 L38.3982099,117.285814 Z" id="Fill-130" fill="#00A79D"></path>
                <path d="M19.3885304,117.285814 L0.393237569,117.285814 L0.393237569,98.3051725 L19.3885304,98.3051725 L19.3885304,117.285814 Z" id="Fill-131" fill="#FFDD16"></path>
            </g>
            <g id="Page-1" sketch:type="MSShapeGroup">
                <g id="Group-132">
                    <path d="M269.186496,130.283201 L255.047876,130.283201 L255.047876,116.092418 L269.186496,116.092418 L269.186496,130.283201 Z" id="Fill-1" fill="#1B75BB"></path>
                    <path d="M255.047876,144.377351 L240.919953,144.377351 L240.919953,130.279622 L255.047876,130.279622 L255.047876,144.377351 Z" id="Fill-3" fill="#1B75BB"></path>
                    <path d="M255.047876,130.283201 L240.919953,130.283201 L240.919953,116.092418 L255.047876,116.092418 L255.047876,130.283201 Z" id="Fill-4" fill="#27A9E1"></path>
                    <path d="M255.047876,116.092418 L240.919953,116.092418 L240.919953,101.908792 L255.047876,101.908792 L255.047876,116.092418 Z" id="Fill-5" fill="#27A9E1"></path>
                    <path d="M240.919953,243.601884 L226.781332,243.601884 L226.781332,229.411101 L240.919953,229.411101 L240.919953,243.601884 Z" id="Fill-6" fill="#E3D0B9"></path>
                    <path d="M240.919953,229.411101 L226.781332,229.411101 L226.781332,215.313372 L240.919953,215.313372 L240.919953,229.411101 Z" id="Fill-7" fill="#E3D0B9"></path>
                    <path d="M240.919953,215.313372 L226.781332,215.313372 L226.781332,201.122589 L240.919953,201.122589 L240.919953,215.313372 Z" id="Fill-8" fill="#E3D0B9"></path>
                    <path d="M240.919953,201.122589 L226.781332,201.122589 L226.781332,186.931805 L240.919953,186.931805 L240.919953,201.122589 Z" id="Fill-9" fill="#E3D0B9"></path>
                    <path d="M240.919953,172.755338 L226.781332,172.755338 L226.781332,158.564555 L240.919953,158.564555 L240.919953,172.755338 Z" id="Fill-10" fill="#221F20"></path>
                    <path d="M240.919953,158.564555 L226.781332,158.564555 L226.781332,144.38093 L240.919953,144.38093 L240.919953,158.564555 Z" id="Fill-11" fill="#221F20"></path>
                    <path d="M240.919953,144.377351 L226.781332,144.377351 L226.781332,130.279622 L240.919953,130.279622 L240.919953,144.377351 Z" id="Fill-12" fill="#C3996B"></path>
                    <path d="M240.919953,130.283201 L226.781332,130.283201 L226.781332,116.092418 L240.919953,116.092418 L240.919953,130.283201 Z" id="Fill-13" fill="#1B75BB"></path>
                    <path d="M240.919953,116.092418 L226.781332,116.092418 L226.781332,101.908792 L240.919953,101.908792 L240.919953,116.092418 Z" id="Fill-14" fill="#27A9E1"></path>
                    <path d="M240.919953,101.905213 L226.781332,101.905213 L226.781332,87.7144301 L240.919953,87.7144301 L240.919953,101.905213 Z" id="Fill-15" fill="#27A9E1"></path>
                    <path d="M226.781332,286.152759 L212.728292,286.152759 L212.728292,271.979871 L226.781332,271.979871 L226.781332,286.152759 Z" id="Fill-16" fill="#A87B4F"></path>
                    <path d="M226.781332,271.979871 L212.728292,271.979871 L212.728292,257.789088 L226.781332,257.789088 L226.781332,271.979871 Z" id="Fill-17" fill="#91268F"></path>
                    <path d="M226.781332,257.792667 L212.728292,257.792667 L212.728292,243.601884 L226.781332,243.601884 L226.781332,257.792667 Z" id="Fill-18" fill="#E3D0B9"></path>
                    <path d="M226.781332,243.601884 L212.728292,243.601884 L212.728292,229.411101 L226.781332,229.411101 L226.781332,243.601884 Z" id="Fill-19" fill="#E6E7E7"></path>
                    <path d="M226.781332,229.411101 L212.728292,229.411101 L212.728292,215.313372 L226.781332,215.313372 L226.781332,229.411101 Z" id="Fill-20" fill="#E6E7E7"></path>
                    <path d="M226.781332,215.313372 L212.728292,215.313372 L212.728292,201.122589 L226.781332,201.122589 L226.781332,215.313372 Z" id="Fill-21" fill="#E6E7E7"></path>
                    <path d="M226.781332,201.122589 L212.728292,201.122589 L212.728292,186.931805 L226.781332,186.931805 L226.781332,201.122589 Z" id="Fill-22" fill="#E6E7E7"></path>
                    <path d="M226.781332,186.931805 L212.728292,186.931805 L212.728292,172.751759 L226.781332,172.751759 L226.781332,186.931805 Z" id="Fill-23" fill="#221F20"></path>
                    <path d="M226.781332,172.755338 L212.728292,172.755338 L212.728292,158.564555 L226.781332,158.564555 L226.781332,172.755338 Z" id="Fill-24" fill="#221F20"></path>
                    <path d="M226.781332,158.564555 L212.728292,158.564555 L212.728292,144.38093 L226.781332,144.38093 L226.781332,158.564555 Z" id="Fill-25" fill="#E3D0B9"></path>
                    <path d="M226.781332,144.377351 L212.728292,144.377351 L212.728292,130.279622 L226.781332,130.279622 L226.781332,144.377351 Z" id="Fill-26" fill="#E3D0B9"></path>
                    <path d="M226.781332,130.283201 L212.728292,130.283201 L212.728292,116.092418 L226.781332,116.092418 L226.781332,130.283201 Z" id="Fill-27" fill="#E3D0B9"></path>
                    <path d="M226.781332,116.092418 L212.728292,116.092418 L212.728292,101.908792 L226.781332,101.908792 L226.781332,116.092418 Z" id="Fill-28" fill="#1B75BB"></path>
                    <path d="M226.781332,101.905213 L212.728292,101.905213 L212.728292,87.7144301 L226.781332,87.7144301 L226.781332,101.905213 Z" id="Fill-29" fill="#1B75BB"></path>
                    <path d="M226.781332,87.7180091 L212.728292,87.7180091 L212.728292,73.5343839 L226.781332,73.5343839 L226.781332,87.7180091 Z" id="Fill-30" fill="#27A9E1"></path>
                    <path d="M212.731858,286.152759 L198.60037,286.152759 L198.60037,271.979871 L212.731858,271.979871 L212.731858,286.152759 Z" id="Fill-31" fill="#A87B4F"></path>
                    <path d="M212.731858,271.979871 L198.60037,271.979871 L198.60037,257.789088 L212.731858,257.789088 L212.731858,271.979871 Z" id="Fill-32" fill="#652C90"></path>
                    <path d="M212.731858,257.792667 L198.60037,257.792667 L198.60037,243.601884 L212.731858,243.601884 L212.731858,257.792667 Z" id="Fill-33" fill="#91268F"></path>
                    <path d="M212.731858,243.601884 L198.60037,243.601884 L198.60037,229.411101 L212.731858,229.411101 L212.731858,243.601884 Z" id="Fill-34" fill="#E6E7E7"></path>
                    <path d="M212.731858,229.411101 L198.60037,229.411101 L198.60037,215.313372 L212.731858,215.313372 L212.731858,229.411101 Z" id="Fill-35" fill="#F0F1F1"></path>
                    <path d="M212.731858,215.313372 L198.60037,215.313372 L198.60037,201.122589 L212.731858,201.122589 L212.731858,215.313372 Z" id="Fill-36" fill="#E6E7E7"></path>
                    <path d="M212.731858,201.122589 L198.60037,201.122589 L198.60037,186.931805 L212.731858,186.931805 L212.731858,201.122589 Z" id="Fill-37" fill="#221F20"></path>
                    <path d="M212.731858,186.931805 L198.60037,186.931805 L198.60037,172.751759 L212.731858,172.751759 L212.731858,186.931805 Z" id="Fill-38" fill="#221F20"></path>
                    <path d="M212.731858,172.755338 L198.60037,172.755338 L198.60037,158.564555 L212.731858,158.564555 L212.731858,172.755338 Z" id="Fill-39" fill="#221F20"></path>
                    <path d="M212.731858,158.564555 L198.60037,158.564555 L198.60037,144.38093 L212.731858,144.38093 L212.731858,158.564555 Z" id="Fill-40" fill="#EFE4D8"></path>
                    <path d="M212.731858,144.377351 L198.60037,144.377351 L198.60037,130.279622 L212.731858,130.279622 L212.731858,144.377351 Z" id="Fill-41" fill="#EFE4D8"></path>
                    <path d="M212.731858,130.283201 L198.60037,130.283201 L198.60037,116.092418 L212.731858,116.092418 L212.731858,130.283201 Z" id="Fill-42" fill="#404041"></path>
                    <path d="M212.731858,116.092418 L198.60037,116.092418 L198.60037,101.908792 L212.731858,101.908792 L212.731858,116.092418 Z" id="Fill-43" fill="#221F20"></path>
                    <path d="M212.731858,101.905213 L198.60037,101.905213 L198.60037,87.7144301 L212.731858,87.7144301 L212.731858,101.905213 Z" id="Fill-44" fill="#27A9E1"></path>
                    <path d="M212.731858,87.7180091 L198.60037,87.7180091 L198.60037,73.5343839 L212.731858,73.5343839 L212.731858,87.7180091 Z" id="Fill-45" fill="#27A9E1"></path>
                    <path d="M212.731858,73.5308049 L198.60037,73.5308049 L198.60037,59.3471797 L212.731858,59.3471797 L212.731858,73.5308049 Z" id="Fill-46" fill="#27A9E1"></path>
                    <path d="M198.60037,257.792667 L184.461749,257.792667 L184.461749,243.601884 L198.60037,243.601884 L198.60037,257.792667 Z" id="Fill-47" fill="#652C90"></path>
                    <path d="M198.60037,243.601884 L184.461749,243.601884 L184.461749,229.411101 L198.60037,229.411101 L198.60037,243.601884 Z" id="Fill-48" fill="#E6E7E7"></path>
                    <path d="M198.60037,229.411101 L184.461749,229.411101 L184.461749,215.313372 L198.60037,215.313372 L198.60037,229.411101 Z" id="Fill-49" fill="#E6E7E7"></path>
                    <path d="M198.60037,215.313372 L184.461749,215.313372 L184.461749,201.122589 L198.60037,201.122589 L198.60037,215.313372 Z" id="Fill-50" fill="#221F20"></path>
                    <path d="M198.60037,201.122589 L184.461749,201.122589 L184.461749,186.931805 L198.60037,186.931805 L198.60037,201.122589 Z" id="Fill-51" fill="#221F20"></path>
                    <path d="M198.60037,186.931805 L184.461749,186.931805 L184.461749,172.751759 L198.60037,172.751759 L198.60037,186.931805 Z" id="Fill-52" fill="#221F20"></path>
                    <path d="M198.60037,172.755338 L184.461749,172.755338 L184.461749,158.564555 L198.60037,158.564555 L198.60037,172.755338 Z" id="Fill-53" fill="#221F20"></path>
                    <path d="M198.60037,158.564555 L184.461749,158.564555 L184.461749,144.38093 L198.60037,144.38093 L198.60037,158.564555 Z" id="Fill-54" fill="#221F20"></path>
                    <path d="M198.60037,144.377351 L184.461749,144.377351 L184.461749,130.279622 L198.60037,130.279622 L198.60037,144.377351 Z" id="Fill-55" fill="#EFE4D8"></path>
                    <path d="M198.60037,130.283201 L184.461749,130.283201 L184.461749,116.092418 L198.60037,116.092418 L198.60037,130.283201 Z" id="Fill-56" fill="#EFE4D8"></path>
                    <path d="M198.60037,116.092418 L184.461749,116.092418 L184.461749,101.908792 L198.60037,101.908792 L198.60037,116.092418 Z" id="Fill-57" fill="#221F20"></path>
                    <path d="M198.60037,101.905213 L184.461749,101.905213 L184.461749,87.7144301 L198.60037,87.7144301 L198.60037,101.905213 Z" id="Fill-58" fill="#1B75BB"></path>
                    <path d="M198.60037,87.7180091 L184.461749,87.7180091 L184.461749,73.5343839 L198.60037,73.5343839 L198.60037,87.7180091 Z" id="Fill-59" fill="#1B75BB"></path>
                    <path d="M198.60037,73.5308049 L184.461749,73.5308049 L184.461749,59.3471797 L198.60037,59.3471797 L198.60037,73.5308049 Z" id="Fill-60" fill="#27A9E1"></path>
                    <path d="M184.461749,257.792667 L170.333826,257.792667 L170.333826,243.601884 L184.461749,243.601884 L184.461749,257.792667 Z" id="Fill-61" fill="#652C90"></path>
                    <path d="M184.461749,243.601884 L170.333826,243.601884 L170.333826,229.411101 L184.461749,229.411101 L184.461749,243.601884 Z" id="Fill-62" fill="#F0F1F1"></path>
                    <path d="M184.461749,229.411101 L170.333826,229.411101 L170.333826,215.313372 L184.461749,215.313372 L184.461749,229.411101 Z" id="Fill-63" fill="#E6E7E7"></path>
                    <path d="M184.461749,215.313372 L170.333826,215.313372 L170.333826,201.122589 L184.461749,201.122589 L184.461749,215.313372 Z" id="Fill-64" fill="#0A0F0D"></path>
                    <path d="M184.461749,201.122589 L170.333826,201.122589 L170.333826,186.931805 L184.461749,186.931805 L184.461749,201.122589 Z" id="Fill-65" fill="#221F20"></path>
                    <path d="M184.461749,186.931805 L170.333826,186.931805 L170.333826,172.751759 L184.461749,172.751759 L184.461749,186.931805 Z" id="Fill-66" fill="#221F20"></path>
                    <path d="M184.461749,172.755338 L170.333826,172.755338 L170.333826,158.564555 L184.461749,158.564555 L184.461749,172.755338 Z" id="Fill-67" fill="#E3D0B9"></path>
                    <path d="M184.461749,158.564555 L170.333826,158.564555 L170.333826,144.38093 L184.461749,144.38093 L184.461749,158.564555 Z" id="Fill-68" fill="#221F20"></path>
                    <path d="M184.461749,144.377351 L170.333826,144.377351 L170.333826,130.279622 L184.461749,130.279622 L184.461749,144.377351 Z" id="Fill-69" fill="#EFE4D8"></path>
                    <path d="M184.461749,130.283201 L170.333826,130.283201 L170.333826,116.092418 L184.461749,116.092418 L184.461749,130.283201 Z" id="Fill-70" fill="#EFE4D8"></path>
                    <path d="M184.461749,116.092418 L170.333826,116.092418 L170.333826,101.908792 L184.461749,101.908792 L184.461749,116.092418 Z" id="Fill-71" fill="#EFE4D8"></path>
                    <path d="M184.461749,101.905213 L170.333826,101.905213 L170.333826,87.7144301 L184.461749,87.7144301 L184.461749,101.905213 Z" id="Fill-72" fill="#1B75BB"></path>
                    <path d="M184.461749,87.7180091 L170.333826,87.7180091 L170.333826,73.5343839 L184.461749,73.5343839 L184.461749,87.7180091 Z" id="Fill-73" fill="#27A9E1"></path>
                    <path d="M184.461749,73.5308049 L170.333826,73.5308049 L170.333826,59.3471797 L184.461749,59.3471797 L184.461749,73.5308049 Z" id="Fill-74" fill="#27A9E1"></path>
                    <path d="M170.333826,257.792667 L156.195206,257.792667 L156.195206,243.601884 L170.333826,243.601884 L170.333826,257.792667 Z" id="Fill-75" fill="#652C90"></path>
                    <path d="M170.333826,243.601884 L156.195206,243.601884 L156.195206,229.411101 L170.333826,229.411101 L170.333826,243.601884 Z" id="Fill-76" fill="#E6E7E7"></path>
                    <path d="M170.333826,229.411101 L156.195206,229.411101 L156.195206,215.313372 L170.333826,215.313372 L170.333826,229.411101 Z" id="Fill-77" fill="#F0F1F1"></path>
                    <path d="M170.333826,215.313372 L156.195206,215.313372 L156.195206,201.122589 L170.333826,201.122589 L170.333826,215.313372 Z" id="Fill-78" fill="#221F20"></path>
                    <path d="M170.333826,201.122589 L156.195206,201.122589 L156.195206,186.931805 L170.333826,186.931805 L170.333826,201.122589 Z" id="Fill-79" fill="#221F20"></path>
                    <path d="M170.333826,186.931805 L156.195206,186.931805 L156.195206,172.751759 L170.333826,172.751759 L170.333826,186.931805 Z" id="Fill-80" fill="#221F20"></path>
                    <path d="M170.333826,172.755338 L156.195206,172.755338 L156.195206,158.564555 L170.333826,158.564555 L170.333826,172.755338 Z" id="Fill-81" fill="#E3D0B9"></path>
                    <path d="M170.333826,158.564555 L156.195206,158.564555 L156.195206,144.38093 L170.333826,144.38093 L170.333826,158.564555 Z" id="Fill-82" fill="#221F20"></path>
                    <path d="M170.333826,144.377351 L156.195206,144.377351 L156.195206,130.279622 L170.333826,130.279622 L170.333826,144.377351 Z" id="Fill-83" fill="#EFE4D8"></path>
                    <path d="M170.333826,130.283201 L156.195206,130.283201 L156.195206,116.092418 L170.333826,116.092418 L170.333826,130.283201 Z" id="Fill-84" fill="#404041"></path>
                    <path d="M170.333826,116.092418 L156.195206,116.092418 L156.195206,101.908792 L170.333826,101.908792 L170.333826,116.092418 Z" id="Fill-85" fill="#221F20"></path>
                    <path d="M170.333826,101.905213 L156.195206,101.905213 L156.195206,87.7144301 L170.333826,87.7144301 L170.333826,101.905213 Z" id="Fill-86" fill="#1B75BB"></path>
                    <path d="M170.333826,87.7180091 L156.195206,87.7180091 L156.195206,73.5343839 L170.333826,73.5343839 L170.333826,87.7180091 Z" id="Fill-87" fill="#27A9E1"></path>
                    <path d="M170.333826,73.5308049 L156.195206,73.5308049 L156.195206,59.3471797 L170.333826,59.3471797 L170.333826,73.5308049 Z" id="Fill-88" fill="#27A9E1"></path>
                    <path d="M156.195206,286.152759 L142.056585,286.152759 L142.056585,271.979871 L156.195206,271.979871 L156.195206,286.152759 Z" id="Fill-89" fill="#A87B4F"></path>
                    <path d="M156.195206,271.979871 L142.056585,271.979871 L142.056585,257.789088 L156.195206,257.789088 L156.195206,271.979871 Z" id="Fill-90" fill="#652C90"></path>
                    <path d="M156.195206,257.792667 L142.056585,257.792667 L142.056585,243.601884 L156.195206,243.601884 L156.195206,257.792667 Z" id="Fill-91" fill="#91268F"></path>
                    <path d="M156.195206,243.601884 L142.056585,243.601884 L142.056585,229.411101 L156.195206,229.411101 L156.195206,243.601884 Z" id="Fill-92" fill="#F0F1F1"></path>
                    <path d="M156.195206,229.411101 L142.056585,229.411101 L142.056585,215.313372 L156.195206,215.313372 L156.195206,229.411101 Z" id="Fill-93" fill="#E6E7E7"></path>
                    <path d="M156.195206,215.313372 L142.056585,215.313372 L142.056585,201.122589 L156.195206,201.122589 L156.195206,215.313372 Z" id="Fill-94" fill="#F0F1F1"></path>
                    <path d="M156.195206,201.122589 L142.056585,201.122589 L142.056585,186.931805 L156.195206,186.931805 L156.195206,201.122589 Z" id="Fill-95" fill="#221F20"></path>
                    <path d="M156.195206,186.931805 L142.056585,186.931805 L142.056585,172.751759 L156.195206,172.751759 L156.195206,186.931805 Z" id="Fill-96" fill="#221F20"></path>
                    <path d="M156.195206,172.755338 L142.056585,172.755338 L142.056585,158.564555 L156.195206,158.564555 L156.195206,172.755338 Z" id="Fill-97" fill="#221F20"></path>
                    <path d="M156.195206,158.564555 L142.056585,158.564555 L142.056585,144.38093 L156.195206,144.38093 L156.195206,158.564555 Z" id="Fill-98" fill="#221F20"></path>
                    <path d="M156.195206,144.377351 L142.056585,144.377351 L142.056585,130.279622 L156.195206,130.279622 L156.195206,144.377351 Z" id="Fill-99" fill="#EFE4D8"></path>
                    <path d="M156.195206,130.283201 L142.056585,130.283201 L142.056585,116.092418 L156.195206,116.092418 L156.195206,130.283201 Z" id="Fill-100" fill="#EFE4D8"></path>
                    <path d="M156.195206,116.092418 L142.056585,116.092418 L142.056585,101.908792 L156.195206,101.908792 L156.195206,116.092418 Z" id="Fill-101" fill="#221F20"></path>
                    <path d="M156.195206,101.905213 L142.056585,101.905213 L142.056585,87.7144301 L156.195206,87.7144301 L156.195206,101.905213 Z" id="Fill-102" fill="#27A9E1"></path>
                    <path d="M156.195206,87.7180091 L142.056585,87.7180091 L142.056585,73.5343839 L156.195206,73.5343839 L156.195206,87.7180091 Z" id="Fill-103" fill="#27A9E1"></path>
                    <path d="M142.056585,286.152759 L128.017809,286.152759 L128.017809,271.979871 L142.056585,271.979871 L142.056585,286.152759 Z" id="Fill-104" fill="#A87B4F"></path>
                    <path d="M142.056585,271.979871 L128.017809,271.979871 L128.017809,257.789088 L142.056585,257.789088 L142.056585,271.979871 Z" id="Fill-105" fill="#652C90"></path>
                    <path d="M142.056585,257.792667 L128.017809,257.792667 L128.017809,243.601884 L142.056585,243.601884 L142.056585,257.792667 Z" id="Fill-106" fill="#91268F"></path>
                    <path d="M142.056585,243.601884 L128.017809,243.601884 L128.017809,229.411101 L142.056585,229.411101 L142.056585,243.601884 Z" id="Fill-107" fill="#E6E7E7"></path>
                    <path d="M142.056585,229.411101 L128.017809,229.411101 L128.017809,215.313372 L142.056585,215.313372 L142.056585,229.411101 Z" id="Fill-108" fill="#E6E7E7"></path>
                    <path d="M142.056585,215.313372 L128.017809,215.313372 L128.017809,201.122589 L142.056585,201.122589 L142.056585,215.313372 Z" id="Fill-109" fill="#E6E7E7"></path>
                    <path d="M142.056585,201.122589 L128.017809,201.122589 L128.017809,186.931805 L142.056585,186.931805 L142.056585,201.122589 Z" id="Fill-110" fill="#E6E7E7"></path>
                    <path d="M142.056585,186.931805 L128.017809,186.931805 L128.017809,172.751759 L142.056585,172.751759 L142.056585,186.931805 Z" id="Fill-111" fill="#221F20"></path>
                    <path d="M142.056585,172.755338 L128.017809,172.755338 L128.017809,158.564555 L142.056585,158.564555 L142.056585,172.755338 Z" id="Fill-112" fill="#221F20"></path>
                    <path d="M142.056585,158.564555 L128.017809,158.564555 L128.017809,144.38093 L142.056585,144.38093 L142.056585,158.564555 Z" id="Fill-113" fill="#E3D0B9"></path>
                    <path d="M142.056585,144.377351 L128.017809,144.377351 L128.017809,130.279622 L142.056585,130.279622 L142.056585,144.377351 Z" id="Fill-114" fill="#E3D0B9"></path>
                    <path d="M142.056585,130.283201 L128.017809,130.283201 L128.017809,116.092418 L142.056585,116.092418 L142.056585,130.283201 Z" id="Fill-115" fill="#E3D0B9"></path>
                    <path d="M142.056585,116.092418 L128.017809,116.092418 L128.017809,101.908792 L142.056585,101.908792 L142.056585,116.092418 Z" id="Fill-116" fill="#27A9E1"></path>
                    <path d="M142.056585,101.905213 L128.017809,101.905213 L128.017809,87.7144301 L142.056585,87.7144301 L142.056585,101.905213 Z" id="Fill-117" fill="#27A9E1"></path>
                    <path d="M128.017809,201.122589 L113.879189,201.122589 L113.879189,186.931805 L128.017809,186.931805 L128.017809,201.122589 Z" id="Fill-118" fill="#E3D0B9"></path>
                    <path d="M128.017809,172.755338 L113.879189,172.755338 L113.879189,158.564555 L128.017809,158.564555 L128.017809,172.755338 Z" id="Fill-119" fill="#221F20"></path>
                    <path d="M128.017809,158.564555 L113.879189,158.564555 L113.879189,144.38093 L128.017809,144.38093 L128.017809,158.564555 Z" id="Fill-120" fill="#221F20"></path>
                    <path d="M128.017809,144.377351 L113.879189,144.377351 L113.879189,130.279622 L128.017809,130.279622 L128.017809,144.377351 Z" id="Fill-121" fill="#C3996B"></path>
                    <path d="M128.017809,130.283201 L113.879189,130.283201 L113.879189,116.092418 L128.017809,116.092418 L128.017809,130.283201 Z" id="Fill-122" fill="#4B4841"></path>
                    <path d="M113.879189,201.122589 L99.7405681,201.122589 L99.7405681,186.931805 L113.879189,186.931805 L113.879189,201.122589 Z" id="Fill-123" fill="#E3D0B9"></path>
                    <path d="M113.879189,144.377351 L99.7405681,144.377351 L99.7405681,130.279622 L113.879189,130.279622 L113.879189,144.377351 Z" id="Fill-124" fill="#FFDD16"></path>
                    <path d="M99.7405681,201.122589 L85.6019476,201.122589 L85.6019476,186.931805 L99.7405681,186.931805 L99.7405681,201.122589 Z" id="Fill-125" fill="#E3D0B9"></path>
                    <path d="M99.7405681,186.931805 L85.6019476,186.931805 L85.6019476,172.751759 L99.7405681,172.751759 L99.7405681,186.931805 Z" id="Fill-126" fill="#E3D0B9"></path>
                    <path d="M99.7405681,172.755338 L85.6019476,172.755338 L85.6019476,158.564555 L99.7405681,158.564555 L99.7405681,172.755338 Z" id="Fill-127" fill="#2AB573"></path>
                    <path d="M99.7405681,158.564555 L85.6019476,158.564555 L85.6019476,144.38093 L99.7405681,144.38093 L99.7405681,158.564555 Z" id="Fill-128" fill="#2AB573"></path>
                    <path d="M99.7405681,144.377351 L85.6019476,144.377351 L85.6019476,130.279622 L99.7405681,130.279622 L99.7405681,144.377351 Z" id="Fill-129" fill="#00A79D"></path>
                    <path d="M85.6055135,158.564555 L71.4740248,158.564555 L71.4740248,144.38093 L85.6055135,144.38093 L85.6055135,158.564555 Z" id="Fill-130" fill="#2AB573"></path>
                    <path d="M71.4704589,158.564555 L57.342536,158.564555 L57.342536,144.38093 L71.4704589,144.38093 L71.4704589,158.564555 Z" id="Fill-131" fill="#00A14B"></path>
                </g>
                <path d="M0.890750917,16.8693159 L0.890750917,2.68569073 L15.0186738,2.68569073 L29.1537284,2.68569073 L43.2923488,2.68569073 L57.3453887,2.68569073 L71.4733116,2.68569073 L85.6048003,2.68569073 L99.7434208,2.68569073 L113.878475,2.68569073 L128.017096,2.68569073 L142.059438,2.68569073 L156.198059,2.68569073 L170.333113,2.68569073 L184.461036,2.68569073 L198.599656,2.68569073 L212.731145,2.68569073 L226.784185,2.68569073 L240.922806,2.68569073 L255.047163,2.68569073 L269.185783,2.68569073 L283.324403,2.68569073 L297.463024,2.68569073 L311.5018,2.68569073 L325.633289,2.68569073 L339.779041,2.68569073 L353.91053,2.68569073 L353.91053,16.8693159 L353.91053,31.0600992 L353.91053,45.2437244 L353.91053,59.3486113 L353.91053,73.5322365 L353.91053,87.7158617 L353.91053,101.906645 L353.91053,116.09027 L353.91053,130.281053 L353.91053,144.378782 L353.91053,158.562407 L353.91053,172.753191 L353.91053,186.933237 L353.91053,201.12402 L353.91053,215.311224 L353.91053,229.408953 L353.91053,243.599736 L353.91053,257.79052 L353.91053,271.981303 L353.91053,286.154191 L353.91053,300.344974 L353.91053,314.442703 L353.91053,328.633486 L353.91053,342.82427 L353.91053,357.007895 L339.779041,357.007895 L325.633289,357.007895 L311.5018,357.007895 L297.463024,357.007895 L283.324403,357.007895 L269.185783,357.007895 L255.047163,357.007895 L240.922806,357.007895 L226.784185,357.007895 L212.731145,357.007895 L198.599656,357.007895 L184.461036,357.007895 L170.333113,357.007895 L156.198059,357.007895 L142.059438,357.007895 L128.017096,357.007895 L113.878475,357.007895 L99.7434208,357.007895 L85.6048003,357.007895 L71.4733116,357.007895 L57.3453887,357.007895 L43.2923488,357.007895 L29.1537284,357.007895 L15.0186738,357.007895 L0.890750917,357.007895 L0.890750917,342.82427 L0.890750917,328.633486 L0.890750917,314.442703 L0.890750917,300.344974 L0.890750917,286.154191 L0.890750917,271.981303 L0.890750917,257.79052 L0.890750917,243.599736 L0.890750917,229.408953 L0.890750917,215.311224 L0.890750917,201.12402 L0.890750917,186.933237 L0.890750917,172.753191 L0.890750917,158.562407 L0.890750917,144.378782 L0.890750917,130.281053 L0.890750917,116.09027 L0.890750917,101.906645 L0.890750917,87.7158617 L0.890750917,73.5322365 L0.890750917,59.3486113 L0.890750917,45.2437244 L0.890750917,31.0600992 L0.890750917,16.8693159 L0.890750917,16.8693159 Z" id="Stroke-133" stroke="#FF0685" stroke-width="0.25"></path>
                <path d="M0.890750917,342.82248 L15.0186738,342.82248 L29.1537284,342.82248 L43.2923488,342.82248 L57.3453887,342.82248 L71.4733116,342.82248 L85.6048003,342.82248 L99.7434208,342.82248 L113.878475,342.82248 L128.017096,342.82248 L142.059438,342.82248 L156.198059,342.82248 L170.333113,342.82248 L184.461036,342.82248 L198.599656,342.82248 L212.731145,342.82248 L226.784185,342.82248 L240.922806,342.82248 L255.047163,342.82248 L269.185783,342.82248 L283.324403,342.82248 L297.463024,342.82248 L311.5018,342.82248 L325.633289,342.82248 L339.779041,342.82248 L353.91053,342.82248" id="Stroke-135" stroke="#FF0685" stroke-width="0.25"></path>
                <path d="M0.890750917,328.632413 L15.0186738,328.632413 L29.1537284,328.632413 L43.2923488,328.632413 L57.3453887,328.632413 L71.4733116,328.632413 L85.6048003,328.632413 L99.7434208,328.632413 L113.878475,328.632413 L128.017096,328.632413 L142.059438,328.632413 L156.198059,328.632413 L170.333113,328.632413 L184.461036,328.632413 L198.599656,328.632413 L212.731145,328.632413 L226.784185,328.632413 L240.922806,328.632413 L255.047163,328.632413 L269.185783,328.632413 L283.324403,328.632413 L297.463024,328.632413 L311.5018,328.632413 L325.633289,328.632413 L339.779041,328.632413 L353.91053,328.632413" id="Stroke-137" stroke="#FF0685" stroke-width="0.25"></path>
                <path d="M0.890750917,314.441987 L15.0186738,314.441987 L29.1537284,314.441987 L43.2923488,314.441987 L57.3453887,314.441987 L71.4733116,314.441987 L85.6048003,314.441987 L99.7434208,314.441987 L113.878475,314.441987 L128.017096,314.441987 L142.059438,314.441987 L156.198059,314.441987 L170.333113,314.441987 L184.461036,314.441987 L198.599656,314.441987 L212.731145,314.441987 L226.784185,314.441987 L240.922806,314.441987 L255.047163,314.441987 L269.185783,314.441987 L283.324403,314.441987 L297.463024,314.441987 L311.5018,314.441987 L325.633289,314.441987 L339.779041,314.441987 L353.91053,314.441987" id="Stroke-139" stroke="#FF0685" stroke-width="0.25"></path>
                <path d="M0.890750917,300.344616 L15.0186738,300.344616 L29.1537284,300.344616 L43.2923488,300.344616 L57.3453887,300.344616 L71.4733116,300.344616 L85.6048003,300.344616 L99.7434208,300.344616 L113.878475,300.344616 L128.017096,300.344616 L142.059438,300.344616 L156.198059,300.344616 L170.333113,300.344616 L184.461036,300.344616 L198.599656,300.344616 L212.731145,300.344616 L226.784185,300.344616 L240.922806,300.344616 L255.047163,300.344616 L269.185783,300.344616 L283.324403,300.344616 L297.463024,300.344616 L311.5018,300.344616 L325.633289,300.344616 L339.779041,300.344616 L353.91053,300.344616" id="Stroke-141" stroke="#FF0685" stroke-width="0.25"></path>
                <path d="M0.890750917,286.154191 L15.0186738,286.154191 L29.1537284,286.154191 L43.2923488,286.154191 L57.3453887,286.154191 L71.4733116,286.154191 L85.6048003,286.154191 L99.7434208,286.154191 L113.878475,286.154191 L128.017096,286.154191 L142.059438,286.154191 L156.198059,286.154191 L170.333113,286.154191 L184.461036,286.154191 L198.599656,286.154191 L212.731145,286.154191 L226.784185,286.154191 L240.922806,286.154191 L255.047163,286.154191 L269.185783,286.154191 L283.324403,286.154191 L297.463024,286.154191 L311.5018,286.154191 L325.633289,286.154191 L339.779041,286.154191 L353.91053,286.154191" id="Stroke-143" stroke="#FF0685" stroke-width="0.25"></path>
                <path d="M0.890750917,271.981303 L15.0186738,271.981303 L29.1537284,271.981303 L43.2923488,271.981303 L57.3453887,271.981303 L71.4733116,271.981303 L85.6048003,271.981303 L99.7434208,271.981303 L113.878475,271.981303 L128.017096,271.981303 L142.059438,271.981303 L156.198059,271.981303 L170.333113,271.981303 L184.461036,271.981303 L198.599656,271.981303 L212.731145,271.981303 L226.784185,271.981303 L240.922806,271.981303 L255.047163,271.981303 L269.185783,271.981303 L283.324403,271.981303 L297.463024,271.981303 L311.5018,271.981303 L325.633289,271.981303 L339.779041,271.981303 L353.91053,271.981303" id="Stroke-145" stroke="#FF0685" stroke-width="0.25"></path>
                <path d="M0.890750917,257.790878 L15.0186738,257.790878 L29.1537284,257.790878 L43.2923488,257.790878 L57.3453887,257.790878 L71.4733116,257.790878 L85.6048003,257.790878 L99.7434208,257.790878 L113.878475,257.790878 L128.017096,257.790878 L142.059438,257.790878 L156.198059,257.790878 L170.333113,257.790878 L184.461036,257.790878 L198.599656,257.790878 L212.731145,257.790878 L226.784185,257.790878 L240.922806,257.790878 L255.047163,257.790878 L269.185783,257.790878 L283.324403,257.790878 L297.463024,257.790878 L311.5018,257.790878 L325.633289,257.790878 L339.779041,257.790878 L353.91053,257.790878" id="Stroke-147" stroke="#FF0685" stroke-width="0.25"></path>
                <path d="M0.890750917,243.60081 L15.0186738,243.60081 L29.1537284,243.60081 L43.2923488,243.60081 L57.3453887,243.60081 L71.4733116,243.60081 L85.6048003,243.60081 L99.7434208,243.60081 L113.878475,243.60081 L128.017096,243.60081 L142.059438,243.60081 L156.198059,243.60081 L170.333113,243.60081 L184.461036,243.60081 L198.599656,243.60081 L212.731145,243.60081 L226.784185,243.60081 L240.922806,243.60081 L255.047163,243.60081 L269.185783,243.60081 L283.324403,243.60081 L297.463024,243.60081 L311.5018,243.60081 L325.633289,243.60081 L339.779041,243.60081 L353.91053,243.60081" id="Stroke-149" stroke="#FF0685" stroke-width="0.25"></path>
                <path d="M0.890750917,229.410385 L15.0186738,229.410385 L29.1537284,229.410385 L43.2923488,229.410385 L57.3453887,229.410385 L71.4733116,229.410385 L85.6048003,229.410385 L99.7434208,229.410385 L113.878475,229.410385 L128.017096,229.410385 L142.059438,229.410385 L156.198059,229.410385 L170.333113,229.410385 L184.461036,229.410385 L198.599656,229.410385 L212.731145,229.410385 L226.784185,229.410385 L240.922806,229.410385 L255.047163,229.410385 L269.185783,229.410385 L283.324403,229.410385 L297.463024,229.410385 L311.5018,229.410385 L325.633289,229.410385 L339.779041,229.410385 L353.91053,229.410385" id="Stroke-151" stroke="#FF0685" stroke-width="0.25"></path>
                <path d="M0.890750917,215.313014 L15.0186738,215.313014 L29.1537284,215.313014 L43.2923488,215.313014 L57.3453887,215.313014 L71.4733116,215.313014 L85.6048003,215.313014 L99.7434208,215.313014 L113.878475,215.313014 L128.017096,215.313014 L142.059438,215.313014 L156.198059,215.313014 L170.333113,215.313014 L184.461036,215.313014 L198.599656,215.313014 L212.731145,215.313014 L226.784185,215.313014 L240.922806,215.313014 L255.047163,215.313014 L269.185783,215.313014 L283.324403,215.313014 L297.463024,215.313014 L311.5018,215.313014 L325.633289,215.313014 L339.779041,215.313014 L353.91053,215.313014" id="Stroke-153" stroke="#FF0685" stroke-width="0.25"></path>
                <path d="M0.890750917,201.122589 L15.0186738,201.122589 L29.1537284,201.122589 L43.2923488,201.122589 L57.3453887,201.122589 L71.4733116,201.122589 L85.6048003,201.122589 L99.7434208,201.122589 L113.878475,201.122589 L128.017096,201.122589 L142.059438,201.122589 L156.198059,201.122589 L170.333113,201.122589 L184.461036,201.122589 L198.599656,201.122589 L212.731145,201.122589 L226.784185,201.122589 L240.922806,201.122589 L255.047163,201.122589 L269.185783,201.122589 L283.324403,201.122589 L297.463024,201.122589 L311.5018,201.122589 L325.633289,201.122589 L339.779041,201.122589 L353.91053,201.122589" id="Stroke-155" stroke="#FF0685" stroke-width="0.25"></path>
                <path d="M0.890750917,186.932521 L15.0186738,186.932521 L29.1537284,186.932521 L43.2923488,186.932521 L57.3453887,186.932521 L71.4733116,186.932521 L85.6048003,186.932521 L99.7434208,186.932521 L113.878475,186.932521 L128.017096,186.932521 L142.059438,186.932521 L156.198059,186.932521 L170.333113,186.932521 L184.461036,186.932521 L198.599656,186.932521 L212.731145,186.932521 L226.784185,186.932521 L240.922806,186.932521 L255.047163,186.932521 L269.185783,186.932521 L283.324403,186.932521 L297.463024,186.932521 L311.5018,186.932521 L325.633289,186.932521 L339.779041,186.932521 L353.91053,186.932521" id="Stroke-157" stroke="#FF0685" stroke-width="0.25"></path>
                <path d="M0.890750917,172.753549 L15.0186738,172.753549 L29.1537284,172.753549 L43.2923488,172.753549 L57.3453887,172.753549 L71.4733116,172.753549 L85.6048003,172.753549 L99.7434208,172.753549 L113.878475,172.753549 L128.017096,172.753549 L142.059438,172.753549 L156.198059,172.753549 L170.333113,172.753549 L184.461036,172.753549 L198.599656,172.753549 L212.731145,172.753549 L226.784185,172.753549 L240.922806,172.753549 L255.047163,172.753549 L269.185783,172.753549 L283.324403,172.753549 L297.463024,172.753549 L311.5018,172.753549 L325.633289,172.753549 L339.779041,172.753549 L353.91053,172.753549" id="Stroke-159" stroke="#FF0685" stroke-width="0.25"></path>
                <path d="M0.890750917,158.563481 L15.0186738,158.563481 L29.1537284,158.563481 L43.2923488,158.563481 L57.3453887,158.563481 L71.4733116,158.563481 L85.6048003,158.563481 L99.7434208,158.563481 L113.878475,158.563481 L128.017096,158.563481 L142.059438,158.563481 L156.198059,158.563481 L170.333113,158.563481 L184.461036,158.563481 L198.599656,158.563481 L212.731145,158.563481 L226.784185,158.563481 L240.922806,158.563481 L255.047163,158.563481 L269.185783,158.563481 L283.324403,158.563481 L297.463024,158.563481 L311.5018,158.563481 L325.633289,158.563481 L339.779041,158.563481 L353.91053,158.563481" id="Stroke-161" stroke="#FF0685" stroke-width="0.25"></path>
                <path d="M0.890750917,144.378782 L15.0186738,144.378782 L29.1537284,144.378782 L43.2923488,144.378782 L57.3453887,144.378782 L71.4733116,144.378782 L85.6048003,144.378782 L99.7434208,144.378782 L113.878475,144.378782 L128.017096,144.378782 L142.059438,144.378782 L156.198059,144.378782 L170.333113,144.378782 L184.461036,144.378782 L198.599656,144.378782 L212.731145,144.378782 L226.784185,144.378782 L240.922806,144.378782 L255.047163,144.378782 L269.185783,144.378782 L283.324403,144.378782 L297.463024,144.378782 L311.5018,144.378782 L325.633289,144.378782 L339.779041,144.378782 L353.91053,144.378782" id="Stroke-163" stroke="#FF0685" stroke-width="0.25"></path>
                <path d="M0.890750917,130.281411 L15.0186738,130.281411 L29.1537284,130.281411 L43.2923488,130.281411 L57.3453887,130.281411 L71.4733116,130.281411 L85.6048003,130.281411 L99.7434208,130.281411 L113.878475,130.281411 L128.017096,130.281411 L142.059438,130.281411 L156.198059,130.281411 L170.333113,130.281411 L184.461036,130.281411 L198.599656,130.281411 L212.731145,130.281411 L226.784185,130.281411 L240.922806,130.281411 L255.047163,130.281411 L269.185783,130.281411 L283.324403,130.281411 L297.463024,130.281411 L311.5018,130.281411 L325.633289,130.281411 L339.779041,130.281411 L353.91053,130.281411" id="Stroke-165" stroke="#FF0685" stroke-width="0.25"></path>
                <path d="M0.890750917,116.090986 L15.0186738,116.090986 L29.1537284,116.090986 L43.2923488,116.090986 L57.3453887,116.090986 L71.4733116,116.090986 L85.6048003,116.090986 L99.7434208,116.090986 L113.878475,116.090986 L128.017096,116.090986 L142.059438,116.090986 L156.198059,116.090986 L170.333113,116.090986 L184.461036,116.090986 L198.599656,116.090986 L212.731145,116.090986 L226.784185,116.090986 L240.922806,116.090986 L255.047163,116.090986 L269.185783,116.090986 L283.324403,116.090986 L297.463024,116.090986 L311.5018,116.090986 L325.633289,116.090986 L339.779041,116.090986 L353.91053,116.090986" id="Stroke-167" stroke="#FF0685" stroke-width="0.25"></path>
                <path d="M0.890750917,101.906645 L15.0186738,101.906645 L29.1537284,101.906645 L43.2923488,101.906645 L57.3453887,101.906645 L71.4733116,101.906645 L85.6048003,101.906645 L99.7434208,101.906645 L113.878475,101.906645 L128.017096,101.906645 L142.059438,101.906645 L156.198059,101.906645 L170.333113,101.906645 L184.461036,101.906645 L198.599656,101.906645 L212.731145,101.906645 L226.784185,101.906645 L240.922806,101.906645 L255.047163,101.906645 L269.185783,101.906645 L283.324403,101.906645 L297.463024,101.906645 L311.5018,101.906645 L325.633289,101.906645 L339.779041,101.906645 L353.91053,101.906645" id="Stroke-169" stroke="#FF0685" stroke-width="0.25"></path>
                <path d="M0.890750917,87.7162196 L15.0186738,87.7162196 L29.1537284,87.7162196 L43.2923488,87.7162196 L57.3453887,87.7162196 L71.4733116,87.7162196 L85.6048003,87.7162196 L99.7434208,87.7162196 L113.878475,87.7162196 L128.017096,87.7162196 L142.059438,87.7162196 L156.198059,87.7162196 L170.333113,87.7162196 L184.461036,87.7162196 L198.599656,87.7162196 L212.731145,87.7162196 L226.784185,87.7162196 L240.922806,87.7162196 L255.047163,87.7162196 L269.185783,87.7162196 L283.324403,87.7162196 L297.463024,87.7162196 L311.5018,87.7162196 L325.633289,87.7162196 L339.779041,87.7162196 L353.91053,87.7162196" id="Stroke-171" stroke="#FF0685" stroke-width="0.25"></path>
                <path d="M0.890750917,73.5318786 L15.0186738,73.5318786 L29.1537284,73.5318786 L43.2923488,73.5318786 L57.3453887,73.5318786 L71.4733116,73.5318786 L85.6048003,73.5318786 L99.7434208,73.5318786 L113.878475,73.5318786 L128.017096,73.5318786 L142.059438,73.5318786 L156.198059,73.5318786 L170.333113,73.5318786 L184.461036,73.5318786 L198.599656,73.5318786 L212.731145,73.5318786 L226.784185,73.5318786 L240.922806,73.5318786 L255.047163,73.5318786 L269.185783,73.5318786 L283.324403,73.5318786 L297.463024,73.5318786 L311.5018,73.5318786 L325.633289,73.5318786 L339.779041,73.5318786 L353.91053,73.5318786" id="Stroke-173" stroke="#FF0685" stroke-width="0.25"></path>
                <path d="M0.890750917,59.3471797 L15.0186738,59.3471797 L29.1537284,59.3471797 L43.2923488,59.3471797 L57.3453887,59.3471797 L71.4733116,59.3471797 L85.6048003,59.3471797 L99.7434208,59.3471797 L113.878475,59.3471797 L128.017096,59.3471797 L142.059438,59.3471797 L156.198059,59.3471797 L170.333113,59.3471797 L184.461036,59.3471797 L198.599656,59.3471797 L212.731145,59.3471797 L226.784185,59.3471797 L240.922806,59.3471797 L255.047163,59.3471797 L269.185783,59.3471797 L283.324403,59.3471797 L297.463024,59.3471797 L311.5018,59.3471797 L325.633289,59.3471797 L339.779041,59.3471797 L353.91053,59.3471797" id="Stroke-175" stroke="#FF0685" stroke-width="0.25"></path>
                <path d="M0.890750917,45.2440823 L15.0186738,45.2440823 L29.1537284,45.2440823 L43.2923488,45.2440823 L57.3453887,45.2440823 L71.4733116,45.2440823 L85.6048003,45.2440823 L99.7434208,45.2440823 L113.878475,45.2440823 L128.017096,45.2440823 L142.059438,45.2440823 L156.198059,45.2440823 L170.333113,45.2440823 L184.461036,45.2440823 L198.599656,45.2440823 L212.731145,45.2440823 L226.784185,45.2440823 L240.922806,45.2440823 L255.047163,45.2440823 L269.185783,45.2440823 L283.324403,45.2440823 L297.463024,45.2440823 L311.5018,45.2440823 L325.633289,45.2440823 L339.779041,45.2440823 L353.91053,45.2440823" id="Stroke-177" stroke="#FF0685" stroke-width="0.25"></path>
                <path d="M0.890750917,31.0597413 L15.0186738,31.0597413 L29.1537284,31.0597413 L43.2923488,31.0597413 L57.3453887,31.0597413 L71.4733116,31.0597413 L85.6048003,31.0597413 L99.7434208,31.0597413 L113.878475,31.0597413 L128.017096,31.0597413 L142.059438,31.0597413 L156.198059,31.0597413 L170.333113,31.0597413 L184.461036,31.0597413 L198.599656,31.0597413 L212.731145,31.0597413 L226.784185,31.0597413 L240.922806,31.0597413 L255.047163,31.0597413 L269.185783,31.0597413 L283.324403,31.0597413 L297.463024,31.0597413 L311.5018,31.0597413 L325.633289,31.0597413 L339.779041,31.0597413 L353.91053,31.0597413" id="Stroke-179" stroke="#FF0685" stroke-width="0.25"></path>
                <path d="M0.890750917,16.8693159 L15.0186738,16.8693159 L29.1537284,16.8693159 L43.2923488,16.8693159 L57.3453887,16.8693159 L71.4733116,16.8693159 L85.6048003,16.8693159 L99.7434208,16.8693159 L113.878475,16.8693159 L128.017096,16.8693159 L142.059438,16.8693159 L156.198059,16.8693159 L170.333113,16.8693159 L184.461036,16.8693159 L198.599656,16.8693159 L212.731145,16.8693159 L226.784185,16.8693159 L240.922806,16.8693159 L255.047163,16.8693159 L269.185783,16.8693159 L283.324403,16.8693159 L297.463024,16.8693159 L311.5018,16.8693159 L325.633289,16.8693159 L339.779041,16.8693159 L353.91053,16.8693159" id="Stroke-181" stroke="#FF0685" stroke-width="0.25"></path>
                <path d="M339.777971,2.68497492 L339.777971,16.8686001 L339.777971,31.0593834 L339.777971,45.2430086 L339.777971,59.3478955 L339.777971,73.5315207 L339.777971,87.7151459 L339.777971,101.905929 L339.777971,116.089554 L339.777971,130.280338 L339.777971,144.378066 L339.777971,158.565271 L339.777971,172.752475 L339.777971,186.932521 L339.777971,201.123304 L339.777971,215.314088 L339.777971,229.411816 L339.777971,243.6026 L339.777971,257.789804 L339.777971,271.980587 L339.777971,286.153475 L339.777971,300.344259 L339.777971,314.441987 L339.777971,328.632771 L339.777971,342.823554 L339.777971,357.007179" id="Stroke-183" stroke="#FF0685" stroke-width="0.25"></path>
                <path d="M325.634359,2.68497492 L325.634359,16.8686001 L325.634359,31.0593834 L325.634359,45.2430086 L325.634359,59.3478955 L325.634359,73.5315207 L325.634359,87.7151459 L325.634359,101.905929 L325.634359,116.089554 L325.634359,130.280338 L325.634359,144.378066 L325.634359,158.565271 L325.634359,172.752475 L325.634359,186.932521 L325.634359,201.123304 L325.634359,215.314088 L325.634359,229.411816 L325.634359,243.6026 L325.634359,257.789804 L325.634359,271.980587 L325.634359,286.153475 L325.634359,300.344259 L325.634359,314.441987 L325.634359,328.632771 L325.634359,342.823554 L325.634359,357.007179" id="Stroke-185" stroke="#FF0685" stroke-width="0.25"></path>
                <path d="M311.5018,2.68497492 L311.5018,16.8686001 L311.5018,31.0593834 L311.5018,45.2430086 L311.5018,59.3478955 L311.5018,73.5315207 L311.5018,87.7151459 L311.5018,101.905929 L311.5018,116.089554 L311.5018,130.280338 L311.5018,144.378066 L311.5018,158.565271 L311.5018,172.752475 L311.5018,186.932521 L311.5018,201.123304 L311.5018,215.314088 L311.5018,229.411816 L311.5018,243.6026 L311.5018,257.789804 L311.5018,271.980587 L311.5018,286.153475 L311.5018,300.344259 L311.5018,314.441987 L311.5018,328.632771 L311.5018,342.823554 L311.5018,357.007179" id="Stroke-187" stroke="#FF0685" stroke-width="0.25"></path>
                <path d="M297.461954,2.68497492 L297.461954,16.8686001 L297.461954,31.0593834 L297.461954,45.2430086 L297.461954,59.3478955 L297.461954,73.5315207 L297.461954,87.7151459 L297.461954,101.905929 L297.461954,116.089554 L297.461954,130.280338 L297.461954,144.378066 L297.461954,158.565271 L297.461954,172.752475 L297.461954,186.932521 L297.461954,201.123304 L297.461954,215.314088 L297.461954,229.411816 L297.461954,243.6026 L297.461954,257.789804 L297.461954,271.980587 L297.461954,286.153475 L297.461954,300.344259 L297.461954,314.441987 L297.461954,328.632771 L297.461954,342.823554 L297.461954,357.007179" id="Stroke-189" stroke="#FF0685" stroke-width="0.25"></path>
                <path d="M283.324047,2.68497492 L283.324047,16.8686001 L283.324047,31.0593834 L283.324047,45.2430086 L283.324047,59.3478955 L283.324047,73.5315207 L283.324047,87.7151459 L283.324047,101.905929 L283.324047,116.089554 L283.324047,130.280338 L283.324047,144.378066 L283.324047,158.565271 L283.324047,172.752475 L283.324047,186.932521 L283.324047,201.123304 L283.324047,215.314088 L283.324047,229.411816 L283.324047,243.6026 L283.324047,257.789804 L283.324047,271.980587 L283.324047,286.153475 L283.324047,300.344259 L283.324047,314.441987 L283.324047,328.632771 L283.324047,342.823554 L283.324047,357.007179" id="Stroke-191" stroke="#FF0685" stroke-width="0.25"></path>
                <path d="M269.185783,2.68497492 L269.185783,16.8686001 L269.185783,31.0593834 L269.185783,45.2430086 L269.185783,59.3478955 L269.185783,73.5315207 L269.185783,87.7151459 L269.185783,101.905929 L269.185783,116.089554 L269.185783,130.280338 L269.185783,144.378066 L269.185783,158.565271 L269.185783,172.752475 L269.185783,186.932521 L269.185783,201.123304 L269.185783,215.314088 L269.185783,229.411816 L269.185783,243.6026 L269.185783,257.789804 L269.185783,271.980587 L269.185783,286.153475 L269.185783,300.344259 L269.185783,314.441987 L269.185783,328.632771 L269.185783,342.823554 L269.185783,357.007179" id="Stroke-193" stroke="#FF0685" stroke-width="0.25"></path>
                <path d="M255.047519,2.68497492 L255.047519,16.8686001 L255.047519,31.0593834 L255.047519,45.2430086 L255.047519,59.3478955 L255.047519,73.5315207 L255.047519,87.7151459 L255.047519,101.905929 L255.047519,116.089554 L255.047519,130.280338 L255.047519,144.378066 L255.047519,158.565271 L255.047519,172.752475 L255.047519,186.932521 L255.047519,201.123304 L255.047519,215.314088 L255.047519,229.411816 L255.047519,243.6026 L255.047519,257.789804 L255.047519,271.980587 L255.047519,286.153475 L255.047519,300.344259 L255.047519,314.441987 L255.047519,328.632771 L255.047519,342.823554 L255.047519,357.007179" id="Stroke-195" stroke="#FF0685" stroke-width="0.25"></path>
                <path d="M240.921023,2.68497492 L240.921023,16.8686001 L240.921023,31.0593834 L240.921023,45.2430086 L240.921023,59.3478955 L240.921023,73.5315207 L240.921023,87.7151459 L240.921023,101.905929 L240.921023,116.089554 L240.921023,130.280338 L240.921023,144.378066 L240.921023,158.565271 L240.921023,172.752475 L240.921023,186.932521 L240.921023,201.123304 L240.921023,215.314088 L240.921023,229.411816 L240.921023,243.6026 L240.921023,257.789804 L240.921023,271.980587 L240.921023,286.153475 L240.921023,300.344259 L240.921023,314.441987 L240.921023,328.632771 L240.921023,342.823554 L240.921023,357.007179" id="Stroke-197" stroke="#FF0685" stroke-width="0.25"></path>
                <path d="M226.782759,2.68497492 L226.782759,16.8686001 L226.782759,31.0593834 L226.782759,45.2430086 L226.782759,59.3478955 L226.782759,73.5315207 L226.782759,87.7151459 L226.782759,101.905929 L226.782759,116.089554 L226.782759,130.280338 L226.782759,144.378066 L226.782759,158.565271 L226.782759,172.752475 L226.782759,186.932521 L226.782759,201.123304 L226.782759,215.314088 L226.782759,229.411816 L226.782759,243.6026 L226.782759,257.789804 L226.782759,271.980587 L226.782759,286.153475 L226.782759,300.344259 L226.782759,314.441987 L226.782759,328.632771 L226.782759,342.823554 L226.782759,357.007179" id="Stroke-199" stroke="#FF0685" stroke-width="0.25"></path>
                <path d="M212.731502,2.68497492 L212.731502,16.8686001 L212.731502,31.0593834 L212.731502,45.2430086 L212.731502,59.3478955 L212.731502,73.5315207 L212.731502,87.7151459 L212.731502,101.905929 L212.731502,116.089554 L212.731502,130.280338 L212.731502,144.378066 L212.731502,158.565271 L212.731502,172.752475 L212.731502,186.932521 L212.731502,201.123304 L212.731502,215.314088 L212.731502,229.411816 L212.731502,243.6026 L212.731502,257.789804 L212.731502,271.980587 L212.731502,286.153475 L212.731502,300.344259 L212.731502,314.441987 L212.731502,328.632771 L212.731502,342.823554 L212.731502,357.007179" id="Stroke-201" stroke="#FF0685" stroke-width="0.25"></path>
                <path d="M198.5993,2.68497492 L198.5993,16.8686001 L198.5993,31.0593834 L198.5993,45.2430086 L198.5993,59.3478955 L198.5993,73.5315207 L198.5993,87.7151459 L198.5993,101.905929 L198.5993,116.089554 L198.5993,130.280338 L198.5993,144.378066 L198.5993,158.565271 L198.5993,172.752475 L198.5993,186.932521 L198.5993,201.123304 L198.5993,215.314088 L198.5993,229.411816 L198.5993,243.6026 L198.5993,257.789804 L198.5993,271.980587 L198.5993,286.153475 L198.5993,300.344259 L198.5993,314.441987 L198.5993,328.632771 L198.5993,342.823554 L198.5993,357.007179" id="Stroke-203" stroke="#FF0685" stroke-width="0.25"></path>
                <path d="M184.461036,2.68497492 L184.461036,16.8686001 L184.461036,31.0593834 L184.461036,45.2430086 L184.461036,59.3478955 L184.461036,73.5315207 L184.461036,87.7151459 L184.461036,101.905929 L184.461036,116.089554 L184.461036,130.280338 L184.461036,144.378066 L184.461036,158.565271 L184.461036,172.752475 L184.461036,186.932521 L184.461036,201.123304 L184.461036,215.314088 L184.461036,229.411816 L184.461036,243.6026 L184.461036,257.789804 L184.461036,271.980587 L184.461036,286.153475 L184.461036,300.344259 L184.461036,314.441987 L184.461036,328.632771 L184.461036,342.823554 L184.461036,357.007179" id="Stroke-205" stroke="#FF0685" stroke-width="0.25"></path>
                <path d="M170.334539,2.68497492 L170.334539,16.8686001 L170.334539,31.0593834 L170.334539,45.2430086 L170.334539,59.3478955 L170.334539,73.5315207 L170.334539,87.7151459 L170.334539,101.905929 L170.334539,116.089554 L170.334539,130.280338 L170.334539,144.378066 L170.334539,158.565271 L170.334539,172.752475 L170.334539,186.932521 L170.334539,201.123304 L170.334539,215.314088 L170.334539,229.411816 L170.334539,243.6026 L170.334539,257.789804 L170.334539,271.980587 L170.334539,286.153475 L170.334539,300.344259 L170.334539,314.441987 L170.334539,328.632771 L170.334539,342.823554 L170.334539,357.007179" id="Stroke-207" stroke="#FF0685" stroke-width="0.25"></path>
                <path d="M156.196276,2.68497492 L156.196276,16.8686001 L156.196276,31.0593834 L156.196276,45.2430086 L156.196276,59.3478955 L156.196276,73.5315207 L156.196276,87.7151459 L156.196276,101.905929 L156.196276,116.089554 L156.196276,130.280338 L156.196276,144.378066 L156.196276,158.565271 L156.196276,172.752475 L156.196276,186.932521 L156.196276,201.123304 L156.196276,215.314088 L156.196276,229.411816 L156.196276,243.6026 L156.196276,257.789804 L156.196276,271.980587 L156.196276,286.153475 L156.196276,300.344259 L156.196276,314.441987 L156.196276,328.632771 L156.196276,342.823554 L156.196276,357.007179" id="Stroke-209" stroke="#FF0685" stroke-width="0.25"></path>
                <path d="M142.058012,2.68497492 L142.058012,16.8686001 L142.058012,31.0593834 L142.058012,45.2430086 L142.058012,59.3478955 L142.058012,73.5315207 L142.058012,87.7151459 L142.058012,101.905929 L142.058012,116.089554 L142.058012,130.280338 L142.058012,144.378066 L142.058012,158.565271 L142.058012,172.752475 L142.058012,186.932521 L142.058012,201.123304 L142.058012,215.314088 L142.058012,229.411816 L142.058012,243.6026 L142.058012,257.789804 L142.058012,271.980587 L142.058012,286.153475 L142.058012,300.344259 L142.058012,314.441987 L142.058012,328.632771 L142.058012,342.823554 L142.058012,357.007179" id="Stroke-211" stroke="#FF0685" stroke-width="0.25"></path>
                <path d="M128.018522,2.68497492 L128.018522,16.8686001 L128.018522,31.0593834 L128.018522,45.2430086 L128.018522,59.3478955 L128.018522,73.5315207 L128.018522,87.7151459 L128.018522,101.905929 L128.018522,116.089554 L128.018522,130.280338 L128.018522,144.378066 L128.018522,158.565271 L128.018522,172.752475 L128.018522,186.932521 L128.018522,201.123304 L128.018522,215.314088 L128.018522,229.411816 L128.018522,243.6026 L128.018522,257.789804 L128.018522,271.980587 L128.018522,286.153475 L128.018522,300.344259 L128.018522,314.441987 L128.018522,328.632771 L128.018522,342.823554 L128.018522,357.007179" id="Stroke-213" stroke="#FF0685" stroke-width="0.25"></path>
                <path d="M113.880258,2.68497492 L113.880258,16.8686001 L113.880258,31.0593834 L113.880258,45.2430086 L113.880258,59.3478955 L113.880258,73.5315207 L113.880258,87.7151459 L113.880258,101.905929 L113.880258,116.089554 L113.880258,130.280338 L113.880258,144.378066 L113.880258,158.565271 L113.880258,172.752475 L113.880258,186.932521 L113.880258,201.123304 L113.880258,215.314088 L113.880258,229.411816 L113.880258,243.6026 L113.880258,257.789804 L113.880258,271.980587 L113.880258,286.153475 L113.880258,300.344259 L113.880258,314.441987 L113.880258,328.632771 L113.880258,342.823554 L113.880258,357.007179" id="Stroke-215" stroke="#FF0685" stroke-width="0.25"></path>
                <path d="M99.7419944,2.68497492 L99.7419944,16.8686001 L99.7419944,31.0593834 L99.7419944,45.2430086 L99.7419944,59.3478955 L99.7419944,73.5315207 L99.7419944,87.7151459 L99.7419944,101.905929 L99.7419944,116.089554 L99.7419944,130.280338 L99.7419944,144.378066 L99.7419944,158.565271 L99.7419944,172.752475 L99.7419944,186.932521 L99.7419944,201.123304 L99.7419944,215.314088 L99.7419944,229.411816 L99.7419944,243.6026 L99.7419944,257.789804 L99.7419944,271.980587 L99.7419944,286.153475 L99.7419944,300.344259 L99.7419944,314.441987 L99.7419944,328.632771 L99.7419944,342.823554 L99.7419944,357.007179" id="Stroke-217" stroke="#FF0685" stroke-width="0.25"></path>
                <path d="M85.6037306,2.68497492 L85.6037306,16.8686001 L85.6037306,31.0593834 L85.6037306,45.2430086 L85.6037306,59.3478955 L85.6037306,73.5315207 L85.6037306,87.7151459 L85.6037306,101.905929 L85.6037306,116.089554 L85.6037306,130.280338 L85.6037306,144.378066 L85.6037306,158.565271 L85.6037306,172.752475 L85.6037306,186.932521 L85.6037306,201.123304 L85.6037306,215.314088 L85.6037306,229.411816 L85.6037306,243.6026 L85.6037306,257.789804 L85.6037306,271.980587 L85.6037306,286.153475 L85.6037306,300.344259 L85.6037306,314.441987 L85.6037306,328.632771 L85.6037306,342.823554 L85.6037306,357.007179" id="Stroke-219" stroke="#FF0685" stroke-width="0.25"></path>
                <path d="M71.4715287,2.68497492 L71.4715287,16.8686001 L71.4715287,31.0593834 L71.4715287,45.2430086 L71.4715287,59.3478955 L71.4715287,73.5315207 L71.4715287,87.7151459 L71.4715287,101.905929 L71.4715287,116.089554 L71.4715287,130.280338 L71.4715287,144.378066 L71.4715287,158.565271 L71.4715287,172.752475 L71.4715287,186.932521 L71.4715287,201.123304 L71.4715287,215.314088 L71.4715287,229.411816 L71.4715287,243.6026 L71.4715287,257.789804 L71.4715287,271.980587 L71.4715287,286.153475 L71.4715287,300.344259 L71.4715287,314.441987 L71.4715287,328.632771 L71.4715287,342.823554 L71.4715287,357.007179" id="Stroke-221" stroke="#FF0685" stroke-width="0.25"></path>
                <path d="M57.3450321,2.68497492 L57.3450321,16.8686001 L57.3450321,31.0593834 L57.3450321,45.2430086 L57.3450321,59.3478955 L57.3450321,73.5315207 L57.3450321,87.7151459 L57.3450321,101.905929 L57.3450321,116.089554 L57.3450321,130.280338 L57.3450321,144.378066 L57.3450321,158.565271 L57.3450321,172.752475 L57.3450321,186.932521 L57.3450321,201.123304 L57.3450321,215.314088 L57.3450321,229.411816 L57.3450321,243.6026 L57.3450321,257.789804 L57.3450321,271.980587 L57.3450321,286.153475 L57.3450321,300.344259 L57.3450321,314.441987 L57.3450321,328.632771 L57.3450321,342.823554 L57.3450321,357.007179" id="Stroke-223" stroke="#FF0685" stroke-width="0.25"></path>
                <path d="M43.2934186,2.68497492 L43.2934186,16.8686001 L43.2934186,31.0593834 L43.2934186,45.2430086 L43.2934186,59.3478955 L43.2934186,73.5315207 L43.2934186,87.7151459 L43.2934186,101.905929 L43.2934186,116.089554 L43.2934186,130.280338 L43.2934186,144.378066 L43.2934186,158.565271 L43.2934186,172.752475 L43.2934186,186.932521 L43.2934186,201.123304 L43.2934186,215.314088 L43.2934186,229.411816 L43.2934186,243.6026 L43.2934186,257.789804 L43.2934186,271.980587 L43.2934186,286.153475 L43.2934186,300.344259 L43.2934186,314.441987 L43.2934186,328.632771 L43.2934186,342.823554 L43.2934186,357.007179" id="Stroke-225" stroke="#FF0685" stroke-width="0.25"></path>
                <path d="M29.1555113,2.68497492 L29.1555113,16.8686001 L29.1555113,31.0593834 L29.1555113,45.2430086 L29.1555113,59.3478955 L29.1555113,73.5315207 L29.1555113,87.7151459 L29.1555113,101.905929 L29.1555113,116.089554 L29.1555113,130.280338 L29.1555113,144.378066 L29.1555113,158.565271 L29.1555113,172.752475 L29.1555113,186.932521 L29.1555113,201.123304 L29.1555113,215.314088 L29.1555113,229.411816 L29.1555113,243.6026 L29.1555113,257.789804 L29.1555113,271.980587 L29.1555113,286.153475 L29.1555113,300.344259 L29.1555113,314.441987 L29.1555113,328.632771 L29.1555113,342.823554 L29.1555113,357.007179" id="Stroke-227" stroke="#FF0685" stroke-width="0.25"></path>
                <path d="M15.0172474,2.68497492 L15.0172474,16.8686001 L15.0172474,31.0593834 L15.0172474,45.2430086 L15.0172474,59.3478955 L15.0172474,73.5315207 L15.0172474,87.7151459 L15.0172474,101.905929 L15.0172474,116.089554 L15.0172474,130.280338 L15.0172474,144.378066 L15.0172474,158.565271 L15.0172474,172.752475 L15.0172474,186.932521 L15.0172474,201.123304 L15.0172474,215.314088 L15.0172474,229.411816 L15.0172474,243.6026 L15.0172474,257.789804 L15.0172474,271.980587 L15.0172474,286.153475 L15.0172474,300.344259 L15.0172474,314.441987 L15.0172474,328.632771 L15.0172474,342.823554 L15.0172474,357.007179" id="Stroke-229" stroke="#FF0685" stroke-width="0.25"></path>
            </g>
        </g>
    </g>
</svg>