<?xml version="1.0" encoding="UTF-8" standalone="no"?>
<svg width="1000px" height="296px" viewBox="0 0 1000 296" version="1.1" xmlns="http://www.w3.org/2000/svg" xmlns:xlink="http://www.w3.org/1999/xlink" xmlns:sketch="http://www.bohemiancoding.com/sketch/ns">
    <!-- Generator: Sketch 3.5.1 (25234) - http://www.bohemiancoding.com/sketch -->
    <title>Group</title>
    <desc>Created with Sketch.</desc>
    <defs>
        <linearGradient x1="79.255563%" y1="0%" x2="79.2555611%" y2="100%" id="linearGradient-1">
            <stop stop-color="#FBDA61" offset="0%"></stop>
            <stop stop-color="#F76B1C" offset="100%"></stop>
        </linearGradient>
        <linearGradient x1="50%" y1="-1125.03749%" x2="50%" y2="100%" id="linearGradient-2">
            <stop stop-color="#FBDA61" offset="0%"></stop>
            <stop stop-color="#F76B1C" offset="100%"></stop>
        </linearGradient>
        <linearGradient x1="50%" y1="-364.391754%" x2="50%" y2="891.222377%" id="linearGradient-3">
            <stop stop-color="#FBDA61" offset="0%"></stop>
            <stop stop-color="#F76B1C" offset="100%"></stop>
        </linearGradient>
        <linearGradient x1="50%" y1="-772.605565%" x2="50%" y2="567.337589%" id="linearGradient-4">
            <stop stop-color="#FBDA61" offset="0%"></stop>
            <stop stop-color="#F76B1C" offset="100%"></stop>
        </linearGradient>
        <linearGradient x1="50%" y1="-898.090361%" x2="50%" y2="395.398747%" id="linearGradient-5">
            <stop stop-color="#FBDA61" offset="0%"></stop>
            <stop stop-color="#F76B1C" offset="100%"></stop>
        </linearGradient>
        <linearGradient x1="50%" y1="0%" x2="50%" y2="1244.88519%" id="linearGradient-6">
            <stop stop-color="#FBDA61" offset="0%"></stop>
            <stop stop-color="#F76B1C" offset="100%"></stop>
        </linearGradient>
        <linearGradient x1="50%" y1="-1255.56567%" x2="50%" y2="100%" id="linearGradient-7">
            <stop stop-color="#FBDA61" offset="0%"></stop>
            <stop stop-color="#F76B1C" offset="100%"></stop>
        </linearGradient>
    </defs>
    <g id="Companionship" stroke="none" stroke-width="1" fill="none" fill-rule="evenodd" sketch:type="MSPage">
        <g id="Group" sketch:type="MSLayerGroup">
            <rect id="Rectangle-14" fill="#FFFFFF" sketch:type="MSShapeGroup" x="0" y="0" width="1000" height="296"></rect>
            <rect id="Rectangle-15-Copy" fill="#E9E9E9" sketch:type="MSShapeGroup" x="274" y="0" width="262" height="271"></rect>
            <rect id="Rectangle-15-Copy-2" fill="#E9E9E9" sketch:type="MSShapeGroup" x="790" y="1" width="155" height="271"></rect>
            <path d="M100,254.710258 C100,254.710258 328.5,259.920515 466.5,122.210258 C529.69487,59.1480706 621.5,41.920517 697,122.210258 C772.5,202.499998 809.456293,236.82867 839.209772,244.4379 C848.666247,246.856322 858.757494,248.210257 869.5,248.210258 C881.230347,248.210259 899.5,248 899.5,248" id="Path-2" stroke="url(#linearGradient-1)" stroke-width="5" stroke-linecap="round" stroke-linejoin="round" sketch:type="MSShapeGroup"></path>
            <path d="M77.5,271 L944.546712,271" id="Path-3" stroke="#979797" stroke-width="2" stroke-linecap="round" stroke-dasharray="1,10" sketch:type="MSShapeGroup"></path>
            <path d="M78,271 L78,0.5" id="Path-4" stroke="#979797" stroke-width="2" stroke-linecap="round" stroke-dasharray="1,10" sketch:type="MSShapeGroup"></path>
            <path d="M121.472656,40 L121.472656,25.3515625 L126.734375,25.3515625 L126.734375,23.0898438 L113.574219,23.0898438 L113.574219,25.3515625 L118.847656,25.3515625 L118.847656,40 L121.472656,40 Z M130.390625,38.1015625 C128.925781,38.1015625 127.976562,37.3984375 127.976562,36.3085938 C127.976562,35.1835938 128.878906,34.5390625 130.613281,34.4335938 L133.707031,34.2226562 L133.707031,35.21875 C133.707031,36.8945312 132.277344,38.1015625 130.390625,38.1015625 L130.390625,38.1015625 Z M129.710938,40.1289062 C131.445312,40.1289062 133.027344,39.2617188 133.730469,37.8789062 L133.789062,37.8789062 L133.789062,40 L136.214844,40 L136.214844,31.2695312 C136.214844,28.75 134.210938,27.109375 131.105469,27.109375 C128.246094,27.109375 126.113281,28.7734375 126.042969,31.0234375 L128.421875,31.0234375 C128.644531,29.921875 129.652344,29.2070312 131.035156,29.2070312 C132.734375,29.2070312 133.707031,30.0039062 133.707031,31.4570312 L133.707031,32.4414062 L130.273438,32.640625 C127.132812,32.8398438 125.410156,34.1289062 125.410156,36.3554688 C125.410156,38.6289062 127.167969,40.1289062 129.710938,40.1289062 L129.710938,40.1289062 Z M138.875,40 L141.417969,40 L141.417969,22.328125 L138.875,22.328125 L138.875,40 Z M146.785156,32.7695312 L146.773438,32.7695312 L146.773438,22.328125 L144.230469,22.328125 L144.230469,40 L146.773438,40 L146.773438,35.3828125 L147.875,34.3046875 L152.269531,40 L155.199219,40 L149.691406,32.7578125 L155.011719,27.2734375 L152.023438,27.2734375 L146.785156,32.7695312 Z M162.863281,24.4140625 L162.863281,27.2734375 L161.105469,27.2734375 L161.105469,29.2773438 L162.863281,29.2773438 L162.863281,36.6484375 C162.863281,39.109375 163.847656,40.0820312 166.390625,40.0820312 C166.941406,40.0820312 167.539062,40.0234375 167.820312,39.953125 L167.820312,37.9492188 C167.65625,37.9726562 167.222656,38.0078125 166.953125,38.0078125 C165.886719,38.0078125 165.394531,37.4921875 165.394531,36.390625 L165.394531,29.2773438 L167.832031,29.2773438 L167.832031,27.2734375 L165.394531,27.2734375 L165.394531,24.4140625 L162.863281,24.4140625 Z M175.132812,40.1523438 C178.8125,40.1523438 181.144531,37.6445312 181.144531,33.6367188 C181.144531,29.6289062 178.800781,27.109375 175.132812,27.109375 C171.464844,27.109375 169.109375,29.640625 169.109375,33.6367188 C169.109375,37.6445312 171.453125,40.1523438 175.132812,40.1523438 L175.132812,40.1523438 Z M175.132812,38.0429688 C172.976562,38.0429688 171.6875,36.4140625 171.6875,33.6367188 C171.6875,30.8710938 172.976562,29.21875 175.132812,29.21875 C177.289062,29.21875 178.566406,30.859375 178.566406,33.6367188 C178.566406,36.4140625 177.289062,38.0429688 175.132812,38.0429688 L175.132812,38.0429688 Z M195.277344,27.1445312 C193.507812,27.1445312 191.9375,28.0117188 191.222656,29.3828125 L191.164062,29.3828125 L191.164062,27.2734375 L188.714844,27.2734375 L188.714844,44.1601562 L191.257812,44.1601562 L191.257812,37.9140625 L191.304688,37.9140625 C192.066406,39.3203125 193.507812,40.1289062 195.335938,40.1289062 C198.535156,40.1289062 200.65625,37.5742188 200.65625,33.6367188 C200.65625,29.6875 198.523438,27.1445312 195.277344,27.1445312 L195.277344,27.1445312 Z M194.632812,37.9726562 C192.605469,37.9726562 191.246094,36.2382812 191.234375,33.6367188 C191.246094,31.046875 192.617188,29.3007812 194.632812,29.3007812 C196.695312,29.3007812 198.054688,31.0117188 198.054688,33.6367188 C198.054688,36.2734375 196.695312,37.9726562 194.632812,37.9726562 L194.632812,37.9726562 Z M202.683594,40 L205.226562,40 L205.226562,32.40625 C205.226562,30.6132812 206.28125,29.453125 207.957031,29.453125 C208.332031,29.453125 208.859375,29.5351562 209.070312,29.6171875 L209.070312,27.2382812 C208.871094,27.1796875 208.507812,27.1445312 208.226562,27.1445312 C206.726562,27.1445312 205.554688,28 205.15625,29.4179688 L205.109375,29.4179688 L205.109375,27.2734375 L202.683594,27.2734375 L202.683594,40 Z M210.839844,40 L213.382812,40 L213.382812,27.2734375 L210.839844,27.2734375 L210.839844,40 Z M212.117188,25.4570312 C212.9375,25.4570312 213.605469,24.8007812 213.605469,23.9921875 C213.605469,23.1601562 212.9375,22.5273438 212.117188,22.5273438 C211.296875,22.5273438 210.628906,23.1601562 210.628906,23.9921875 C210.628906,24.8007812 211.296875,25.4570312 212.117188,25.4570312 L212.117188,25.4570312 Z M221.375,29.1835938 C223.226562,29.1835938 224.480469,30.4960938 224.539062,32.4765625 L218.082031,32.4765625 C218.222656,30.5195312 219.546875,29.1835938 221.375,29.1835938 L221.375,29.1835938 Z M224.527344,36.2734375 C224.175781,37.3867188 223.015625,38.0898438 221.539062,38.0898438 C219.453125,38.0898438 218.070312,36.6367188 218.070312,34.4335938 L218.070312,34.28125 L227.082031,34.28125 L227.082031,33.390625 C227.082031,29.5351562 224.878906,27.109375 221.386719,27.109375 C217.824219,27.109375 215.503906,29.6992188 215.503906,33.6835938 C215.503906,37.6679688 217.800781,40.1523438 221.492188,40.1523438 C224.351562,40.1523438 226.589844,38.5585938 226.953125,36.2734375 L224.527344,36.2734375 Z M228.910156,30.8945312 C228.910156,32.6523438 230.046875,33.8242188 232.34375,34.3867188 L234.617188,34.9492188 C235.953125,35.2890625 236.457031,35.7109375 236.457031,36.5195312 C236.457031,37.5507812 235.460938,38.2070312 233.878906,38.2070312 C232.261719,38.2070312 231.277344,37.5390625 231.078125,36.3203125 L228.570312,36.3203125 C228.757812,38.6171875 230.785156,40.1523438 233.75,40.1523438 C236.832031,40.1523438 238.988281,38.5820312 238.988281,36.3085938 C238.988281,34.4335938 238.039062,33.5078125 235.472656,32.8867188 L233.363281,32.3828125 C232.015625,32.0546875 231.382812,31.5273438 231.382812,30.7539062 C231.382812,29.7460938 232.34375,29.078125 233.785156,29.078125 C235.238281,29.078125 236.210938,29.78125 236.316406,30.90625 L238.707031,30.90625 C238.648438,28.6914062 236.632812,27.1210938 233.84375,27.1210938 C230.914062,27.1210938 228.910156,28.65625 228.910156,30.8945312 L228.910156,30.8945312 Z M241.8125,24.4140625 L241.8125,27.2734375 L240.054688,27.2734375 L240.054688,29.2773438 L241.8125,29.2773438 L241.8125,36.6484375 C241.8125,39.109375 242.796875,40.0820312 245.339844,40.0820312 C245.890625,40.0820312 246.488281,40.0234375 246.769531,39.953125 L246.769531,37.9492188 C246.605469,37.9726562 246.171875,38.0078125 245.902344,38.0078125 C244.835938,38.0078125 244.34375,37.4921875 244.34375,36.390625 L244.34375,29.2773438 L246.78125,29.2773438 L246.78125,27.2734375 L244.34375,27.2734375 L244.34375,24.4140625 L241.8125,24.4140625 Z" id="Talk-to-priest" fill="#777777" sketch:type="MSShapeGroup"></path>
            <path d="M291.472656,40 L291.472656,25.3515625 L296.734375,25.3515625 L296.734375,23.0898438 L283.574219,23.0898438 L283.574219,25.3515625 L288.847656,25.3515625 L288.847656,40 L291.472656,40 Z M300.390625,38.1015625 C298.925781,38.1015625 297.976562,37.3984375 297.976562,36.3085938 C297.976562,35.1835938 298.878906,34.5390625 300.613281,34.4335938 L303.707031,34.2226562 L303.707031,35.21875 C303.707031,36.8945312 302.277344,38.1015625 300.390625,38.1015625 L300.390625,38.1015625 Z M299.710938,40.1289062 C301.445312,40.1289062 303.027344,39.2617188 303.730469,37.8789062 L303.789062,37.8789062 L303.789062,40 L306.214844,40 L306.214844,31.2695312 C306.214844,28.75 304.210938,27.109375 301.105469,27.109375 C298.246094,27.109375 296.113281,28.7734375 296.042969,31.0234375 L298.421875,31.0234375 C298.644531,29.921875 299.652344,29.2070312 301.035156,29.2070312 C302.734375,29.2070312 303.707031,30.0039062 303.707031,31.4570312 L303.707031,32.4414062 L300.273438,32.640625 C297.132812,32.8398438 295.410156,34.1289062 295.410156,36.3554688 C295.410156,38.6289062 297.167969,40.1289062 299.710938,40.1289062 L299.710938,40.1289062 Z M308.875,40 L311.417969,40 L311.417969,22.328125 L308.875,22.328125 L308.875,40 Z M316.785156,32.7695312 L316.773438,32.7695312 L316.773438,22.328125 L314.230469,22.328125 L314.230469,40 L316.773438,40 L316.773438,35.3828125 L317.875,34.3046875 L322.269531,40 L325.199219,40 L319.691406,32.7578125 L325.011719,27.2734375 L322.023438,27.2734375 L316.785156,32.7695312 Z M332.863281,24.4140625 L332.863281,27.2734375 L331.105469,27.2734375 L331.105469,29.2773438 L332.863281,29.2773438 L332.863281,36.6484375 C332.863281,39.109375 333.847656,40.0820312 336.390625,40.0820312 C336.941406,40.0820312 337.539062,40.0234375 337.820312,39.953125 L337.820312,37.9492188 C337.65625,37.9726562 337.222656,38.0078125 336.953125,38.0078125 C335.886719,38.0078125 335.394531,37.4921875 335.394531,36.390625 L335.394531,29.2773438 L337.832031,29.2773438 L337.832031,27.2734375 L335.394531,27.2734375 L335.394531,24.4140625 L332.863281,24.4140625 Z M345.132812,40.1523438 C348.8125,40.1523438 351.144531,37.6445312 351.144531,33.6367188 C351.144531,29.6289062 348.800781,27.109375 345.132812,27.109375 C341.464844,27.109375 339.109375,29.640625 339.109375,33.6367188 C339.109375,37.6445312 341.453125,40.1523438 345.132812,40.1523438 L345.132812,40.1523438 Z M345.132812,38.0429688 C342.976562,38.0429688 341.6875,36.4140625 341.6875,33.6367188 C341.6875,30.8710938 342.976562,29.21875 345.132812,29.21875 C347.289062,29.21875 348.566406,30.859375 348.566406,33.6367188 C348.566406,36.4140625 347.289062,38.0429688 345.132812,38.0429688 L345.132812,38.0429688 Z M364.164062,40.1523438 C367.84375,40.1523438 370.175781,37.6445312 370.175781,33.6367188 C370.175781,29.6289062 367.832031,27.109375 364.164062,27.109375 C360.496094,27.109375 358.140625,29.640625 358.140625,33.6367188 C358.140625,37.6445312 360.484375,40.1523438 364.164062,40.1523438 L364.164062,40.1523438 Z M364.164062,38.0429688 C362.007812,38.0429688 360.71875,36.4140625 360.71875,33.6367188 C360.71875,30.8710938 362.007812,29.21875 364.164062,29.21875 C366.320312,29.21875 367.597656,30.859375 367.597656,33.6367188 C367.597656,36.4140625 366.320312,38.0429688 364.164062,38.0429688 L364.164062,38.0429688 Z M372.976562,24.4140625 L372.976562,27.2734375 L371.21875,27.2734375 L371.21875,29.2773438 L372.976562,29.2773438 L372.976562,36.6484375 C372.976562,39.109375 373.960938,40.0820312 376.503906,40.0820312 C377.054688,40.0820312 377.652344,40.0234375 377.933594,39.953125 L377.933594,37.9492188 C377.769531,37.9726562 377.335938,38.0078125 377.066406,38.0078125 C376,38.0078125 375.507812,37.4921875 375.507812,36.390625 L375.507812,29.2773438 L377.945312,29.2773438 L377.945312,27.2734375 L375.507812,27.2734375 L375.507812,24.4140625 L372.976562,24.4140625 Z M380.195312,40 L382.738281,40 L382.738281,32.7109375 C382.738281,30.671875 384.0625,29.3125 386.03125,29.3125 C387.894531,29.3125 389.019531,30.4609375 389.019531,32.359375 L389.019531,40 L391.550781,40 L391.550781,31.8671875 C391.550781,28.9960938 389.710938,27.1328125 386.910156,27.1328125 C384.964844,27.1328125 383.535156,27.9179688 382.773438,29.4179688 L382.714844,29.4179688 L382.714844,22.328125 L380.195312,22.328125 L380.195312,40 Z M399.390625,29.1835938 C401.242188,29.1835938 402.496094,30.4960938 402.554688,32.4765625 L396.097656,32.4765625 C396.238281,30.5195312 397.5625,29.1835938 399.390625,29.1835938 L399.390625,29.1835938 Z M402.542969,36.2734375 C402.191406,37.3867188 401.03125,38.0898438 399.554688,38.0898438 C397.46875,38.0898438 396.085938,36.6367188 396.085938,34.4335938 L396.085938,34.28125 L405.097656,34.28125 L405.097656,33.390625 C405.097656,29.5351562 402.894531,27.109375 399.402344,27.109375 C395.839844,27.109375 393.519531,29.6992188 393.519531,33.6835938 C393.519531,37.6679688 395.816406,40.1523438 399.507812,40.1523438 C402.367188,40.1523438 404.605469,38.5585938 404.96875,36.2734375 L402.542969,36.2734375 Z M407.136719,40 L409.679688,40 L409.679688,32.40625 C409.679688,30.6132812 410.734375,29.453125 412.410156,29.453125 C412.785156,29.453125 413.3125,29.5351562 413.523438,29.6171875 L413.523438,27.2382812 C413.324219,27.1796875 412.960938,27.1445312 412.679688,27.1445312 C411.179688,27.1445312 410.007812,28 409.609375,29.4179688 L409.5625,29.4179688 L409.5625,27.2734375 L407.136719,27.2734375 L407.136719,40 Z M431.605469,31.6210938 C431.382812,29.171875 429.367188,27.109375 426.121094,27.109375 C422.523438,27.109375 420.15625,29.6757812 420.15625,33.6367188 C420.15625,37.6679688 422.535156,40.1523438 426.144531,40.1523438 C429.203125,40.1523438 431.335938,38.3828125 431.628906,35.7226562 L429.203125,35.7226562 C428.898438,37.2109375 427.808594,38.0195312 426.15625,38.0195312 C424.117188,38.0195312 422.734375,36.3789062 422.734375,33.6367188 C422.734375,30.9648438 424.09375,29.2539062 426.144531,29.2539062 C427.890625,29.2539062 428.945312,30.2734375 429.179688,31.6210938 L431.605469,31.6210938 Z M433.597656,40 L436.140625,40 L436.140625,32.7109375 C436.140625,30.671875 437.464844,29.3125 439.433594,29.3125 C441.296875,29.3125 442.421875,30.4609375 442.421875,32.359375 L442.421875,40 L444.953125,40 L444.953125,31.8671875 C444.953125,28.9960938 443.113281,27.1328125 440.3125,27.1328125 C438.367188,27.1328125 436.9375,27.9179688 436.175781,29.4179688 L436.117188,29.4179688 L436.117188,22.328125 L433.597656,22.328125 L433.597656,40 Z M451.914062,38.1015625 C450.449219,38.1015625 449.5,37.3984375 449.5,36.3085938 C449.5,35.1835938 450.402344,34.5390625 452.136719,34.4335938 L455.230469,34.2226562 L455.230469,35.21875 C455.230469,36.8945312 453.800781,38.1015625 451.914062,38.1015625 L451.914062,38.1015625 Z M451.234375,40.1289062 C452.96875,40.1289062 454.550781,39.2617188 455.253906,37.8789062 L455.3125,37.8789062 L455.3125,40 L457.738281,40 L457.738281,31.2695312 C457.738281,28.75 455.734375,27.109375 452.628906,27.109375 C449.769531,27.109375 447.636719,28.7734375 447.566406,31.0234375 L449.945312,31.0234375 C450.167969,29.921875 451.175781,29.2070312 452.558594,29.2070312 C454.257812,29.2070312 455.230469,30.0039062 455.230469,31.4570312 L455.230469,32.4414062 L451.796875,32.640625 C448.65625,32.8398438 446.933594,34.1289062 446.933594,36.3554688 C446.933594,38.6289062 448.691406,40.1289062 451.234375,40.1289062 L451.234375,40.1289062 Z M460.292969,40 L462.835938,40 L462.835938,32.40625 C462.835938,30.6132812 463.890625,29.453125 465.566406,29.453125 C465.941406,29.453125 466.46875,29.5351562 466.679688,29.6171875 L466.679688,27.2382812 C466.480469,27.1796875 466.117188,27.1445312 465.835938,27.1445312 C464.335938,27.1445312 463.164062,28 462.765625,29.4179688 L462.71875,29.4179688 L462.71875,27.2734375 L460.292969,27.2734375 L460.292969,40 Z M472.714844,38.1015625 C471.25,38.1015625 470.300781,37.3984375 470.300781,36.3085938 C470.300781,35.1835938 471.203125,34.5390625 472.9375,34.4335938 L476.03125,34.2226562 L476.03125,35.21875 C476.03125,36.8945312 474.601562,38.1015625 472.714844,38.1015625 L472.714844,38.1015625 Z M472.035156,40.1289062 C473.769531,40.1289062 475.351562,39.2617188 476.054688,37.8789062 L476.113281,37.8789062 L476.113281,40 L478.539062,40 L478.539062,31.2695312 C478.539062,28.75 476.535156,27.109375 473.429688,27.109375 C470.570312,27.109375 468.4375,28.7734375 468.367188,31.0234375 L470.746094,31.0234375 C470.96875,29.921875 471.976562,29.2070312 473.359375,29.2070312 C475.058594,29.2070312 476.03125,30.0039062 476.03125,31.4570312 L476.03125,32.4414062 L472.597656,32.640625 C469.457031,32.8398438 467.734375,34.1289062 467.734375,36.3554688 C467.734375,38.6289062 469.492188,40.1289062 472.035156,40.1289062 L472.035156,40.1289062 Z M491.96875,31.6210938 C491.746094,29.171875 489.730469,27.109375 486.484375,27.109375 C482.886719,27.109375 480.519531,29.6757812 480.519531,33.6367188 C480.519531,37.6679688 482.898438,40.1523438 486.507812,40.1523438 C489.566406,40.1523438 491.699219,38.3828125 491.992188,35.7226562 L489.566406,35.7226562 C489.261719,37.2109375 488.171875,38.0195312 486.519531,38.0195312 C484.480469,38.0195312 483.097656,36.3789062 483.097656,33.6367188 C483.097656,30.9648438 484.457031,29.2539062 486.507812,29.2539062 C488.253906,29.2539062 489.308594,30.2734375 489.542969,31.6210938 L491.96875,31.6210938 Z M494.617188,24.4140625 L494.617188,27.2734375 L492.859375,27.2734375 L492.859375,29.2773438 L494.617188,29.2773438 L494.617188,36.6484375 C494.617188,39.109375 495.601562,40.0820312 498.144531,40.0820312 C498.695312,40.0820312 499.292969,40.0234375 499.574219,39.953125 L499.574219,37.9492188 C499.410156,37.9726562 498.976562,38.0078125 498.707031,38.0078125 C497.640625,38.0078125 497.148438,37.4921875 497.148438,36.390625 L497.148438,29.2773438 L499.585938,29.2773438 L499.585938,27.2734375 L497.148438,27.2734375 L497.148438,24.4140625 L494.617188,24.4140625 Z M506.734375,29.1835938 C508.585938,29.1835938 509.839844,30.4960938 509.898438,32.4765625 L503.441406,32.4765625 C503.582031,30.5195312 504.90625,29.1835938 506.734375,29.1835938 L506.734375,29.1835938 Z M509.886719,36.2734375 C509.535156,37.3867188 508.375,38.0898438 506.898438,38.0898438 C504.8125,38.0898438 503.429688,36.6367188 503.429688,34.4335938 L503.429688,34.28125 L512.441406,34.28125 L512.441406,33.390625 C512.441406,29.5351562 510.238281,27.109375 506.746094,27.109375 C503.183594,27.109375 500.863281,29.6992188 500.863281,33.6835938 C500.863281,37.6679688 503.160156,40.1523438 506.851562,40.1523438 C509.710938,40.1523438 511.949219,38.5585938 512.3125,36.2734375 L509.886719,36.2734375 Z M514.480469,40 L517.023438,40 L517.023438,32.40625 C517.023438,30.6132812 518.078125,29.453125 519.753906,29.453125 C520.128906,29.453125 520.65625,29.5351562 520.867188,29.6171875 L520.867188,27.2382812 C520.667969,27.1796875 520.304688,27.1445312 520.023438,27.1445312 C518.523438,27.1445312 517.351562,28 516.953125,29.4179688 L516.90625,29.4179688 L516.90625,27.2734375 L514.480469,27.2734375 L514.480469,40 Z M523.082031,43.0703125 L524.78125,37.3515625 L522.238281,37.3515625 L521.136719,43.0703125 L523.082031,43.0703125 Z M284.300781,69 L286.84375,69 L286.84375,61.40625 C286.84375,59.6132812 287.898438,58.453125 289.574219,58.453125 C289.949219,58.453125 290.476562,58.5351562 290.6875,58.6171875 L290.6875,56.2382812 C290.488281,56.1796875 290.125,56.1445312 289.84375,56.1445312 C288.34375,56.1445312 287.171875,57 286.773438,58.4179688 L286.726562,58.4179688 L286.726562,56.2734375 L284.300781,56.2734375 L284.300781,69 Z M297.132812,58.1835938 C298.984375,58.1835938 300.238281,59.4960938 300.296875,61.4765625 L293.839844,61.4765625 C293.980469,59.5195312 295.304688,58.1835938 297.132812,58.1835938 L297.132812,58.1835938 Z M300.285156,65.2734375 C299.933594,66.3867188 298.773438,67.0898438 297.296875,67.0898438 C295.210938,67.0898438 293.828125,65.6367188 293.828125,63.4335938 L293.828125,63.28125 L302.839844,63.28125 L302.839844,62.390625 C302.839844,58.5351562 300.636719,56.109375 297.144531,56.109375 C293.582031,56.109375 291.261719,58.6992188 291.261719,62.6835938 C291.261719,66.6679688 293.558594,69.1523438 297.25,69.1523438 C300.109375,69.1523438 302.347656,67.5585938 302.710938,65.2734375 L300.285156,65.2734375 Z M315.625,56.2734375 L312.988281,56.2734375 L309.730469,66.4921875 L309.671875,66.4921875 L306.425781,56.2734375 L303.742188,56.2734375 L308.335938,69 L311.042969,69 L315.625,56.2734375 Z M322.09375,58.1835938 C323.945312,58.1835938 325.199219,59.4960938 325.257812,61.4765625 L318.800781,61.4765625 C318.941406,59.5195312 320.265625,58.1835938 322.09375,58.1835938 L322.09375,58.1835938 Z M325.246094,65.2734375 C324.894531,66.3867188 323.734375,67.0898438 322.257812,67.0898438 C320.171875,67.0898438 318.789062,65.6367188 318.789062,63.4335938 L318.789062,63.28125 L327.800781,63.28125 L327.800781,62.390625 C327.800781,58.5351562 325.597656,56.109375 322.105469,56.109375 C318.542969,56.109375 316.222656,58.6992188 316.222656,62.6835938 C316.222656,66.6679688 318.519531,69.1523438 322.210938,69.1523438 C325.070312,69.1523438 327.308594,67.5585938 327.671875,65.2734375 L325.246094,65.2734375 Z M334.257812,67.1015625 C332.792969,67.1015625 331.84375,66.3984375 331.84375,65.3085938 C331.84375,64.1835938 332.746094,63.5390625 334.480469,63.4335938 L337.574219,63.2226562 L337.574219,64.21875 C337.574219,65.8945312 336.144531,67.1015625 334.257812,67.1015625 L334.257812,67.1015625 Z M333.578125,69.1289062 C335.3125,69.1289062 336.894531,68.2617188 337.597656,66.8789062 L337.65625,66.8789062 L337.65625,69 L340.082031,69 L340.082031,60.2695312 C340.082031,57.75 338.078125,56.109375 334.972656,56.109375 C332.113281,56.109375 329.980469,57.7734375 329.910156,60.0234375 L332.289062,60.0234375 C332.511719,58.921875 333.519531,58.2070312 334.902344,58.2070312 C336.601562,58.2070312 337.574219,59.0039062 337.574219,60.4570312 L337.574219,61.4414062 L334.140625,61.640625 C331,61.8398438 329.277344,63.1289062 329.277344,65.3554688 C329.277344,67.6289062 331.035156,69.1289062 333.578125,69.1289062 L333.578125,69.1289062 Z M342.742188,69 L345.285156,69 L345.285156,51.328125 L342.742188,51.328125 L342.742188,69 Z M353.3125,59.8945312 C353.3125,61.6523438 354.449219,62.8242188 356.746094,63.3867188 L359.019531,63.9492188 C360.355469,64.2890625 360.859375,64.7109375 360.859375,65.5195312 C360.859375,66.5507812 359.863281,67.2070312 358.28125,67.2070312 C356.664062,67.2070312 355.679688,66.5390625 355.480469,65.3203125 L352.972656,65.3203125 C353.160156,67.6171875 355.1875,69.1523438 358.152344,69.1523438 C361.234375,69.1523438 363.390625,67.5820312 363.390625,65.3085938 C363.390625,63.4335938 362.441406,62.5078125 359.875,61.8867188 L357.765625,61.3828125 C356.417969,61.0546875 355.785156,60.5273438 355.785156,59.7539062 C355.785156,58.7460938 356.746094,58.078125 358.1875,58.078125 C359.640625,58.078125 360.613281,58.78125 360.71875,59.90625 L363.109375,59.90625 C363.050781,57.6914062 361.035156,56.1210938 358.246094,56.1210938 C355.316406,56.1210938 353.3125,57.65625 353.3125,59.8945312 L353.3125,59.8945312 Z M366.214844,53.4140625 L366.214844,56.2734375 L364.457031,56.2734375 L364.457031,58.2773438 L366.214844,58.2773438 L366.214844,65.6484375 C366.214844,68.109375 367.199219,69.0820312 369.742188,69.0820312 C370.292969,69.0820312 370.890625,69.0234375 371.171875,68.953125 L371.171875,66.9492188 C371.007812,66.9726562 370.574219,67.0078125 370.304688,67.0078125 C369.238281,67.0078125 368.746094,66.4921875 368.746094,65.390625 L368.746094,58.2773438 L371.183594,58.2773438 L371.183594,56.2734375 L368.746094,56.2734375 L368.746094,53.4140625 L366.214844,53.4140625 Z M378.484375,69.1523438 C382.164062,69.1523438 384.496094,66.6445312 384.496094,62.6367188 C384.496094,58.6289062 382.152344,56.109375 378.484375,56.109375 C374.816406,56.109375 372.460938,58.640625 372.460938,62.6367188 C372.460938,66.6445312 374.804688,69.1523438 378.484375,69.1523438 L378.484375,69.1523438 Z M378.484375,67.0429688 C376.328125,67.0429688 375.039062,65.4140625 375.039062,62.6367188 C375.039062,59.8710938 376.328125,58.21875 378.484375,58.21875 C380.640625,58.21875 381.917969,59.859375 381.917969,62.6367188 C381.917969,65.4140625 380.640625,67.0429688 378.484375,67.0429688 L378.484375,67.0429688 Z M386.535156,69 L389.078125,69 L389.078125,61.40625 C389.078125,59.6132812 390.132812,58.453125 391.808594,58.453125 C392.183594,58.453125 392.710938,58.5351562 392.921875,58.6171875 L392.921875,56.2382812 C392.722656,56.1796875 392.359375,56.1445312 392.078125,56.1445312 C390.578125,56.1445312 389.40625,57 389.007812,58.4179688 L388.960938,58.4179688 L388.960938,56.2734375 L386.535156,56.2734375 L386.535156,69 Z M394.691406,69 L397.234375,69 L397.234375,56.2734375 L394.691406,56.2734375 L394.691406,69 Z M395.96875,54.4570312 C396.789062,54.4570312 397.457031,53.8007812 397.457031,52.9921875 C397.457031,52.1601562 396.789062,51.5273438 395.96875,51.5273438 C395.148438,51.5273438 394.480469,52.1601562 394.480469,52.9921875 C394.480469,53.8007812 395.148438,54.4570312 395.96875,54.4570312 L395.96875,54.4570312 Z M405.226562,58.1835938 C407.078125,58.1835938 408.332031,59.4960938 408.390625,61.4765625 L401.933594,61.4765625 C402.074219,59.5195312 403.398438,58.1835938 405.226562,58.1835938 L405.226562,58.1835938 Z M408.378906,65.2734375 C408.027344,66.3867188 406.867188,67.0898438 405.390625,67.0898438 C403.304688,67.0898438 401.921875,65.6367188 401.921875,63.4335938 L401.921875,63.28125 L410.933594,63.28125 L410.933594,62.390625 C410.933594,58.5351562 408.730469,56.109375 405.238281,56.109375 C401.675781,56.109375 399.355469,58.6992188 399.355469,62.6835938 C399.355469,66.6679688 401.652344,69.1523438 405.34375,69.1523438 C408.203125,69.1523438 410.441406,67.5585938 410.804688,65.2734375 L408.378906,65.2734375 Z M412.761719,59.8945312 C412.761719,61.6523438 413.898438,62.8242188 416.195312,63.3867188 L418.46875,63.9492188 C419.804688,64.2890625 420.308594,64.7109375 420.308594,65.5195312 C420.308594,66.5507812 419.3125,67.2070312 417.730469,67.2070312 C416.113281,67.2070312 415.128906,66.5390625 414.929688,65.3203125 L412.421875,65.3203125 C412.609375,67.6171875 414.636719,69.1523438 417.601562,69.1523438 C420.683594,69.1523438 422.839844,67.5820312 422.839844,65.3085938 C422.839844,63.4335938 421.890625,62.5078125 419.324219,61.8867188 L417.214844,61.3828125 C415.867188,61.0546875 415.234375,60.5273438 415.234375,59.7539062 C415.234375,58.7460938 416.195312,58.078125 417.636719,58.078125 C419.089844,58.078125 420.0625,58.78125 420.167969,59.90625 L422.558594,59.90625 C422.5,57.6914062 420.484375,56.1210938 417.695312,56.1210938 C414.765625,56.1210938 412.761719,57.65625 412.761719,59.8945312 L412.761719,59.8945312 Z M426.753906,69.1289062 C427.621094,69.1289062 428.289062,68.4492188 428.289062,67.59375 C428.289062,66.7265625 427.621094,66.0585938 426.753906,66.0585938 C425.898438,66.0585938 425.21875,66.7265625 425.21875,67.59375 C425.21875,68.4492188 425.898438,69.1289062 426.753906,69.1289062 L426.753906,69.1289062 Z" id="Talk-to-other-charac" fill="#777777" sketch:type="MSShapeGroup"></path>
            <path d="M603.472656,40 L603.472656,25.3515625 L608.734375,25.3515625 L608.734375,23.0898438 L595.574219,23.0898438 L595.574219,25.3515625 L600.847656,25.3515625 L600.847656,40 L603.472656,40 Z M612.390625,38.1015625 C610.925781,38.1015625 609.976562,37.3984375 609.976562,36.3085938 C609.976562,35.1835938 610.878906,34.5390625 612.613281,34.4335938 L615.707031,34.2226562 L615.707031,35.21875 C615.707031,36.8945312 614.277344,38.1015625 612.390625,38.1015625 L612.390625,38.1015625 Z M611.710938,40.1289062 C613.445312,40.1289062 615.027344,39.2617188 615.730469,37.8789062 L615.789062,37.8789062 L615.789062,40 L618.214844,40 L618.214844,31.2695312 C618.214844,28.75 616.210938,27.109375 613.105469,27.109375 C610.246094,27.109375 608.113281,28.7734375 608.042969,31.0234375 L610.421875,31.0234375 C610.644531,29.921875 611.652344,29.2070312 613.035156,29.2070312 C614.734375,29.2070312 615.707031,30.0039062 615.707031,31.4570312 L615.707031,32.4414062 L612.273438,32.640625 C609.132812,32.8398438 607.410156,34.1289062 607.410156,36.3554688 C607.410156,38.6289062 609.167969,40.1289062 611.710938,40.1289062 L611.710938,40.1289062 Z M620.875,40 L623.417969,40 L623.417969,22.328125 L620.875,22.328125 L620.875,40 Z M628.785156,32.7695312 L628.773438,32.7695312 L628.773438,22.328125 L626.230469,22.328125 L626.230469,40 L628.773438,40 L628.773438,35.3828125 L629.875,34.3046875 L634.269531,40 L637.199219,40 L631.691406,32.7578125 L637.011719,27.2734375 L634.023438,27.2734375 L628.785156,32.7695312 Z M644.863281,24.4140625 L644.863281,27.2734375 L643.105469,27.2734375 L643.105469,29.2773438 L644.863281,29.2773438 L644.863281,36.6484375 C644.863281,39.109375 645.847656,40.0820312 648.390625,40.0820312 C648.941406,40.0820312 649.539062,40.0234375 649.820312,39.953125 L649.820312,37.9492188 C649.65625,37.9726562 649.222656,38.0078125 648.953125,38.0078125 C647.886719,38.0078125 647.394531,37.4921875 647.394531,36.390625 L647.394531,29.2773438 L649.832031,29.2773438 L649.832031,27.2734375 L647.394531,27.2734375 L647.394531,24.4140625 L644.863281,24.4140625 Z M657.132812,40.1523438 C660.8125,40.1523438 663.144531,37.6445312 663.144531,33.6367188 C663.144531,29.6289062 660.800781,27.109375 657.132812,27.109375 C653.464844,27.109375 651.109375,29.640625 651.109375,33.6367188 C651.109375,37.6445312 653.453125,40.1523438 657.132812,40.1523438 L657.132812,40.1523438 Z M657.132812,38.0429688 C654.976562,38.0429688 653.6875,36.4140625 653.6875,33.6367188 C653.6875,30.8710938 654.976562,29.21875 657.132812,29.21875 C659.289062,29.21875 660.566406,30.859375 660.566406,33.6367188 C660.566406,36.4140625 659.289062,38.0429688 657.132812,38.0429688 L657.132812,38.0429688 Z M688.082031,23.0898438 L685.035156,23.0898438 L679.574219,36.4375 L679.480469,36.4375 L674.007812,23.0898438 L670.972656,23.0898438 L670.972656,40 L673.363281,40 L673.363281,27.5546875 L673.445312,27.5546875 L678.554688,39.8710938 L680.5,39.8710938 L685.597656,27.5546875 L685.679688,27.5546875 L685.679688,40 L688.082031,40 L688.082031,23.0898438 Z M696.390625,40.1523438 C700.070312,40.1523438 702.402344,37.6445312 702.402344,33.6367188 C702.402344,29.6289062 700.058594,27.109375 696.390625,27.109375 C692.722656,27.109375 690.367188,29.640625 690.367188,33.6367188 C690.367188,37.6445312 692.710938,40.1523438 696.390625,40.1523438 L696.390625,40.1523438 Z M696.390625,38.0429688 C694.234375,38.0429688 692.945312,36.4140625 692.945312,33.6367188 C692.945312,30.8710938 694.234375,29.21875 696.390625,29.21875 C698.546875,29.21875 699.824219,30.859375 699.824219,33.6367188 C699.824219,36.4140625 698.546875,38.0429688 696.390625,38.0429688 L696.390625,38.0429688 Z M707.078125,27.2734375 L704.535156,27.2734375 L704.535156,40.75 C704.535156,42.0625 704.054688,42.5546875 702.742188,42.5546875 C702.695312,42.5546875 702.414062,42.5429688 702.378906,42.5429688 L702.378906,44.5585938 C702.4375,44.5703125 702.835938,44.5703125 702.941406,44.5703125 C705.742188,44.5703125 707.078125,43.3515625 707.078125,40.7617188 L707.078125,27.2734375 Z M705.8125,25.4570312 C706.632812,25.4570312 707.300781,24.8007812 707.300781,23.9921875 C707.300781,23.1601562 706.632812,22.5273438 705.8125,22.5273438 C704.992188,22.5273438 704.324219,23.1601562 704.324219,23.9921875 C704.324219,24.8007812 704.992188,25.4570312 705.8125,25.4570312 L705.8125,25.4570312 Z M709.867188,40 L712.410156,40 L712.410156,27.2734375 L709.867188,27.2734375 L709.867188,40 Z M711.144531,25.4570312 C711.964844,25.4570312 712.632812,24.8007812 712.632812,23.9921875 C712.632812,23.1601562 711.964844,22.5273438 711.144531,22.5273438 C710.324219,22.5273438 709.65625,23.1601562 709.65625,23.9921875 C709.65625,24.8007812 710.324219,25.4570312 711.144531,25.4570312 L711.144531,25.4570312 Z M725.980469,31.6210938 C725.757812,29.171875 723.742188,27.109375 720.496094,27.109375 C716.898438,27.109375 714.53125,29.6757812 714.53125,33.6367188 C714.53125,37.6679688 716.910156,40.1523438 720.519531,40.1523438 C723.578125,40.1523438 725.710938,38.3828125 726.003906,35.7226562 L723.578125,35.7226562 C723.273438,37.2109375 722.183594,38.0195312 720.53125,38.0195312 C718.492188,38.0195312 717.109375,36.3789062 717.109375,33.6367188 C717.109375,30.9648438 718.46875,29.2539062 720.519531,29.2539062 C722.265625,29.2539062 723.320312,30.2734375 723.554688,31.6210938 L725.980469,31.6210938 Z M732.285156,38.1015625 C730.820312,38.1015625 729.871094,37.3984375 729.871094,36.3085938 C729.871094,35.1835938 730.773438,34.5390625 732.507812,34.4335938 L735.601562,34.2226562 L735.601562,35.21875 C735.601562,36.8945312 734.171875,38.1015625 732.285156,38.1015625 L732.285156,38.1015625 Z M731.605469,40.1289062 C733.339844,40.1289062 734.921875,39.2617188 735.625,37.8789062 L735.683594,37.8789062 L735.683594,40 L738.109375,40 L738.109375,31.2695312 C738.109375,28.75 736.105469,27.109375 733,27.109375 C730.140625,27.109375 728.007812,28.7734375 727.9375,31.0234375 L730.316406,31.0234375 C730.539062,29.921875 731.546875,29.2070312 732.929688,29.2070312 C734.628906,29.2070312 735.601562,30.0039062 735.601562,31.4570312 L735.601562,32.4414062 L732.167969,32.640625 C729.027344,32.8398438 727.304688,34.1289062 727.304688,36.3554688 C727.304688,38.6289062 729.0625,40.1289062 731.605469,40.1289062 L731.605469,40.1289062 Z" id="Talk-to-Mojica" fill="#777777" sketch:type="MSShapeGroup"></path>
            <path d="M806.183594,25.2929688 L809.886719,25.2929688 C811.914062,25.2929688 813.15625,26.4414062 813.15625,28.328125 C813.15625,30.2617188 811.984375,31.375 809.957031,31.375 L806.183594,31.375 L806.183594,25.2929688 Z M806.183594,33.4960938 L809.886719,33.4960938 L813.332031,40 L816.367188,40 L812.570312,33.0859375 C814.632812,32.3945312 815.851562,30.5429688 815.851562,28.2578125 C815.851562,25.1054688 813.683594,23.0898438 810.203125,23.0898438 L803.558594,23.0898438 L803.558594,40 L806.183594,40 L806.183594,33.4960938 Z M823.375,29.1835938 C825.226562,29.1835938 826.480469,30.4960938 826.539062,32.4765625 L820.082031,32.4765625 C820.222656,30.5195312 821.546875,29.1835938 823.375,29.1835938 L823.375,29.1835938 Z M826.527344,36.2734375 C826.175781,37.3867188 825.015625,38.0898438 823.539062,38.0898438 C821.453125,38.0898438 820.070312,36.6367188 820.070312,34.4335938 L820.070312,34.28125 L829.082031,34.28125 L829.082031,33.390625 C829.082031,29.5351562 826.878906,27.109375 823.386719,27.109375 C819.824219,27.109375 817.503906,29.6992188 817.503906,33.6835938 C817.503906,37.6679688 819.800781,40.1523438 823.492188,40.1523438 C826.351562,40.1523438 828.589844,38.5585938 828.953125,36.2734375 L826.527344,36.2734375 Z M831.882812,24.4140625 L831.882812,27.2734375 L830.125,27.2734375 L830.125,29.2773438 L831.882812,29.2773438 L831.882812,36.6484375 C831.882812,39.109375 832.867188,40.0820312 835.410156,40.0820312 C835.960938,40.0820312 836.558594,40.0234375 836.839844,39.953125 L836.839844,37.9492188 C836.675781,37.9726562 836.242188,38.0078125 835.972656,38.0078125 C834.90625,38.0078125 834.414062,37.4921875 834.414062,36.390625 L834.414062,29.2773438 L836.851562,29.2773438 L836.851562,27.2734375 L834.414062,27.2734375 L834.414062,24.4140625 L831.882812,24.4140625 Z M850.082031,27.2734375 L847.539062,27.2734375 L847.539062,34.609375 C847.539062,36.625 846.261719,37.9492188 844.363281,37.9492188 C842.523438,37.9492188 841.480469,36.90625 841.480469,34.9492188 L841.480469,27.2734375 L838.9375,27.2734375 L838.9375,35.4296875 C838.9375,38.3476562 840.71875,40.140625 843.496094,40.140625 C845.441406,40.140625 846.871094,39.3320312 847.609375,37.8203125 L847.65625,37.8203125 L847.65625,40 L850.082031,40 L850.082031,27.2734375 Z M852.683594,40 L855.226562,40 L855.226562,32.40625 C855.226562,30.6132812 856.28125,29.453125 857.957031,29.453125 C858.332031,29.453125 858.859375,29.5351562 859.070312,29.6171875 L859.070312,27.2382812 C858.871094,27.1796875 858.507812,27.1445312 858.226562,27.1445312 C856.726562,27.1445312 855.554688,28 855.15625,29.4179688 L855.109375,29.4179688 L855.109375,27.2734375 L852.683594,27.2734375 L852.683594,40 Z M860.746094,40 L863.289062,40 L863.289062,32.6523438 C863.289062,30.6484375 864.554688,29.3125 866.476562,29.3125 C868.339844,29.3125 869.347656,30.390625 869.347656,32.3242188 L869.347656,40 L871.890625,40 L871.890625,31.84375 C871.890625,28.9140625 870.167969,27.1328125 867.355469,27.1328125 C865.386719,27.1328125 863.992188,27.9179688 863.21875,29.4179688 L863.171875,29.4179688 L863.171875,27.2734375 L860.746094,27.2734375 L860.746094,40 Z M880.070312,40 L882.613281,40 L882.613281,22.328125 L880.070312,22.328125 L880.070312,40 Z M890.617188,29.1835938 C892.46875,29.1835938 893.722656,30.4960938 893.78125,32.4765625 L887.324219,32.4765625 C887.464844,30.5195312 888.789062,29.1835938 890.617188,29.1835938 L890.617188,29.1835938 Z M893.769531,36.2734375 C893.417969,37.3867188 892.257812,38.0898438 890.78125,38.0898438 C888.695312,38.0898438 887.3125,36.6367188 887.3125,34.4335938 L887.3125,34.28125 L896.324219,34.28125 L896.324219,33.390625 C896.324219,29.5351562 894.121094,27.109375 890.628906,27.109375 C887.066406,27.109375 884.746094,29.6992188 884.746094,33.6835938 C884.746094,37.6679688 887.042969,40.1523438 890.734375,40.1523438 C893.59375,40.1523438 895.832031,38.5585938 896.195312,36.2734375 L893.769531,36.2734375 Z M899.125,24.4140625 L899.125,27.2734375 L897.367188,27.2734375 L897.367188,29.2773438 L899.125,29.2773438 L899.125,36.6484375 C899.125,39.109375 900.109375,40.0820312 902.652344,40.0820312 C903.203125,40.0820312 903.800781,40.0234375 904.082031,39.953125 L904.082031,37.9492188 C903.917969,37.9726562 903.484375,38.0078125 903.214844,38.0078125 C902.148438,38.0078125 901.65625,37.4921875 901.65625,36.390625 L901.65625,29.2773438 L904.09375,29.2773438 L904.09375,27.2734375 L901.65625,27.2734375 L901.65625,24.4140625 L899.125,24.4140625 Z M907,24.4140625 L907,27.2734375 L905.242188,27.2734375 L905.242188,29.2773438 L907,29.2773438 L907,36.6484375 C907,39.109375 907.984375,40.0820312 910.527344,40.0820312 C911.078125,40.0820312 911.675781,40.0234375 911.957031,39.953125 L911.957031,37.9492188 C911.792969,37.9726562 911.359375,38.0078125 911.089844,38.0078125 C910.023438,38.0078125 909.53125,37.4921875 909.53125,36.390625 L909.53125,29.2773438 L911.96875,29.2773438 L911.96875,27.2734375 L909.53125,27.2734375 L909.53125,24.4140625 L907,24.4140625 Z M919.117188,29.1835938 C920.96875,29.1835938 922.222656,30.4960938 922.28125,32.4765625 L915.824219,32.4765625 C915.964844,30.5195312 917.289062,29.1835938 919.117188,29.1835938 L919.117188,29.1835938 Z M922.269531,36.2734375 C921.917969,37.3867188 920.757812,38.0898438 919.28125,38.0898438 C917.195312,38.0898438 915.8125,36.6367188 915.8125,34.4335938 L915.8125,34.28125 L924.824219,34.28125 L924.824219,33.390625 C924.824219,29.5351562 922.621094,27.109375 919.128906,27.109375 C915.566406,27.109375 913.246094,29.6992188 913.246094,33.6835938 C913.246094,37.6679688 915.542969,40.1523438 919.234375,40.1523438 C922.09375,40.1523438 924.332031,38.5585938 924.695312,36.2734375 L922.269531,36.2734375 Z M926.863281,40 L929.40625,40 L929.40625,32.40625 C929.40625,30.6132812 930.460938,29.453125 932.136719,29.453125 C932.511719,29.453125 933.039062,29.5351562 933.25,29.6171875 L933.25,27.2382812 C933.050781,27.1796875 932.6875,27.1445312 932.40625,27.1445312 C930.90625,27.1445312 929.734375,28 929.335938,29.4179688 L929.289062,29.4179688 L929.289062,27.2734375 L926.863281,27.2734375 L926.863281,40 Z" id="Return-letter" fill="#777777" sketch:type="MSShapeGroup"></path>
            <path d="M37.8857422,133 L37.8857422,120.822266 L42.0751953,120.822266 L42.0751953,119.689453 L32.4658203,119.689453 L32.4658203,120.822266 L36.6552734,120.822266 L36.6552734,133 L37.8857422,133 Z M45.8056641,133.166016 C48.0712891,133.166016 49.3408203,131.857422 49.6533203,130.34375 L48.4130859,130.34375 C48.1494141,131.300781 47.3095703,132.101562 45.8447266,132.101562 C43.9990234,132.101562 42.8857422,130.695312 42.8857422,128.46875 L42.8857422,128.166016 L49.7998047,128.166016 L49.7998047,127.394531 C49.7998047,124.464844 48.2666016,122.648438 45.7275391,122.648438 C43.1591797,122.648438 41.6552734,124.484375 41.6552734,127.306641 L41.6552734,128.439453 C41.6552734,131.349609 43.2177734,133.166016 45.8056641,133.166016 L45.8056641,133.166016 Z M42.8857422,127.101562 L42.8857422,127.072266 C42.8857422,125.099609 44.0087891,123.712891 45.7275391,123.712891 C47.4365234,123.712891 48.5693359,125.099609 48.5693359,127.072266 L48.5693359,127.101562 L42.8857422,127.101562 Z M52.5146484,133 L53.7353516,133 L53.7353516,126.769531 C53.7353516,125.226562 54.6142578,123.771484 56.5771484,123.771484 C58.2373047,123.771484 59.2724609,124.845703 59.2724609,126.59375 L59.2724609,133 L60.4931641,133 L60.4931641,126.417969 C60.4931641,123.976562 58.9501953,122.648438 56.8701172,122.648438 C55.1318359,122.648438 54.1455078,123.585938 53.7744141,124.367188 L53.7353516,124.367188 L53.7353516,122.814453 L52.5146484,122.814453 L52.5146484,133 Z M63.1103516,125.597656 C63.1103516,127.384766 64.6044922,127.931641 66.5185547,128.380859 C68.1494141,128.751953 69.2431641,129.005859 69.2431641,130.246094 C69.2431641,131.359375 68.2763672,132.101562 66.6552734,132.101562 C64.9755859,132.101562 64.1845703,131.232422 64.0771484,130.324219 L62.8759766,130.324219 C62.8759766,131.925781 64.2236328,133.166016 66.5673828,133.166016 C68.8037109,133.166016 70.4638672,132.121094 70.4638672,130.119141 C70.4638672,128.126953 68.7939453,127.6875 66.9189453,127.296875 C65.5419922,126.994141 64.3310547,126.681641 64.3310547,125.480469 C64.3310547,124.289062 65.3564453,123.703125 66.6748047,123.703125 C68.4814453,123.703125 69.0283203,124.777344 69.0673828,125.568359 L70.2294922,125.568359 C70.2294922,124.113281 69.1650391,122.648438 66.7236328,122.648438 C64.7705078,122.648438 63.1103516,123.595703 63.1103516,125.597656 L63.1103516,125.597656 Z M73.1201172,133 L74.3505859,133 L74.3505859,122.814453 L73.1201172,122.814453 L73.1201172,133 Z M72.8466797,120.275391 C72.8466797,120.763672 73.2470703,121.164062 73.7353516,121.164062 C74.2236328,121.164062 74.6240234,120.763672 74.6240234,120.275391 C74.6240234,119.777344 74.2236328,119.376953 73.7353516,119.376953 C73.2470703,119.376953 72.8466797,119.777344 72.8466797,120.275391 L72.8466797,120.275391 Z M81.4306641,122.648438 C78.7646484,122.648438 77.1728516,124.542969 77.1728516,127.335938 L77.1728516,128.478516 C77.1728516,131.271484 78.7646484,133.166016 81.4306641,133.166016 C84.0966797,133.166016 85.6884766,131.271484 85.6884766,128.478516 L85.6884766,127.335938 C85.6884766,124.5625 84.0771484,122.648438 81.4306641,122.648438 L81.4306641,122.648438 Z M81.4306641,123.732422 C83.2861328,123.732422 84.4580078,125.099609 84.4580078,127.404297 L84.4580078,128.400391 C84.4580078,130.724609 83.2861328,132.0625 81.4306641,132.0625 C79.5751953,132.0625 78.4033203,130.714844 78.4033203,128.400391 L78.4033203,127.404297 C78.4033203,125.089844 79.5751953,123.732422 81.4306641,123.732422 L81.4306641,123.732422 Z M88.4326172,133 L89.6533203,133 L89.6533203,126.769531 C89.6533203,125.226562 90.5322266,123.771484 92.4951172,123.771484 C94.1552734,123.771484 95.1904297,124.845703 95.1904297,126.59375 L95.1904297,133 L96.4111328,133 L96.4111328,126.417969 C96.4111328,123.976562 94.8681641,122.648438 92.7880859,122.648438 C91.0498047,122.648438 90.0634766,123.585938 89.6923828,124.367188 L89.6533203,124.367188 L89.6533203,122.814453 L88.4326172,122.814453 L88.4326172,133 Z" id="Tension" fill="#737373" sketch:type="MSShapeGroup" transform="translate(65.161133, 126.271484) rotate(-90.000000) translate(-65.161133, -126.271484) "></path>
            <path d="M84.9707031,291 L84.9707031,278.822266 L89.1601562,278.822266 L89.1601562,277.689453 L79.5507812,277.689453 L79.5507812,278.822266 L83.7402344,278.822266 L83.7402344,291 L84.9707031,291 Z M90.8300781,291 L92.0605469,291 L92.0605469,280.814453 L90.8300781,280.814453 L90.8300781,291 Z M90.5566406,278.275391 C90.5566406,278.763672 90.9570312,279.164062 91.4453125,279.164062 C91.9335938,279.164062 92.3339844,278.763672 92.3339844,278.275391 C92.3339844,277.777344 91.9335938,277.376953 91.4453125,277.376953 C90.9570312,277.376953 90.5566406,277.777344 90.5566406,278.275391 L90.5566406,278.275391 Z M95.3222656,291 L96.5429688,291 L96.5429688,284.496094 C96.5429688,282.865234 97.5390625,281.771484 99.0429688,281.771484 C100.546875,281.771484 101.455078,282.728516 101.455078,284.427734 L101.455078,291 L102.685547,291 L102.685547,284.447266 C102.685547,282.972656 103.564453,281.771484 105.195312,281.771484 C106.71875,281.771484 107.597656,282.767578 107.597656,284.300781 L107.597656,291 L108.828125,291 L108.828125,284.056641 C108.828125,281.908203 107.5,280.648438 105.439453,280.648438 C103.662109,280.648438 102.646484,281.615234 102.324219,282.455078 L102.265625,282.455078 C101.904297,281.410156 100.947266,280.648438 99.2773438,280.648438 C97.7832031,280.648438 96.9042969,281.498047 96.6113281,282.210938 L96.5429688,282.210938 L96.5429688,280.814453 L95.3222656,280.814453 L95.3222656,291 Z M115.654297,291.166016 C117.919922,291.166016 119.189453,289.857422 119.501953,288.34375 L118.261719,288.34375 C117.998047,289.300781 117.158203,290.101562 115.693359,290.101562 C113.847656,290.101562 112.734375,288.695312 112.734375,286.46875 L112.734375,286.166016 L119.648438,286.166016 L119.648438,285.394531 C119.648438,282.464844 118.115234,280.648438 115.576172,280.648438 C113.007812,280.648438 111.503906,282.484375 111.503906,285.306641 L111.503906,286.439453 C111.503906,289.349609 113.066406,291.166016 115.654297,291.166016 L115.654297,291.166016 Z M112.734375,285.101562 L112.734375,285.072266 C112.734375,283.099609 113.857422,281.712891 115.576172,281.712891 C117.285156,281.712891 118.417969,283.099609 118.417969,285.072266 L118.417969,285.101562 L112.734375,285.101562 Z" id="Time" fill="#737373" sketch:type="MSShapeGroup"></path>
            <path d="M231.459961,253 L231.459961,243.682617 L230.591797,243.682617 L230.591797,253 L231.459961,253 Z M233.825195,253 L234.679688,253 L234.679688,248.638672 C234.679688,247.558594 235.294922,246.540039 236.668945,246.540039 C237.831055,246.540039 238.555664,247.291992 238.555664,248.515625 L238.555664,253 L239.410156,253 L239.410156,248.392578 C239.410156,246.683594 238.330078,245.753906 236.874023,245.753906 C235.657227,245.753906 234.966797,246.410156 234.707031,246.957031 L234.679688,246.957031 L234.679688,245.870117 L233.825195,245.870117 L233.825195,253 Z M241.228516,249.828125 C241.228516,251.769531 242.294922,253.116211 244.113281,253.116211 C245.794922,253.116211 246.608398,252.179688 246.806641,251.085938 L245.958984,251.085938 C245.822266,251.728516 245.261719,252.330078 244.181641,252.330078 C242.90332,252.330078 242.089844,251.379883 242.089844,249.821289 L242.089844,249.041992 C242.089844,247.456055 242.882812,246.533203 244.154297,246.533203 C245.131836,246.533203 245.767578,247.196289 245.917969,247.900391 L246.772461,247.900391 C246.704102,246.861328 245.760742,245.753906 244.106445,245.753906 C242.342773,245.753906 241.228516,247.032227 241.228516,248.980469 L241.228516,249.828125 Z M248.666016,253 L249.527344,253 L249.527344,245.870117 L248.666016,245.870117 L248.666016,253 Z M248.474609,244.092773 C248.474609,244.43457 248.754883,244.714844 249.09668,244.714844 C249.438477,244.714844 249.71875,244.43457 249.71875,244.092773 C249.71875,243.744141 249.438477,243.463867 249.09668,243.463867 C248.754883,243.463867 248.474609,243.744141 248.474609,244.092773 L248.474609,244.092773 Z M252.193359,245.870117 L251.167969,245.870117 L251.167969,246.608398 L252.193359,246.608398 L252.193359,251.154297 C252.193359,252.487305 252.535156,253.068359 254.066406,253.068359 C254.333008,253.068359 254.572266,253.041016 254.681641,253.013672 L254.681641,252.302734 C254.56543,252.323242 254.421875,252.330078 254.264648,252.330078 C253.362305,252.330078 253.054688,252.104492 253.054688,251.229492 L253.054688,246.608398 L254.613281,246.608398 L254.613281,245.870117 L253.054688,245.870117 L253.054688,244.099609 L252.193359,244.099609 L252.193359,245.870117 Z M256.46582,253 L257.327148,253 L257.327148,245.870117 L256.46582,245.870117 L256.46582,253 Z M256.274414,244.092773 C256.274414,244.43457 256.554688,244.714844 256.896484,244.714844 C257.238281,244.714844 257.518555,244.43457 257.518555,244.092773 C257.518555,243.744141 257.238281,243.463867 256.896484,243.463867 C256.554688,243.463867 256.274414,243.744141 256.274414,244.092773 L256.274414,244.092773 Z M259.610352,253 L260.464844,253 L260.464844,248.638672 C260.464844,247.558594 261.080078,246.540039 262.454102,246.540039 C263.616211,246.540039 264.34082,247.291992 264.34082,248.515625 L264.34082,253 L265.195312,253 L265.195312,248.392578 C265.195312,246.683594 264.115234,245.753906 262.65918,245.753906 C261.442383,245.753906 260.751953,246.410156 260.492188,246.957031 L260.464844,246.957031 L260.464844,245.870117 L259.610352,245.870117 L259.610352,253 Z M269.966797,254.852539 C268.825195,254.852539 268.189453,254.209961 268.086914,253.601562 L267.191406,253.601562 C267.321289,254.674805 268.196289,255.604492 269.966797,255.604492 C271.607422,255.604492 272.87207,254.654297 272.87207,252.979492 L272.87207,245.870117 L272.044922,245.870117 L272.044922,247.011719 L272.017578,247.011719 C271.730469,246.430664 270.985352,245.753906 269.84375,245.753906 C268.244141,245.753906 267.013672,246.868164 267.013672,248.932617 L267.013672,249.677734 C267.013672,251.714844 268.203125,252.876953 269.836914,252.876953 C271.019531,252.876953 271.757812,252.145508 271.983398,251.598633 L272.010742,251.598633 L272.010742,252.986328 C272.010742,254.12793 271.224609,254.852539 269.966797,254.852539 L269.966797,254.852539 Z M269.953125,246.512695 C271.210938,246.512695 272.010742,247.53125 272.010742,249.021484 L272.010742,249.602539 C272.010742,251.06543 271.265625,252.111328 269.953125,252.111328 C268.695312,252.111328 267.875,251.174805 267.875,249.595703 L267.875,249.035156 C267.875,247.380859 268.729492,246.512695 269.953125,246.512695 L269.953125,246.512695 Z M227.460938,269 L227.460938,259.682617 L226.592773,259.682617 L226.592773,269 L227.460938,269 Z M229.826172,269 L230.680664,269 L230.680664,264.638672 C230.680664,263.558594 231.295898,262.540039 232.669922,262.540039 C233.832031,262.540039 234.556641,263.291992 234.556641,264.515625 L234.556641,269 L235.411133,269 L235.411133,264.392578 C235.411133,262.683594 234.331055,261.753906 232.875,261.753906 C231.658203,261.753906 230.967773,262.410156 230.708008,262.957031 L230.680664,262.957031 L230.680664,261.870117 L229.826172,261.870117 L229.826172,269 Z M237.229492,265.828125 C237.229492,267.769531 238.295898,269.116211 240.114258,269.116211 C241.795898,269.116211 242.609375,268.179688 242.807617,267.085938 L241.959961,267.085938 C241.823242,267.728516 241.262695,268.330078 240.182617,268.330078 C238.904297,268.330078 238.09082,267.379883 238.09082,265.821289 L238.09082,265.041992 C238.09082,263.456055 238.883789,262.533203 240.155273,262.533203 C241.132812,262.533203 241.768555,263.196289 241.918945,263.900391 L242.773438,263.900391 C242.705078,262.861328 241.761719,261.753906 240.107422,261.753906 C238.34375,261.753906 237.229492,263.032227 237.229492,264.980469 L237.229492,265.828125 Z M244.666992,269 L245.52832,269 L245.52832,261.870117 L244.666992,261.870117 L244.666992,269 Z M244.475586,260.092773 C244.475586,260.43457 244.755859,260.714844 245.097656,260.714844 C245.439453,260.714844 245.719727,260.43457 245.719727,260.092773 C245.719727,259.744141 245.439453,259.463867 245.097656,259.463867 C244.755859,259.463867 244.475586,259.744141 244.475586,260.092773 L244.475586,260.092773 Z M250.320312,261.753906 C248.638672,261.753906 247.503906,263.039062 247.503906,264.994141 L247.503906,265.875977 C247.503906,267.810547 248.542969,269.116211 250.320312,269.116211 C251.496094,269.116211 252.207031,268.432617 252.521484,267.803711 L252.548828,267.803711 L252.548828,269 L253.369141,269 L253.369141,259.183594 L252.507812,259.183594 L252.507812,262.998047 L252.480469,262.998047 C252.172852,262.396484 251.455078,261.753906 250.320312,261.753906 L250.320312,261.753906 Z M250.388672,262.526367 C251.701172,262.526367 252.521484,263.56543 252.521484,265.048828 L252.521484,265.834961 C252.521484,267.325195 251.742188,268.34375 250.402344,268.34375 C249.240234,268.34375 248.365234,267.482422 248.365234,265.828125 L248.365234,265.048828 C248.365234,263.339844 249.274414,262.526367 250.388672,262.526367 L250.388672,262.526367 Z M258.202148,269.116211 C259.788086,269.116211 260.676758,268.200195 260.895508,267.140625 L260.027344,267.140625 C259.842773,267.810547 259.254883,268.371094 258.229492,268.371094 C256.9375,268.371094 256.158203,267.386719 256.158203,265.828125 L256.158203,265.616211 L260.998047,265.616211 L260.998047,265.076172 C260.998047,263.025391 259.924805,261.753906 258.147461,261.753906 C256.349609,261.753906 255.296875,263.039062 255.296875,265.014648 L255.296875,265.807617 C255.296875,267.844727 256.390625,269.116211 258.202148,269.116211 L258.202148,269.116211 Z M256.158203,264.871094 L256.158203,264.850586 C256.158203,263.469727 256.944336,262.499023 258.147461,262.499023 C259.34375,262.499023 260.136719,263.469727 260.136719,264.850586 L260.136719,264.871094 L256.158203,264.871094 Z M262.898438,269 L263.75293,269 L263.75293,264.638672 C263.75293,263.558594 264.368164,262.540039 265.742188,262.540039 C266.904297,262.540039 267.628906,263.291992 267.628906,264.515625 L267.628906,269 L268.483398,269 L268.483398,264.392578 C268.483398,262.683594 267.40332,261.753906 265.947266,261.753906 C264.730469,261.753906 264.040039,262.410156 263.780273,262.957031 L263.75293,262.957031 L263.75293,261.870117 L262.898438,261.870117 L262.898438,269 Z M270.992188,261.870117 L269.966797,261.870117 L269.966797,262.608398 L270.992188,262.608398 L270.992188,267.154297 C270.992188,268.487305 271.333984,269.068359 272.865234,269.068359 C273.131836,269.068359 273.371094,269.041016 273.480469,269.013672 L273.480469,268.302734 C273.364258,268.323242 273.220703,268.330078 273.063477,268.330078 C272.161133,268.330078 271.853516,268.104492 271.853516,267.229492 L271.853516,262.608398 L273.412109,262.608398 L273.412109,261.870117 L271.853516,261.870117 L271.853516,260.099609 L270.992188,260.099609 L270.992188,261.870117 Z" id="Inciting" fill="#737373" sketch:type="MSShapeGroup"></path>
            <path d="M487.430664,253 L487.430664,244.475586 L490.363281,244.475586 L490.363281,243.682617 L483.636719,243.682617 L483.636719,244.475586 L486.569336,244.475586 L486.569336,253 L487.430664,253 Z M490.821289,253 L491.675781,253 L491.675781,248.652344 C491.675781,247.456055 492.174805,246.560547 493.466797,246.560547 C493.692383,246.560547 493.931641,246.581055 494.027344,246.601562 L494.027344,245.794922 C493.904297,245.78125 493.753906,245.760742 493.569336,245.760742 C492.448242,245.760742 491.921875,246.375977 491.703125,246.916016 L491.675781,246.916016 L491.675781,245.870117 L490.821289,245.870117 L490.821289,253 Z M501.123047,245.870117 L500.213867,245.870117 L498.094727,252.015625 L498.060547,252.015625 L495.927734,245.870117 L494.970703,245.870117 L497.636719,253.102539 L497.472656,253.615234 C497.253906,254.326172 496.884766,254.756836 496.071289,254.756836 C495.900391,254.756836 495.647461,254.736328 495.517578,254.708984 L495.517578,255.447266 C495.695312,255.481445 495.955078,255.508789 496.194336,255.508789 C497.479492,255.508789 497.944336,254.681641 498.320312,253.663086 L498.552734,253.047852 L501.123047,245.870117 Z M511.698242,253 L512.826172,253 L511.260742,251.332031 C511.773438,250.566406 512.033203,249.417969 512.046875,248.084961 C512.046875,248.030273 512.053711,247.797852 512.053711,247.736328 L511.226562,247.736328 L511.226562,248.078125 C511.206055,249.206055 511.014648,250.163086 510.679688,250.750977 L508.157227,248.016602 C509.394531,247.380859 510.214844,246.717773 510.214844,245.637695 C510.214844,244.482422 509.285156,243.600586 507.958984,243.600586 C506.666992,243.600586 505.689453,244.448242 505.689453,245.603516 C505.689453,246.451172 506.21582,247.09375 506.926758,247.825195 C506.844727,247.866211 506.591797,247.996094 506.516602,248.037109 C505.272461,248.693359 504.650391,249.513672 504.650391,250.586914 C504.650391,252.234375 506.044922,253.177734 507.692383,253.177734 C508.635742,253.177734 509.811523,252.856445 510.734375,251.960938 L511.698242,253 Z M507.008789,248.583984 C507.077148,248.542969 507.350586,248.40625 507.425781,248.365234 L510.208008,251.400391 C509.56543,252.111328 508.560547,252.425781 507.74707,252.425781 C506.557617,252.425781 505.525391,251.749023 505.525391,250.545898 C505.525391,249.650391 506.106445,249.069336 507.008789,248.583984 L507.008789,248.583984 Z M507.658203,247.503906 C506.87207,246.704102 506.543945,246.232422 506.543945,245.651367 C506.543945,244.87207 507.138672,244.318359 507.96582,244.318359 C508.792969,244.318359 509.367188,244.87207 509.367188,245.658203 C509.367188,246.451172 508.772461,246.950195 507.658203,247.503906 L507.658203,247.503906 Z M517.761719,253 L517.761719,248.782227 L521.876953,248.782227 L521.876953,247.989258 L517.761719,247.989258 L517.761719,244.482422 L522.246094,244.482422 L522.246094,243.682617 L516.893555,243.682617 L516.893555,253 L517.761719,253 Z M527.694336,252.001953 L527.72168,252.001953 L527.72168,253 L528.555664,253 L528.555664,247.996094 C528.555664,246.553711 527.516602,245.753906 526.040039,245.753906 C524.419922,245.753906 523.592773,246.594727 523.49707,247.797852 L524.317383,247.797852 C524.419922,247.004883 524.966797,246.499023 525.999023,246.499023 C527.058594,246.499023 527.694336,247.045898 527.694336,248.105469 L527.694336,248.953125 L525.677734,248.953125 C524.057617,248.959961 523.209961,249.75293 523.209961,250.969727 C523.209961,252.282227 524.15332,253.116211 525.541016,253.116211 C526.723633,253.116211 527.400391,252.535156 527.694336,252.001953 L527.694336,252.001953 Z M525.725586,252.371094 C524.84375,252.371094 524.105469,251.878906 524.105469,250.949219 C524.105469,250.204102 524.583984,249.670898 525.705078,249.670898 L527.694336,249.670898 L527.694336,250.621094 C527.694336,251.660156 526.826172,252.371094 525.725586,252.371094 L525.725586,252.371094 Z M530.770508,253 L531.631836,253 L531.631836,245.870117 L530.770508,245.870117 L530.770508,253 Z M530.579102,244.092773 C530.579102,244.43457 530.859375,244.714844 531.201172,244.714844 C531.542969,244.714844 531.823242,244.43457 531.823242,244.092773 C531.823242,243.744141 531.542969,243.463867 531.201172,243.463867 C530.859375,243.463867 530.579102,243.744141 530.579102,244.092773 L530.579102,244.092773 Z M533.969727,253 L534.831055,253 L534.831055,243.183594 L533.969727,243.183594 L533.969727,253 Z M505.258789,263.654297 C505.258789,261.535156 506.256836,260.270508 507.958984,260.270508 C509.56543,260.270508 510.419922,261.459961 510.419922,262.492188 L511.28125,262.492188 L511.28125,262.485352 C511.28125,261.083984 510.180664,259.477539 507.958984,259.477539 C505.696289,259.477539 504.390625,261.083984 504.390625,263.661133 L504.390625,265.0625 C504.390625,267.639648 505.662109,269.205078 507.958984,269.205078 C510.228516,269.205078 511.308594,267.646484 511.308594,266.313477 L511.308594,266.306641 L510.447266,266.306641 C510.447266,267.43457 509.56543,268.412109 507.993164,268.412109 C506.236328,268.412109 505.258789,267.202148 505.258789,265.076172 L505.258789,263.654297 Z M518.329102,261.870117 L517.419922,261.870117 L515.300781,268.015625 L515.266602,268.015625 L513.133789,261.870117 L512.176758,261.870117 L514.842773,269.102539 L514.678711,269.615234 C514.459961,270.326172 514.09082,270.756836 513.277344,270.756836 C513.106445,270.756836 512.853516,270.736328 512.723633,270.708984 L512.723633,271.447266 C512.901367,271.481445 513.161133,271.508789 513.400391,271.508789 C514.685547,271.508789 515.150391,270.681641 515.526367,269.663086 L515.758789,269.047852 L518.329102,261.870117 Z M519.238281,265.828125 C519.238281,267.769531 520.304688,269.116211 522.123047,269.116211 C523.804688,269.116211 524.618164,268.179688 524.816406,267.085938 L523.96875,267.085938 C523.832031,267.728516 523.271484,268.330078 522.191406,268.330078 C520.913086,268.330078 520.099609,267.379883 520.099609,265.821289 L520.099609,265.041992 C520.099609,263.456055 520.892578,262.533203 522.164062,262.533203 C523.141602,262.533203 523.777344,263.196289 523.927734,263.900391 L524.782227,263.900391 C524.713867,262.861328 523.770508,261.753906 522.116211,261.753906 C520.352539,261.753906 519.238281,263.032227 519.238281,264.980469 L519.238281,265.828125 Z M526.675781,269 L527.537109,269 L527.537109,259.183594 L526.675781,259.183594 L526.675781,269 Z M532.417969,269.116211 C534.003906,269.116211 534.892578,268.200195 535.111328,267.140625 L534.243164,267.140625 C534.058594,267.810547 533.470703,268.371094 532.445312,268.371094 C531.15332,268.371094 530.374023,267.386719 530.374023,265.828125 L530.374023,265.616211 L535.213867,265.616211 L535.213867,265.076172 C535.213867,263.025391 534.140625,261.753906 532.363281,261.753906 C530.56543,261.753906 529.512695,263.039062 529.512695,265.014648 L529.512695,265.807617 C529.512695,267.844727 530.606445,269.116211 532.417969,269.116211 L532.417969,269.116211 Z M530.374023,264.871094 L530.374023,264.850586 C530.374023,263.469727 531.160156,262.499023 532.363281,262.499023 C533.55957,262.499023 534.352539,263.469727 534.352539,264.850586 L534.352539,264.871094 L530.374023,264.871094 Z" id="Try-&amp;-Fail" fill="#737373" sketch:type="MSShapeGroup"></path>
            <path d="M751.568359,263.654297 C751.568359,261.535156 752.566406,260.270508 754.268555,260.270508 C755.875,260.270508 756.729492,261.459961 756.729492,262.492188 L757.59082,262.492188 L757.59082,262.485352 C757.59082,261.083984 756.490234,259.477539 754.268555,259.477539 C752.005859,259.477539 750.700195,261.083984 750.700195,263.661133 L750.700195,265.0625 C750.700195,267.639648 751.97168,269.205078 754.268555,269.205078 C756.538086,269.205078 757.618164,267.646484 757.618164,266.313477 L757.618164,266.306641 L756.756836,266.306641 C756.756836,267.43457 755.875,268.412109 754.302734,268.412109 C752.545898,268.412109 751.568359,267.202148 751.568359,265.076172 L751.568359,263.654297 Z M759.539062,269 L760.400391,269 L760.400391,259.183594 L759.539062,259.183594 L759.539062,269 Z M762.738281,269 L763.599609,269 L763.599609,261.870117 L762.738281,261.870117 L762.738281,269 Z M762.546875,260.092773 C762.546875,260.43457 762.827148,260.714844 763.168945,260.714844 C763.510742,260.714844 763.791016,260.43457 763.791016,260.092773 C763.791016,259.744141 763.510742,259.463867 763.168945,259.463867 C762.827148,259.463867 762.546875,259.744141 762.546875,260.092773 L762.546875,260.092773 Z M765.882812,269 L766.737305,269 L766.737305,264.447266 C766.737305,263.305664 767.43457,262.540039 768.487305,262.540039 C769.540039,262.540039 770.175781,263.209961 770.175781,264.399414 L770.175781,269 L771.037109,269 L771.037109,264.413086 C771.037109,263.380859 771.652344,262.540039 772.793945,262.540039 C773.860352,262.540039 774.475586,263.237305 774.475586,264.310547 L774.475586,269 L775.336914,269 L775.336914,264.139648 C775.336914,262.635742 774.407227,261.753906 772.964844,261.753906 C771.720703,261.753906 771.009766,262.430664 770.78418,263.018555 L770.743164,263.018555 C770.490234,262.287109 769.820312,261.753906 768.651367,261.753906 C767.605469,261.753906 766.990234,262.348633 766.785156,262.847656 L766.737305,262.847656 L766.737305,261.870117 L765.882812,261.870117 L765.882812,269 Z M781.564453,268.001953 L781.591797,268.001953 L781.591797,269 L782.425781,269 L782.425781,263.996094 C782.425781,262.553711 781.386719,261.753906 779.910156,261.753906 C778.290039,261.753906 777.462891,262.594727 777.367188,263.797852 L778.1875,263.797852 C778.290039,263.004883 778.836914,262.499023 779.869141,262.499023 C780.928711,262.499023 781.564453,263.045898 781.564453,264.105469 L781.564453,264.953125 L779.547852,264.953125 C777.927734,264.959961 777.080078,265.75293 777.080078,266.969727 C777.080078,268.282227 778.023438,269.116211 779.411133,269.116211 C780.59375,269.116211 781.270508,268.535156 781.564453,268.001953 L781.564453,268.001953 Z M779.595703,268.371094 C778.713867,268.371094 777.975586,267.878906 777.975586,266.949219 C777.975586,266.204102 778.454102,265.670898 779.575195,265.670898 L781.564453,265.670898 L781.564453,266.621094 C781.564453,267.660156 780.696289,268.371094 779.595703,268.371094 L779.595703,268.371094 Z M788.708008,269 L789.740234,269 L787.251953,265.417969 L789.678711,261.870117 L788.6875,261.870117 L786.75293,264.754883 L786.746094,264.754883 L784.818359,261.870117 L783.779297,261.870117 L786.199219,265.424805 L783.704102,269 L784.695312,269 L786.691406,266.101562 L786.698242,266.101562 L788.708008,269 Z" id="Climax" fill="#737373" sketch:type="MSShapeGroup"></path>
            <path d="M909.268555,259.682617 L906.0625,259.682617 L906.0625,269 L906.930664,269 L906.930664,265.124023 L909.446289,265.124023 L911.319336,269 L912.324219,269 L910.321289,264.946289 C911.271484,264.65918 912.160156,263.879883 912.160156,262.375977 C912.160156,260.90625 911.203125,259.682617 909.268555,259.682617 L909.268555,259.682617 Z M906.930664,264.331055 L906.930664,260.475586 L909.152344,260.475586 C910.444336,260.475586 911.264648,261.166016 911.264648,262.430664 C911.264648,263.626953 910.499023,264.331055 909.118164,264.331055 L906.930664,264.331055 Z M916.671875,269.116211 C918.257812,269.116211 919.146484,268.200195 919.365234,267.140625 L918.49707,267.140625 C918.3125,267.810547 917.724609,268.371094 916.699219,268.371094 C915.407227,268.371094 914.62793,267.386719 914.62793,265.828125 L914.62793,265.616211 L919.467773,265.616211 L919.467773,265.076172 C919.467773,263.025391 918.394531,261.753906 916.617188,261.753906 C914.819336,261.753906 913.766602,263.039062 913.766602,265.014648 L913.766602,265.807617 C913.766602,267.844727 914.860352,269.116211 916.671875,269.116211 L916.671875,269.116211 Z M914.62793,264.871094 L914.62793,264.850586 C914.62793,263.469727 915.414062,262.499023 916.617188,262.499023 C917.813477,262.499023 918.606445,263.469727 918.606445,264.850586 L918.606445,264.871094 L914.62793,264.871094 Z M921.750977,261.870117 L920.725586,261.870117 L920.725586,262.608398 L921.750977,262.608398 L921.750977,267.154297 C921.750977,268.487305 922.092773,269.068359 923.624023,269.068359 C923.890625,269.068359 924.129883,269.041016 924.239258,269.013672 L924.239258,268.302734 C924.123047,268.323242 923.979492,268.330078 923.822266,268.330078 C922.919922,268.330078 922.612305,268.104492 922.612305,267.229492 L922.612305,262.608398 L924.170898,262.608398 L924.170898,261.870117 L922.612305,261.870117 L922.612305,260.099609 L921.750977,260.099609 L921.750977,261.870117 Z M931.328125,261.870117 L930.466797,261.870117 L930.466797,266.245117 C930.466797,267.448242 929.708008,268.330078 928.477539,268.330078 C927.411133,268.330078 926.631836,267.762695 926.631836,266.436523 L926.631836,261.870117 L925.770508,261.870117 L925.770508,266.668945 C925.770508,268.295898 926.830078,269.116211 928.272461,269.116211 C929.489258,269.116211 930.186523,268.521484 930.432617,267.913086 L930.473633,267.913086 L930.473633,269 L931.328125,269 L931.328125,261.870117 Z M933.556641,269 L934.411133,269 L934.411133,264.652344 C934.411133,263.456055 934.910156,262.560547 936.202148,262.560547 C936.427734,262.560547 936.666992,262.581055 936.762695,262.601562 L936.762695,261.794922 C936.639648,261.78125 936.489258,261.760742 936.304688,261.760742 C935.183594,261.760742 934.657227,262.375977 934.438477,262.916016 L934.411133,262.916016 L934.411133,261.870117 L933.556641,261.870117 L933.556641,269 Z M938.40332,269 L939.257812,269 L939.257812,264.638672 C939.257812,263.558594 939.873047,262.540039 941.24707,262.540039 C942.40918,262.540039 943.133789,263.291992 943.133789,264.515625 L943.133789,269 L943.988281,269 L943.988281,264.392578 C943.988281,262.683594 942.908203,261.753906 941.452148,261.753906 C940.235352,261.753906 939.544922,262.410156 939.285156,262.957031 L939.257812,262.957031 L939.257812,261.870117 L938.40332,261.870117 L938.40332,269 Z" id="Return" fill="#737373" sketch:type="MSShapeGroup"></path>
            <circle id="Oval-1" fill="url(#linearGradient-2)" sketch:type="MSShapeGroup" cx="170.5" cy="249.5" r="7.5"></circle>
            <path d="M465.5,132 C469.642136,132 473,128.642136 473,124.5 C473,120.357864 469.642136,117 465.5,117 C461.357864,117 458,120.357864 458,124.5 C458,128.642136 461.357864,132 465.5,132 Z" id="Oval-1-Copy" fill="url(#linearGradient-3)" sketch:type="MSShapeGroup"></path>
            <path d="M411.5,174 C415.642136,174 419,170.642136 419,166.5 C419,162.357864 415.642136,159 411.5,159 C407.357864,159 404,162.357864 404,166.5 C404,170.642136 407.357864,174 411.5,174 Z" id="Oval-1-Copy-4" fill="url(#linearGradient-4)" sketch:type="MSShapeGroup"></path>
            <path d="M348.5,209 C352.642136,209 356,205.642136 356,201.5 C356,197.357864 352.642136,194 348.5,194 C344.357864,194 341,197.357864 341,201.5 C341,205.642136 344.357864,209 348.5,209 Z" id="Oval-1-Copy-5" fill="url(#linearGradient-5)" sketch:type="MSShapeGroup"></path>
            <circle id="Oval-1-Copy-2" fill="url(#linearGradient-6)" sketch:type="MSShapeGroup" cx="586.5" cy="68.5" r="7.5"></circle>
            <circle id="Oval-1-Copy-3" fill="url(#linearGradient-7)" sketch:type="MSShapeGroup" cx="860.5" cy="247.5" r="7.5"></circle>
        </g>
    </g>
</svg>