<?xml version="1.0" encoding="utf-8" standalone="no"?>
<!DOCTYPE svg PUBLIC "-//W3C//DTD SVG 20010904//EN" "http://www.w3.org/TR/2001/REC-SVG-20010904/DTD/svg10.dtd">
<!-- Rendered by CSSBox http://cssbox.sourceforge.net -->
<svg xmlns="http://www.w3.org/2000/svg"
     xmlns:xlink="http://www.w3.org/1999/xlink" xml:space="preserve"
         width="1200" height="600px"
         viewBox="0 0 1200 600"
         zoomAndPan="disable" >
<rect x="0" y="0" width="1200" height="600" style="stroke:none;fill-opacity:1;fill:#fafafa" />
<text x="0" y="113" width="22" height="21" style="font-size:16px;font-weight:normal;font-variant:normal;font-family:Montserrat;fill:#000000;stroke:none">im</text>
<text x="0" y="137" width="79" height="21" style="font-size:16px;font-weight:normal;font-variant:normal;font-family:Montserrat;fill:#000000;stroke:none">specimen</text>
<text x="0" y="161" width="31" height="21" style="font-size:16px;font-weight:normal;font-variant:normal;font-family:Montserrat;fill:#000000;stroke:none">this</text>
<text x="0" y="185" width="37" height="21" style="font-size:16px;font-weight:normal;font-variant:normal;font-family:Montserrat;fill:#000000;stroke:none">is an</text>
<text x="0" y="209" width="69" height="21" style="font-size:16px;font-weight:normal;font-variant:normal;font-family:Montserrat;fill:#000000;stroke:none">example</text>
<text x="0" y="233" width="239" height="21" style="font-size:16px;font-weight:normal;font-variant:normal;font-family:Montserrat;fill:#000000;stroke:none">abcdefghijklmnopqrstuvwxyz</text>
<rect x="0" y="95" width="1200" height="79" style="stroke:none;fill-opacity:1;fill:#ffffff" />
<path style="fill:none;stroke:#cccccc;stroke-width:4" d="M 0,172 L 1200,172" />
<text x="225" y="168" width="189" height="37" style="font-size:30px;font-weight:bold;font-variant:normal;font-family:Montserrat;fill:#555555;stroke:none">Unown Sans</text>
<text x="834" y="152" width="36" height="30" style="font-size:24px;font-weight:normal;font-variant:normal;font-family:Montserrat;fill:#555555;stroke:none">css</text>
<text x="890" y="151" width="4" height="21" style="font-size:16px;font-weight:normal;font-variant:normal;font-family:Montserrat;fill:#000000;stroke:none"> </text>
<text x="834" y="186" width="121" height="30" style="font-size:24px;font-weight:normal;font-variant:normal;font-family:Montserrat;fill:#555555;stroke:none">Specimen</text>
<rect x="550" y="120" width="100" height="50" style="stroke:none;fill-opacity:1;fill:#cccccc" />
<rect x="550" y="170" width="100" height="50" style="stroke:none;fill-opacity:1;fill:#cccccc" />
<path style="fill:none;stroke:#ffffff;stroke-width:4" d="M 550,172 L 650,172" />
<rect x="581" y="151" width="38" height="38" style="stroke:none;fill-opacity:1;fill:#cccccc" />
<path style="fill:none;stroke:#ffffff;stroke-width:4" d="M 581,153 L 619,153" />
<path style="fill:none;stroke:#ffffff;stroke-width:4" d="M 617,151 L 617,189" />
<path style="fill:none;stroke:#ffffff;stroke-width:4" d="M 581,187 L 619,187" />
<path style="fill:none;stroke:#ffffff;stroke-width:4" d="M 583,151 L 583,189" />
<rect x="0" y="95" width="1200" height="79" style="stroke:none;fill-opacity:1;fill:#ffffff" />
<path style="fill:none;stroke:#cccccc;stroke-width:4" d="M 0,172 L 1200,172" />
<text x="225" y="168" width="189" height="37" style="font-size:30px;font-weight:bold;font-variant:normal;font-family:Montserrat;fill:#555555;stroke:none">Unown Sans</text>
<text x="834" y="152" width="36" height="30" style="font-size:24px;font-weight:normal;font-variant:normal;font-family:Montserrat;fill:#555555;stroke:none">css</text>
<text x="890" y="151" width="4" height="21" style="font-size:16px;font-weight:normal;font-variant:normal;font-family:Montserrat;fill:#000000;stroke:none"> </text>
<text x="834" y="186" width="121" height="30" style="font-size:24px;font-weight:normal;font-variant:normal;font-family:Montserrat;fill:#555555;stroke:none">Specimen</text>
<rect x="550" y="120" width="100" height="50" style="stroke:none;fill-opacity:1;fill:#cccccc" />
<rect x="550" y="170" width="100" height="50" style="stroke:none;fill-opacity:1;fill:#cccccc" />
<path style="fill:none;stroke:#ffffff;stroke-width:4" d="M 550,172 L 650,172" />
<rect x="581" y="151" width="38" height="38" style="stroke:none;fill-opacity:1;fill:#cccccc" />
<path style="fill:none;stroke:#ffffff;stroke-width:4" d="M 581,153 L 619,153" />
<path style="fill:none;stroke:#ffffff;stroke-width:4" d="M 617,151 L 617,189" />
<path style="fill:none;stroke:#ffffff;stroke-width:4" d="M 581,187 L 619,187" />
<path style="fill:none;stroke:#ffffff;stroke-width:4" d="M 583,151 L 583,189" />
</svg>
