<?xml version="1.0" encoding="utf-8"?>
<!-- Generator: Adobe Illustrator 19.1.0, SVG Export Plug-In . SVG Version: 6.00 Build 0)  -->
<svg version="1.1" id="Layer_1" xmlns="http://www.w3.org/2000/svg" xmlns:xlink="http://www.w3.org/1999/xlink" x="0px" y="0px"
	 viewBox="0 0 2646.7 405.1" style="enable-background:new 0 0 2646.7 405.1;" xml:space="preserve">
<style type="text/css">
	.st0{fill:none;stroke:#52B79F;stroke-width:3;stroke-miterlimit:10;}
	.st1{fill:none;stroke:#52B79F;stroke-width:4;stroke-miterlimit:10;}
	.st2{fill:#52B79F;}
	.st3{fill:none;}
	.st4{fill:#64BEAB;}
	.st5{font-family:'OpenSans';}
	.st6{font-size:13.9723px;}
	.st7{font-size:13px;}
	.st8{fill:#FFFFFF;}
	.st9{font-size:8px;}
	.st10{font-size:10px;}
	.st11{font-family:'OpenSans-Semibold';}
	.st12{fill:#6D6E71;}
	.st13{font-size:9.6059px;}
	.st14{font-size:25.3247px;}
</style>
<line class="st0" x1="828.3" y1="320.5" x2="881.2" y2="320.5"/>
<line class="st0" x1="239" y1="320.5" x2="296.8" y2="320.5"/>
<line class="st0" x1="125.1" y1="320.5" x2="191.5" y2="320.5"/>
<line class="st0" x1="478.4" y1="320.5" x2="526.6" y2="320.5"/>
<line class="st0" x1="377" y1="320.5" x2="417.1" y2="320.5"/>
<circle class="st1" cx="63.6" cy="320.5" r="61.6"/>
<line class="st0" x1="585.5" y1="320.5" x2="630.2" y2="320.5"/>
<line class="st0" x1="721.6" y1="320.5" x2="779.3" y2="320.5"/>
<circle class="st2" cx="208.4" cy="320.5" r="30.6"/>
<circle class="st2" cx="447.7" cy="320.5" r="30.6"/>
<circle class="st2" cx="554.9" cy="320.5" r="30.6"/>
<line class="st0" x1="941.8" y1="320.5" x2="1005.4" y2="320.5"/>
<rect x="16.5" y="297.6" class="st3" width="94.1" height="50.5"/>
<text transform="matrix(1 0 0 1 31.5854 308.2209)"><tspan x="0" y="0" class="st4 st5 st6">Customer </tspan><tspan x="-13.1" y="16.8" class="st4 st5 st6">Journey starts </tspan><tspan x="17" y="33.5" class="st4 st5 st6">here</tspan></text>
<line class="st0" x1="1199.4" y1="320.5" x2="1270.3" y2="320.5"/>
<circle class="st1" cx="2583.1" cy="320.2" r="61.6"/>
<rect x="2536.1" y="296.8" class="st3" width="94.1" height="52.1"/>
<text transform="matrix(1 0 0 1 2553.3721 306.6877)"><tspan x="0" y="0" class="st4 st5 st7">Customer </tspan><tspan x="-9.9" y="15.6" class="st4 st5 st7">Journey ends </tspan><tspan x="15.8" y="31.2" class="st4 st5 st7">here</tspan></text>
<rect x="184.6" y="309" class="st3" width="47.6" height="28.1"/>
<text transform="matrix(1 0 0 1 191.4984 315.1292)"><tspan x="0" y="0" class="st8 st5 st9">Finding a </tspan><tspan x="-4.7" y="9.6" class="st8 st5 st9">place to eat</tspan></text>
<rect x="423.9" y="315.6" class="st3" width="47.6" height="9.9"/>
<text transform="matrix(1 0 0 1 429.0248 323.1536)" class="st8 st5 st10">Internet </text>
<rect x="531.1" y="306.4" class="st3" width="47.6" height="43.7"/>
<text transform="matrix(1 0 0 1 542.6161 314.0121)"><tspan x="0" y="0" class="st8 st5 st10">What </tspan><tspan x="-3.7" y="12" class="st8 st5 st10">People </tspan><tspan x="4.6" y="24" class="st8 st5 st10">say</tspan></text>
<line class="st0" x1="1686.4" y1="320.5" x2="1750.1" y2="320.5"/>
<circle class="st2" cx="797.6" cy="320.5" r="30.6"/>
<line class="st0" x1="1086.5" y1="320.5" x2="1150.2" y2="320.5"/>
<rect x="773.8" y="315.9" class="st3" width="47.6" height="14.5"/>
<text transform="matrix(1 0 0 1 782.7802 323.4651)" class="st8 st5 st10">Enters</text>
<circle class="st2" cx="911.2" cy="320.5" r="30.6"/>
<line class="st0" x1="1829" y1="320.5" x2="1892.7" y2="320.5"/>
<rect x="887.4" y="309.9" class="st3" width="47.6" height="33.5"/>
<text transform="matrix(1 0 0 1 892.2264 317.4622)"><tspan x="0" y="0" class="st8 st5 st10">Greeted </tspan><tspan x="-2.5" y="12" class="st8 st5 st10">by server</tspan></text>
<circle class="st2" cx="1168.7" cy="320.5" r="30.6"/>
<line class="st0" x1="1356" y1="320.5" x2="1419.7" y2="320.5"/>
<line class="st0" x1="1464.3" y1="320.5" x2="1528" y2="320.5"/>
<line class="st0" x1="1949.3" y1="320.5" x2="2012.9" y2="320.5"/>
<line class="st0" x1="1580.5" y1="320.5" x2="1644.2" y2="320.5"/>
<rect x="1144.9" y="309.8" class="st3" width="47.6" height="31.3"/>
<text transform="matrix(1 0 0 1 1151.3544 317.428)"><tspan x="0" y="0" class="st8 st5 st10">Browse </tspan><tspan x="3.9" y="12" class="st8 st5 st10">Menu</tspan></text>
<circle class="st2" cx="1448.2" cy="320.5" r="30.6"/>
<rect x="1424.4" y="308.9" class="st3" width="47.6" height="26.1"/>
<text transform="matrix(1 0 0 1 1430.6688 316.4915)"><tspan x="0" y="0" class="st8 st5 st10">Waiting </tspan><tspan x="-1.3" y="12" class="st8 st5 st10">for food</tspan></text>
<circle class="st2" cx="1551.6" cy="320.5" r="30.6"/>
<rect x="1527.8" y="306.1" class="st3" width="47.6" height="31.6"/>
<text transform="matrix(1 0 0 1 1539.9457 313.7357)"><tspan x="0" y="0" class="st8 st5 st10">Food </tspan><tspan x="-4.1" y="12" class="st8 st5 st10">arrives </tspan></text>
<line class="st0" x1="2069.5" y1="319.6" x2="2133.2" y2="319.6"/>
<circle class="st2" cx="1655.8" cy="320.5" r="30.6"/>
<line class="st0" x1="2183" y1="319.6" x2="2246.6" y2="319.6"/>
<rect x="1632" y="307" class="st3" width="47.6" height="29.9"/>
<text transform="matrix(1 0 0 1 1641.0707 314.6088)"><tspan x="0" y="0" class="st8 st5 st10">Adjust </tspan><tspan x="3.2" y="12" class="st8 st5 st10">taste</tspan></text>
<line class="st0" x1="2305.1" y1="319.8" x2="2368.7" y2="319.8"/>
<circle class="st2" cx="1918.6" cy="320.5" r="30.6"/>
<rect x="1894.8" y="311.3" class="st3" width="47.6" height="34.9"/>
<text transform="matrix(1 0 0 1 1898.5946 318.8705)"><tspan x="0" y="0" class="st8 st5 st10">Receives </tspan><tspan x="13.2" y="12" class="st8 st5 st10">bill</tspan></text>
<circle class="st2" cx="2039.3" cy="320.5" r="30.6"/>
<rect x="2016.6" y="304.2" class="st3" width="47.6" height="41.3"/>
<text transform="matrix(1 0 0 1 2019.5463 311.7503)"><tspan x="0" y="0" class="st8 st5 st10">Seperate </tspan><tspan x="15.7" y="12" class="st8 st5 st10">or </tspan><tspan x="0.8" y="24" class="st8 st5 st10">together</tspan></text>
<circle class="st2" cx="2159.2" cy="319.6" r="30.6"/>
<circle class="st2" cx="328.6" cy="320.1" r="48"/>
<rect x="2135.4" y="300.3" class="st3" width="47.6" height="39.9"/>
<text transform="matrix(1 0 0 1 2143.9106 307.8694)"><tspan x="0" y="0" class="st8 st5 st10">Taking </tspan><tspan x="4.4" y="12" class="st8 st5 st10">food </tspan><tspan x="1.7" y="24" class="st8 st5 st10">home</tspan></text>
<circle class="st2" cx="2274.4" cy="319.3" r="30.6"/>
<rect x="2250.6" y="314.7" class="st3" width="47.6" height="18.5"/>
<text transform="matrix(1 0 0 1 2253.8262 322.3351)" class="st8 st5 st10">Payment</text>
<line class="st0" x1="2457.1" y1="319.8" x2="2520.8" y2="319.8"/>
<rect x="298.2" y="314.1" class="st3" width="58.8" height="12.8"/>
<text transform="matrix(1 0 0 1 304.6913 324.0139)" class="st8 st5 st7">Explore</text>
<circle class="st2" cx="1318.2" cy="322.3" r="48"/>
<rect x="1288.8" y="305.9" class="st3" width="58.8" height="32.9"/>
<text transform="matrix(1 0 0 1 1299.2006 315.7516)"><tspan x="0" y="0" class="st8 st5 st7">Places </tspan><tspan x="2.2" y="15.6" class="st8 st5 st7">order</tspan></text>
<circle class="st2" cx="1789.3" cy="320.5" r="48"/>
<rect x="1759.9" y="314.2" class="st3" width="58.8" height="15.5"/>
<text transform="matrix(1 0 0 1 1770.5883 324.0999)" class="st8 st5 st7">Eating</text>
<circle class="st2" cx="2409.2" cy="319.3" r="48"/>
<rect x="2379.8" y="312.7" class="st3" width="58.8" height="15.5"/>
<text transform="matrix(1 0 0 1 2386.0908 322.6263)" class="st8 st5 st7">Leaving</text>
<circle class="st2" cx="1038.5" cy="320.5" r="48"/>
<circle class="st2" cx="674.6" cy="319.9" r="48"/>
<rect x="1009" y="300.2" class="st3" width="58.8" height="60.8"/>
<text transform="matrix(1 0 0 1 1015.2245 310.1293)"><tspan x="0" y="0" class="st8 st11 st7">Seating </tspan><tspan x="11.3" y="15.6" class="st8 st11 st7">and </tspan><tspan x="5.2" y="31.2" class="st8 st11 st7">Menu</tspan></text>
<text transform="matrix(0 -1 1 0 211.3808 240.0831)" class="st12 st5 st13">what is new and what people are talking about</text>
<text transform="matrix(0 -1 1 0 554.8583 233.3369)"><tspan x="0" y="0" class="st12 st5 st13">What are friends and family saying is a good place</tspan><tspan x="0" y="11.5" class="st12 st5 st13">to eat</tspan></text>
<text transform="matrix(0 -1 1 0 675.3934 233.3369)"><tspan x="0" y="0" class="st12 st5 st13">After parking, makes pre-assumptions of </tspan><tspan x="0" y="11.5" class="st12 st5 st13">what kind of setting is inside</tspan></text>
<text transform="matrix(0 -1 1 0 800.6049 233.3369)" class="st12 st5 st13">Waits to be seated</text>
<text transform="matrix(0 -1 1 0 914.1298 233.3369)" class="st12 st5 st13">Asked how many guests there are </text>
<text transform="matrix(0 -1 1 0 1043.2728 233.3369)" class="st12 st5 st13">Seated and is given a menu</text>
<text transform="matrix(0 -1 1 0 1171.7118 233.3369)" class="st12 st5 st13">Asks questions regarding the food</text>
<text transform="matrix(0 -1 1 0 1445.3954 233.3369)"><tspan x="0" y="0" class="st12 st5 st13">Sports Entertainment is provided, unsure</tspan><tspan x="0" y="11.5" class="st12 st5 st13">how long it will take</tspan></text>
<text transform="matrix(0 -1 1 0 1555.4144 233.3369)" class="st12 st5 st13">Looks for visual appeal as well as freshness</text>
<text transform="matrix(0 -1 1 0 1659.6234 233.3369)"><tspan x="0" y="0" class="st12 st5 st13">Customizes taste to their liking with the sauces</tspan><tspan x="0" y="11.5" class="st12 st5 st13">already on the table.</tspan></text>
<text transform="matrix(0 -1 1 0 1792.2836 233.3369)" class="st12 st5 st13">Customer goes through dining experience</text>
<text transform="matrix(0 -1 1 0 1924.079 233.3369)" class="st12 st5 st13">Determines whether the meal was worth the money</text>
<text transform="matrix(0 -1 1 0 2042.2299 233.3369)" class="st12 st5 st13">Pays individually or as a whole</text>
<text transform="matrix(0 -1 1 0 2162.4795 233.3369)" class="st12 st5 st13">Customer packages their leftovers</text>
<text transform="matrix(0 -1 1 0 2278.6235 233.3369)"><tspan x="0" y="0" class="st12 st5 st13">Gives cash or card, gives signature if using </tspan><tspan x="0" y="11.5" class="st12 st5 st13">card</tspan></text>
<text transform="matrix(0 -1 1 0 2409.1768 233.3369)"><tspan x="0" y="0" class="st12 st5 st13">Customer remembers dining experience and </tspan><tspan x="0" y="11.5" class="st12 st5 st13">decides whether or not is coming back</tspan></text>
<text transform="matrix(0 -1 1 0 1311.0331 233.3347)" class="st12 st5 st13">Places order</text>
<text transform="matrix(0 -1 1 0 327.5653 233.3369)"><tspan x="0" y="0" class="st12 st5 st13">Customer researches what is popular nearby using </tspan><tspan x="0" y="11.5" class="st12 st5 st13">search applications</tspan></text>
<text transform="matrix(0 -1 1 0 444.953 233.3369)"><tspan x="0" y="0" class="st12 st5 st13">Uses the Internet to find out locations as well as </tspan><tspan x="0" y="11.5" class="st12 st5 st13">prices and mood</tspan></text>
<rect x="645" y="299.1" class="st3" width="58.8" height="46.3"/>
<text transform="matrix(1 0 0 1 645.766 308.9808)"><tspan x="0" y="0" class="st8 st5 st7">Arrives at </tspan><tspan x="3.2" y="15.6" class="st8 st5 st7">Monster </tspan><tspan x="16.8" y="31.2" class="st8 st5 st7">Pho</tspan></text>
<path class="st3" d="M360.3,401.8h-34.5c-2.3,0-4.3-1.7-4.3-3.7v-15.7c0-2,1.9-3.7,4.3-3.7h34.5c2.3,0,4.3,1.7,4.3,3.7v15.7
	C364.5,400.2,362.6,401.8,360.3,401.8z"/>
<text transform="matrix(1 0 0 1 322.0473 397.9407)" class="st2 st5 st14">1</text>
<path class="st3" d="M706.7,401.8h-34.5c-2.3,0-4.3-1.7-4.3-3.7v-15.7c0-2,1.9-3.7,4.3-3.7h34.5c2.3,0,4.3,1.7,4.3,3.7v15.7
	C710.9,400.2,709,401.8,706.7,401.8z"/>
<text transform="matrix(1 0 0 1 668.4418 397.9407)" class="st2 st11 st14">2</text>
<path class="st3" d="M1071.1,401.8h-34.5c-2.3,0-4.3-1.7-4.3-3.7v-15.7c0-2,1.9-3.7,4.3-3.7h34.5c2.3,0,4.3,1.7,4.3,3.7v15.7
	C1075.4,400.2,1073.5,401.8,1071.1,401.8z"/>
<text transform="matrix(1 0 0 1 1032.8851 397.9407)" class="st2 st11 st14">3</text>
<path class="st3" d="M1349.8,401.8h-34.5c-2.3,0-4.3-1.7-4.3-3.7v-15.7c0-2,1.9-3.7,4.3-3.7h34.5c2.3,0,4.3,1.7,4.3,3.7v15.7
	C1354,400.2,1352.1,401.8,1349.8,401.8z"/>
<text transform="matrix(1 0 0 1 1311.5594 397.9407)" class="st2 st11 st14">4</text>
<path class="st3" d="M1801.7,401.8h-15.6c-1.1,0-1.9-1.7-1.9-3.7v-15.7c0-2,0.9-3.7,1.9-3.7h15.6c1.1,0,1.9,1.7,1.9,3.7v15.7
	C1803.6,400.2,1802.8,401.8,1801.7,401.8z"/>
<text transform="matrix(1 0 0 1 1784.4838 397.9407)" class="st2 st11 st14">5</text>
<path class="st3" d="M2443,401.8h-34.5c-2.3,0-4.3-1.7-4.3-3.7v-15.7c0-2,1.9-3.7,4.3-3.7h34.5c2.3,0,4.3,1.7,4.3,3.7v15.7
	C2447.3,400.2,2445.4,401.8,2443,401.8z"/>
<text transform="matrix(1 0 0 1 2404.792 397.9407)" class="st2 st11 st14">6</text>
</svg>
