<?xml version="1.0" encoding="UTF-8" standalone="no"?>
<svg width="1011px" height="283px" viewBox="0 0 1011 283" version="1.1" xmlns="http://www.w3.org/2000/svg" xmlns:xlink="http://www.w3.org/1999/xlink">
    <!-- Generator: Sketch 3.6.1 (26313) - http://www.bohemiancoding.com/sketch -->
    <title>HELLO</title>
    <desc>Created with Sketch.</desc>
    <defs></defs>
    <g id="unown" stroke="none" stroke-width="1" fill="none" fill-rule="evenodd">
        <g id="HELLO">
            <g id="H">
                <circle id="Oval-1" stroke="#101010" stroke-width="10" cx="85.5" cy="86.5" r="85.5"></circle>
                <rect id="Rectangle-1" fill="#FFFFFF" x="79" y="0" width="11" height="174"></rect>
                <rect id="Rectangle-2" fill="#101010" x="7" y="81" width="157" height="10"></rect>
                <g id="Eye" transform="translate(40.000000, 41.000000)">
                    <circle id="Oval-1-Copy" stroke="#101010" stroke-width="10" fill="#FFFFFF" cx="45" cy="45" r="45"></circle>
                    <g id="eyeBall" transform="translate(35.000000, 36.000000)">
                        <circle id="Oval-1-Copy-2" fill="#101010" cx="10" cy="10" r="10"></circle>
                        <ellipse id="Oval-4" fill="#FFFFFF" transform="translate(5.069353, 6.051748) rotate(-333.000000) translate(-5.069353, -6.051748) " cx="5.06935271" cy="6.051748" rx="3" ry="4"></ellipse>
                    </g>
                </g>
            </g>
            <g id="E" transform="translate(211.000000, 4.000000)">
                <rect id="Rectangle-3" fill="#101010" x="0" y="80" width="145" height="10"></rect>
                <g id="Eye-Copy-2" transform="translate(25.000000, 40.000000)">
                    <circle id="Oval-1-Copy" stroke="#101010" stroke-width="10" fill="#FFFFFF" cx="45" cy="45" r="45"></circle>
                    <g id="eyeBall" transform="translate(35.000000, 36.000000)">
                        <circle id="Oval-1-Copy-2" fill="#101010" cx="10" cy="10" r="10"></circle>
                        <ellipse id="Oval-4" fill="#FFFFFF" transform="translate(5.069353, 6.051748) rotate(-333.000000) translate(-5.069353, -6.051748) " cx="5.06935271" cy="6.051748" rx="3" ry="4"></ellipse>
                    </g>
                </g>
                <path d="M150.5,10 L102.497396,10 C102.497396,10 92,10 83,19 C74,28 75,40 75,40 L64.9875078,40 C64.9875078,40 62.999999,27 75,13.5 C87.0000009,0 102.5,0 102.5,0 L150.5,0" id="Path-1" fill="#101010"></path>
                <path d="M150.635549,140 L102.632945,140 C102.632945,140 92.1355487,140 83.1355487,149 C74.1355487,158 75.1355487,170 75.1355487,170 L65.1230565,170 C65.1230565,170 63.1355477,157 75.1355486,143.5 C87.1355496,130 102.635549,130 102.635549,130 L150.635549,130" id="Path-1-Copy" fill="#101010" transform="translate(107.817774, 150.000000) scale(1, -1) translate(-107.817774, -150.000000) "></path>
            </g>
            <g id="L" transform="translate(424.000000, 4.000000)">
                <g id="Eye-Copy-3" transform="translate(10.000000, 5.000000)">
                    <circle id="Oval-1-Copy" stroke="#101010" stroke-width="10" fill="#FFFFFF" cx="45" cy="45" r="45"></circle>
                    <g id="eyeBall" transform="translate(35.000000, 36.000000)">
                        <circle id="Oval-1-Copy-2" fill="#101010" cx="10" cy="10" r="10"></circle>
                        <ellipse id="Oval-4" fill="#FFFFFF" transform="translate(5.069353, 6.051748) rotate(-333.000000) translate(-5.069353, -6.051748) " cx="5.06935271" cy="6.051748" rx="3" ry="4"></ellipse>
                    </g>
                </g>
                <path d="M0,-4.26325641e-14 L15.5322246,-4.26325641e-14 L35.7678621,20.2356376 L21.8150357,20.2356376 L0,-4.26325641e-14 Z" id="Path-3" fill="#101010"></path>
                <path d="M60,95 L60,165.501773 L125.5,165.501773 L125.5,175.013151 L49.9984303,175.013151 L49.9984303,94.5 L60,95 Z" id="Path-4" fill="#101010"></path>
            </g>
            <g id="L-Copy" transform="translate(626.000000, 5.000000)">
                <g id="Eye-Copy-3" transform="translate(10.000000, 5.000000)">
                    <circle id="Oval-1-Copy" stroke="#101010" stroke-width="10" fill="#FFFFFF" cx="45" cy="45" r="45"></circle>
                    <g id="eyeBall" transform="translate(35.000000, 36.000000)">
                        <circle id="Oval-1-Copy-2" fill="#101010" cx="10" cy="10" r="10"></circle>
                        <ellipse id="Oval-4" fill="#FFFFFF" transform="translate(5.069353, 6.051748) rotate(-333.000000) translate(-5.069353, -6.051748) " cx="5.06935271" cy="6.051748" rx="3" ry="4"></ellipse>
                    </g>
                </g>
                <path d="M0,-4.26325641e-14 L15.5322246,-4.26325641e-14 L35.7678621,20.2356376 L21.8150357,20.2356376 L0,-4.26325641e-14 Z" id="Path-3" fill="#101010"></path>
                <path d="M60,95 L60,165.501773 L125.5,165.501773 L125.5,175.013151 L49.9984303,175.013151 L49.9984303,94.5 L60,95 Z" id="Path-4" fill="#101010"></path>
            </g>
            <path d="M104.29375,282 L104.29375,236.90625 L94.85625,236.90625 L94.85625,255.21875 L74.54375,255.21875 L74.54375,236.90625 L65.10625,236.90625 L65.10625,282 L74.54375,282 L74.54375,263 L94.85625,263 L94.85625,282 L104.29375,282 Z" id="H" fill="#000000"></path>
            <path d="M312.98125,274.1875 L292.54375,274.1875 L292.54375,262.8125 L311.825,262.8125 L311.825,255.5625 L292.54375,255.5625 L292.54375,244.6875 L312.98125,244.6875 L312.98125,236.90625 L283.10625,236.90625 L283.10625,282 L312.98125,282 L312.98125,274.1875 Z" id="E" fill="#000000"></path>
            <path d="M520.23125,274.1875 L500.5125,274.1875 L500.5125,236.90625 L491.075,236.90625 L491.075,282 L520.23125,282 L520.23125,274.1875 Z" id="L" fill="#000000"></path>
            <path d="M726.23125,274.1875 L706.5125,274.1875 L706.5125,236.90625 L697.075,236.90625 L697.075,282 L726.23125,282 L726.23125,274.1875 Z" id="L-Copy-2" fill="#000000"></path>
            <path d="M925.215625,236.125 C911.840625,236.125 903.465625,245.09375 903.465625,259.46875 C903.465625,273.8125 911.840625,282.78125 925.215625,282.78125 C938.559375,282.78125 946.965625,273.8125 946.965625,259.46875 C946.965625,245.09375 938.559375,236.125 925.215625,236.125 L925.215625,236.125 Z M925.215625,244 C932.590625,244 937.309375,250 937.309375,259.46875 C937.309375,268.90625 932.590625,274.875 925.215625,274.875 C917.809375,274.875 913.090625,268.90625 913.090625,259.46875 C913.090625,250 917.840625,244 925.215625,244 L925.215625,244 Z" id="O" fill="#000000"></path>
            <g id="O" transform="translate(841.000000, 10.000000)">
                <rect id="Rectangle-4" fill="#101010" x="80" y="127" width="10" height="38"></rect>
                <g id="Eye-Copy" transform="translate(39.000000, 40.000000)">
                    <circle id="Oval-1-Copy" stroke="#101010" stroke-width="10" fill="#FFFFFF" cx="45" cy="45" r="45"></circle>
                    <g id="eyeBall" transform="translate(35.000000, 36.000000)">
                        <circle id="Oval-1-Copy-2" fill="#101010" cx="10" cy="10" r="10"></circle>
                        <ellipse id="Oval-4" fill="#FFFFFF" transform="translate(5.069353, 6.051748) rotate(-333.000000) translate(-5.069353, -6.051748) " cx="5.06935271" cy="6.051748" rx="3" ry="4"></ellipse>
                    </g>
                </g>
                <circle id="Oval-20" stroke="#101010" stroke-width="10" cx="85" cy="85" r="85"></circle>
            </g>
        </g>
    </g>
</svg>