<?xml version="1.0" encoding="UTF-8" standalone="no"?>
<svg width="555px" height="555px" viewBox="0 0 555 555" version="1.1" xmlns="http://www.w3.org/2000/svg" xmlns:xlink="http://www.w3.org/1999/xlink" xmlns:sketch="http://www.bohemiancoding.com/sketch/ns">
    <!-- Generator: Sketch 3.4.4 (17249) - http://www.bohemiancoding.com/sketch -->
    <title>noun_305985</title>
    <desc>Created with Sketch.</desc>
    <defs>
        <filter x="-50%" y="-50%" width="200%" height="200%" filterUnits="objectBoundingBox" id="filter-1">
            <feMorphology radius="2" in="SourceAlpha" operator="dilate" result="shadowSpreadInner1"></feMorphology>
            <feOffset dx="2" dy="2" in="shadowSpreadInner1" result="shadowOffsetInner1"></feOffset>
            <feGaussianBlur stdDeviation="1.5" in="shadowOffsetInner1" result="shadowBlurInner1"></feGaussianBlur>
            <feComposite in="shadowBlurInner1" in2="SourceAlpha" operator="arithmetic" k2="-1" k3="1" result="shadowInnerInner1"></feComposite>
            <feColorMatrix values="0 0 0 0 0.894117647   0 0 0 0 0.894117647   0 0 0 0 0.894117647  0 0 0 0.7 0" in="shadowInnerInner1" type="matrix" result="shadowMatrixInner1"></feColorMatrix>
            <feMerge>
                <feMergeNode in="SourceGraphic"></feMergeNode>
                <feMergeNode in="shadowMatrixInner1"></feMergeNode>
            </feMerge>
        </filter>
        <filter x="-50%" y="-50%" width="200%" height="200%" filterUnits="objectBoundingBox" id="filter-2">
            <feMorphology radius="2" in="SourceAlpha" operator="dilate" result="shadowSpreadInner1"></feMorphology>
            <feOffset dx="2" dy="2" in="shadowSpreadInner1" result="shadowOffsetInner1"></feOffset>
            <feGaussianBlur stdDeviation="1.5" in="shadowOffsetInner1" result="shadowBlurInner1"></feGaussianBlur>
            <feComposite in="shadowBlurInner1" in2="SourceAlpha" operator="arithmetic" k2="-1" k3="1" result="shadowInnerInner1"></feComposite>
            <feColorMatrix values="0 0 0 0 0.894117647   0 0 0 0 0.894117647   0 0 0 0 0.894117647  0 0 0 0.7 0" in="shadowInnerInner1" type="matrix" result="shadowMatrixInner1"></feColorMatrix>
            <feMerge>
                <feMergeNode in="SourceGraphic"></feMergeNode>
                <feMergeNode in="shadowMatrixInner1"></feMergeNode>
            </feMerge>
        </filter>
        <filter x="-50%" y="-50%" width="200%" height="200%" filterUnits="objectBoundingBox" id="filter-3">
            <feMorphology radius="2" in="SourceAlpha" operator="dilate" result="shadowSpreadInner1"></feMorphology>
            <feOffset dx="2" dy="2" in="shadowSpreadInner1" result="shadowOffsetInner1"></feOffset>
            <feGaussianBlur stdDeviation="1.5" in="shadowOffsetInner1" result="shadowBlurInner1"></feGaussianBlur>
            <feComposite in="shadowBlurInner1" in2="SourceAlpha" operator="arithmetic" k2="-1" k3="1" result="shadowInnerInner1"></feComposite>
            <feColorMatrix values="0 0 0 0 0.894117647   0 0 0 0 0.894117647   0 0 0 0 0.894117647  0 0 0 0.7 0" in="shadowInnerInner1" type="matrix" result="shadowMatrixInner1"></feColorMatrix>
            <feMerge>
                <feMergeNode in="SourceGraphic"></feMergeNode>
                <feMergeNode in="shadowMatrixInner1"></feMergeNode>
            </feMerge>
        </filter>
    </defs>
    <g id="Page-1" stroke="none" stroke-width="1" fill="none" fill-rule="evenodd" sketch:type="MSPage">
        <g id="noun_305985" sketch:type="MSLayerGroup" fill="#F2F2F2">
            <g id="Group" sketch:type="MSShapeGroup">
                <path d="M277.5,0 C124.492667,0 0,124.4865 0,277.5 C0,430.5135 124.492667,555 277.5,555 C430.5135,555 555,430.5135 555,277.5 C555,124.4865 430.5135,0 277.5,0 L277.5,0 Z M277.5,533.651 C136.258667,533.651 21.349,418.741333 21.349,277.5 C21.349,136.258667 136.258667,21.349 277.5,21.349 C418.741333,21.349 533.651,136.258667 533.651,277.5 C533.651,418.741333 418.741333,533.651 277.5,533.651 L277.5,533.651 Z" id="Shape" filter="url(#filter-1)"></path>
                <path d="M277.524667,274.786667 C333.789333,274.786667 372.022667,232.107167 372.022667,179.474667 C372.022667,126.842167 333.789333,84.1626667 277.524667,84.1626667 C221.235333,84.1626667 182.989667,126.842167 182.989667,179.474667 C182.989667,232.107167 221.235333,274.786667 277.524667,274.786667 L277.524667,274.786667 Z" id="Shape" filter="url(#filter-2)"></path>
                <path d="M278.289333,302.413333 L278.289333,302.339333 C278.0365,302.339333 277.765167,302.376333 277.5,302.376333 C277.2225,302.376333 276.975833,302.339333 276.723,302.339333 L276.723,302.413333 C187.7565,303.116333 114.9405,362.378 106.455167,438.123167 C149.319667,483.731833 210.116833,512.308167 277.5,512.308167 C344.883167,512.308167 405.680333,483.731833 448.551,438.123167 C440.0595,362.378 367.255833,303.116333 278.289333,302.413333 L278.289333,302.413333 Z" id="Shape" filter="url(#filter-3)"></path>
            </g>
        </g>
    </g>
</svg>