<?xml version="1.0" encoding="UTF-8" standalone="no"?>
<svg width="41px" height="38px" viewBox="0 0 41 38" version="1.1" xmlns="http://www.w3.org/2000/svg" xmlns:xlink="http://www.w3.org/1999/xlink" xmlns:sketch="http://www.bohemiancoding.com/sketch/ns">
    <!-- Generator: Sketch 3.4.4 (17249) - http://www.bohemiancoding.com/sketch -->
    <title>Shape</title>
    <desc>Created with Sketch.</desc>
    <defs></defs>
    <g id="Page-1" stroke="none" stroke-width="1" fill="none" fill-rule="evenodd" sketch:type="MSPage">
        <g id="linkedin" sketch:type="MSArtboardGroup" transform="translate(-48.000000, -48.000000)" fill="#007BB6">
            <g id="11-linkedin" sketch:type="MSLayerGroup" transform="translate(48.000000, 48.000000)">
                <g id="Group" sketch:type="MSShapeGroup">
                    <path d="M9.57959976,37.9213434 L1.09935988,37.9213434 L1.09935988,12.4079197 L9.57959976,12.4079197 L9.57959976,37.9213434 L9.57959976,37.9213434 Z M5.34004782,8.92267176 L5.28324782,8.92267176 C2.43870386,8.92267176 0.598383885,6.96307179 0.598383885,4.51499182 C0.598383885,2.01238385 2.49550386,0.107311878 5.39571182,0.107311878 C8.29705578,0.107311878 10.0817118,2.01238385 10.1385118,4.51499182 C10.1385118,6.96307179 8.29591978,8.92267176 5.34004782,8.92267176 L5.34004782,8.92267176 Z M40.1595834,37.9213434 L31.6793435,37.9213434 L31.6793435,24.2688956 C31.6793435,20.8404476 30.4524635,18.5002876 27.3841275,18.5002876 C25.0416956,18.5002876 23.6466876,20.0781916 23.0321116,21.6027036 C22.8083196,22.1468476 22.7537916,22.9079676 22.7537916,23.6713596 L22.7537916,37.9202074 L14.2735517,37.9202074 C14.2735517,37.9202074 14.3848797,14.7980637 14.2735517,12.4067837 L22.7537916,12.4067837 L22.7537916,16.0181277 C23.8807036,14.2800477 25.8959675,11.8047037 30.3979355,11.8047037 C35.9768314,11.8047037 40.1607194,15.4523997 40.1607194,23.2896636 L40.1607194,37.9213434 L40.1595834,37.9213434 Z" id="Shape"></path>
                </g>
            </g>
        </g>
    </g>
</svg>