<?xml version="1.0" encoding="UTF-8"?>
<svg width="312px" height="169px" viewBox="0 0 312 169" version="1.1" xmlns="http://www.w3.org/2000/svg" xmlns:xlink="http://www.w3.org/1999/xlink">
    <!-- Generator: Sketch 43.2 (39069) - http://www.bohemiancoding.com/sketch -->
    <title>Group 4</title>
    <desc>Created with Sketch.</desc>
    <defs></defs>
    <g id="Preparation" stroke="none" stroke-width="1" fill="none" fill-rule="evenodd">
        <g id="Group-4" transform="translate(0.000000, -14.000000)">
            <g id="logo-copy-4" transform="translate(110.000000, 0.000000)">
                <g id="Group-3" transform="translate(18.200000, 14.560000)">
                    <g id="Group-2">
                        <path d="M27.2818,0.234140541 C35.6171458,5.04052378 43.9745366,7.96401599 52.2727539,9.77973708 C55.146731,19.3338631 54.8879918,29.8336995 50.9407693,38.9677468 C46.9297323,48.2510606 39.2743019,56.1014155 27.2818,60.4322781 C15.2892981,56.1014155 7.63386775,48.2510606 3.62283067,38.9677468 C-0.324391811,29.8336995 -0.583130969,19.3338631 2.29084613,9.77973708 C10.5890634,7.96401599 18.9464542,5.04052378 27.2818,0.234140541 Z" id="Page-1" fill="#FFFFFF"></path>
                        <path d="M27.2818,0.234140541 C35.6171458,5.04052378 43.9745366,7.96401599 52.2727539,9.77973708 C55.146731,19.3338631 54.8879918,29.8336995 50.9407693,38.9677468 C46.9297323,48.2510606 39.2743019,56.1014155 27.2818,60.4322781 L27.2818,0.234140541 Z" id="Page-1" fill="#EFEFF4"></path>
                    </g>
                    <circle id="Oval" fill="#303030" cx="27.2818" cy="14.1778" r="2.7846"></circle>
                    <circle id="Oval-Copy" fill="#303030" cx="27.2818" cy="25.3162" r="2.7846"></circle>
                    <circle id="Oval-Copy-2" fill="#303030" cx="27.2818" cy="36.4546" r="2.7846"></circle>
                </g>
            </g>
            <path d="M7.10109091,160.673455 L7.10109091,174 L0.0581818182,174 L0.0581818182,136.141091 L12.3898182,136.141091 C14.9207399,136.141091 17.1112635,136.437815 18.9614545,137.031273 C20.8116456,137.62473 22.3389031,138.453813 23.5432727,139.518545 C24.7476424,140.583278 25.6378153,141.857447 26.2138182,143.341091 C26.7898211,144.824735 27.0778182,146.447991 27.0778182,148.210909 C27.0778182,150.043646 26.7723667,151.723629 26.1614545,153.250909 C25.5505424,154.778189 24.6341879,156.091631 23.4123636,157.191273 C22.1905393,158.290915 20.6632819,159.146179 18.8305455,159.757091 C16.997809,160.368003 14.8509214,160.673455 12.3898182,160.673455 L7.10109091,160.673455 Z M7.10109091,155.175273 L12.3898182,155.175273 C13.681461,155.175273 14.8072679,155.01382 15.7672727,154.690909 C16.7272775,154.367998 17.5214514,153.905458 18.1498182,153.303273 C18.778185,152.701088 19.249453,151.968004 19.5636364,151.104 C19.8778198,150.239996 20.0349091,149.275642 20.0349091,148.210909 C20.0349091,147.19854 19.8778198,146.282186 19.5636364,145.461818 C19.249453,144.64145 18.778185,143.943276 18.1498182,143.367273 C17.5214514,142.79127 16.7272775,142.350547 15.7672727,142.045091 C14.8072679,141.739635 13.681461,141.586909 12.3898182,141.586909 L7.10109091,141.586909 L7.10109091,155.175273 Z M32.1832727,174 L32.1832727,147.137455 L35.9796364,147.137455 C36.6429124,147.137455 37.1054532,147.259635 37.3672727,147.504 C37.6290922,147.748365 37.8036359,148.16727 37.8909091,148.760727 L38.2836364,152.007273 C39.2436412,150.349083 40.3694481,149.040005 41.6610909,148.08 C42.9527337,147.119995 44.4014465,146.64 46.0072727,146.64 C47.3338248,146.64 48.4334502,146.945451 49.3061818,147.556364 L48.4683636,152.4 C48.4159997,152.714183 48.3025463,152.936727 48.128,153.067636 C47.9534537,153.198546 47.7178197,153.264 47.4210909,153.264 C47.1592714,153.264 46.8014568,153.20291 46.3476364,153.080727 C45.8938159,152.958545 45.2916401,152.897455 44.5410909,152.897455 C43.1970842,152.897455 42.0450957,153.26836 41.0850909,154.010182 C40.1250861,154.752004 39.3134579,155.838538 38.6501818,157.269818 L38.6501818,174 L32.1832727,174 Z M60.4596364,147.137455 L60.4596364,174 L53.9927273,174 L53.9927273,147.137455 L60.4596364,147.137455 Z M61.4283636,139.309091 C61.4283636,139.867639 61.3149102,140.39127 61.088,140.88 C60.8610898,141.36873 60.5600019,141.796362 60.1847273,142.162909 C59.8094527,142.529456 59.3687298,142.821817 58.8625455,143.04 C58.3563611,143.258183 57.8152756,143.367273 57.2392727,143.367273 C56.6807245,143.367273 56.1527298,143.258183 55.6552727,143.04 C55.1578157,142.821817 54.72582,142.529456 54.3592727,142.162909 C53.9927254,141.796362 53.7003647,141.36873 53.4821818,140.88 C53.2639989,140.39127 53.1549091,139.867639 53.1549091,139.309091 C53.1549091,138.733088 53.2639989,138.192003 53.4821818,137.685818 C53.7003647,137.179634 53.9927254,136.743275 54.3592727,136.376727 C54.72582,136.01018 55.1578157,135.717819 55.6552727,135.499636 C56.1527298,135.281453 56.6807245,135.172364 57.2392727,135.172364 C57.8152756,135.172364 58.3563611,135.281453 58.8625455,135.499636 C59.3687298,135.717819 59.8094527,136.01018 60.1847273,136.376727 C60.5600019,136.743275 60.8610898,137.179634 61.088,137.685818 C61.3149102,138.192003 61.4283636,138.733088 61.4283636,139.309091 Z M81.2218182,174 L75.3570909,174 L64.6749091,147.137455 L70.0421818,147.137455 C70.5134569,147.137455 70.9105438,147.250908 71.2334545,147.477818 C71.5563653,147.704728 71.7789085,147.992726 71.9010909,148.341818 L77.0850909,162.689455 C77.3818197,163.527277 77.6305445,164.347632 77.8312727,165.150545 C78.032001,165.953459 78.2109083,166.75636 78.368,167.559273 C78.5250917,166.75636 78.703999,165.953459 78.9047273,165.150545 C79.1054555,164.347632 79.3629075,163.527277 79.6770909,162.689455 L84.992,148.341818 C85.1141824,147.992726 85.3323621,147.704728 85.6465455,147.477818 C85.9607288,147.250908 86.3359978,147.137455 86.7723636,147.137455 L91.8778182,147.137455 L81.2218182,174 Z M116.750545,174 L113.844364,174 C113.233451,174 112.753456,173.908365 112.404364,173.725091 C112.055271,173.541817 111.793455,173.170912 111.618909,172.612364 L111.042909,170.701091 C110.362178,171.312003 109.694549,171.848725 109.04,172.311273 C108.385451,172.77382 107.709094,173.16218 107.010909,173.476364 C106.312724,173.790547 105.570913,174.026181 104.785455,174.183273 C103.999996,174.340364 103.127278,174.418909 102.167273,174.418909 C101.032722,174.418909 99.9854593,174.266183 99.0254545,173.960727 C98.0654497,173.655271 97.2407307,173.197094 96.5512727,172.586182 C95.8618147,171.97527 95.3250928,171.216005 94.9410909,170.308364 C94.557089,169.400723 94.3650909,168.344733 94.3650909,167.140364 C94.3650909,166.127995 94.6312701,165.128732 95.1636364,164.142545 C95.6960027,163.156359 96.581812,162.266186 97.8210909,161.472 C99.0603698,160.677814 100.709808,160.018912 102.769455,159.495273 C104.829101,158.971634 107.386167,158.674909 110.440727,158.605091 L110.440727,157.034182 C110.440727,155.236355 110.061095,153.905459 109.301818,153.041455 C108.542542,152.17745 107.438553,151.745455 105.989818,151.745455 C104.94254,151.745455 104.069822,151.867635 103.371636,152.112 C102.673451,152.356365 102.066912,152.631271 101.552,152.936727 C101.037088,153.242183 100.561457,153.51709 100.125091,153.761455 C99.6887251,154.005819 99.2087299,154.128 98.6850909,154.128 C98.2487251,154.128 97.8734561,154.014547 97.5592727,153.787636 C97.2450893,153.560726 96.992001,153.281456 96.8,152.949818 L95.6218182,150.881455 C98.7112882,148.053804 102.437796,146.64 106.801455,146.64 C108.372371,146.64 109.773085,146.897452 111.003636,147.412364 C112.234188,147.927275 113.277087,148.642905 114.132364,149.559273 C114.987641,150.475641 115.637816,151.570903 116.082909,152.845091 C116.528002,154.119279 116.750545,155.515629 116.750545,157.034182 L116.750545,174 Z M104.183273,169.968 C104.846549,169.968 105.457452,169.90691 106.016,169.784727 C106.574548,169.662545 107.102543,169.479274 107.6,169.234909 C108.097457,168.990544 108.577452,168.689456 109.04,168.331636 C109.502548,167.973816 109.969452,167.550548 110.440727,167.061818 L110.440727,162.532364 C108.555627,162.619637 106.98037,162.78109 105.714909,163.016727 C104.449448,163.252365 103.432731,163.553453 102.664727,163.92 C101.896723,164.286547 101.351274,164.714179 101.028364,165.202909 C100.705453,165.691639 100.544,166.223997 100.544,166.8 C100.544,167.934551 100.879997,168.746179 101.552,169.234909 C102.224003,169.723639 103.101085,169.968 104.183273,169.968 Z M141.989818,152.818909 C141.797817,153.063274 141.610183,153.255272 141.426909,153.394909 C141.243635,153.534546 140.977456,153.604364 140.628364,153.604364 C140.296726,153.604364 139.97382,153.504001 139.659636,153.303273 C139.345453,153.102544 138.970184,152.875638 138.533818,152.622545 C138.097452,152.369453 137.578185,152.142546 136.976,151.941818 C136.373815,151.74109 135.627641,151.640727 134.737455,151.640727 C133.602903,151.640727 132.608004,151.845816 131.752727,152.256 C130.89745,152.666184 130.186185,153.255269 129.618909,154.023273 C129.051634,154.791277 128.628365,155.720722 128.349091,156.811636 C128.069817,157.902551 127.930182,159.137448 127.930182,160.516364 C127.930182,161.947644 128.082908,163.221813 128.388364,164.338909 C128.69382,165.456006 129.134543,166.394178 129.710545,167.153455 C130.286548,167.912731 130.984723,168.488725 131.805091,168.881455 C132.625459,169.274184 133.55054,169.470545 134.580364,169.470545 C135.610187,169.470545 136.443633,169.344001 137.080727,169.090909 C137.717821,168.837817 138.254543,168.558547 138.690909,168.253091 C139.127275,167.947635 139.506907,167.668365 139.829818,167.415273 C140.152729,167.162181 140.514907,167.035636 140.916364,167.035636 C141.440003,167.035636 141.832726,167.236362 142.094545,167.637818 L143.953455,169.994182 C143.237815,170.832004 142.461095,171.534543 141.623273,172.101818 C140.78545,172.669094 139.917095,173.122907 139.018182,173.463273 C138.119268,173.803638 137.189823,174.043636 136.229818,174.183273 C135.269813,174.32291 134.31855,174.392727 133.376,174.392727 C131.71781,174.392727 130.155644,174.082912 128.689455,173.463273 C127.223265,172.843633 125.944733,171.94037 124.853818,170.753455 C123.762904,169.56654 122.898912,168.113463 122.261818,166.394182 C121.624724,164.6749 121.306182,162.715647 121.306182,160.516364 C121.306182,158.54399 121.589815,156.715645 122.157091,155.031273 C122.724366,153.346901 123.557813,151.889461 124.657455,150.658909 C125.757096,149.428357 127.118537,148.464003 128.741818,147.765818 C130.365099,147.067633 132.232717,146.718545 134.344727,146.718545 C136.35201,146.718545 138.110538,147.041451 139.620364,147.687273 C141.130189,148.333094 142.487267,149.258176 143.691636,150.462545 L141.989818,152.818909 Z M157.620364,181.383273 C157.428363,181.837093 157.179638,182.181817 156.874182,182.417455 C156.568726,182.653092 156.101821,182.770909 155.473455,182.770909 L150.656,182.770909 L155.682909,172.010182 L144.817455,147.137455 L150.472727,147.137455 C150.996366,147.137455 151.397817,147.259635 151.677091,147.504 C151.956365,147.748365 152.165817,148.027635 152.305455,148.341818 L158.039273,162.270545 C158.231274,162.724366 158.39709,163.195634 158.536727,163.684364 C158.676364,164.173093 158.798545,164.661816 158.903273,165.150545 C159.04291,164.644361 159.195636,164.155639 159.361455,163.684364 C159.527274,163.213089 159.706181,162.733093 159.898182,162.244364 L165.291636,148.341818 C165.431273,147.992726 165.662544,147.704728 165.985455,147.477818 C166.308365,147.250908 166.670543,147.137455 167.072,147.137455 L172.256,147.137455 L157.620364,181.383273 Z M178.068364,174 L178.068364,136.952727 L188.724364,136.952727 C190.836374,136.952727 192.66472,137.16218 194.209455,137.581091 C195.75419,138.000002 197.032722,138.615269 198.045091,139.426909 C199.05746,140.23855 199.812361,141.229085 200.309818,142.398545 C200.807275,143.568006 201.056,144.894538 201.056,146.378182 C201.056,147.355641 200.88582,148.298177 200.545455,149.205818 C200.205089,150.113459 199.712003,150.951269 199.066182,151.719273 C198.42036,152.487277 197.63055,153.154906 196.696727,153.722182 C195.762904,154.289457 194.693824,154.721453 193.489455,155.018182 C196.404378,155.454548 198.647265,156.423265 200.218182,157.924364 C201.789099,159.425462 202.574545,161.406533 202.574545,163.867636 C202.574545,165.438553 202.295276,166.852357 201.736727,168.109091 C201.178179,169.365824 200.366551,170.430541 199.301818,171.303273 C198.237086,172.176004 196.928008,172.843634 195.374545,173.306182 C193.821083,173.76873 192.058192,174 190.085818,174 L178.068364,174 Z M180.738909,156.248727 L180.738909,171.853091 L190.033455,171.853091 C193.297471,171.853091 195.758537,171.150552 197.416727,169.745455 C199.074917,168.340357 199.904,166.363649 199.904,163.815273 C199.904,162.645812 199.681457,161.594186 199.236364,160.660364 C198.791271,159.726541 198.149822,158.932367 197.312,158.277818 C196.474178,157.623269 195.44437,157.121456 194.222545,156.772364 C193.000721,156.423271 191.613099,156.248727 190.059636,156.248727 L180.738909,156.248727 Z M180.738909,154.285091 L188.776727,154.285091 C190.487281,154.285091 191.949085,154.066911 193.162182,153.630545 C194.375279,153.19418 195.370178,152.618185 196.146909,151.902545 C196.92364,151.186906 197.495271,150.375277 197.861818,149.467636 C198.228365,148.559995 198.411636,147.626187 198.411636,146.666182 C198.411636,144.170169 197.621826,142.280734 196.042182,140.997818 C194.462538,139.714903 192.023289,139.073455 188.724364,139.073455 L180.738909,139.073455 L180.738909,154.285091 Z M212.235636,147.949091 L212.235636,164.600727 C212.235636,167.044376 212.794176,168.959993 213.911273,170.347636 C215.028369,171.73528 216.73017,172.429091 219.016727,172.429091 C220.709827,172.429091 222.289447,171.997095 223.755636,171.133091 C225.221826,170.269087 226.539631,169.069099 227.709091,167.533091 L227.709091,147.949091 L230.222545,147.949091 L230.222545,174 L228.834909,174 C228.346179,174 228.093091,173.773093 228.075636,173.319273 L227.84,169.444364 C226.63563,170.945462 225.243644,172.149814 223.664,173.057455 C222.084356,173.965095 220.325828,174.418909 218.388364,174.418909 C216.939629,174.418909 215.674187,174.192002 214.592,173.738182 C213.509813,173.284361 212.610913,172.629822 211.895273,171.774545 C211.179633,170.919268 210.638547,169.889461 210.272,168.685091 C209.905453,167.480721 209.722182,166.11928 209.722182,164.600727 L209.722182,147.949091 L212.235636,147.949091 Z M245.826909,174.418909 C244.063991,174.418909 242.689459,173.930187 241.703273,172.952727 C240.717086,171.975268 240.224,170.465465 240.224,168.423273 L240.224,150.619636 L236.48,150.619636 C236.287999,150.619636 236.13091,150.567273 236.008727,150.462545 C235.886545,150.357818 235.825455,150.209456 235.825455,150.017455 L235.825455,149.048727 L240.276364,148.734545 L240.904727,139.413818 C240.922182,139.256726 240.987636,139.117092 241.101091,138.994909 C241.214546,138.872727 241.367272,138.811636 241.559273,138.811636 L242.737455,138.811636 L242.737455,148.760727 L250.932364,148.760727 L250.932364,150.619636 L242.737455,150.619636 L242.737455,168.292364 C242.737455,169.008004 242.82909,169.62327 243.012364,170.138182 C243.195637,170.653093 243.448726,171.076362 243.771636,171.408 C244.094547,171.739638 244.47418,171.983999 244.910545,172.141091 C245.346911,172.298183 245.818179,172.376727 246.324364,172.376727 C246.95273,172.376727 247.493816,172.285092 247.947636,172.101818 C248.401457,171.918545 248.79418,171.717819 249.125818,171.499636 C249.457456,171.281453 249.727999,171.080728 249.937455,170.897455 C250.14691,170.714181 250.312727,170.622545 250.434909,170.622545 C250.574546,170.622545 250.714181,170.709817 250.853818,170.884364 L251.534545,171.984 C250.871269,172.717095 250.029096,173.30618 249.008,173.751273 C247.986904,174.196366 246.926551,174.418909 245.826909,174.418909 Z M260.593455,135.905455 L260.593455,174 L258.106182,174 L258.106182,135.905455 L260.593455,135.905455 Z M279.627636,147.530182 C281.093826,147.530182 282.450903,147.78327 283.698909,148.289455 C284.946915,148.795639 286.029086,149.533086 286.945455,150.501818 C287.861823,151.47055 288.577452,152.661811 289.092364,154.075636 C289.607275,155.489462 289.864727,157.112718 289.864727,158.945455 C289.864727,159.329456 289.808001,159.591272 289.694545,159.730909 C289.58109,159.870546 289.402183,159.940364 289.157818,159.940364 L270.333091,159.940364 L270.333091,160.437818 C270.333091,162.392737 270.559998,164.111993 271.013818,165.595636 C271.467639,167.07928 272.11345,168.322904 272.951273,169.326545 C273.789095,170.330187 274.801449,171.085088 275.988364,171.591273 C277.175279,172.097457 278.501811,172.350545 279.968,172.350545 C281.277097,172.350545 282.411632,172.206547 283.371636,171.918545 C284.331641,171.630544 285.138906,171.307638 285.793455,170.949818 C286.448003,170.591998 286.967271,170.269092 287.351273,169.981091 C287.735275,169.693089 288.014545,169.549091 288.189091,169.549091 C288.416001,169.549091 288.590545,169.636363 288.712727,169.810909 L289.393455,170.648727 C288.974543,171.172366 288.420367,171.661089 287.730909,172.114909 C287.041451,172.56873 286.273459,172.957089 285.426909,173.28 C284.580359,173.602911 283.672732,173.860363 282.704,174.052364 C281.735268,174.244365 280.762187,174.340364 279.784727,174.340364 C278.004355,174.340364 276.381098,174.030549 274.914909,173.410909 C273.44872,172.79127 272.192005,171.888006 271.144727,170.701091 C270.097449,169.514176 269.290185,168.0611 268.722909,166.341818 C268.155634,164.622537 267.872,162.654557 267.872,160.437818 C267.872,158.570172 268.138179,156.846553 268.670545,155.266909 C269.202912,153.687265 269.970904,152.325824 270.974545,151.182545 C271.978187,150.039267 273.20872,149.144731 274.666182,148.498909 C276.123644,147.853088 277.777445,147.530182 279.627636,147.530182 Z M279.653818,149.389091 C278.309811,149.389091 277.10546,149.598543 276.040727,150.017455 C274.975995,150.436366 274.055277,151.038542 273.278545,151.824 C272.501814,152.609458 271.873457,153.551995 271.393455,154.651636 C270.913452,155.751278 270.59491,156.981811 270.437818,158.343273 L287.613091,158.343273 C287.613091,156.946902 287.421093,155.694551 287.037091,154.586182 C286.653089,153.477813 286.112003,152.53964 285.413818,151.771636 C284.715633,151.003633 283.877823,150.414548 282.900364,150.004364 C281.922904,149.59418 280.840733,149.389091 279.653818,149.389091 Z M296.567273,174 L296.567273,147.949091 L297.876364,147.949091 C298.173092,147.949091 298.386908,148.010181 298.517818,148.132364 C298.648728,148.254546 298.722909,148.463999 298.740364,148.760727 L298.949818,154.258909 C299.787641,152.146899 300.90472,150.493097 302.301091,149.297455 C303.697462,148.101812 305.416717,147.504 307.458909,147.504 C308.244368,147.504 308.968724,147.586908 309.632,147.752727 C310.295276,147.918546 310.923633,148.158544 311.517091,148.472727 L311.176727,150.200727 C311.124363,150.480001 310.94982,150.619636 310.653091,150.619636 C310.548363,150.619636 310.400001,150.584728 310.208,150.514909 C310.015999,150.445091 309.776001,150.366546 309.488,150.279273 C309.199999,150.192 308.846548,150.113455 308.427636,150.043636 C308.008725,149.973818 307.52873,149.938909 306.987636,149.938909 C305.015263,149.938909 303.39637,150.549812 302.130909,151.771636 C300.865448,152.993461 299.840004,154.756352 299.054545,157.060364 L299.054545,174 L296.567273,174 Z" id="PrivacyButler" fill="#FFFFFF"></path>
        </g>
    </g>
</svg>