<?xml version="1.0" encoding="utf-8"?>
<!-- Generator: Adobe Illustrator 20.1.0, SVG Export Plug-In . SVG Version: 6.00 Build 0)  -->
<svg version="1.1" id="Layer_1" xmlns="http://www.w3.org/2000/svg" xmlns:xlink="http://www.w3.org/1999/xlink" x="0px" y="0px"
	 viewBox="0 0 665.3 408.6" style="enable-background:new 0 0 665.3 408.6;" xml:space="preserve">
<style type="text/css">
	.st0{fill:#FFFFFF;}
	.st1{clip-path:url(#SVGID_2_);}
	.st2{clip-path:url(#SVGID_4_);}
	.st3{clip-path:url(#SVGID_6_);}
	.st4{clip-path:url(#SVGID_8_);}
	.st5{clip-path:url(#SVGID_10_);fill:none;stroke:#808080;stroke-linecap:square;stroke-miterlimit:10;}
	.st6{clip-path:url(#SVGID_12_);}
	.st7{clip-path:url(#SVGID_14_);fill-rule:evenodd;clip-rule:evenodd;fill:#808080;}
	.st8{clip-path:url(#SVGID_16_);fill:none;stroke:#808080;stroke-miterlimit:10;}
	.st9{clip-path:url(#SVGID_18_);}
	.st10{clip-path:url(#SVGID_20_);}
	.st11{fill:#ABABAB;}
	.st12{clip-path:url(#SVGID_22_);}
	.st13{clip-path:url(#SVGID_24_);}
	.st14{clip-path:url(#SVGID_26_);fill:none;stroke:#979797;stroke-miterlimit:10;}
	.st15{clip-path:url(#SVGID_28_);}
	.st16{clip-path:url(#SVGID_30_);fill-rule:evenodd;clip-rule:evenodd;fill:#808080;}
	.st17{clip-path:url(#SVGID_32_);fill:none;stroke:#808080;stroke-miterlimit:10;}
	.st18{clip-path:url(#SVGID_34_);}
	.st19{clip-path:url(#SVGID_36_);}
	.st20{clip-path:url(#SVGID_38_);}
	.st21{clip-path:url(#SVGID_40_);}
	.st22{clip-path:url(#SVGID_42_);}
	.st23{clip-path:url(#SVGID_44_);}
	.st24{clip-path:url(#SVGID_46_);fill:none;stroke:#979797;stroke-miterlimit:10;}
	.st25{clip-path:url(#SVGID_48_);}
	.st26{clip-path:url(#SVGID_50_);fill-rule:evenodd;clip-rule:evenodd;fill:#808080;}
	.st27{clip-path:url(#SVGID_52_);fill:none;stroke:#808080;stroke-miterlimit:10;}
	.st28{clip-path:url(#SVGID_54_);}
	.st29{clip-path:url(#SVGID_56_);}
	.st30{clip-path:url(#SVGID_58_);}
	.st31{clip-path:url(#SVGID_60_);}
	.st32{clip-path:url(#SVGID_62_);fill:none;stroke:#979797;stroke-miterlimit:10;}
	.st33{clip-path:url(#SVGID_64_);}
	.st34{clip-path:url(#SVGID_66_);fill-rule:evenodd;clip-rule:evenodd;fill:#808080;}
	.st35{clip-path:url(#SVGID_68_);fill:none;stroke:#808080;stroke-miterlimit:10;}
	.st36{clip-path:url(#SVGID_70_);}
	.st37{clip-path:url(#SVGID_72_);fill-rule:evenodd;clip-rule:evenodd;fill:#808080;}
	.st38{clip-path:url(#SVGID_74_);fill:none;stroke:#808080;stroke-miterlimit:10;}
	.st39{clip-path:url(#SVGID_74_);fill:none;stroke:#979797;stroke-miterlimit:10;}
	.st40{clip-path:url(#SVGID_76_);}
	.st41{clip-path:url(#SVGID_78_);fill-rule:evenodd;clip-rule:evenodd;fill:#808080;}
	.st42{clip-path:url(#SVGID_80_);fill:none;stroke:#808080;stroke-miterlimit:10;}
	.st43{clip-path:url(#SVGID_80_);fill:none;stroke:#979797;stroke-miterlimit:10;}
	.st44{clip-path:url(#SVGID_82_);}
	.st45{clip-path:url(#SVGID_84_);fill-rule:evenodd;clip-rule:evenodd;fill:#808080;}
	.st46{clip-path:url(#SVGID_86_);fill:none;stroke:#808080;stroke-miterlimit:10;}
</style>
<path class="st0" d="M655.3,408.6H10c-5.5,0-10-4.5-10-10V10C0,4.5,4.5,0,10,0h645.3c5.5,0,10,4.5,10,10v388.6
	C665.3,404.1,660.8,408.6,655.3,408.6z"/>
<g>
	<defs>
		<rect id="SVGID_1_" x="-376.9" y="-184.6" width="1920" height="1080"/>
	</defs>
	<clipPath id="SVGID_2_">
		<use xlink:href="#SVGID_1_"  style="overflow:visible;"/>
	</clipPath>
	<g class="st1">
		<defs>
			<rect id="SVGID_3_" x="28.1" y="16.4" width="74" height="84"/>
		</defs>
		<clipPath id="SVGID_4_">
			<use xlink:href="#SVGID_3_"  style="overflow:visible;"/>
		</clipPath>
		<g class="st2">
			<path d="M48.3,95.4l3.2-9.5h2.1l3.2,9.5h-1.7l-0.7-2.2h-3.8l-0.7,2.2H48.3z M51.1,91.8h2.8l-1.4-4.3L51.1,91.8z"/>
			<path d="M62.7,95.4v-4.1c0-0.4,0-0.7,0-0.9c0-0.2-0.1-0.4-0.1-0.6s-0.2-0.3-0.3-0.3s-0.3-0.1-0.5-0.1c-0.2,0-0.3,0-0.5,0.1
				s-0.3,0.1-0.5,0.2c-0.2,0.1-0.4,0.2-0.5,0.4c-0.2,0.1-0.3,0.3-0.5,0.4v4.9h-1.5v-7.2h1.5v1c0.2-0.2,0.3-0.3,0.5-0.5
				s0.4-0.3,0.6-0.4c0.2-0.1,0.4-0.2,0.7-0.3c0.2-0.1,0.5-0.1,0.7-0.1c0.4,0,0.7,0.1,1,0.2s0.5,0.3,0.6,0.5c0.2,0.2,0.3,0.5,0.3,0.8
				c0.1,0.3,0.1,0.7,0.1,1.1v4.8H62.7z"/>
			<path d="M72.5,91.8c0,0.6-0.1,1.1-0.2,1.6s-0.3,0.9-0.6,1.2s-0.6,0.6-1,0.8c-0.4,0.2-0.9,0.3-1.5,0.3c-0.6,0-1.1-0.1-1.5-0.3
				s-0.8-0.4-1-0.8s-0.5-0.7-0.6-1.2s-0.2-1-0.2-1.6c0-0.6,0.1-1.1,0.2-1.6s0.3-0.9,0.6-1.2c0.3-0.3,0.6-0.6,1-0.8
				c0.4-0.2,0.9-0.3,1.5-0.3c0.6,0,1.1,0.1,1.5,0.3c0.4,0.2,0.8,0.4,1,0.8c0.3,0.3,0.5,0.7,0.6,1.2S72.5,91.2,72.5,91.8z M71,91.8
				c0-0.9-0.1-1.5-0.4-1.9s-0.7-0.6-1.4-0.6s-1.1,0.2-1.4,0.6s-0.4,1-0.4,1.9c0,0.8,0.1,1.5,0.4,1.9s0.7,0.6,1.4,0.6
				c0.6,0,1.1-0.2,1.3-0.6S71,92.6,71,91.8z"/>
			<path d="M78.9,95.4v-4.1c0-0.4,0-0.7,0-0.9c0-0.2-0.1-0.4-0.1-0.6s-0.2-0.3-0.3-0.3s-0.3-0.1-0.5-0.1c-0.2,0-0.3,0-0.5,0.1
				s-0.3,0.1-0.5,0.2c-0.2,0.1-0.4,0.2-0.5,0.4c-0.2,0.1-0.3,0.3-0.5,0.4v4.9h-1.5v-7.2h1.5v1c0.2-0.2,0.3-0.3,0.5-0.5
				s0.4-0.3,0.6-0.4c0.2-0.1,0.4-0.2,0.7-0.3C77.8,88,78,88,78.2,88c0.4,0,0.7,0.1,1,0.2s0.5,0.3,0.6,0.5c0.2,0.2,0.3,0.5,0.3,0.8
				c0.1,0.3,0.1,0.7,0.1,1.1v4.8H78.9z"/>
		</g>
	</g>
</g>
<g>
	<defs>
		<rect id="SVGID_5_" x="-376.9" y="-184.6" width="1920" height="1080"/>
	</defs>
	<clipPath id="SVGID_6_">
		<use xlink:href="#SVGID_5_"  style="overflow:visible;"/>
	</clipPath>
	<g class="st3">
		<defs>
			<rect id="SVGID_7_" x="1.1" y="142.4" width="159" height="103"/>
		</defs>
		<clipPath id="SVGID_8_">
			<use xlink:href="#SVGID_7_"  style="overflow:visible;"/>
		</clipPath>
		<g class="st4">
			<path d="M26,213.4v8h-1.6v-8h-3v-1.5H29v1.5H26z"/>
			<path d="M30.8,218.1c0,0.4,0,0.7,0.1,1c0.1,0.3,0.2,0.5,0.3,0.7c0.2,0.2,0.3,0.3,0.6,0.4s0.5,0.1,0.9,0.1c0.3,0,0.6-0.1,0.9-0.2
				c0.3-0.1,0.5-0.3,0.7-0.6l1.1,0.8c-0.1,0.2-0.3,0.4-0.5,0.5s-0.4,0.3-0.6,0.4s-0.5,0.2-0.8,0.2s-0.6,0.1-1,0.1
				c-1.1,0-2-0.3-2.5-0.9c-0.5-0.6-0.8-1.6-0.8-2.8c0-0.6,0.1-1.1,0.2-1.6c0.1-0.5,0.3-0.9,0.6-1.2s0.6-0.6,1-0.8
				c0.4-0.2,0.9-0.3,1.5-0.3c0.5,0,1,0.1,1.4,0.2s0.7,0.4,0.9,0.7s0.4,0.6,0.5,1.1s0.2,0.9,0.2,1.4v0.8H30.8z M34.1,217
				c0-0.6-0.1-1.1-0.4-1.4c-0.3-0.3-0.6-0.5-1.2-0.5c-0.3,0-0.5,0-0.7,0.1c-0.2,0.1-0.4,0.2-0.5,0.4s-0.2,0.3-0.3,0.6
				s-0.1,0.5-0.2,0.8H34.1z"/>
			<path d="M41.4,221.4v-0.8c-0.3,0.3-0.7,0.5-1.1,0.7s-0.8,0.3-1.2,0.3c-0.4,0-0.7-0.1-1-0.2s-0.5-0.3-0.7-0.5
				c-0.2-0.2-0.3-0.4-0.4-0.7c-0.1-0.3-0.2-0.6-0.2-0.9c0-0.4,0.1-0.8,0.2-1.1s0.3-0.5,0.6-0.7c0.3-0.2,0.6-0.3,0.9-0.4
				c0.3-0.1,0.7-0.2,1.1-0.2l1.6-0.2v-0.3c0-0.2,0-0.4-0.1-0.6c-0.1-0.2-0.2-0.3-0.3-0.4s-0.3-0.2-0.5-0.2c-0.2,0-0.4-0.1-0.7-0.1
				c-0.2,0-0.5,0-0.6,0.1s-0.3,0.1-0.5,0.2s-0.2,0.2-0.3,0.2c-0.1,0.1-0.2,0.2-0.2,0.3l-1.2-0.7c0.1-0.2,0.2-0.3,0.4-0.5
				c0.2-0.1,0.3-0.3,0.6-0.4c0.2-0.1,0.5-0.2,0.8-0.3s0.7-0.1,1.1-0.1c0.5,0,0.9,0,1.3,0.1s0.7,0.2,0.9,0.4s0.4,0.4,0.6,0.8
				c0.1,0.3,0.2,0.7,0.2,1.2v4.9H41.4z M41.3,217.9l-1,0.1c-0.3,0-0.6,0.1-0.8,0.1s-0.4,0.1-0.6,0.2s-0.3,0.2-0.4,0.4
				c-0.1,0.2-0.1,0.3-0.1,0.6c0,0.4,0.1,0.6,0.3,0.8c0.2,0.2,0.5,0.2,0.8,0.2c0.1,0,0.3,0,0.4-0.1s0.3-0.1,0.5-0.2s0.3-0.2,0.5-0.3
				c0.2-0.1,0.3-0.2,0.5-0.4V217.9z"/>
			<path d="M50.5,220.3c-0.1,0.2-0.3,0.4-0.4,0.5c-0.2,0.2-0.4,0.3-0.6,0.4c-0.2,0.1-0.5,0.2-0.7,0.3s-0.6,0.1-0.9,0.1
				c-0.6,0-1.1-0.1-1.5-0.3s-0.8-0.4-1-0.8s-0.5-0.7-0.6-1.2s-0.2-1-0.2-1.5c0-0.6,0.1-1.1,0.2-1.6c0.1-0.5,0.3-0.9,0.6-1.2
				c0.3-0.3,0.6-0.6,1-0.8c0.4-0.2,0.9-0.3,1.5-0.3c0.6,0,1.1,0.1,1.6,0.3s0.8,0.5,1.1,1l-1.1,0.8c-0.2-0.2-0.4-0.4-0.6-0.6
				c-0.2-0.1-0.5-0.2-0.9-0.2c-0.6,0-1.1,0.2-1.4,0.6c-0.3,0.4-0.4,1-0.4,1.9c0,0.4,0,0.8,0.1,1.1s0.2,0.6,0.3,0.8s0.3,0.4,0.6,0.5
				s0.5,0.2,0.9,0.2c0.2,0,0.3,0,0.4,0c0.1,0,0.3-0.1,0.4-0.1s0.2-0.1,0.3-0.2s0.2-0.2,0.3-0.4L50.5,220.3z"/>
			<path d="M56.6,221.4v-4.1c0-0.4,0-0.7,0-0.9c0-0.2-0.1-0.4-0.2-0.6c-0.1-0.2-0.2-0.3-0.3-0.3s-0.3-0.1-0.5-0.1
				c-0.2,0-0.3,0-0.5,0.1s-0.3,0.1-0.5,0.2c-0.2,0.1-0.4,0.2-0.5,0.4c-0.2,0.1-0.3,0.3-0.5,0.4v4.9H52v-10.2h1.5v4
				c0.2-0.2,0.3-0.3,0.5-0.5s0.4-0.3,0.6-0.4c0.2-0.1,0.4-0.2,0.7-0.3c0.2-0.1,0.5-0.1,0.7-0.1c0.4,0,0.7,0.1,1,0.2s0.5,0.3,0.6,0.5
				c0.2,0.2,0.3,0.5,0.3,0.8c0.1,0.3,0.1,0.7,0.1,1.1v4.8H56.6z"/>
			<path d="M61.3,218.1c0,0.4,0,0.7,0.1,1c0.1,0.3,0.2,0.5,0.3,0.7c0.2,0.2,0.3,0.3,0.6,0.4s0.5,0.1,0.9,0.1c0.3,0,0.6-0.1,0.9-0.2
				c0.3-0.1,0.5-0.3,0.7-0.6l1.1,0.8c-0.1,0.2-0.3,0.4-0.5,0.5s-0.4,0.3-0.6,0.4s-0.5,0.2-0.8,0.2s-0.6,0.1-1,0.1
				c-1.1,0-2-0.3-2.5-0.9c-0.5-0.6-0.8-1.6-0.8-2.8c0-0.6,0.1-1.1,0.2-1.6c0.1-0.5,0.3-0.9,0.6-1.2s0.6-0.6,1-0.8
				c0.4-0.2,0.9-0.3,1.5-0.3c0.5,0,1,0.1,1.4,0.2s0.7,0.4,0.9,0.7s0.4,0.6,0.5,1.1s0.2,0.9,0.2,1.4v0.8H61.3z M64.6,217
				c0-0.6-0.1-1.1-0.4-1.4c-0.3-0.3-0.6-0.5-1.2-0.5c-0.3,0-0.5,0-0.7,0.1c-0.2,0.1-0.4,0.2-0.5,0.4s-0.2,0.3-0.3,0.6
				s-0.1,0.5-0.2,0.8H64.6z"/>
			<path d="M71.9,215.7c-0.1,0-0.2-0.1-0.3-0.1s-0.2,0-0.4,0c-0.2,0-0.4,0-0.6,0.1s-0.3,0.1-0.5,0.2c-0.2,0.1-0.3,0.2-0.5,0.3
				s-0.3,0.3-0.4,0.4v4.8h-1.5v-7.2h1.5v1.1c0.2-0.2,0.3-0.3,0.5-0.5s0.3-0.3,0.5-0.4s0.4-0.2,0.6-0.3s0.4-0.1,0.6-0.1
				c0.2,0,0.3,0,0.4,0c0.1,0,0.2,0.1,0.3,0.1L71.9,215.7z"/>
			<path d="M78.5,219.4c0,0.4-0.1,0.7-0.2,1s-0.4,0.5-0.6,0.7s-0.6,0.3-0.9,0.4c-0.3,0.1-0.7,0.1-1.1,0.1c-0.4,0-0.7,0-1-0.1
				s-0.6-0.2-0.8-0.3c-0.2-0.1-0.4-0.2-0.6-0.4s-0.3-0.3-0.4-0.5l1.1-0.8c0.2,0.3,0.4,0.5,0.7,0.6s0.6,0.2,1,0.2c0.2,0,0.4,0,0.5,0
				s0.3-0.1,0.4-0.1c0.1-0.1,0.2-0.2,0.3-0.3s0.1-0.3,0.1-0.4c0-0.1,0-0.3-0.1-0.3s-0.2-0.2-0.3-0.3c-0.1-0.1-0.3-0.1-0.5-0.2
				c-0.2-0.1-0.4-0.1-0.7-0.2c-0.3-0.1-0.6-0.2-0.9-0.3s-0.6-0.2-0.8-0.4c-0.2-0.2-0.4-0.4-0.5-0.6c-0.1-0.3-0.2-0.6-0.2-1
				c0-0.3,0.1-0.6,0.2-0.8s0.3-0.5,0.5-0.7s0.5-0.3,0.9-0.5s0.7-0.2,1.2-0.2c0.3,0,0.6,0,0.9,0.1s0.5,0.1,0.8,0.3s0.4,0.2,0.6,0.4
				c0.2,0.2,0.3,0.3,0.4,0.5l-1.1,0.8c-0.1-0.1-0.2-0.2-0.2-0.3s-0.2-0.2-0.3-0.3s-0.3-0.1-0.4-0.2c-0.2,0-0.3-0.1-0.5-0.1
				c-0.4,0-0.7,0.1-0.9,0.2c-0.2,0.1-0.3,0.4-0.3,0.6c0,0.1,0,0.2,0.1,0.3s0.1,0.2,0.2,0.2s0.2,0.1,0.4,0.2c0.2,0.1,0.4,0.1,0.6,0.2
				c0.4,0.1,0.8,0.2,1.1,0.3s0.6,0.3,0.9,0.4s0.4,0.4,0.5,0.6C78.4,218.7,78.5,219,78.5,219.4z"/>
			<path d="M80.2,223.4c0.1-0.2,0.2-0.3,0.3-0.5c0.1-0.2,0.1-0.4,0.2-0.5s0.1-0.3,0.1-0.5c0-0.2,0-0.3,0.1-0.4
				c-0.3,0-0.5-0.1-0.6-0.2c-0.1-0.1-0.2-0.4-0.2-0.7c0-0.1,0-0.3,0-0.4c0-0.1,0.1-0.2,0.2-0.3c0.1-0.1,0.2-0.1,0.3-0.2
				c0.1,0,0.3-0.1,0.5-0.1c0.4,0,0.6,0.1,0.7,0.3s0.2,0.5,0.2,0.8c0,0.3,0,0.5-0.1,0.8s-0.1,0.5-0.2,0.7c-0.1,0.2-0.2,0.4-0.3,0.6
				c-0.1,0.2-0.2,0.4-0.3,0.5H80.2z"/>
			<path d="M94.3,218.7c0,0.5-0.1,1-0.3,1.3c-0.2,0.4-0.4,0.7-0.8,0.9c-0.3,0.2-0.7,0.4-1.1,0.5c-0.4,0.1-0.9,0.1-1.4,0.1
				c-0.5,0-1,0-1.3-0.1s-0.7-0.2-1-0.4s-0.5-0.4-0.7-0.6s-0.4-0.5-0.5-0.7l1.3-0.9c0.1,0.2,0.2,0.3,0.4,0.5c0.1,0.2,0.3,0.3,0.5,0.4
				s0.4,0.2,0.6,0.3c0.2,0.1,0.5,0.1,0.9,0.1c0.2,0,0.5,0,0.7-0.1s0.4-0.1,0.6-0.2s0.3-0.2,0.4-0.4s0.2-0.4,0.2-0.6
				c0-0.2-0.1-0.4-0.2-0.6s-0.2-0.3-0.4-0.4s-0.4-0.2-0.6-0.3s-0.5-0.1-0.7-0.2c-0.5-0.1-0.9-0.2-1.3-0.4c-0.4-0.1-0.8-0.3-1.1-0.5
				s-0.5-0.5-0.7-0.8s-0.3-0.7-0.3-1.2c0-0.4,0.1-0.8,0.2-1.2c0.1-0.3,0.4-0.6,0.6-0.9c0.3-0.2,0.6-0.4,1.1-0.6
				c0.4-0.1,0.9-0.2,1.5-0.2c0.4,0,0.8,0,1.1,0.1c0.3,0.1,0.6,0.2,0.9,0.3c0.3,0.1,0.5,0.3,0.7,0.5c0.2,0.2,0.4,0.5,0.6,0.7
				l-1.2,0.9c-0.3-0.4-0.5-0.7-0.9-0.9s-0.8-0.3-1.3-0.3c-0.5,0-1,0.1-1.3,0.3s-0.5,0.5-0.5,0.9c0,0.2,0,0.4,0.1,0.5
				c0.1,0.1,0.2,0.3,0.4,0.4s0.4,0.2,0.7,0.3c0.3,0.1,0.6,0.2,0.9,0.2c0.3,0.1,0.6,0.1,0.8,0.2s0.5,0.2,0.8,0.3
				c0.2,0.1,0.5,0.2,0.7,0.4c0.2,0.1,0.4,0.3,0.5,0.5s0.3,0.4,0.3,0.7C94.2,218.1,94.3,218.4,94.3,218.7z"/>
			<path d="M99.8,221.4c-0.2,0.1-0.4,0.1-0.7,0.2c-0.3,0-0.5,0.1-0.7,0.1c-0.4,0-0.7,0-1-0.1c-0.3-0.1-0.5-0.2-0.7-0.4
				c-0.2-0.2-0.3-0.4-0.4-0.7s-0.1-0.7-0.1-1.1v-3.8h-1v-1.2h1v-2h1.5v2h1.7v1.2h-1.7v3.6c0,0.3,0,0.5,0,0.6c0,0.2,0.1,0.3,0.1,0.4
				s0.2,0.2,0.3,0.2s0.2,0.1,0.4,0.1s0.3,0,0.5-0.1c0.2,0,0.3-0.1,0.5-0.1L99.8,221.4z"/>
			<path d="M105.3,221.4v-0.8c-0.3,0.3-0.7,0.5-1.1,0.7s-0.8,0.3-1.2,0.3c-0.4,0-0.7-0.1-1-0.2s-0.5-0.3-0.7-0.5
				c-0.2-0.2-0.3-0.4-0.4-0.7c-0.1-0.3-0.2-0.6-0.2-0.9c0-0.4,0.1-0.8,0.2-1.1s0.3-0.5,0.6-0.7c0.3-0.2,0.6-0.3,0.9-0.4
				c0.3-0.1,0.7-0.2,1.1-0.2l1.6-0.2v-0.3c0-0.2,0-0.4-0.1-0.6c-0.1-0.2-0.2-0.3-0.3-0.4s-0.3-0.2-0.5-0.2c-0.2,0-0.4-0.1-0.7-0.1
				c-0.2,0-0.5,0-0.6,0.1s-0.3,0.1-0.5,0.2s-0.2,0.2-0.3,0.2c-0.1,0.1-0.2,0.2-0.2,0.3l-1.2-0.7c0.1-0.2,0.2-0.3,0.4-0.5
				c0.2-0.1,0.3-0.3,0.6-0.4c0.2-0.1,0.5-0.2,0.8-0.3s0.7-0.1,1.1-0.1c0.5,0,0.9,0,1.3,0.1s0.7,0.2,0.9,0.4s0.4,0.4,0.6,0.8
				c0.1,0.3,0.2,0.7,0.2,1.2v4.9H105.3z M105.2,217.9l-1,0.1c-0.3,0-0.6,0.1-0.8,0.1s-0.4,0.1-0.6,0.2s-0.3,0.2-0.4,0.4
				c-0.1,0.2-0.1,0.3-0.1,0.6c0,0.4,0.1,0.6,0.3,0.8c0.2,0.2,0.5,0.2,0.8,0.2c0.1,0,0.3,0,0.4-0.1s0.3-0.1,0.5-0.2s0.3-0.2,0.5-0.3
				c0.2-0.1,0.3-0.2,0.5-0.4V217.9z"/>
		</g>
		<path class="st4" d="M112.4,212.5c-0.1-0.1-0.3-0.1-0.5-0.2c-0.2,0-0.3-0.1-0.5-0.1c-0.2,0-0.4,0-0.5,0.1c-0.1,0-0.2,0.1-0.3,0.2
			c-0.1,0.1-0.1,0.2-0.2,0.4c0,0.2,0,0.3,0,0.6v0.7h1.5v1.2h-1.5v6h-1.5v-6h-1v-1.2h1v-0.7c0-0.4,0-0.8,0.1-1.1
			c0.1-0.3,0.2-0.6,0.4-0.8c0.2-0.2,0.4-0.4,0.7-0.5c0.3-0.1,0.7-0.2,1.1-0.2c0.3,0,0.5,0,0.7,0.1c0.2,0,0.4,0.1,0.6,0.2
			L112.4,212.5z M116.8,212.5c-0.1-0.1-0.3-0.1-0.5-0.2c-0.2,0-0.3-0.1-0.5-0.1c-0.2,0-0.4,0-0.5,0.1c-0.1,0-0.2,0.1-0.3,0.2
			c-0.1,0.1-0.1,0.2-0.2,0.4c0,0.2,0,0.3,0,0.6v0.7h1.5v1.2h-1.5v6h-1.5v-6h-1v-1.2h1v-0.7c0-0.4,0-0.8,0.1-1.1
			c0.1-0.3,0.2-0.6,0.4-0.8c0.2-0.2,0.4-0.4,0.7-0.5c0.3-0.1,0.7-0.2,1.1-0.2c0.3,0,0.5,0,0.7,0.1c0.2,0,0.4,0.1,0.6,0.2
			L116.8,212.5z"/>
		<g class="st4">
			<path d="M26.3,240.4v-0.8c-0.3,0.3-0.7,0.5-1.1,0.7s-0.8,0.3-1.2,0.3c-0.4,0-0.7-0.1-1-0.2s-0.5-0.3-0.7-0.5
				c-0.2-0.2-0.3-0.4-0.4-0.7c-0.1-0.3-0.2-0.6-0.2-0.9c0-0.4,0.1-0.8,0.2-1.1s0.3-0.5,0.6-0.7c0.3-0.2,0.6-0.3,0.9-0.4
				c0.3-0.1,0.7-0.2,1.1-0.2l1.6-0.2v-0.3c0-0.2,0-0.4-0.1-0.6c-0.1-0.2-0.2-0.3-0.3-0.4s-0.3-0.2-0.5-0.2c-0.2,0-0.4-0.1-0.7-0.1
				c-0.2,0-0.5,0-0.6,0.1s-0.3,0.1-0.5,0.2s-0.2,0.2-0.3,0.2c-0.1,0.1-0.2,0.2-0.2,0.3l-1.2-0.7c0.1-0.2,0.2-0.3,0.4-0.5
				c0.2-0.1,0.3-0.3,0.6-0.4c0.2-0.1,0.5-0.2,0.8-0.3s0.7-0.1,1.1-0.1c0.5,0,0.9,0,1.3,0.1s0.7,0.2,0.9,0.4s0.4,0.4,0.6,0.8
				c0.1,0.3,0.2,0.7,0.2,1.2v4.9H26.3z M26.2,236.9l-1,0.1c-0.3,0-0.6,0.1-0.8,0.1s-0.4,0.1-0.6,0.2s-0.3,0.2-0.4,0.4
				c-0.1,0.2-0.1,0.3-0.1,0.6c0,0.4,0.1,0.6,0.3,0.8c0.2,0.2,0.5,0.2,0.8,0.2c0.1,0,0.3,0,0.4-0.1s0.3-0.1,0.5-0.2s0.3-0.2,0.5-0.3
				c0.2-0.1,0.3-0.2,0.5-0.4V236.9z"/>
			<path d="M34.4,240.4v-4.1c0-0.4,0-0.7,0-0.9c0-0.2-0.1-0.4-0.1-0.6s-0.2-0.3-0.3-0.3s-0.3-0.1-0.5-0.1c-0.2,0-0.3,0-0.5,0.1
				s-0.3,0.1-0.5,0.2c-0.2,0.1-0.4,0.2-0.5,0.4c-0.2,0.1-0.3,0.3-0.5,0.4v4.9h-1.5v-7.2h1.5v1c0.2-0.2,0.3-0.3,0.5-0.5
				s0.4-0.3,0.6-0.4c0.2-0.1,0.4-0.2,0.7-0.3c0.2-0.1,0.5-0.1,0.7-0.1c0.4,0,0.7,0.1,1,0.2s0.5,0.3,0.6,0.5c0.2,0.2,0.3,0.5,0.3,0.8
				c0.1,0.3,0.1,0.7,0.1,1.1v4.8H34.4z"/>
			<path d="M42.5,240.4v-0.7c-0.3,0.3-0.6,0.5-1,0.7c-0.4,0.2-0.8,0.3-1.2,0.3c-0.5,0-0.9-0.1-1.2-0.3c-0.3-0.2-0.6-0.4-0.9-0.8
				s-0.4-0.7-0.5-1.2s-0.2-1-0.2-1.5c0-0.5,0.1-1,0.2-1.4c0.1-0.5,0.3-0.9,0.5-1.2c0.2-0.4,0.5-0.6,0.9-0.9c0.4-0.2,0.8-0.3,1.4-0.3
				c0.4,0,0.7,0.1,1,0.2c0.3,0.1,0.6,0.3,0.9,0.6v-3.6h1.5v10.2H42.5z M42.5,235c-0.1-0.1-0.2-0.2-0.4-0.3s-0.3-0.2-0.4-0.2
				c-0.1-0.1-0.3-0.1-0.5-0.2c-0.2,0-0.3-0.1-0.5-0.1c-0.2,0-0.4,0-0.6,0.1c-0.2,0.1-0.4,0.2-0.5,0.5s-0.3,0.5-0.4,0.8
				c-0.1,0.3-0.1,0.7-0.1,1.1c0,0.8,0.1,1.4,0.4,1.8s0.7,0.6,1.2,0.6c0.2,0,0.3,0,0.5-0.1c0.2,0,0.3-0.1,0.5-0.2
				c0.2-0.1,0.3-0.2,0.4-0.3c0.1-0.1,0.3-0.2,0.4-0.3V235z"/>
			<path d="M46.4,242.4H45l4.8-12.4h1.4L46.4,242.4z"/>
			<path d="M59.3,236.8c0,0.6-0.1,1.1-0.2,1.6s-0.3,0.9-0.6,1.2s-0.6,0.6-1,0.8c-0.4,0.2-0.9,0.3-1.5,0.3c-0.6,0-1.1-0.1-1.5-0.3
				s-0.8-0.4-1-0.8s-0.5-0.7-0.6-1.2s-0.2-1-0.2-1.6c0-0.6,0.1-1.1,0.2-1.6s0.3-0.9,0.6-1.2c0.3-0.3,0.6-0.6,1-0.8
				c0.4-0.2,0.9-0.3,1.5-0.3c0.6,0,1.1,0.1,1.5,0.3c0.4,0.2,0.8,0.4,1,0.8c0.3,0.3,0.5,0.7,0.6,1.2S59.3,236.2,59.3,236.8z
				 M57.7,236.8c0-0.9-0.1-1.5-0.4-1.9s-0.7-0.6-1.4-0.6s-1.1,0.2-1.4,0.6s-0.4,1-0.4,1.9c0,0.8,0.1,1.5,0.4,1.9s0.7,0.6,1.4,0.6
				c0.6,0,1.1-0.2,1.3-0.6S57.7,237.6,57.7,236.8z"/>
			<path d="M65.2,234.7c-0.1,0-0.2-0.1-0.3-0.1s-0.2,0-0.4,0c-0.2,0-0.4,0-0.6,0.1s-0.3,0.1-0.5,0.2c-0.2,0.1-0.3,0.2-0.5,0.3
				s-0.3,0.3-0.4,0.4v4.8h-1.5v-7.2h1.5v1.1c0.2-0.2,0.3-0.3,0.5-0.5s0.3-0.3,0.5-0.4s0.4-0.2,0.6-0.3s0.4-0.1,0.6-0.1
				c0.2,0,0.3,0,0.4,0c0.1,0,0.2,0.1,0.3,0.1L65.2,234.7z"/>
			<path d="M69.5,240.4l3.2-9.5h2.1l3.2,9.5h-1.7l-0.7-2.2h-3.8l-0.7,2.2H69.5z M72.2,236.8H75l-1.4-4.3L72.2,236.8z"/>
			<path d="M83.7,240.4v-1c-0.2,0.2-0.3,0.3-0.5,0.5s-0.4,0.3-0.6,0.4s-0.4,0.2-0.7,0.3c-0.2,0.1-0.5,0.1-0.7,0.1
				c-0.4,0-0.7-0.1-1-0.2s-0.5-0.3-0.6-0.5c-0.2-0.2-0.3-0.5-0.3-0.8c-0.1-0.3-0.1-0.7-0.1-1.1v-4.8h1.5v4.1c0,0.4,0,0.7,0,0.9
				c0,0.2,0.1,0.4,0.1,0.6c0.1,0.2,0.2,0.3,0.3,0.3s0.3,0.1,0.5,0.1c0.2,0,0.3,0,0.5-0.1s0.3-0.1,0.5-0.2s0.4-0.2,0.5-0.4
				c0.2-0.1,0.3-0.3,0.5-0.4v-4.9h1.5v7.2H83.7z"/>
			<path d="M91.1,240.4c-0.2,0.1-0.4,0.1-0.7,0.2c-0.3,0-0.5,0.1-0.7,0.1c-0.4,0-0.7,0-1-0.1c-0.3-0.1-0.5-0.2-0.7-0.4
				c-0.2-0.2-0.3-0.4-0.4-0.7s-0.1-0.7-0.1-1.1v-3.8h-1v-1.2h1v-2H89v2h1.7v1.2H89v3.6c0,0.3,0,0.5,0,0.6c0,0.2,0.1,0.3,0.1,0.4
				s0.2,0.2,0.3,0.2s0.2,0.1,0.4,0.1s0.3,0,0.5-0.1c0.2,0,0.3-0.1,0.5-0.1L91.1,240.4z"/>
			<path d="M96.9,240.4v-4.1c0-0.4,0-0.7,0-0.9c0-0.2-0.1-0.4-0.2-0.6c-0.1-0.2-0.2-0.3-0.3-0.3s-0.3-0.1-0.5-0.1
				c-0.2,0-0.3,0-0.5,0.1s-0.3,0.1-0.5,0.2c-0.2,0.1-0.4,0.2-0.5,0.4c-0.2,0.1-0.3,0.3-0.5,0.4v4.9h-1.5v-10.2h1.5v4
				c0.2-0.2,0.3-0.3,0.5-0.5s0.4-0.3,0.6-0.4c0.2-0.1,0.4-0.2,0.7-0.3c0.2-0.1,0.5-0.1,0.7-0.1c0.4,0,0.7,0.1,1,0.2s0.5,0.3,0.6,0.5
				c0.2,0.2,0.3,0.5,0.3,0.8c0.1,0.3,0.1,0.7,0.1,1.1v4.8H96.9z"/>
			<path d="M106.7,236.8c0,0.6-0.1,1.1-0.2,1.6s-0.3,0.9-0.6,1.2s-0.6,0.6-1,0.8c-0.4,0.2-0.9,0.3-1.5,0.3c-0.6,0-1.1-0.1-1.5-0.3
				s-0.8-0.4-1-0.8s-0.5-0.7-0.6-1.2s-0.2-1-0.2-1.6c0-0.6,0.1-1.1,0.2-1.6s0.3-0.9,0.6-1.2c0.3-0.3,0.6-0.6,1-0.8
				c0.4-0.2,0.9-0.3,1.5-0.3c0.6,0,1.1,0.1,1.5,0.3c0.4,0.2,0.8,0.4,1,0.8c0.3,0.3,0.5,0.7,0.6,1.2S106.7,236.2,106.7,236.8z
				 M105.2,236.8c0-0.9-0.1-1.5-0.4-1.9s-0.7-0.6-1.4-0.6s-1.1,0.2-1.4,0.6s-0.4,1-0.4,1.9c0,0.8,0.1,1.5,0.4,1.9s0.7,0.6,1.4,0.6
				c0.6,0,1.1-0.2,1.3-0.6S105.2,237.6,105.2,236.8z"/>
			<path d="M112.6,234.7c-0.1,0-0.2-0.1-0.3-0.1s-0.2,0-0.4,0c-0.2,0-0.4,0-0.6,0.1s-0.3,0.1-0.5,0.2c-0.2,0.1-0.3,0.2-0.5,0.3
				s-0.3,0.3-0.4,0.4v4.8h-1.5v-7.2h1.5v1.1c0.2-0.2,0.3-0.3,0.5-0.5s0.3-0.3,0.5-0.4s0.4-0.2,0.6-0.3s0.4-0.1,0.6-0.1
				c0.2,0,0.3,0,0.4,0c0.1,0,0.2,0.1,0.3,0.1L112.6,234.7z"/>
			<path d="M115.8,231.3c0,0.3-0.1,0.5-0.2,0.6c-0.1,0.1-0.4,0.2-0.7,0.2c-0.3,0-0.6-0.1-0.7-0.2s-0.2-0.3-0.2-0.6
				c0-0.3,0.1-0.5,0.2-0.6c0.1-0.1,0.4-0.2,0.7-0.2s0.5,0.1,0.7,0.2S115.8,231,115.8,231.3z M114.2,240.4v-7.2h1.5v7.2H114.2z"/>
			<path d="M121.6,240.4c-0.2,0.1-0.4,0.1-0.7,0.2c-0.3,0-0.5,0.1-0.7,0.1c-0.4,0-0.7,0-1-0.1c-0.3-0.1-0.5-0.2-0.7-0.4
				c-0.2-0.2-0.3-0.4-0.4-0.7s-0.1-0.7-0.1-1.1v-3.8h-1v-1.2h1v-2h1.5v2h1.7v1.2h-1.7v3.6c0,0.3,0,0.5,0,0.6c0,0.2,0.1,0.3,0.1,0.4
				s0.2,0.2,0.3,0.2s0.2,0.1,0.4,0.1s0.3,0,0.5-0.1c0.2,0,0.3-0.1,0.5-0.1L121.6,240.4z"/>
			<path d="M124.4,231.3c0,0.3-0.1,0.5-0.2,0.6c-0.1,0.1-0.4,0.2-0.7,0.2c-0.3,0-0.6-0.1-0.7-0.2s-0.2-0.3-0.2-0.6
				c0-0.3,0.1-0.5,0.2-0.6c0.1-0.1,0.4-0.2,0.7-0.2s0.5,0.1,0.7,0.2S124.4,231,124.4,231.3z M122.8,240.4v-7.2h1.5v7.2H122.8z"/>
			<path d="M127.6,237.1c0,0.4,0,0.7,0.1,1c0.1,0.3,0.2,0.5,0.3,0.7c0.2,0.2,0.3,0.3,0.6,0.4s0.5,0.1,0.9,0.1c0.3,0,0.6-0.1,0.9-0.2
				c0.3-0.1,0.5-0.3,0.7-0.6l1.1,0.8c-0.1,0.2-0.3,0.4-0.5,0.5s-0.4,0.3-0.6,0.4s-0.5,0.2-0.8,0.2s-0.6,0.1-1,0.1
				c-1.1,0-2-0.3-2.5-0.9c-0.5-0.6-0.8-1.6-0.8-2.8c0-0.6,0.1-1.1,0.2-1.6c0.1-0.5,0.3-0.9,0.6-1.2s0.6-0.6,1-0.8
				c0.4-0.2,0.9-0.3,1.5-0.3c0.5,0,1,0.1,1.4,0.2s0.7,0.4,0.9,0.7s0.4,0.6,0.5,1.1s0.2,0.9,0.2,1.4v0.8H127.6z M130.9,236
				c0-0.6-0.1-1.1-0.4-1.4c-0.3-0.3-0.6-0.5-1.2-0.5c-0.3,0-0.5,0-0.7,0.1c-0.2,0.1-0.4,0.2-0.5,0.4c-0.1,0.2-0.2,0.3-0.3,0.6
				s-0.1,0.5-0.2,0.8H130.9z"/>
			<path d="M139.2,238.4c0,0.4-0.1,0.7-0.2,1s-0.4,0.5-0.6,0.7s-0.6,0.3-0.9,0.4c-0.3,0.1-0.7,0.1-1.1,0.1c-0.4,0-0.7,0-1-0.1
				s-0.6-0.2-0.8-0.3c-0.2-0.1-0.4-0.2-0.6-0.4s-0.3-0.3-0.4-0.5l1.1-0.8c0.2,0.3,0.4,0.5,0.7,0.6s0.6,0.2,1,0.2c0.2,0,0.4,0,0.5,0
				s0.3-0.1,0.4-0.1c0.1-0.1,0.2-0.2,0.3-0.3s0.1-0.3,0.1-0.4c0-0.1,0-0.3-0.1-0.3s-0.2-0.2-0.3-0.3c-0.1-0.1-0.3-0.1-0.5-0.2
				c-0.2-0.1-0.4-0.1-0.7-0.2c-0.3-0.1-0.6-0.2-0.9-0.3s-0.6-0.2-0.8-0.4c-0.2-0.2-0.4-0.4-0.5-0.6c-0.1-0.3-0.2-0.6-0.2-1
				c0-0.3,0.1-0.6,0.2-0.8s0.3-0.5,0.5-0.7s0.5-0.3,0.9-0.5s0.7-0.2,1.2-0.2c0.3,0,0.6,0,0.9,0.1s0.5,0.1,0.8,0.3s0.4,0.2,0.6,0.4
				c0.2,0.2,0.3,0.3,0.4,0.5L138,235c-0.1-0.1-0.2-0.2-0.2-0.3s-0.2-0.2-0.3-0.3s-0.3-0.1-0.4-0.2c-0.2,0-0.3-0.1-0.5-0.1
				c-0.4,0-0.7,0.1-0.9,0.2c-0.2,0.1-0.3,0.4-0.3,0.6c0,0.1,0,0.2,0.1,0.3s0.1,0.2,0.2,0.2s0.2,0.1,0.4,0.2c0.2,0.1,0.4,0.1,0.6,0.2
				c0.4,0.1,0.8,0.2,1.1,0.3s0.6,0.3,0.9,0.4s0.4,0.4,0.5,0.6C139.2,237.7,139.2,238,139.2,238.4z"/>
		</g>
	</g>
</g>
<g>
	<defs>
		<rect id="SVGID_9_" x="-376.9" y="-184.6" width="1920" height="1080"/>
	</defs>
	<clipPath id="SVGID_10_">
		<use xlink:href="#SVGID_9_"  style="overflow:visible;"/>
	</clipPath>
	<line class="st5" x1="64.6" y1="105.9" x2="64.6" y2="202.9"/>
</g>
<g>
	<defs>
		<rect id="SVGID_11_" x="-376.9" y="-184.6" width="1920" height="1080"/>
	</defs>
	<clipPath id="SVGID_12_">
		<use xlink:href="#SVGID_11_"  style="overflow:visible;"/>
	</clipPath>
	<g class="st6">
		<defs>
			<path id="SVGID_13_" d="M64.6,202.9c1-3.8,1.9-7,3-10.8c-2.1,0-3.9,0-6,0C62.6,195.9,63.5,199.1,64.6,202.9L64.6,202.9z"/>
		</defs>
		<clipPath id="SVGID_14_">
			<use xlink:href="#SVGID_13_"  style="overflow:visible;"/>
		</clipPath>
		<rect x="56.6" y="187.1" class="st7" width="16" height="20.8"/>
	</g>
</g>
<g>
	<defs>
		<rect id="SVGID_15_" x="-376.9" y="-184.6" width="1920" height="1080"/>
	</defs>
	<clipPath id="SVGID_16_">
		<use xlink:href="#SVGID_15_"  style="overflow:visible;"/>
	</clipPath>
	<path class="st8" d="M64.6,202.9c1-3.8,1.9-7,3-10.8c-2.1,0-3.9,0-6,0C62.6,195.9,63.5,199.1,64.6,202.9L64.6,202.9z"/>
</g>
<g>
	<defs>
		<rect id="SVGID_17_" x="-376.9" y="-184.6" width="1920" height="1080"/>
	</defs>
	<clipPath id="SVGID_18_">
		<use xlink:href="#SVGID_17_"  style="overflow:visible;"/>
	</clipPath>
	<g class="st9">
		<defs>
			<rect id="SVGID_19_" x="52.1" y="77.4" width="86" height="75"/>
		</defs>
		<clipPath id="SVGID_20_">
			<use xlink:href="#SVGID_19_"  style="overflow:visible;"/>
		</clipPath>
		<g class="st10">
			<path class="st11" d="M75.8,144.3c-0.1,0-0.1,0-0.2-0.1s-0.2,0-0.3,0c-0.1,0-0.3,0-0.4,0.1s-0.2,0.1-0.4,0.2
				c-0.1,0.1-0.2,0.1-0.3,0.2s-0.2,0.2-0.3,0.3v3.4h-1v-5.1h1v0.8c0.1-0.1,0.2-0.2,0.3-0.3s0.2-0.2,0.4-0.3s0.3-0.1,0.4-0.2
				s0.3-0.1,0.4-0.1c0.1,0,0.2,0,0.3,0c0.1,0,0.2,0,0.2,0.1L75.8,144.3z"/>
			<path class="st11" d="M77.6,146c0,0.3,0,0.5,0.1,0.7c0.1,0.2,0.1,0.4,0.2,0.5c0.1,0.1,0.2,0.2,0.4,0.3s0.4,0.1,0.6,0.1
				c0.2,0,0.4,0,0.6-0.1c0.2-0.1,0.3-0.2,0.5-0.4l0.8,0.5c-0.1,0.1-0.2,0.3-0.3,0.4s-0.3,0.2-0.4,0.3s-0.3,0.1-0.5,0.2
				s-0.4,0.1-0.7,0.1c-0.8,0-1.4-0.2-1.8-0.7c-0.4-0.5-0.6-1.1-0.6-2c0-0.4,0-0.8,0.1-1.1c0.1-0.3,0.2-0.6,0.4-0.9s0.4-0.4,0.7-0.6
				c0.3-0.1,0.7-0.2,1.1-0.2c0.4,0,0.7,0.1,1,0.2s0.5,0.3,0.7,0.5s0.3,0.5,0.4,0.8s0.1,0.6,0.1,1v0.6H77.6z M79.9,145.3
				c0-0.4-0.1-0.8-0.3-1c-0.2-0.2-0.5-0.3-0.8-0.3c-0.2,0-0.4,0-0.5,0.1c-0.1,0.1-0.3,0.1-0.3,0.3s-0.2,0.2-0.2,0.4
				s-0.1,0.3-0.1,0.6H79.9z"/>
			<path class="st11" d="M86.7,145.8c0,0.4,0,0.7-0.1,1s-0.2,0.6-0.4,0.9s-0.4,0.5-0.6,0.6c-0.3,0.2-0.6,0.2-0.9,0.2
				c-0.3,0-0.5,0-0.8-0.1c-0.2-0.1-0.5-0.2-0.7-0.4v2.3h-1v-7.1h1v0.5c0.2-0.2,0.5-0.4,0.7-0.5c0.3-0.1,0.6-0.2,0.9-0.2
				c0.3,0,0.6,0.1,0.9,0.2s0.4,0.3,0.6,0.5s0.3,0.5,0.4,0.8S86.7,145.4,86.7,145.8z M85.7,145.8c0-0.6-0.1-1-0.3-1.3
				s-0.5-0.4-0.8-0.4c-0.1,0-0.2,0-0.4,0c-0.1,0-0.2,0.1-0.3,0.1c-0.1,0.1-0.2,0.1-0.3,0.2c-0.1,0.1-0.2,0.1-0.3,0.2v2.5
				c0.1,0.1,0.2,0.1,0.3,0.2c0.1,0.1,0.2,0.1,0.3,0.2s0.2,0.1,0.3,0.1s0.2,0,0.3,0c0.2,0,0.3,0,0.5-0.1s0.3-0.2,0.4-0.3
				c0.1-0.1,0.2-0.3,0.3-0.6C85.6,146.4,85.7,146.1,85.7,145.8z"/>
			<path class="st11" d="M92.5,145.8c0,0.4,0,0.8-0.1,1.1s-0.2,0.6-0.4,0.8s-0.4,0.4-0.7,0.5c-0.3,0.1-0.7,0.2-1.1,0.2
				c-0.4,0-0.8-0.1-1.1-0.2s-0.5-0.3-0.7-0.5s-0.3-0.5-0.4-0.8s-0.1-0.7-0.1-1.1c0-0.4,0-0.8,0.1-1.1s0.2-0.6,0.4-0.9
				c0.2-0.2,0.4-0.4,0.7-0.5c0.3-0.1,0.7-0.2,1.1-0.2c0.4,0,0.8,0.1,1.1,0.2c0.3,0.1,0.5,0.3,0.7,0.5c0.2,0.2,0.3,0.5,0.4,0.9
				S92.5,145.4,92.5,145.8z M91.4,145.8c0-0.6-0.1-1.1-0.3-1.4s-0.5-0.4-1-0.4s-0.8,0.1-1,0.4s-0.3,0.7-0.3,1.4c0,0.6,0.1,1,0.3,1.3
				s0.5,0.4,1,0.4c0.4,0,0.8-0.1,1-0.4S91.4,146.4,91.4,145.8z"/>
			<path class="st11" d="M96.7,144.3c-0.1,0-0.1,0-0.2-0.1s-0.2,0-0.3,0c-0.1,0-0.3,0-0.4,0.1s-0.2,0.1-0.4,0.2
				c-0.1,0.1-0.2,0.1-0.3,0.2s-0.2,0.2-0.3,0.3v3.4h-1v-5.1h1v0.8c0.1-0.1,0.2-0.2,0.3-0.3s0.2-0.2,0.4-0.3s0.3-0.1,0.4-0.2
				s0.3-0.1,0.4-0.1c0.1,0,0.2,0,0.3,0c0.1,0,0.2,0,0.2,0.1L96.7,144.3z"/>
			<path class="st11" d="M100.5,148.4c-0.1,0-0.3,0.1-0.5,0.1c-0.2,0-0.4,0-0.5,0c-0.3,0-0.5,0-0.7-0.1c-0.2-0.1-0.4-0.2-0.5-0.3
				c-0.1-0.1-0.2-0.3-0.3-0.5s-0.1-0.5-0.1-0.8v-2.7h-0.7v-0.9h0.7v-1.4h1v1.4h1.2v0.9h-1.2v2.6c0,0.2,0,0.3,0,0.5
				c0,0.1,0.1,0.2,0.1,0.3s0.1,0.1,0.2,0.2s0.2,0.1,0.3,0.1s0.2,0,0.4,0c0.1,0,0.2-0.1,0.3-0.1L100.5,148.4z"/>
			<path class="st11" d="M105.1,147c0,0.3-0.1,0.5-0.2,0.7s-0.3,0.4-0.4,0.5s-0.4,0.2-0.6,0.3c-0.2,0.1-0.5,0.1-0.8,0.1
				c-0.3,0-0.5,0-0.7-0.1s-0.4-0.1-0.6-0.2c-0.2-0.1-0.3-0.2-0.4-0.3s-0.2-0.2-0.3-0.4l0.8-0.5c0.1,0.2,0.3,0.4,0.5,0.4
				s0.4,0.1,0.7,0.1c0.1,0,0.3,0,0.4,0s0.2-0.1,0.3-0.1c0.1-0.1,0.2-0.1,0.2-0.2s0.1-0.2,0.1-0.3c0-0.1,0-0.2-0.1-0.2
				s-0.1-0.1-0.2-0.2c-0.1-0.1-0.2-0.1-0.4-0.2c-0.1,0-0.3-0.1-0.5-0.1c-0.2-0.1-0.5-0.1-0.7-0.2s-0.4-0.2-0.6-0.3
				c-0.2-0.1-0.3-0.3-0.4-0.5c-0.1-0.2-0.1-0.4-0.1-0.7c0-0.2,0-0.4,0.1-0.6s0.2-0.3,0.4-0.5s0.4-0.2,0.6-0.3s0.5-0.1,0.8-0.1
				c0.2,0,0.4,0,0.6,0.1s0.4,0.1,0.5,0.2s0.3,0.2,0.4,0.3c0.1,0.1,0.2,0.2,0.3,0.4l-0.8,0.5c0-0.1-0.1-0.1-0.2-0.2s-0.1-0.1-0.2-0.2
				s-0.2-0.1-0.3-0.1c-0.1,0-0.2,0-0.4,0c-0.3,0-0.5,0.1-0.7,0.2c-0.2,0.1-0.2,0.3-0.2,0.5c0,0.1,0,0.2,0.1,0.2s0.1,0.1,0.2,0.2
				s0.2,0.1,0.3,0.1c0.1,0,0.3,0.1,0.4,0.1c0.3,0.1,0.6,0.2,0.8,0.2s0.4,0.2,0.6,0.3s0.3,0.3,0.4,0.5
				C105,146.5,105.1,146.7,105.1,147z"/>
			<path class="st11" d="M111.5,148.4c-0.1,0-0.3,0.1-0.5,0.1c-0.2,0-0.4,0-0.5,0c-0.3,0-0.5,0-0.7-0.1c-0.2-0.1-0.4-0.2-0.5-0.3
				c-0.1-0.1-0.2-0.3-0.3-0.5s-0.1-0.5-0.1-0.8v-2.7h-0.7v-0.9h0.7v-1.4h1v1.4h1.2v0.9H110v2.6c0,0.2,0,0.3,0,0.5
				c0,0.1,0.1,0.2,0.1,0.3s0.1,0.1,0.2,0.2s0.2,0.1,0.3,0.1s0.2,0,0.4,0c0.1,0,0.2-0.1,0.3-0.1L111.5,148.4z"/>
			<path class="st11" d="M116.8,145.8c0,0.4,0,0.8-0.1,1.1s-0.2,0.6-0.4,0.8s-0.4,0.4-0.7,0.5c-0.3,0.1-0.7,0.2-1.1,0.2
				c-0.4,0-0.8-0.1-1.1-0.2s-0.5-0.3-0.7-0.5s-0.3-0.5-0.4-0.8s-0.1-0.7-0.1-1.1c0-0.4,0-0.8,0.1-1.1s0.2-0.6,0.4-0.9
				c0.2-0.2,0.4-0.4,0.7-0.5c0.3-0.1,0.7-0.2,1.1-0.2c0.4,0,0.8,0.1,1.1,0.2c0.3,0.1,0.5,0.3,0.7,0.5c0.2,0.2,0.3,0.5,0.4,0.9
				S116.8,145.4,116.8,145.8z M115.7,145.8c0-0.6-0.1-1.1-0.3-1.4s-0.5-0.4-1-0.4s-0.8,0.1-1,0.4s-0.3,0.7-0.3,1.4
				c0,0.6,0.1,1,0.3,1.3s0.5,0.4,1,0.4c0.4,0,0.8-0.1,1-0.4S115.7,146.4,115.7,145.8z"/>
		</g>
	</g>
</g>
<g>
	<defs>
		<rect id="SVGID_21_" x="-376.9" y="-184.6" width="1920" height="1080"/>
	</defs>
	<clipPath id="SVGID_22_">
		<use xlink:href="#SVGID_21_"  style="overflow:visible;"/>
	</clipPath>
	<g class="st12">
		<defs>
			<rect id="SVGID_23_" x="283.1" y="-32.6" width="129" height="75"/>
		</defs>
		<clipPath id="SVGID_24_">
			<use xlink:href="#SVGID_23_"  style="overflow:visible;"/>
		</clipPath>
		<g class="st13">
			<path class="st11" d="M307.9,37.7c-0.1,0.1-0.2,0.3-0.3,0.4c-0.1,0.1-0.3,0.2-0.4,0.3c-0.2,0.1-0.3,0.1-0.5,0.2s-0.4,0.1-0.7,0.1
				c-0.4,0-0.8-0.1-1.1-0.2s-0.6-0.3-0.7-0.6s-0.3-0.5-0.4-0.8s-0.1-0.7-0.1-1.1c0-0.4,0-0.8,0.1-1.1c0.1-0.3,0.2-0.6,0.4-0.9
				c0.2-0.2,0.4-0.4,0.7-0.5c0.3-0.1,0.6-0.2,1.1-0.2c0.4,0,0.8,0.1,1.1,0.2s0.6,0.4,0.8,0.7l-0.8,0.6c-0.1-0.2-0.3-0.3-0.4-0.4
				c-0.2-0.1-0.4-0.1-0.6-0.1c-0.4,0-0.8,0.1-1,0.4c-0.2,0.3-0.3,0.8-0.3,1.4c0,0.3,0,0.5,0.1,0.8s0.1,0.4,0.2,0.6s0.2,0.3,0.4,0.3
				s0.4,0.1,0.6,0.1c0.1,0,0.2,0,0.3,0c0.1,0,0.2,0,0.3-0.1s0.2-0.1,0.2-0.2s0.2-0.2,0.2-0.3L307.9,37.7z"/>
			<path class="st11" d="M312.2,38.4v-2.9c0-0.3,0-0.5,0-0.7c0-0.2-0.1-0.3-0.1-0.4c-0.1-0.1-0.1-0.2-0.2-0.2s-0.2-0.1-0.4-0.1
				c-0.1,0-0.2,0-0.3,0.1s-0.2,0.1-0.4,0.2c-0.1,0.1-0.3,0.2-0.4,0.3c-0.1,0.1-0.2,0.2-0.4,0.3v3.5h-1v-7.3h1V34
				c0.1-0.1,0.2-0.2,0.4-0.3s0.3-0.2,0.4-0.3c0.2-0.1,0.3-0.1,0.5-0.2c0.2,0,0.3-0.1,0.5-0.1c0.3,0,0.5,0,0.7,0.1s0.3,0.2,0.5,0.4
				c0.1,0.2,0.2,0.4,0.2,0.6c0.1,0.2,0.1,0.5,0.1,0.8v3.4H312.2z"/>
			<path class="st11" d="M315.6,36.1c0,0.3,0,0.5,0.1,0.7c0.1,0.2,0.1,0.4,0.2,0.5c0.1,0.1,0.2,0.2,0.4,0.3s0.4,0.1,0.6,0.1
				c0.2,0,0.4,0,0.6-0.1c0.2-0.1,0.3-0.2,0.5-0.4l0.8,0.5c-0.1,0.1-0.2,0.3-0.3,0.4s-0.3,0.2-0.4,0.3s-0.3,0.1-0.5,0.2
				c-0.2,0-0.4,0.1-0.7,0.1c-0.8,0-1.4-0.2-1.8-0.7c-0.4-0.5-0.6-1.1-0.6-2c0-0.4,0-0.8,0.1-1.1c0.1-0.3,0.2-0.6,0.4-0.9
				s0.4-0.4,0.7-0.6c0.3-0.1,0.7-0.2,1.1-0.2c0.4,0,0.7,0.1,1,0.2c0.3,0.1,0.5,0.3,0.7,0.5s0.3,0.5,0.4,0.8s0.1,0.6,0.1,1v0.6H315.6
				z M317.9,35.3c0-0.4-0.1-0.8-0.3-1c-0.2-0.2-0.5-0.3-0.8-0.3c-0.2,0-0.4,0-0.5,0.1c-0.1,0.1-0.3,0.1-0.3,0.3s-0.2,0.2-0.2,0.4
				s-0.1,0.3-0.1,0.6H317.9z"/>
			<path class="st11" d="M324.2,37.7c-0.1,0.1-0.2,0.3-0.3,0.4c-0.1,0.1-0.3,0.2-0.4,0.3c-0.2,0.1-0.3,0.1-0.5,0.2
				c-0.2,0-0.4,0.1-0.7,0.1c-0.4,0-0.8-0.1-1.1-0.2s-0.5-0.3-0.7-0.6s-0.3-0.5-0.4-0.8s-0.1-0.7-0.1-1.1c0-0.4,0-0.8,0.1-1.1
				c0.1-0.3,0.2-0.6,0.4-0.9c0.2-0.2,0.4-0.4,0.7-0.5c0.3-0.1,0.6-0.2,1.1-0.2c0.4,0,0.8,0.1,1.1,0.2s0.6,0.4,0.8,0.7l-0.8,0.6
				c-0.1-0.2-0.3-0.3-0.4-0.4c-0.2-0.1-0.4-0.1-0.6-0.1c-0.4,0-0.8,0.1-1,0.4c-0.2,0.3-0.3,0.8-0.3,1.4c0,0.3,0,0.5,0.1,0.8
				s0.1,0.4,0.2,0.6c0.1,0.1,0.2,0.3,0.4,0.3s0.4,0.1,0.6,0.1c0.1,0,0.2,0,0.3,0c0.1,0,0.2,0,0.3-0.1s0.2-0.1,0.2-0.2
				s0.2-0.2,0.2-0.3L324.2,37.7z"/>
			<path class="st11" d="M328.4,38.4l-1.5-2.2l-0.5,0.6v1.6h-1v-7.3h1v4.4l1.9-2.2h1.2l-2,2.2l2.1,2.9H328.4z"/>
			<path class="st11" d="M334.2,37c0,0.3-0.1,0.5-0.2,0.7c-0.1,0.2-0.3,0.4-0.4,0.5c-0.2,0.1-0.4,0.2-0.6,0.3
				c-0.2,0.1-0.5,0.1-0.8,0.1c-0.3,0-0.5,0-0.7-0.1c-0.2,0-0.4-0.1-0.6-0.2c-0.2-0.1-0.3-0.2-0.4-0.3c-0.1-0.1-0.2-0.2-0.3-0.4
				l0.8-0.5c0.1,0.2,0.3,0.4,0.5,0.4s0.4,0.1,0.7,0.1c0.1,0,0.2,0,0.4,0s0.2-0.1,0.3-0.1c0.1-0.1,0.2-0.1,0.2-0.2
				c0.1-0.1,0.1-0.2,0.1-0.3c0-0.1,0-0.2-0.1-0.2s-0.1-0.1-0.2-0.2c-0.1-0.1-0.2-0.1-0.4-0.2c-0.1,0-0.3-0.1-0.5-0.1
				c-0.2-0.1-0.5-0.1-0.7-0.2s-0.4-0.2-0.6-0.3c-0.2-0.1-0.3-0.3-0.4-0.5c-0.1-0.2-0.1-0.4-0.1-0.7c0-0.2,0-0.4,0.1-0.6
				s0.2-0.3,0.4-0.5c0.2-0.1,0.4-0.2,0.6-0.3c0.2-0.1,0.5-0.1,0.8-0.1c0.2,0,0.4,0,0.6,0.1c0.2,0,0.4,0.1,0.5,0.2
				c0.2,0.1,0.3,0.2,0.4,0.3c0.1,0.1,0.2,0.2,0.3,0.4l-0.8,0.5c0-0.1-0.1-0.1-0.2-0.2s-0.1-0.1-0.2-0.2c-0.1-0.1-0.2-0.1-0.3-0.1
				c-0.1,0-0.2,0-0.4,0c-0.3,0-0.5,0.1-0.7,0.2c-0.2,0.1-0.2,0.3-0.2,0.5c0,0.1,0,0.2,0.1,0.2c0,0.1,0.1,0.1,0.2,0.2
				c0.1,0.1,0.2,0.1,0.3,0.1c0.1,0,0.3,0.1,0.4,0.1c0.3,0.1,0.6,0.2,0.8,0.2c0.2,0.1,0.4,0.2,0.6,0.3s0.3,0.3,0.4,0.5
				C334.1,36.5,334.2,36.7,334.2,37z"/>
			<path class="st11" d="M342.5,35.8c0,0.4,0,0.7-0.1,1s-0.2,0.6-0.4,0.9c-0.2,0.3-0.4,0.5-0.6,0.6c-0.3,0.1-0.6,0.2-0.9,0.2
				c-0.1,0-0.3,0-0.4,0c-0.1,0-0.3-0.1-0.4-0.1s-0.3-0.1-0.4-0.2c-0.1-0.1-0.2-0.1-0.3-0.2l-0.1,0.4H338v-7.3h1v2.6
				c0.2-0.2,0.4-0.3,0.7-0.4c0.3-0.1,0.5-0.2,0.8-0.2c0.3,0,0.6,0.1,0.9,0.2s0.5,0.3,0.6,0.5c0.2,0.2,0.3,0.5,0.4,0.8
				S342.5,35.4,342.5,35.8z M341.4,35.9c0-0.6-0.1-1-0.3-1.3c-0.2-0.3-0.5-0.4-0.9-0.4c-0.1,0-0.2,0-0.3,0c-0.1,0-0.2,0.1-0.3,0.1
				c-0.1,0.1-0.2,0.1-0.3,0.2c-0.1,0.1-0.2,0.1-0.3,0.2v2.5c0.1,0.1,0.2,0.1,0.3,0.2c0.1,0.1,0.2,0.1,0.3,0.2s0.2,0.1,0.3,0.1
				s0.2,0,0.3,0c0.2,0,0.3,0,0.5-0.1s0.3-0.2,0.4-0.3s0.2-0.3,0.3-0.6S341.4,36.2,341.4,35.9z"/>
			<path class="st11" d="M346.7,38.4v-0.6c-0.2,0.2-0.5,0.4-0.8,0.5c-0.3,0.1-0.6,0.2-0.9,0.2c-0.3,0-0.5,0-0.7-0.1
				s-0.4-0.2-0.5-0.3c-0.1-0.1-0.2-0.3-0.3-0.5c-0.1-0.2-0.1-0.4-0.1-0.6c0-0.3,0.1-0.6,0.2-0.8c0.1-0.2,0.2-0.4,0.4-0.5
				c0.2-0.1,0.4-0.2,0.6-0.3c0.2-0.1,0.5-0.1,0.8-0.1l1.2-0.1v-0.2c0-0.2,0-0.3-0.1-0.4c0-0.1-0.1-0.2-0.2-0.3
				c-0.1-0.1-0.2-0.1-0.4-0.1c-0.1,0-0.3,0-0.5,0c-0.2,0-0.3,0-0.5,0c-0.1,0-0.2,0.1-0.3,0.1s-0.2,0.1-0.2,0.2
				c-0.1,0.1-0.1,0.1-0.1,0.2l-0.8-0.5c0.1-0.1,0.1-0.2,0.3-0.3c0.1-0.1,0.2-0.2,0.4-0.3c0.2-0.1,0.4-0.2,0.6-0.2
				c0.2-0.1,0.5-0.1,0.8-0.1c0.4,0,0.7,0,0.9,0.1s0.5,0.2,0.7,0.3c0.2,0.1,0.3,0.3,0.4,0.5c0.1,0.2,0.1,0.5,0.1,0.9v3.5H346.7z
				 M346.7,35.9L346,36c-0.2,0-0.4,0.1-0.6,0.1c-0.2,0-0.3,0.1-0.4,0.2c-0.1,0.1-0.2,0.2-0.3,0.3c-0.1,0.1-0.1,0.2-0.1,0.4
				c0,0.3,0.1,0.5,0.2,0.6c0.1,0.1,0.3,0.2,0.6,0.2c0.1,0,0.2,0,0.3-0.1c0.1,0,0.2-0.1,0.3-0.1c0.1-0.1,0.2-0.1,0.3-0.2
				c0.1-0.1,0.2-0.2,0.3-0.3V35.9z"/>
			<path class="st11" d="M353.3,37.7c-0.1,0.1-0.2,0.3-0.3,0.4c-0.1,0.1-0.3,0.2-0.4,0.3c-0.2,0.1-0.3,0.1-0.5,0.2
				c-0.2,0-0.4,0.1-0.7,0.1c-0.4,0-0.8-0.1-1.1-0.2s-0.5-0.3-0.7-0.6s-0.3-0.5-0.4-0.8s-0.1-0.7-0.1-1.1c0-0.4,0-0.8,0.1-1.1
				c0.1-0.3,0.2-0.6,0.4-0.9c0.2-0.2,0.4-0.4,0.7-0.5c0.3-0.1,0.6-0.2,1.1-0.2c0.4,0,0.8,0.1,1.1,0.2s0.6,0.4,0.8,0.7l-0.8,0.6
				c-0.1-0.2-0.3-0.3-0.4-0.4c-0.2-0.1-0.4-0.1-0.6-0.1c-0.4,0-0.8,0.1-1,0.4c-0.2,0.3-0.3,0.8-0.3,1.4c0,0.3,0,0.5,0.1,0.8
				s0.1,0.4,0.2,0.6c0.1,0.1,0.2,0.3,0.4,0.3s0.4,0.1,0.6,0.1c0.1,0,0.2,0,0.3,0c0.1,0,0.2,0,0.3-0.1s0.2-0.1,0.2-0.2
				s0.2-0.2,0.2-0.3L353.3,37.7z"/>
			<path class="st11" d="M357.4,38.4l-1.5-2.2l-0.5,0.6v1.6h-1v-7.3h1v4.4l1.9-2.2h1.2l-2,2.2l2.1,2.9H357.4z"/>
			<path class="st11" d="M363.3,32c0,0.2-0.1,0.4-0.2,0.4c-0.1,0.1-0.3,0.1-0.5,0.1c-0.2,0-0.4,0-0.5-0.1c-0.1-0.1-0.1-0.2-0.1-0.4
				c0-0.2,0-0.3,0.1-0.4c0.1-0.1,0.3-0.1,0.5-0.1s0.4,0,0.5,0.1S363.3,31.8,363.3,32z M362.1,38.4v-5.1h1v5.1H362.1z"/>
			<path class="st11" d="M368,38.4v-2.9c0-0.3,0-0.5,0-0.6c0-0.2-0.1-0.3-0.1-0.4c-0.1-0.1-0.1-0.2-0.2-0.2s-0.2-0.1-0.4-0.1
				c-0.1,0-0.2,0-0.3,0.1c-0.1,0-0.2,0.1-0.4,0.2c-0.1,0.1-0.3,0.2-0.4,0.3c-0.1,0.1-0.2,0.2-0.4,0.3v3.5h-1v-5.1h1V34
				c0.1-0.1,0.2-0.2,0.4-0.3s0.3-0.2,0.4-0.3c0.2-0.1,0.3-0.1,0.5-0.2c0.2,0,0.3-0.1,0.5-0.1c0.3,0,0.5,0,0.7,0.1s0.3,0.2,0.5,0.4
				c0.1,0.2,0.2,0.4,0.2,0.6c0,0.2,0.1,0.5,0.1,0.8v3.4H368z"/>
			<path class="st11" d="M378.2,38.4h-1l-1.2-3.6l-1.2,3.6h-1l-1.3-5.1h1.1l0.8,3.6l1.2-3.6h0.8l1.2,3.6l0.8-3.6h1L378.2,38.4z"/>
			<path class="st11" d="M381.6,32c0,0.2-0.1,0.4-0.2,0.4c-0.1,0.1-0.3,0.1-0.5,0.1c-0.2,0-0.4,0-0.5-0.1c-0.1-0.1-0.1-0.2-0.1-0.4
				c0-0.2,0-0.3,0.1-0.4c0.1-0.1,0.3-0.1,0.5-0.1s0.4,0,0.5,0.1S381.6,31.8,381.6,32z M380.5,38.4v-5.1h1v5.1H380.5z"/>
			<path class="st11" d="M385.8,38.4c-0.1,0-0.3,0.1-0.5,0.1c-0.2,0-0.4,0-0.5,0c-0.3,0-0.5,0-0.7-0.1c-0.2-0.1-0.4-0.2-0.5-0.3
				c-0.1-0.1-0.2-0.3-0.3-0.5s-0.1-0.5-0.1-0.8v-2.7h-0.7v-0.9h0.7v-1.4h1v1.4h1.2v0.9h-1.2v2.6c0,0.2,0,0.3,0,0.5
				c0,0.1,0.1,0.2,0.1,0.3s0.1,0.1,0.2,0.2c0.1,0,0.2,0.1,0.3,0.1s0.2,0,0.4,0c0.1,0,0.2-0.1,0.3-0.1L385.8,38.4z"/>
			<path class="st11" d="M389.9,38.4v-2.9c0-0.3,0-0.5,0-0.7c0-0.2-0.1-0.3-0.1-0.4c-0.1-0.1-0.1-0.2-0.2-0.2s-0.2-0.1-0.4-0.1
				c-0.1,0-0.2,0-0.3,0.1c-0.1,0-0.2,0.1-0.4,0.2c-0.1,0.1-0.3,0.2-0.4,0.3c-0.1,0.1-0.2,0.2-0.4,0.3v3.5h-1v-7.3h1V34
				c0.1-0.1,0.2-0.2,0.4-0.3s0.3-0.2,0.4-0.3c0.2-0.1,0.3-0.1,0.5-0.2c0.2,0,0.3-0.1,0.5-0.1c0.3,0,0.5,0,0.7,0.1s0.3,0.2,0.5,0.4
				c0.1,0.2,0.2,0.4,0.2,0.6c0.1,0.2,0.1,0.5,0.1,0.8v3.4H389.9z"/>
		</g>
	</g>
</g>
<g>
	<defs>
		<rect id="SVGID_25_" x="-376.9" y="-184.6" width="1920" height="1080"/>
	</defs>
	<clipPath id="SVGID_26_">
		<use xlink:href="#SVGID_25_"  style="overflow:visible;"/>
	</clipPath>
	<polyline class="st14" points="64.7,253.3 64.7,291.3 173.3,291.3 	"/>
</g>
<g>
	<defs>
		<rect id="SVGID_27_" x="-376.9" y="-184.6" width="1920" height="1080"/>
	</defs>
	<clipPath id="SVGID_28_">
		<use xlink:href="#SVGID_27_"  style="overflow:visible;"/>
	</clipPath>
	<g class="st15">
		<defs>
			<polygon id="SVGID_29_" points="172.5,295.1 172.5,287.1 184.5,291.1 			"/>
		</defs>
		<clipPath id="SVGID_30_">
			<use xlink:href="#SVGID_29_"  style="overflow:visible;"/>
		</clipPath>
		<rect x="167.5" y="282.1" class="st16" width="22" height="18"/>
	</g>
</g>
<g>
	<defs>
		<rect id="SVGID_31_" x="-376.9" y="-184.6" width="1920" height="1080"/>
	</defs>
	<clipPath id="SVGID_32_">
		<use xlink:href="#SVGID_31_"  style="overflow:visible;"/>
	</clipPath>
	<polygon class="st17" points="172.5,295.1 172.5,287.1 184.5,291.1 	"/>
</g>
<g>
	<defs>
		<rect id="SVGID_33_" x="-376.9" y="-184.6" width="1920" height="1080"/>
	</defs>
	<clipPath id="SVGID_34_">
		<use xlink:href="#SVGID_33_"  style="overflow:visible;"/>
	</clipPath>
	<g class="st18">
		<defs>
			<rect id="SVGID_35_" x="180.1" y="216.4" width="117" height="84"/>
		</defs>
		<clipPath id="SVGID_36_">
			<use xlink:href="#SVGID_35_"  style="overflow:visible;"/>
		</clipPath>
		<g class="st19">
			<path d="M202.8,286.3c0,0.3-0.1,0.5-0.2,0.6c-0.1,0.1-0.4,0.2-0.7,0.2c-0.3,0-0.6-0.1-0.7-0.2s-0.2-0.3-0.2-0.6
				c0-0.3,0.1-0.5,0.2-0.6c0.1-0.1,0.4-0.2,0.7-0.2s0.5,0.1,0.7,0.2S202.8,286,202.8,286.3z M201.2,295.4v-7.2h1.5v7.2H201.2z"/>
			<path d="M209.3,295.4v-4.1c0-0.4,0-0.7,0-0.9c0-0.2-0.1-0.4-0.1-0.6s-0.2-0.3-0.3-0.3s-0.3-0.1-0.5-0.1c-0.2,0-0.3,0-0.5,0.1
				s-0.3,0.1-0.5,0.2c-0.2,0.1-0.4,0.2-0.5,0.4c-0.2,0.1-0.3,0.3-0.5,0.4v4.9h-1.5v-7.2h1.5v1c0.2-0.2,0.3-0.3,0.5-0.5
				s0.4-0.3,0.6-0.4c0.2-0.1,0.4-0.2,0.7-0.3c0.2-0.1,0.5-0.1,0.7-0.1c0.4,0,0.7,0.1,1,0.2s0.5,0.3,0.6,0.5c0.2,0.2,0.3,0.5,0.3,0.8
				c0.1,0.3,0.1,0.7,0.1,1.1v4.8H209.3z"/>
			<path d="M216,295.4h-1.4l-2.5-7.2h1.5l1.7,5.2l1.7-5.2h1.5L216,295.4z"/>
			<path d="M221,292.1c0,0.4,0,0.7,0.1,1c0.1,0.3,0.2,0.5,0.3,0.7c0.2,0.2,0.3,0.3,0.6,0.4s0.5,0.1,0.9,0.1c0.3,0,0.6-0.1,0.9-0.2
				c0.3-0.1,0.5-0.3,0.7-0.6l1.1,0.8c-0.1,0.2-0.3,0.4-0.5,0.5s-0.4,0.3-0.6,0.4s-0.5,0.2-0.8,0.2s-0.6,0.1-1,0.1
				c-1.1,0-2-0.3-2.5-0.9c-0.5-0.6-0.8-1.6-0.8-2.8c0-0.6,0.1-1.1,0.2-1.6c0.1-0.5,0.3-0.9,0.6-1.2s0.6-0.6,1-0.8
				c0.4-0.2,0.9-0.3,1.5-0.3c0.5,0,1,0.1,1.4,0.2s0.7,0.4,0.9,0.7s0.4,0.6,0.5,1.1s0.2,0.9,0.2,1.4v0.8H221z M224.2,291
				c0-0.6-0.1-1.1-0.4-1.4c-0.3-0.3-0.6-0.5-1.2-0.5c-0.3,0-0.5,0-0.7,0.1c-0.2,0.1-0.4,0.2-0.5,0.4s-0.2,0.3-0.3,0.6
				s-0.1,0.5-0.2,0.8H224.2z"/>
			<path d="M232.6,293.4c0,0.4-0.1,0.7-0.2,1s-0.4,0.5-0.6,0.7s-0.6,0.3-0.9,0.4c-0.3,0.1-0.7,0.1-1.1,0.1c-0.4,0-0.7,0-1-0.1
				s-0.6-0.2-0.8-0.3c-0.2-0.1-0.4-0.2-0.6-0.4s-0.3-0.3-0.4-0.5l1.1-0.8c0.2,0.3,0.4,0.5,0.7,0.6s0.6,0.2,1,0.2c0.2,0,0.4,0,0.5,0
				s0.3-0.1,0.4-0.1c0.1-0.1,0.2-0.2,0.3-0.3s0.1-0.3,0.1-0.4c0-0.1,0-0.3-0.1-0.3s-0.2-0.2-0.3-0.3c-0.1-0.1-0.3-0.1-0.5-0.2
				c-0.2-0.1-0.4-0.1-0.7-0.2c-0.3-0.1-0.6-0.2-0.9-0.3s-0.6-0.2-0.8-0.4c-0.2-0.2-0.4-0.4-0.5-0.6c-0.1-0.3-0.2-0.6-0.2-1
				c0-0.3,0.1-0.6,0.2-0.8s0.3-0.5,0.5-0.7s0.5-0.3,0.9-0.5s0.7-0.2,1.2-0.2c0.3,0,0.6,0,0.9,0.1s0.5,0.1,0.8,0.3s0.4,0.2,0.6,0.4
				c0.2,0.2,0.3,0.3,0.4,0.5l-1.1,0.8c-0.1-0.1-0.2-0.2-0.2-0.3s-0.2-0.2-0.3-0.3s-0.3-0.1-0.4-0.2c-0.2,0-0.3-0.1-0.5-0.1
				c-0.4,0-0.7,0.1-0.9,0.2c-0.2,0.1-0.3,0.4-0.3,0.6c0,0.1,0,0.2,0.1,0.3s0.1,0.2,0.2,0.2s0.2,0.1,0.4,0.2c0.2,0.1,0.4,0.1,0.6,0.2
				c0.4,0.1,0.8,0.2,1.1,0.3s0.6,0.3,0.9,0.4s0.4,0.4,0.5,0.6C232.5,292.7,232.6,293,232.6,293.4z"/>
			<path d="M238,295.4c-0.2,0.1-0.4,0.1-0.7,0.2c-0.3,0-0.5,0.1-0.7,0.1c-0.4,0-0.7,0-1-0.1c-0.3-0.1-0.5-0.2-0.7-0.4
				c-0.2-0.2-0.3-0.4-0.4-0.7s-0.1-0.7-0.1-1.1v-3.8h-1v-1.2h1v-2h1.5v2h1.7v1.2h-1.7v3.6c0,0.3,0,0.5,0,0.6c0,0.2,0.1,0.3,0.1,0.4
				s0.2,0.2,0.3,0.2s0.2,0.1,0.4,0.1s0.3,0,0.5-0.1c0.2,0,0.3-0.1,0.5-0.1L238,295.4z"/>
			<path d="M240.9,286.3c0,0.3-0.1,0.5-0.2,0.6c-0.1,0.1-0.4,0.2-0.7,0.2c-0.3,0-0.6-0.1-0.7-0.2s-0.2-0.3-0.2-0.6
				c0-0.3,0.1-0.5,0.2-0.6c0.1-0.1,0.4-0.2,0.7-0.2s0.5,0.1,0.7,0.2S240.9,286,240.9,286.3z M239.3,295.4v-7.2h1.5v7.2H239.3z"/>
			<path d="M248.9,295.2c0,0.5-0.1,0.9-0.2,1.3s-0.3,0.7-0.6,0.9c-0.3,0.2-0.6,0.4-1.1,0.5c-0.4,0.1-0.9,0.2-1.5,0.2
				c-0.6,0-1.1-0.1-1.5-0.2c-0.5-0.1-0.9-0.3-1.2-0.5l0.5-1.2c0.3,0.2,0.7,0.3,1,0.4c0.4,0.1,0.8,0.2,1.2,0.2c0.3,0,0.6,0,0.9-0.1
				s0.4-0.2,0.6-0.3c0.2-0.1,0.3-0.3,0.3-0.5s0.1-0.4,0.1-0.7v-0.7c-0.3,0.2-0.6,0.5-0.9,0.6c-0.4,0.2-0.8,0.2-1.2,0.2
				c-0.5,0-0.9-0.1-1.2-0.3c-0.3-0.2-0.6-0.4-0.9-0.8s-0.4-0.7-0.5-1.2s-0.2-0.9-0.2-1.5c0-0.5,0.1-0.9,0.2-1.4s0.3-0.8,0.5-1.2
				s0.5-0.6,0.9-0.8s0.8-0.3,1.4-0.3c0.4,0,0.7,0.1,1.1,0.2c0.4,0.2,0.7,0.4,0.9,0.6l0.1-0.6h1.3V295.2z M247.4,290
				c-0.3-0.2-0.5-0.4-0.8-0.5c-0.3-0.1-0.6-0.2-0.9-0.2c-0.3,0-0.5,0.1-0.7,0.2c-0.2,0.1-0.4,0.3-0.5,0.5c-0.1,0.2-0.3,0.5-0.3,0.8
				s-0.1,0.6-0.1,1c0,0.4,0,0.7,0.1,1c0.1,0.3,0.2,0.5,0.3,0.8c0.1,0.2,0.3,0.4,0.5,0.5s0.4,0.2,0.7,0.2c0.3,0,0.6-0.1,0.9-0.2
				s0.6-0.3,0.9-0.6V290z"/>
			<path d="M255.2,295.4v-0.8c-0.3,0.3-0.7,0.5-1.1,0.7s-0.8,0.3-1.2,0.3c-0.4,0-0.7-0.1-1-0.2s-0.5-0.3-0.7-0.5
				c-0.2-0.2-0.3-0.4-0.4-0.7c-0.1-0.3-0.2-0.6-0.2-0.9c0-0.4,0.1-0.8,0.2-1.1s0.3-0.5,0.6-0.7c0.3-0.2,0.6-0.3,0.9-0.4
				c0.3-0.1,0.7-0.2,1.1-0.2l1.6-0.2v-0.3c0-0.2,0-0.4-0.1-0.6c-0.1-0.2-0.2-0.3-0.3-0.4s-0.3-0.2-0.5-0.2c-0.2,0-0.4-0.1-0.7-0.1
				c-0.2,0-0.5,0-0.6,0.1s-0.3,0.1-0.5,0.2s-0.2,0.2-0.3,0.2c-0.1,0.1-0.2,0.2-0.2,0.3l-1.2-0.7c0.1-0.2,0.2-0.3,0.4-0.5
				c0.2-0.1,0.3-0.3,0.6-0.4c0.2-0.1,0.5-0.2,0.8-0.3s0.7-0.1,1.1-0.1c0.5,0,0.9,0,1.3,0.1s0.7,0.2,0.9,0.4c0.3,0.2,0.4,0.4,0.6,0.8
				c0.1,0.3,0.2,0.7,0.2,1.2v4.9H255.2z M255.1,291.9l-1,0.1c-0.3,0-0.6,0.1-0.8,0.1s-0.4,0.1-0.6,0.2s-0.3,0.2-0.4,0.4
				c-0.1,0.2-0.1,0.3-0.1,0.6c0,0.4,0.1,0.6,0.3,0.8c0.2,0.2,0.5,0.2,0.8,0.2c0.1,0,0.3,0,0.4-0.1s0.3-0.1,0.5-0.2s0.3-0.2,0.5-0.3
				c0.2-0.1,0.3-0.2,0.5-0.4V291.9z"/>
			<path d="M262.4,295.4c-0.2,0.1-0.4,0.1-0.7,0.2c-0.3,0-0.5,0.1-0.7,0.1c-0.4,0-0.7,0-1-0.1c-0.3-0.1-0.5-0.2-0.7-0.4
				c-0.2-0.2-0.3-0.4-0.4-0.7s-0.1-0.7-0.1-1.1v-3.8h-1v-1.2h1v-2h1.5v2h1.7v1.2h-1.7v3.6c0,0.3,0,0.5,0,0.6c0,0.2,0.1,0.3,0.1,0.4
				s0.2,0.2,0.3,0.2s0.2,0.1,0.4,0.1s0.3,0,0.5-0.1c0.2,0,0.3-0.1,0.5-0.1L262.4,295.4z"/>
			<path d="M264.7,292.1c0,0.4,0,0.7,0.1,1c0.1,0.3,0.2,0.5,0.3,0.7c0.2,0.2,0.3,0.3,0.6,0.4s0.5,0.1,0.9,0.1c0.3,0,0.6-0.1,0.9-0.2
				c0.3-0.1,0.5-0.3,0.7-0.6l1.1,0.8c-0.1,0.2-0.3,0.4-0.5,0.5s-0.4,0.3-0.6,0.4s-0.5,0.2-0.8,0.2s-0.6,0.1-1,0.1
				c-1.1,0-2-0.3-2.5-0.9c-0.5-0.6-0.8-1.6-0.8-2.8c0-0.6,0.1-1.1,0.2-1.6c0.1-0.5,0.3-0.9,0.6-1.2s0.6-0.6,1-0.8
				c0.4-0.2,0.9-0.3,1.5-0.3c0.5,0,1,0.1,1.4,0.2s0.7,0.4,0.9,0.7s0.4,0.6,0.5,1.1s0.2,0.9,0.2,1.4v0.8H264.7z M268,291
				c0-0.6-0.1-1.1-0.4-1.4c-0.3-0.3-0.6-0.5-1.2-0.5c-0.3,0-0.5,0-0.7,0.1c-0.2,0.1-0.4,0.2-0.5,0.4s-0.2,0.3-0.3,0.6
				s-0.1,0.5-0.2,0.8H268z"/>
			<path d="M276.4,293.4c0,0.4-0.1,0.7-0.2,1s-0.4,0.5-0.6,0.7s-0.6,0.3-0.9,0.4c-0.3,0.1-0.7,0.1-1.1,0.1c-0.4,0-0.7,0-1-0.1
				s-0.6-0.2-0.8-0.3c-0.2-0.1-0.4-0.2-0.6-0.4s-0.3-0.3-0.4-0.5l1.1-0.8c0.2,0.3,0.4,0.5,0.7,0.6s0.6,0.2,1,0.2c0.2,0,0.4,0,0.5,0
				s0.3-0.1,0.4-0.1c0.1-0.1,0.2-0.2,0.3-0.3s0.1-0.3,0.1-0.4c0-0.1,0-0.3-0.1-0.3s-0.2-0.2-0.3-0.3c-0.1-0.1-0.3-0.1-0.5-0.2
				c-0.2-0.1-0.4-0.1-0.7-0.2c-0.3-0.1-0.6-0.2-0.9-0.3s-0.6-0.2-0.8-0.4c-0.2-0.2-0.4-0.4-0.5-0.6c-0.1-0.3-0.2-0.6-0.2-1
				c0-0.3,0.1-0.6,0.2-0.8s0.3-0.5,0.5-0.7s0.5-0.3,0.9-0.5s0.7-0.2,1.2-0.2c0.3,0,0.6,0,0.9,0.1s0.5,0.1,0.8,0.3s0.4,0.2,0.6,0.4
				c0.2,0.2,0.3,0.3,0.4,0.5l-1.1,0.8c-0.1-0.1-0.2-0.2-0.2-0.3s-0.2-0.2-0.3-0.3s-0.3-0.1-0.4-0.2c-0.2,0-0.3-0.1-0.5-0.1
				c-0.4,0-0.7,0.1-0.9,0.2c-0.2,0.1-0.3,0.4-0.3,0.6c0,0.1,0,0.2,0.1,0.3s0.1,0.2,0.2,0.2s0.2,0.1,0.4,0.2c0.2,0.1,0.4,0.1,0.6,0.2
				c0.4,0.1,0.8,0.2,1.1,0.3s0.6,0.3,0.9,0.4s0.4,0.4,0.5,0.6C276.3,292.7,276.4,293,276.4,293.4z"/>
		</g>
	</g>
</g>
<g>
	<defs>
		<rect id="SVGID_37_" x="-376.9" y="-184.6" width="1920" height="1080"/>
	</defs>
	<clipPath id="SVGID_38_">
		<use xlink:href="#SVGID_37_"  style="overflow:visible;"/>
	</clipPath>
	<g class="st20">
		<defs>
			<rect id="SVGID_39_" x="390.1" y="125.4" width="80" height="84"/>
		</defs>
		<clipPath id="SVGID_40_">
			<use xlink:href="#SVGID_39_"  style="overflow:visible;"/>
		</clipPath>
		<g class="st21">
			<path d="M415.3,204.4h-2l-2.9-9.5h1.6l2.3,7.7l2.3-7.7h1.6L415.3,204.4z"/>
			<path d="M421.2,195.3c0,0.3-0.1,0.5-0.2,0.6c-0.1,0.1-0.4,0.2-0.7,0.2c-0.3,0-0.6-0.1-0.7-0.2c-0.1-0.1-0.2-0.3-0.2-0.6
				c0-0.3,0.1-0.5,0.2-0.6c0.1-0.1,0.4-0.2,0.7-0.2s0.5,0.1,0.7,0.2S421.2,195,421.2,195.3z M419.6,204.4v-7.2h1.5v7.2H419.6z"/>
			<path d="M428.9,203.3c-0.1,0.2-0.3,0.4-0.4,0.5c-0.2,0.2-0.4,0.3-0.6,0.4c-0.2,0.1-0.5,0.2-0.7,0.3c-0.3,0.1-0.6,0.1-0.9,0.1
				c-0.6,0-1.1-0.1-1.5-0.3s-0.8-0.4-1-0.8s-0.5-0.7-0.6-1.2s-0.2-1-0.2-1.5c0-0.6,0.1-1.1,0.2-1.6c0.1-0.5,0.3-0.9,0.6-1.2
				c0.3-0.3,0.6-0.6,1-0.8c0.4-0.2,0.9-0.3,1.5-0.3c0.6,0,1.1,0.1,1.6,0.3s0.8,0.5,1.1,1l-1.1,0.8c-0.2-0.2-0.4-0.4-0.6-0.6
				c-0.2-0.1-0.5-0.2-0.9-0.2c-0.6,0-1.1,0.2-1.4,0.6c-0.3,0.4-0.4,1-0.4,1.9c0,0.4,0,0.8,0.1,1.1s0.2,0.6,0.3,0.8
				c0.1,0.2,0.3,0.4,0.6,0.5s0.5,0.2,0.9,0.2c0.2,0,0.3,0,0.4,0c0.1,0,0.3-0.1,0.4-0.1s0.2-0.1,0.3-0.2s0.2-0.2,0.3-0.4L428.9,203.3
				z"/>
			<path d="M434.1,204.4c-0.2,0.1-0.4,0.1-0.7,0.2c-0.3,0-0.5,0.1-0.7,0.1c-0.4,0-0.7,0-1-0.1c-0.3-0.1-0.5-0.2-0.7-0.4
				c-0.2-0.2-0.3-0.4-0.4-0.7s-0.1-0.7-0.1-1.1v-3.8h-1v-1.2h1v-2h1.5v2h1.7v1.2H432v3.6c0,0.3,0,0.5,0,0.6c0,0.2,0.1,0.3,0.1,0.4
				s0.2,0.2,0.3,0.2c0.1,0,0.2,0.1,0.4,0.1s0.3,0,0.5-0.1c0.2,0,0.3-0.1,0.5-0.1L434.1,204.4z"/>
			<path d="M437,195.3c0,0.3-0.1,0.5-0.2,0.6c-0.1,0.1-0.4,0.2-0.7,0.2c-0.3,0-0.6-0.1-0.7-0.2c-0.1-0.1-0.2-0.3-0.2-0.6
				c0-0.3,0.1-0.5,0.2-0.6c0.1-0.1,0.4-0.2,0.7-0.2s0.5,0.1,0.7,0.2S437,195,437,195.3z M435.4,204.4v-7.2h1.5v7.2H435.4z"/>
			<path d="M447.4,204.4v-4.2c0-0.4,0-0.6,0-0.9c0-0.2-0.1-0.4-0.1-0.6s-0.2-0.2-0.3-0.3c-0.1-0.1-0.3-0.1-0.5-0.1
				c-0.1,0-0.3,0-0.5,0.1c-0.2,0.1-0.3,0.1-0.5,0.2c-0.2,0.1-0.3,0.2-0.5,0.4c-0.2,0.1-0.3,0.3-0.4,0.4v4.9h-1.5v-4.2
				c0-0.4,0-0.7,0-0.9c0-0.2-0.1-0.4-0.1-0.6c-0.1-0.1-0.2-0.2-0.3-0.3c-0.1-0.1-0.3-0.1-0.5-0.1c-0.2,0-0.3,0-0.5,0.1
				c-0.2,0.1-0.3,0.2-0.5,0.3c-0.2,0.1-0.3,0.2-0.5,0.4c-0.1,0.1-0.3,0.3-0.4,0.4v4.9H439v-7.2h1.5v1c0.2-0.2,0.3-0.3,0.5-0.5
				s0.4-0.3,0.5-0.4c0.2-0.1,0.4-0.2,0.6-0.3c0.2-0.1,0.4-0.1,0.6-0.1c0.5,0,1,0.1,1.2,0.3c0.3,0.2,0.5,0.5,0.6,1
				c0.2-0.2,0.4-0.4,0.6-0.5c0.2-0.2,0.4-0.3,0.6-0.4c0.2-0.1,0.4-0.2,0.6-0.3c0.2-0.1,0.4-0.1,0.7-0.1c0.4,0,0.7,0.1,0.9,0.2
				c0.2,0.1,0.4,0.3,0.6,0.5c0.1,0.2,0.2,0.5,0.3,0.8c0.1,0.3,0.1,0.7,0.1,1.1v4.8H447.4z"/>
		</g>
	</g>
</g>
<g>
	<defs>
		<rect id="SVGID_41_" x="-376.9" y="-184.6" width="1920" height="1080"/>
	</defs>
	<clipPath id="SVGID_42_">
		<use xlink:href="#SVGID_41_"  style="overflow:visible;"/>
	</clipPath>
	<g class="st22">
		<defs>
			<rect id="SVGID_43_" x="392.1" y="307.4" width="72" height="84"/>
		</defs>
		<clipPath id="SVGID_44_">
			<use xlink:href="#SVGID_43_"  style="overflow:visible;"/>
		</clipPath>
		<g class="st23">
			<path d="M420.2,383.6c0,0.5-0.1,0.9-0.2,1.2s-0.4,0.6-0.7,0.9c-0.3,0.2-0.7,0.4-1.1,0.5c-0.5,0.1-1,0.2-1.5,0.2h-3.3v-9.5h3.1
				c0.6,0,1.1,0,1.6,0.1s0.8,0.2,1,0.4c0.3,0.2,0.5,0.4,0.6,0.7s0.2,0.6,0.2,1c0,0.3,0,0.6-0.1,0.9c-0.1,0.2-0.2,0.5-0.3,0.6
				c-0.1,0.2-0.3,0.3-0.5,0.4s-0.4,0.2-0.6,0.2c0.3,0,0.6,0.1,0.9,0.2c0.3,0.1,0.5,0.3,0.7,0.4c0.2,0.2,0.3,0.4,0.4,0.7
				S420.2,383.2,420.2,383.6z M418,379.4c0-0.2,0-0.4-0.1-0.5c-0.1-0.1-0.2-0.3-0.3-0.3c-0.1-0.1-0.3-0.2-0.6-0.2
				c-0.2,0-0.5-0.1-0.9-0.1h-1.3v2.4h1.3c0.4,0,0.7,0,0.9-0.1c0.2-0.1,0.4-0.1,0.6-0.2c0.1-0.1,0.3-0.2,0.3-0.4
				C418,379.9,418,379.7,418,379.4z M418.5,383.5c0-0.3,0-0.5-0.1-0.7s-0.2-0.3-0.4-0.4c-0.2-0.1-0.4-0.2-0.7-0.2
				c-0.3,0-0.6-0.1-1-0.1h-1.5v2.8h1.1c0.4,0,0.8,0,1.1,0s0.6-0.1,0.8-0.2s0.4-0.2,0.5-0.4C418.5,384.1,418.5,383.8,418.5,383.5z"/>
			<path d="M426.4,386.4v-1c-0.2,0.2-0.3,0.3-0.5,0.5c-0.2,0.1-0.4,0.3-0.6,0.4c-0.2,0.1-0.4,0.2-0.7,0.3c-0.2,0.1-0.5,0.1-0.7,0.1
				c-0.4,0-0.7-0.1-1-0.2s-0.5-0.3-0.6-0.5c-0.2-0.2-0.3-0.5-0.3-0.8c-0.1-0.3-0.1-0.7-0.1-1.1v-4.8h1.5v4.1c0,0.4,0,0.7,0,0.9
				c0,0.2,0.1,0.4,0.1,0.6c0.1,0.2,0.2,0.3,0.3,0.3s0.3,0.1,0.5,0.1c0.2,0,0.3,0,0.5-0.1c0.2-0.1,0.3-0.1,0.5-0.2
				c0.2-0.1,0.4-0.2,0.5-0.4c0.2-0.1,0.3-0.3,0.5-0.4v-4.9h1.5v7.2H426.4z"/>
			<path d="M430.1,386.4v-10.2h1.5v10.2H430.1z"/>
			<path d="M433.8,386.4v-10.2h1.5v10.2H433.8z"/>
			<path d="M436.6,387.6c0.2,0.1,0.3,0.1,0.5,0.1c0.2,0,0.4,0.1,0.5,0.1c0.1,0,0.3,0,0.4-0.1c0.1,0,0.2-0.1,0.3-0.2
				c0.1-0.1,0.2-0.2,0.3-0.4c0.1-0.2,0.2-0.4,0.3-0.6l0.2-0.5l-2.6-6.7h1.6l1.8,4.9l1.9-4.9h1.5l-3.1,7.7c-0.2,0.4-0.3,0.7-0.5,1
				c-0.2,0.3-0.3,0.5-0.6,0.7c-0.2,0.2-0.4,0.3-0.7,0.4c-0.3,0.1-0.5,0.1-0.9,0.1c-0.2,0-0.5,0-0.7-0.1s-0.5-0.1-0.7-0.2
				L436.6,387.6z"/>
		</g>
	</g>
</g>
<g>
	<defs>
		<rect id="SVGID_45_" x="-376.9" y="-184.6" width="1920" height="1080"/>
	</defs>
	<clipPath id="SVGID_46_">
		<use xlink:href="#SVGID_45_"  style="overflow:visible;"/>
	</clipPath>
	<polyline class="st24" points="236.4,273.1 236.4,91.2 101.1,91.2 	"/>
</g>
<g>
	<defs>
		<rect id="SVGID_47_" x="-376.9" y="-184.6" width="1920" height="1080"/>
	</defs>
	<clipPath id="SVGID_48_">
		<use xlink:href="#SVGID_47_"  style="overflow:visible;"/>
	</clipPath>
	<g class="st25">
		<defs>
			<polygon id="SVGID_49_" points="107.1,87.7 107.1,95.7 95.1,91.7 			"/>
		</defs>
		<clipPath id="SVGID_50_">
			<use xlink:href="#SVGID_49_"  style="overflow:visible;"/>
		</clipPath>
		<rect x="90.1" y="82.7" class="st26" width="22" height="18"/>
	</g>
</g>
<g>
	<defs>
		<rect id="SVGID_51_" x="-376.9" y="-184.6" width="1920" height="1080"/>
	</defs>
	<clipPath id="SVGID_52_">
		<use xlink:href="#SVGID_51_"  style="overflow:visible;"/>
	</clipPath>
	<polygon class="st27" points="107.1,87.7 107.1,95.7 95.1,91.7 	"/>
</g>
<g>
	<defs>
		<rect id="SVGID_53_" x="-376.9" y="-184.6" width="1920" height="1080"/>
	</defs>
	<clipPath id="SVGID_54_">
		<use xlink:href="#SVGID_53_"  style="overflow:visible;"/>
	</clipPath>
	<g class="st28">
		<defs>
			<rect id="SVGID_55_" x="225.1" y="77.4" width="129" height="89"/>
		</defs>
		<clipPath id="SVGID_56_">
			<use xlink:href="#SVGID_55_"  style="overflow:visible;"/>
		</clipPath>
		<g class="st29">
			<path class="st11" d="M249.5,147c0,0.3-0.1,0.5-0.2,0.7s-0.3,0.4-0.4,0.5s-0.4,0.2-0.6,0.3c-0.2,0.1-0.5,0.1-0.8,0.1
				c-0.3,0-0.5,0-0.7-0.1s-0.4-0.1-0.6-0.2c-0.2-0.1-0.3-0.2-0.4-0.3s-0.2-0.2-0.3-0.4l0.8-0.5c0.1,0.2,0.3,0.4,0.5,0.4
				s0.4,0.1,0.7,0.1c0.1,0,0.3,0,0.4,0s0.2-0.1,0.3-0.1c0.1-0.1,0.2-0.1,0.2-0.2s0.1-0.2,0.1-0.3c0-0.1,0-0.2-0.1-0.2
				s-0.1-0.1-0.2-0.2c-0.1-0.1-0.2-0.1-0.4-0.2c-0.1,0-0.3-0.1-0.5-0.1c-0.2-0.1-0.5-0.1-0.7-0.2s-0.4-0.2-0.6-0.3
				c-0.2-0.1-0.3-0.3-0.4-0.5c-0.1-0.2-0.1-0.4-0.1-0.7c0-0.2,0-0.4,0.1-0.6s0.2-0.3,0.4-0.5s0.4-0.2,0.6-0.3s0.5-0.1,0.8-0.1
				c0.2,0,0.4,0,0.6,0.1s0.4,0.1,0.5,0.2s0.3,0.2,0.4,0.3c0.1,0.1,0.2,0.2,0.3,0.4l-0.8,0.5c0-0.1-0.1-0.1-0.2-0.2s-0.1-0.1-0.2-0.2
				s-0.2-0.1-0.3-0.1c-0.1,0-0.2,0-0.4,0c-0.3,0-0.5,0.1-0.7,0.2c-0.2,0.1-0.2,0.3-0.2,0.5c0,0.1,0,0.2,0.1,0.2s0.1,0.1,0.2,0.2
				s0.2,0.1,0.3,0.1c0.1,0,0.3,0.1,0.4,0.1c0.3,0.1,0.6,0.2,0.8,0.2s0.4,0.2,0.6,0.3s0.3,0.3,0.4,0.5
				C249.5,146.5,249.5,146.7,249.5,147z"/>
			<path class="st11" d="M251.6,146c0,0.3,0,0.5,0.1,0.7c0.1,0.2,0.1,0.4,0.2,0.5c0.1,0.1,0.2,0.2,0.4,0.3s0.4,0.1,0.6,0.1
				c0.2,0,0.4,0,0.6-0.1c0.2-0.1,0.3-0.2,0.5-0.4l0.8,0.5c-0.1,0.1-0.2,0.3-0.3,0.4s-0.3,0.2-0.4,0.3s-0.3,0.1-0.5,0.2
				s-0.4,0.1-0.7,0.1c-0.8,0-1.4-0.2-1.8-0.7c-0.4-0.5-0.6-1.1-0.6-2c0-0.4,0-0.8,0.1-1.1c0.1-0.3,0.2-0.6,0.4-0.9s0.4-0.4,0.7-0.6
				c0.3-0.1,0.7-0.2,1.1-0.2c0.4,0,0.7,0.1,1,0.2s0.5,0.3,0.7,0.5s0.3,0.5,0.4,0.8s0.1,0.6,0.1,1v0.6H251.6z M253.9,145.3
				c0-0.4-0.1-0.8-0.3-1c-0.2-0.2-0.5-0.3-0.8-0.3c-0.2,0-0.4,0-0.5,0.1c-0.1,0.1-0.3,0.1-0.3,0.3s-0.2,0.2-0.2,0.4
				s-0.1,0.3-0.1,0.6H253.9z"/>
			<path class="st11" d="M259.5,148.4v-2.9c0-0.3,0-0.5,0-0.6c0-0.2-0.1-0.3-0.1-0.4s-0.1-0.2-0.2-0.2s-0.2-0.1-0.4-0.1
				c-0.1,0-0.2,0-0.3,0.1s-0.2,0.1-0.4,0.2c-0.1,0.1-0.3,0.2-0.4,0.3c-0.1,0.1-0.2,0.2-0.4,0.3v3.5h-1v-5.1h1v0.7
				c0.1-0.1,0.2-0.2,0.4-0.3s0.3-0.2,0.4-0.3c0.2-0.1,0.3-0.1,0.5-0.2c0.2,0,0.3-0.1,0.5-0.1c0.3,0,0.5,0,0.7,0.1s0.3,0.2,0.5,0.4
				c0.1,0.2,0.2,0.4,0.2,0.6c0,0.2,0.1,0.5,0.1,0.8v3.4H259.5z"/>
			<path class="st11" d="M265.3,148.4v-0.5c-0.2,0.2-0.5,0.3-0.7,0.5c-0.3,0.1-0.6,0.2-0.9,0.2c-0.3,0-0.6-0.1-0.9-0.2
				c-0.2-0.1-0.5-0.3-0.6-0.6s-0.3-0.5-0.4-0.8s-0.1-0.7-0.1-1.1c0-0.4,0-0.7,0.1-1c0.1-0.3,0.2-0.6,0.4-0.9
				c0.2-0.3,0.4-0.5,0.7-0.6c0.3-0.2,0.6-0.2,1-0.2c0.3,0,0.5,0,0.7,0.1c0.2,0.1,0.5,0.2,0.6,0.4v-2.5h1v7.3H265.3z M265.3,144.6
				c-0.1-0.1-0.2-0.1-0.3-0.2s-0.2-0.1-0.3-0.2c-0.1,0-0.2-0.1-0.3-0.1c-0.1,0-0.2,0-0.3,0c-0.2,0-0.3,0-0.5,0.1
				c-0.1,0.1-0.3,0.2-0.4,0.3s-0.2,0.3-0.3,0.6c-0.1,0.2-0.1,0.5-0.1,0.8c0,0.6,0.1,1,0.3,1.3s0.5,0.4,0.8,0.4c0.1,0,0.2,0,0.4,0
				c0.1,0,0.2-0.1,0.3-0.1c0.1-0.1,0.2-0.1,0.3-0.2c0.1-0.1,0.2-0.1,0.3-0.2V144.6z"/>
			<path class="st11" d="M271.5,147c0,0.3-0.1,0.5-0.2,0.7s-0.3,0.4-0.4,0.5s-0.4,0.2-0.6,0.3c-0.2,0.1-0.5,0.1-0.8,0.1
				c-0.3,0-0.5,0-0.7-0.1s-0.4-0.1-0.6-0.2c-0.2-0.1-0.3-0.2-0.4-0.3s-0.2-0.2-0.3-0.4l0.8-0.5c0.1,0.2,0.3,0.4,0.5,0.4
				s0.4,0.1,0.7,0.1c0.1,0,0.3,0,0.4,0s0.2-0.1,0.3-0.1c0.1-0.1,0.2-0.1,0.2-0.2s0.1-0.2,0.1-0.3c0-0.1,0-0.2-0.1-0.2
				s-0.1-0.1-0.2-0.2c-0.1-0.1-0.2-0.1-0.4-0.2c-0.1,0-0.3-0.1-0.5-0.1c-0.2-0.1-0.5-0.1-0.7-0.2s-0.4-0.2-0.6-0.3
				c-0.2-0.1-0.3-0.3-0.4-0.5c-0.1-0.2-0.1-0.4-0.1-0.7c0-0.2,0-0.4,0.1-0.6s0.2-0.3,0.4-0.5s0.4-0.2,0.6-0.3s0.5-0.1,0.8-0.1
				c0.2,0,0.4,0,0.6,0.1s0.4,0.1,0.5,0.2s0.3,0.2,0.4,0.3c0.1,0.1,0.2,0.2,0.3,0.4l-0.8,0.5c0-0.1-0.1-0.1-0.2-0.2s-0.1-0.1-0.2-0.2
				s-0.2-0.1-0.3-0.1c-0.1,0-0.2,0-0.4,0c-0.3,0-0.5,0.1-0.7,0.2c-0.2,0.1-0.2,0.3-0.2,0.5c0,0.1,0,0.2,0.1,0.2s0.1,0.1,0.2,0.2
				s0.2,0.1,0.3,0.1c0.1,0,0.3,0.1,0.4,0.1c0.3,0.1,0.6,0.2,0.8,0.2s0.4,0.2,0.6,0.3s0.3,0.3,0.4,0.5
				C271.5,146.5,271.5,146.7,271.5,147z"/>
			<path class="st11" d="M276.5,141.9c0,0.2-0.1,0.4-0.2,0.4c-0.1,0.1-0.3,0.1-0.5,0.1c-0.2,0-0.4,0-0.5-0.1s-0.1-0.2-0.1-0.4
				c0-0.2,0-0.3,0.1-0.4c0.1-0.1,0.3-0.1,0.5-0.1s0.4,0,0.5,0.1S276.5,141.7,276.5,141.9z M275.3,148.4v-5.1h1v5.1H275.3z"/>
			<path class="st11" d="M281.2,148.4v-2.9c0-0.3,0-0.5,0-0.6c0-0.2-0.1-0.3-0.1-0.4s-0.1-0.2-0.2-0.2s-0.2-0.1-0.4-0.1
				c-0.1,0-0.2,0-0.3,0.1s-0.2,0.1-0.4,0.2c-0.1,0.1-0.3,0.2-0.4,0.3c-0.1,0.1-0.2,0.2-0.4,0.3v3.5h-1v-5.1h1v0.7
				c0.1-0.1,0.2-0.2,0.4-0.3s0.3-0.2,0.4-0.3c0.2-0.1,0.3-0.1,0.5-0.2c0.2,0,0.3-0.1,0.5-0.1c0.3,0,0.5,0,0.7,0.1s0.3,0.2,0.5,0.4
				c0.1,0.2,0.2,0.4,0.2,0.6c0,0.2,0.1,0.5,0.1,0.8v3.4H281.2z"/>
			<path class="st11" d="M285.9,148.4h-1l-1.8-5.1h1.1l1.2,3.7l1.2-3.7h1.1L285.9,148.4z"/>
			<path class="st11" d="M289.5,146c0,0.3,0,0.5,0.1,0.7c0.1,0.2,0.1,0.4,0.2,0.5c0.1,0.1,0.2,0.2,0.4,0.3s0.4,0.1,0.6,0.1
				c0.2,0,0.4,0,0.6-0.1c0.2-0.1,0.3-0.2,0.5-0.4l0.8,0.5c-0.1,0.1-0.2,0.3-0.3,0.4s-0.3,0.2-0.4,0.3s-0.3,0.1-0.5,0.2
				s-0.4,0.1-0.7,0.1c-0.8,0-1.4-0.2-1.8-0.7c-0.4-0.5-0.6-1.1-0.6-2c0-0.4,0-0.8,0.1-1.1c0.1-0.3,0.2-0.6,0.4-0.9s0.4-0.4,0.7-0.6
				c0.3-0.1,0.7-0.2,1.1-0.2c0.4,0,0.7,0.1,1,0.2s0.5,0.3,0.7,0.5s0.3,0.5,0.4,0.8s0.1,0.6,0.1,1v0.6H289.5z M291.8,145.3
				c0-0.4-0.1-0.8-0.3-1c-0.2-0.2-0.5-0.3-0.8-0.3c-0.2,0-0.4,0-0.5,0.1c-0.1,0.1-0.3,0.1-0.3,0.3s-0.2,0.2-0.2,0.4
				s-0.1,0.3-0.1,0.6H291.8z"/>
			<path class="st11" d="M297.8,147c0,0.3-0.1,0.5-0.2,0.7s-0.3,0.4-0.4,0.5s-0.4,0.2-0.6,0.3c-0.2,0.1-0.5,0.1-0.8,0.1
				c-0.3,0-0.5,0-0.7-0.1s-0.4-0.1-0.6-0.2c-0.2-0.1-0.3-0.2-0.4-0.3s-0.2-0.2-0.3-0.4l0.8-0.5c0.1,0.2,0.3,0.4,0.5,0.4
				s0.4,0.1,0.7,0.1c0.1,0,0.3,0,0.4,0s0.2-0.1,0.3-0.1c0.1-0.1,0.2-0.1,0.2-0.2s0.1-0.2,0.1-0.3c0-0.1,0-0.2-0.1-0.2
				s-0.1-0.1-0.2-0.2c-0.1-0.1-0.2-0.1-0.4-0.2c-0.1,0-0.3-0.1-0.5-0.1c-0.2-0.1-0.5-0.1-0.7-0.2s-0.4-0.2-0.6-0.3
				c-0.2-0.1-0.3-0.3-0.4-0.5c-0.1-0.2-0.1-0.4-0.1-0.7c0-0.2,0-0.4,0.1-0.6s0.2-0.3,0.4-0.5s0.4-0.2,0.6-0.3s0.5-0.1,0.8-0.1
				c0.2,0,0.4,0,0.6,0.1s0.4,0.1,0.5,0.2s0.3,0.2,0.4,0.3c0.1,0.1,0.2,0.2,0.3,0.4l-0.8,0.5c0-0.1-0.1-0.1-0.2-0.2s-0.1-0.1-0.2-0.2
				s-0.2-0.1-0.3-0.1c-0.1,0-0.2,0-0.4,0c-0.3,0-0.5,0.1-0.7,0.2c-0.2,0.1-0.2,0.3-0.2,0.5c0,0.1,0,0.2,0.1,0.2s0.1,0.1,0.2,0.2
				s0.2,0.1,0.3,0.1c0.1,0,0.3,0.1,0.4,0.1c0.3,0.1,0.6,0.2,0.8,0.2s0.4,0.2,0.6,0.3s0.3,0.3,0.4,0.5
				C297.7,146.5,297.8,146.7,297.8,147z"/>
			<path class="st11" d="M301.6,148.4c-0.1,0-0.3,0.1-0.5,0.1c-0.2,0-0.4,0-0.5,0c-0.3,0-0.5,0-0.7-0.1c-0.2-0.1-0.4-0.2-0.5-0.3
				c-0.1-0.1-0.2-0.3-0.3-0.5s-0.1-0.5-0.1-0.8v-2.7h-0.7v-0.9h0.7v-1.4h1v1.4h1.2v0.9h-1.2v2.6c0,0.2,0,0.3,0,0.5
				c0,0.1,0.1,0.2,0.1,0.3s0.1,0.1,0.2,0.2s0.2,0.1,0.3,0.1s0.2,0,0.4,0c0.1,0,0.2-0.1,0.3-0.1L301.6,148.4z"/>
			<path class="st11" d="M303.7,141.9c0,0.2-0.1,0.4-0.2,0.4c-0.1,0.1-0.3,0.1-0.5,0.1c-0.2,0-0.4,0-0.5-0.1s-0.1-0.2-0.1-0.4
				c0-0.2,0-0.3,0.1-0.4c0.1-0.1,0.3-0.1,0.5-0.1s0.4,0,0.5,0.1S303.7,141.7,303.7,141.9z M302.5,148.4v-5.1h1v5.1H302.5z"/>
			<path class="st11" d="M309.4,148.3c0,0.3,0,0.6-0.1,0.9s-0.2,0.5-0.4,0.6c-0.2,0.2-0.4,0.3-0.8,0.4c-0.3,0.1-0.7,0.1-1.1,0.1
				c-0.4,0-0.8,0-1.1-0.1c-0.3-0.1-0.6-0.2-0.9-0.3l0.3-0.8c0.2,0.1,0.5,0.2,0.7,0.3c0.3,0.1,0.6,0.1,0.9,0.1c0.2,0,0.5,0,0.6-0.1
				s0.3-0.1,0.4-0.2c0.1-0.1,0.2-0.2,0.2-0.3s0.1-0.3,0.1-0.5v-0.5c-0.2,0.2-0.4,0.3-0.7,0.4c-0.3,0.1-0.5,0.2-0.9,0.2
				c-0.3,0-0.6-0.1-0.9-0.2c-0.2-0.1-0.5-0.3-0.6-0.5s-0.3-0.5-0.4-0.8s-0.1-0.7-0.1-1.1c0-0.3,0-0.7,0.1-1s0.2-0.6,0.4-0.8
				s0.4-0.4,0.7-0.6s0.6-0.2,1-0.2c0.3,0,0.5,0.1,0.8,0.2c0.3,0.1,0.5,0.3,0.7,0.4l0.1-0.5h0.9V148.3z M308.4,144.6
				c-0.2-0.2-0.4-0.3-0.6-0.4c-0.2-0.1-0.4-0.1-0.6-0.1c-0.2,0-0.4,0-0.5,0.1c-0.1,0.1-0.3,0.2-0.4,0.4c-0.1,0.2-0.2,0.3-0.2,0.5
				s-0.1,0.4-0.1,0.7c0,0.3,0,0.5,0.1,0.7c0,0.2,0.1,0.4,0.2,0.5c0.1,0.1,0.2,0.3,0.3,0.3s0.3,0.1,0.5,0.1c0.2,0,0.4-0.1,0.7-0.2
				s0.4-0.2,0.6-0.4V144.6z"/>
			<path class="st11" d="M313.9,148.4v-0.6c-0.2,0.2-0.5,0.4-0.8,0.5s-0.6,0.2-0.9,0.2c-0.3,0-0.5,0-0.7-0.1s-0.4-0.2-0.5-0.3
				c-0.1-0.1-0.2-0.3-0.3-0.5c-0.1-0.2-0.1-0.4-0.1-0.6c0-0.3,0.1-0.6,0.2-0.8s0.2-0.4,0.4-0.5c0.2-0.1,0.4-0.2,0.6-0.3
				c0.2-0.1,0.5-0.1,0.8-0.1l1.2-0.1v-0.2c0-0.2,0-0.3-0.1-0.4c-0.1-0.1-0.1-0.2-0.2-0.3s-0.2-0.1-0.4-0.1c-0.1,0-0.3,0-0.5,0
				c-0.2,0-0.3,0-0.5,0s-0.2,0.1-0.3,0.1s-0.2,0.1-0.2,0.2c-0.1,0.1-0.1,0.1-0.1,0.2l-0.8-0.5c0.1-0.1,0.1-0.2,0.3-0.3
				c0.1-0.1,0.2-0.2,0.4-0.3c0.2-0.1,0.4-0.2,0.6-0.2s0.5-0.1,0.8-0.1c0.4,0,0.7,0,0.9,0.1s0.5,0.2,0.7,0.3s0.3,0.3,0.4,0.5
				c0.1,0.2,0.1,0.5,0.1,0.9v3.5H313.9z M313.9,145.9l-0.7,0.1c-0.2,0-0.4,0.1-0.6,0.1s-0.3,0.1-0.4,0.2s-0.2,0.2-0.3,0.3
				c-0.1,0.1-0.1,0.2-0.1,0.4c0,0.3,0.1,0.5,0.2,0.6c0.1,0.1,0.3,0.2,0.6,0.2c0.1,0,0.2,0,0.3-0.1s0.2-0.1,0.3-0.1s0.2-0.1,0.3-0.2
				c0.1-0.1,0.2-0.2,0.3-0.3V145.9z"/>
			<path class="st11" d="M319.1,148.4c-0.1,0-0.3,0.1-0.5,0.1c-0.2,0-0.4,0-0.5,0c-0.3,0-0.5,0-0.7-0.1c-0.2-0.1-0.4-0.2-0.5-0.3
				c-0.1-0.1-0.2-0.3-0.3-0.5s-0.1-0.5-0.1-0.8v-2.7h-0.7v-0.9h0.7v-1.4h1v1.4h1.2v0.9h-1.2v2.6c0,0.2,0,0.3,0,0.5
				c0,0.1,0.1,0.2,0.1,0.3s0.1,0.1,0.2,0.2s0.2,0.1,0.3,0.1c0.1,0,0.2,0,0.4,0c0.1,0,0.2-0.1,0.3-0.1L319.1,148.4z"/>
			<path class="st11" d="M321.1,141.9c0,0.2-0.1,0.4-0.2,0.4c-0.1,0.1-0.3,0.1-0.5,0.1c-0.2,0-0.4,0-0.5-0.1s-0.1-0.2-0.1-0.4
				c0-0.2,0-0.3,0.1-0.4c0.1-0.1,0.3-0.1,0.5-0.1s0.4,0,0.5,0.1S321.1,141.7,321.1,141.9z M319.9,148.4v-5.1h1.1v5.1H319.9z"/>
			<path class="st11" d="M327,145.8c0,0.4,0,0.8-0.1,1.1s-0.2,0.6-0.4,0.8s-0.4,0.4-0.7,0.5c-0.3,0.1-0.7,0.2-1.1,0.2
				c-0.4,0-0.8-0.1-1.1-0.2c-0.3-0.1-0.5-0.3-0.7-0.5s-0.3-0.5-0.4-0.8s-0.1-0.7-0.1-1.1c0-0.4,0-0.8,0.1-1.1
				c0.1-0.3,0.2-0.6,0.4-0.9c0.2-0.2,0.4-0.4,0.7-0.5c0.3-0.1,0.7-0.2,1.1-0.2c0.4,0,0.8,0.1,1.1,0.2c0.3,0.1,0.5,0.3,0.7,0.5
				c0.2,0.2,0.3,0.5,0.4,0.9S327,145.4,327,145.8z M325.9,145.8c0-0.6-0.1-1.1-0.3-1.4s-0.5-0.4-1-0.4c-0.4,0-0.8,0.1-1,0.4
				s-0.3,0.7-0.3,1.4c0,0.6,0.1,1,0.3,1.3s0.5,0.4,1,0.4c0.4,0,0.8-0.1,1-0.4S325.9,146.4,325.9,145.8z"/>
			<path class="st11" d="M331.5,148.4v-2.9c0-0.3,0-0.5,0-0.6c0-0.2-0.1-0.3-0.1-0.4s-0.1-0.2-0.2-0.2s-0.2-0.1-0.4-0.1
				c-0.1,0-0.2,0-0.3,0.1s-0.2,0.1-0.4,0.2c-0.1,0.1-0.3,0.2-0.4,0.3c-0.1,0.1-0.2,0.2-0.4,0.3v3.5h-1.1v-5.1h1.1v0.7
				c0.1-0.1,0.2-0.2,0.4-0.3s0.3-0.2,0.4-0.3c0.2-0.1,0.3-0.1,0.5-0.2c0.2,0,0.3-0.1,0.5-0.1c0.3,0,0.5,0,0.7,0.1
				c0.2,0.1,0.3,0.2,0.5,0.4c0.1,0.2,0.2,0.4,0.2,0.6c0,0.2,0.1,0.5,0.1,0.8v3.4H331.5z"/>
		</g>
		<g class="st29">
			<path class="st11" d="M250.4,159.8c0,0.4,0,0.7-0.1,1s-0.2,0.6-0.4,0.9s-0.4,0.5-0.6,0.6c-0.3,0.2-0.6,0.2-0.9,0.2
				c-0.3,0-0.5,0-0.8-0.1c-0.2-0.1-0.5-0.2-0.7-0.4v2.3h-1v-7.1h1v0.5c0.2-0.2,0.5-0.4,0.7-0.5c0.3-0.1,0.6-0.2,0.9-0.2
				c0.3,0,0.6,0.1,0.9,0.2s0.4,0.3,0.6,0.5s0.3,0.5,0.4,0.8S250.4,159.4,250.4,159.8z M249.3,159.8c0-0.6-0.1-1-0.3-1.3
				s-0.5-0.4-0.8-0.4c-0.1,0-0.2,0-0.4,0c-0.1,0-0.2,0.1-0.3,0.1c-0.1,0.1-0.2,0.1-0.3,0.2c-0.1,0.1-0.2,0.1-0.3,0.2v2.5
				c0.1,0.1,0.2,0.1,0.3,0.2c0.1,0.1,0.2,0.1,0.3,0.2s0.2,0.1,0.3,0.1s0.2,0,0.3,0c0.2,0,0.3,0,0.5-0.1s0.3-0.2,0.4-0.3
				c0.1-0.1,0.2-0.3,0.3-0.6C249.3,160.4,249.3,160.1,249.3,159.8z"/>
			<path class="st11" d="M254.6,158.3c-0.1,0-0.1,0-0.2-0.1s-0.2,0-0.3,0c-0.1,0-0.3,0-0.4,0.1s-0.2,0.1-0.4,0.2
				c-0.1,0.1-0.2,0.1-0.3,0.2s-0.2,0.2-0.3,0.3v3.4h-1v-5.1h1v0.8c0.1-0.1,0.2-0.2,0.3-0.3s0.2-0.2,0.4-0.3s0.3-0.1,0.4-0.2
				s0.3-0.1,0.4-0.1c0.1,0,0.2,0,0.3,0c0.1,0,0.2,0,0.2,0.1L254.6,158.3z"/>
			<path class="st11" d="M260,159.8c0,0.4,0,0.8-0.1,1.1s-0.2,0.6-0.4,0.8s-0.4,0.4-0.7,0.5c-0.3,0.1-0.7,0.2-1.1,0.2
				c-0.4,0-0.8-0.1-1.1-0.2s-0.5-0.3-0.7-0.5c-0.2-0.2-0.3-0.5-0.4-0.8s-0.1-0.7-0.1-1.1c0-0.4,0-0.8,0.1-1.1s0.2-0.6,0.4-0.9
				c0.2-0.2,0.4-0.4,0.7-0.5c0.3-0.1,0.7-0.2,1.1-0.2c0.4,0,0.8,0.1,1.1,0.2c0.3,0.1,0.5,0.3,0.7,0.5c0.2,0.2,0.3,0.5,0.4,0.9
				S260,159.4,260,159.8z M258.9,159.8c0-0.6-0.1-1.1-0.3-1.4s-0.5-0.4-1-0.4s-0.8,0.1-1,0.4s-0.3,0.7-0.3,1.4c0,0.6,0.1,1,0.3,1.3
				s0.5,0.4,1,0.4c0.4,0,0.8-0.1,1-0.4S258.9,160.4,258.9,159.8z"/>
			<path class="st11" d="M265.6,162.3c0,0.3,0,0.6-0.1,0.9s-0.2,0.5-0.4,0.6c-0.2,0.2-0.4,0.3-0.8,0.4c-0.3,0.1-0.7,0.1-1.1,0.1
				c-0.4,0-0.8,0-1.1-0.1c-0.3-0.1-0.6-0.2-0.9-0.3l0.3-0.8c0.2,0.1,0.5,0.2,0.7,0.3c0.3,0.1,0.6,0.1,0.9,0.1c0.2,0,0.5,0,0.6-0.1
				s0.3-0.1,0.4-0.2c0.1-0.1,0.2-0.2,0.2-0.3s0.1-0.3,0.1-0.5v-0.5c-0.2,0.2-0.4,0.3-0.7,0.4c-0.3,0.1-0.5,0.2-0.9,0.2
				c-0.3,0-0.6-0.1-0.9-0.2c-0.2-0.1-0.5-0.3-0.6-0.5s-0.3-0.5-0.4-0.8s-0.1-0.7-0.1-1.1c0-0.3,0-0.7,0.1-1s0.2-0.6,0.4-0.8
				s0.4-0.4,0.7-0.6s0.6-0.2,1-0.2c0.3,0,0.5,0.1,0.8,0.2c0.3,0.1,0.5,0.3,0.7,0.4l0.1-0.5h0.9V162.3z M264.6,158.6
				c-0.2-0.2-0.4-0.3-0.6-0.4c-0.2-0.1-0.4-0.1-0.6-0.1c-0.2,0-0.4,0-0.5,0.1c-0.1,0.1-0.3,0.2-0.4,0.4c-0.1,0.2-0.2,0.3-0.2,0.5
				s-0.1,0.4-0.1,0.7c0,0.3,0,0.5,0.1,0.7c0,0.2,0.1,0.4,0.2,0.5c0.1,0.1,0.2,0.3,0.3,0.3s0.3,0.1,0.5,0.1c0.2,0,0.4-0.1,0.7-0.2
				s0.4-0.2,0.6-0.4V158.6z"/>
			<path class="st11" d="M270.1,158.3c-0.1,0-0.1,0-0.2-0.1s-0.2,0-0.3,0c-0.1,0-0.3,0-0.4,0.1s-0.2,0.1-0.4,0.2
				c-0.1,0.1-0.2,0.1-0.3,0.2s-0.2,0.2-0.3,0.3v3.4h-1v-5.1h1v0.8c0.1-0.1,0.2-0.2,0.3-0.3s0.2-0.2,0.4-0.3s0.3-0.1,0.4-0.2
				s0.3-0.1,0.4-0.1c0.1,0,0.2,0,0.3,0c0.1,0,0.2,0,0.2,0.1L270.1,158.3z"/>
			<path class="st11" d="M271.9,160c0,0.3,0,0.5,0.1,0.7c0.1,0.2,0.1,0.4,0.2,0.5c0.1,0.1,0.2,0.2,0.4,0.3s0.4,0.1,0.6,0.1
				c0.2,0,0.4,0,0.6-0.1c0.2-0.1,0.3-0.2,0.5-0.4l0.8,0.5c-0.1,0.1-0.2,0.3-0.3,0.4s-0.3,0.2-0.4,0.3s-0.3,0.1-0.5,0.2
				s-0.4,0.1-0.7,0.1c-0.8,0-1.4-0.2-1.8-0.7c-0.4-0.5-0.6-1.1-0.6-2c0-0.4,0-0.8,0.1-1.1c0.1-0.3,0.2-0.6,0.4-0.9s0.4-0.4,0.7-0.6
				c0.3-0.1,0.7-0.2,1.1-0.2c0.4,0,0.7,0.1,1,0.2s0.5,0.3,0.7,0.5s0.3,0.5,0.4,0.8s0.1,0.6,0.1,1v0.6H271.9z M274.2,159.3
				c0-0.4-0.1-0.8-0.3-1c-0.2-0.2-0.5-0.3-0.8-0.3c-0.2,0-0.4,0-0.5,0.1c-0.1,0.1-0.3,0.1-0.3,0.3s-0.2,0.2-0.2,0.4
				s-0.1,0.3-0.1,0.6H274.2z"/>
			<path class="st11" d="M280.2,161c0,0.3-0.1,0.5-0.2,0.7s-0.3,0.4-0.4,0.5s-0.4,0.2-0.6,0.3c-0.2,0.1-0.5,0.1-0.8,0.1
				c-0.3,0-0.5,0-0.7-0.1s-0.4-0.1-0.6-0.2c-0.2-0.1-0.3-0.2-0.4-0.3s-0.2-0.2-0.3-0.4l0.8-0.5c0.1,0.2,0.3,0.4,0.5,0.4
				s0.4,0.1,0.7,0.1c0.1,0,0.3,0,0.4,0s0.2-0.1,0.3-0.1c0.1-0.1,0.2-0.1,0.2-0.2s0.1-0.2,0.1-0.3c0-0.1,0-0.2-0.1-0.2
				s-0.1-0.1-0.2-0.2c-0.1-0.1-0.2-0.1-0.4-0.2c-0.1,0-0.3-0.1-0.5-0.1c-0.2-0.1-0.5-0.1-0.7-0.2s-0.4-0.2-0.6-0.3
				c-0.2-0.1-0.3-0.3-0.4-0.5c-0.1-0.2-0.1-0.4-0.1-0.7c0-0.2,0-0.4,0.1-0.6s0.2-0.3,0.4-0.5s0.4-0.2,0.6-0.3s0.5-0.1,0.8-0.1
				c0.2,0,0.4,0,0.6,0.1s0.4,0.1,0.5,0.2s0.3,0.2,0.4,0.3c0.1,0.1,0.2,0.2,0.3,0.4l-0.8,0.5c0-0.1-0.1-0.1-0.2-0.2s-0.1-0.1-0.2-0.2
				s-0.2-0.1-0.3-0.1c-0.1,0-0.2,0-0.4,0c-0.3,0-0.5,0.1-0.7,0.2c-0.2,0.1-0.2,0.3-0.2,0.5c0,0.1,0,0.2,0.1,0.2s0.1,0.1,0.2,0.2
				s0.2,0.1,0.3,0.1c0.1,0,0.3,0.1,0.4,0.1c0.3,0.1,0.6,0.2,0.8,0.2s0.4,0.2,0.6,0.3s0.3,0.3,0.4,0.5
				C280.1,160.5,280.2,160.7,280.2,161z"/>
			<path class="st11" d="M285.1,161c0,0.3-0.1,0.5-0.2,0.7s-0.3,0.4-0.4,0.5s-0.4,0.2-0.6,0.3c-0.2,0.1-0.5,0.1-0.8,0.1
				c-0.3,0-0.5,0-0.7-0.1s-0.4-0.1-0.6-0.2c-0.2-0.1-0.3-0.2-0.4-0.3s-0.2-0.2-0.3-0.4l0.8-0.5c0.1,0.2,0.3,0.4,0.5,0.4
				s0.4,0.1,0.7,0.1c0.1,0,0.3,0,0.4,0s0.2-0.1,0.3-0.1c0.1-0.1,0.2-0.1,0.2-0.2s0.1-0.2,0.1-0.3c0-0.1,0-0.2-0.1-0.2
				s-0.1-0.1-0.2-0.2c-0.1-0.1-0.2-0.1-0.4-0.2c-0.1,0-0.3-0.1-0.5-0.1c-0.2-0.1-0.5-0.1-0.7-0.2s-0.4-0.2-0.6-0.3
				c-0.2-0.1-0.3-0.3-0.4-0.5c-0.1-0.2-0.1-0.4-0.1-0.7c0-0.2,0-0.4,0.1-0.6s0.2-0.3,0.4-0.5s0.4-0.2,0.6-0.3s0.5-0.1,0.8-0.1
				c0.2,0,0.4,0,0.6,0.1s0.4,0.1,0.5,0.2s0.3,0.2,0.4,0.3c0.1,0.1,0.2,0.2,0.3,0.4l-0.8,0.5c0-0.1-0.1-0.1-0.2-0.2s-0.1-0.1-0.2-0.2
				s-0.2-0.1-0.3-0.1c-0.1,0-0.2,0-0.4,0c-0.3,0-0.5,0.1-0.7,0.2c-0.2,0.1-0.2,0.3-0.2,0.5c0,0.1,0,0.2,0.1,0.2s0.1,0.1,0.2,0.2
				s0.2,0.1,0.3,0.1c0.1,0,0.3,0.1,0.4,0.1c0.3,0.1,0.6,0.2,0.8,0.2s0.4,0.2,0.6,0.3s0.3,0.3,0.4,0.5
				C285.1,160.5,285.1,160.7,285.1,161z"/>
			<path class="st11" d="M291.6,162.4c-0.1,0-0.3,0.1-0.5,0.1c-0.2,0-0.4,0-0.5,0c-0.3,0-0.5,0-0.7-0.1c-0.2-0.1-0.4-0.2-0.5-0.3
				c-0.1-0.1-0.2-0.3-0.3-0.5s-0.1-0.5-0.1-0.8v-2.7h-0.7v-0.9h0.7v-1.4h1v1.4h1.2v0.9H290v2.6c0,0.2,0,0.3,0,0.5
				c0,0.1,0.1,0.2,0.1,0.3s0.1,0.1,0.2,0.2s0.2,0.1,0.3,0.1s0.2,0,0.4,0c0.1,0,0.2-0.1,0.3-0.1L291.6,162.4z"/>
			<path class="st11" d="M296.9,159.8c0,0.4,0,0.8-0.1,1.1s-0.2,0.6-0.4,0.8s-0.4,0.4-0.7,0.5c-0.3,0.1-0.7,0.2-1.1,0.2
				c-0.4,0-0.8-0.1-1.1-0.2s-0.5-0.3-0.7-0.5s-0.3-0.5-0.4-0.8s-0.1-0.7-0.1-1.1c0-0.4,0-0.8,0.1-1.1s0.2-0.6,0.4-0.9
				c0.2-0.2,0.4-0.4,0.7-0.5c0.3-0.1,0.7-0.2,1.1-0.2c0.4,0,0.8,0.1,1.1,0.2c0.3,0.1,0.5,0.3,0.7,0.5c0.2,0.2,0.3,0.5,0.4,0.9
				S296.9,159.4,296.9,159.8z M295.8,159.8c0-0.6-0.1-1.1-0.3-1.4s-0.5-0.4-1-0.4s-0.8,0.1-1,0.4s-0.3,0.7-0.3,1.4
				c0,0.6,0.1,1,0.3,1.3s0.5,0.4,1,0.4c0.4,0,0.8-0.1,1-0.4S295.8,160.4,295.8,159.8z"/>
		</g>
	</g>
</g>
<g>
	<defs>
		<rect id="SVGID_57_" x="-376.9" y="-184.6" width="1920" height="1080"/>
	</defs>
	<clipPath id="SVGID_58_">
		<use xlink:href="#SVGID_57_"  style="overflow:visible;"/>
	</clipPath>
	<g class="st30">
		<defs>
			<rect id="SVGID_59_" x="498.1" y="217.4" width="83" height="89"/>
		</defs>
		<clipPath id="SVGID_60_">
			<use xlink:href="#SVGID_59_"  style="overflow:visible;"/>
		</clipPath>
		<g class="st31">
			<path class="st11" d="M521.4,282c-0.1,0-0.2-0.1-0.3-0.1c-0.1,0-0.2,0-0.4,0c-0.1,0-0.3,0-0.3,0s-0.2,0.1-0.2,0.2
				c-0.1,0.1-0.1,0.2-0.1,0.3c0,0.1,0,0.2,0,0.4v0.5h1.1v0.9H520v4.3h-1v-4.3h-0.7v-0.9h0.7v-0.5c0-0.3,0-0.6,0.1-0.8
				c0.1-0.2,0.2-0.4,0.3-0.6s0.3-0.3,0.5-0.3c0.2-0.1,0.5-0.1,0.8-0.1c0.2,0,0.4,0,0.5,0c0.2,0,0.3,0.1,0.4,0.1L521.4,282z
				 M523.1,281.9c0,0.2-0.1,0.4-0.2,0.4c-0.1,0.1-0.3,0.1-0.5,0.1c-0.2,0-0.4,0-0.5-0.1c-0.1-0.1-0.1-0.2-0.1-0.4
				c0-0.2,0-0.3,0.1-0.4c0.1-0.1,0.3-0.1,0.5-0.1s0.4,0,0.5,0.1S523.1,281.7,523.1,281.9z M522,288.4v-5.1h1v5.1H522z"/>
			<path class="st11" d="M527.9,288.4v-2.9c0-0.3,0-0.5,0-0.6c0-0.2-0.1-0.3-0.1-0.4c-0.1-0.1-0.1-0.2-0.2-0.2s-0.2-0.1-0.4-0.1
				c-0.1,0-0.2,0-0.3,0.1c-0.1,0-0.2,0.1-0.4,0.2c-0.1,0.1-0.3,0.2-0.4,0.3c-0.1,0.1-0.2,0.2-0.4,0.3v3.5h-1v-5.1h1v0.7
				c0.1-0.1,0.2-0.2,0.4-0.3s0.3-0.2,0.4-0.3c0.2-0.1,0.3-0.1,0.5-0.2c0.2,0,0.3-0.1,0.5-0.1c0.3,0,0.5,0,0.7,0.1s0.3,0.2,0.5,0.4
				c0.1,0.2,0.2,0.4,0.2,0.6c0,0.2,0.1,0.5,0.1,0.8v3.4H527.9z"/>
			<path class="st11" d="M533.7,288.4v-0.5c-0.2,0.2-0.5,0.3-0.7,0.5c-0.3,0.1-0.6,0.2-0.9,0.2c-0.3,0-0.6-0.1-0.9-0.2
				c-0.2-0.1-0.5-0.3-0.6-0.6s-0.3-0.5-0.4-0.8s-0.1-0.7-0.1-1.1c0-0.4,0-0.7,0.1-1c0.1-0.3,0.2-0.6,0.4-0.9
				c0.2-0.3,0.4-0.5,0.7-0.6c0.3-0.2,0.6-0.2,1-0.2c0.3,0,0.5,0,0.7,0.1c0.2,0.1,0.5,0.2,0.6,0.4v-2.5h1v7.3H533.7z M533.6,284.6
				c-0.1-0.1-0.2-0.1-0.3-0.2c-0.1-0.1-0.2-0.1-0.3-0.2c-0.1,0-0.2-0.1-0.3-0.1c-0.1,0-0.2,0-0.3,0c-0.2,0-0.3,0-0.5,0.1
				c-0.1,0.1-0.3,0.2-0.4,0.3c-0.1,0.1-0.2,0.3-0.3,0.6c-0.1,0.2-0.1,0.5-0.1,0.8c0,0.6,0.1,1,0.3,1.3c0.2,0.3,0.5,0.4,0.8,0.4
				c0.1,0,0.2,0,0.4,0c0.1,0,0.2-0.1,0.3-0.1c0.1-0.1,0.2-0.1,0.3-0.2c0.1-0.1,0.2-0.1,0.3-0.2V284.6z"/>
			<path class="st11" d="M539.9,287c0,0.3-0.1,0.5-0.2,0.7c-0.1,0.2-0.3,0.4-0.4,0.5c-0.2,0.1-0.4,0.2-0.6,0.3
				c-0.2,0.1-0.5,0.1-0.8,0.1c-0.3,0-0.5,0-0.7-0.1c-0.2,0-0.4-0.1-0.6-0.2c-0.2-0.1-0.3-0.2-0.4-0.3c-0.1-0.1-0.2-0.2-0.3-0.4
				l0.8-0.5c0.1,0.2,0.3,0.4,0.5,0.4s0.4,0.1,0.7,0.1c0.1,0,0.2,0,0.4,0s0.2-0.1,0.3-0.1c0.1-0.1,0.2-0.1,0.2-0.2
				c0.1-0.1,0.1-0.2,0.1-0.3c0-0.1,0-0.2-0.1-0.2s-0.1-0.1-0.2-0.2c-0.1-0.1-0.2-0.1-0.4-0.2c-0.1,0-0.3-0.1-0.5-0.1
				c-0.2-0.1-0.5-0.1-0.7-0.2s-0.4-0.2-0.6-0.3c-0.2-0.1-0.3-0.3-0.4-0.5c-0.1-0.2-0.1-0.4-0.1-0.7c0-0.2,0-0.4,0.1-0.6
				s0.2-0.3,0.4-0.5c0.2-0.1,0.4-0.2,0.6-0.3c0.2-0.1,0.5-0.1,0.8-0.1c0.2,0,0.4,0,0.6,0.1c0.2,0,0.4,0.1,0.5,0.2
				c0.2,0.1,0.3,0.2,0.4,0.3c0.1,0.1,0.2,0.2,0.3,0.4l-0.8,0.5c0-0.1-0.1-0.1-0.2-0.2s-0.1-0.1-0.2-0.2c-0.1-0.1-0.2-0.1-0.3-0.1
				c-0.1,0-0.2,0-0.4,0c-0.3,0-0.5,0.1-0.7,0.2c-0.2,0.1-0.2,0.3-0.2,0.5c0,0.1,0,0.2,0.1,0.2c0,0.1,0.1,0.1,0.2,0.2
				c0.1,0.1,0.2,0.1,0.3,0.1c0.1,0,0.3,0.1,0.4,0.1c0.3,0.1,0.6,0.2,0.8,0.2c0.2,0.1,0.4,0.2,0.6,0.3s0.3,0.3,0.4,0.5
				C539.9,286.5,539.9,286.7,539.9,287z"/>
		</g>
		<g class="st31">
			<path class="st11" d="M518.9,302.4v-7.3h1v7.3H518.9z"/>
			<path class="st11" d="M522.3,300c0,0.3,0,0.5,0.1,0.7c0,0.2,0.1,0.4,0.2,0.5c0.1,0.1,0.2,0.2,0.4,0.3c0.2,0.1,0.4,0.1,0.6,0.1
				c0.2,0,0.4,0,0.6-0.1c0.2-0.1,0.3-0.2,0.5-0.4l0.8,0.5c-0.1,0.1-0.2,0.3-0.3,0.4s-0.3,0.2-0.4,0.3s-0.3,0.1-0.5,0.2
				c-0.2,0-0.4,0.1-0.7,0.1c-0.8,0-1.4-0.2-1.8-0.7c-0.4-0.5-0.6-1.1-0.6-2c0-0.4,0-0.8,0.1-1.1c0.1-0.3,0.2-0.6,0.4-0.9
				c0.2-0.2,0.4-0.4,0.7-0.6c0.3-0.1,0.7-0.2,1.1-0.2c0.4,0,0.7,0.1,1,0.2c0.3,0.1,0.5,0.3,0.7,0.5s0.3,0.5,0.4,0.8s0.1,0.6,0.1,1
				v0.6H522.3z M524.6,299.3c0-0.4-0.1-0.8-0.3-1c-0.2-0.2-0.5-0.3-0.8-0.3c-0.2,0-0.4,0-0.5,0.1c-0.1,0.1-0.3,0.1-0.3,0.3
				c-0.1,0.1-0.2,0.2-0.2,0.4s-0.1,0.3-0.1,0.6H524.6z"/>
			<path class="st11" d="M529.9,302.4v-0.6c-0.2,0.2-0.5,0.4-0.8,0.5c-0.3,0.1-0.6,0.2-0.9,0.2c-0.3,0-0.5,0-0.7-0.1
				s-0.4-0.2-0.5-0.3c-0.1-0.1-0.2-0.3-0.3-0.5c-0.1-0.2-0.1-0.4-0.1-0.6c0-0.3,0.1-0.6,0.2-0.8c0.1-0.2,0.2-0.4,0.4-0.5
				c0.2-0.1,0.4-0.2,0.6-0.3c0.2-0.1,0.5-0.1,0.8-0.1l1.2-0.1v-0.2c0-0.2,0-0.3-0.1-0.4c-0.1-0.1-0.1-0.2-0.2-0.3
				c-0.1-0.1-0.2-0.1-0.4-0.1c-0.1,0-0.3,0-0.5,0c-0.2,0-0.3,0-0.5,0c-0.1,0-0.2,0.1-0.3,0.1s-0.2,0.1-0.2,0.2
				c-0.1,0.1-0.1,0.1-0.1,0.2l-0.8-0.5c0.1-0.1,0.1-0.2,0.3-0.3c0.1-0.1,0.2-0.2,0.4-0.3c0.2-0.1,0.4-0.2,0.6-0.2
				c0.2-0.1,0.5-0.1,0.8-0.1c0.4,0,0.7,0,0.9,0.1s0.5,0.2,0.7,0.3c0.2,0.1,0.3,0.3,0.4,0.5c0.1,0.2,0.1,0.5,0.1,0.9v3.5H529.9z
				 M529.8,299.9l-0.7,0.1c-0.2,0-0.4,0.1-0.6,0.1c-0.2,0-0.3,0.1-0.4,0.2c-0.1,0.1-0.2,0.2-0.3,0.3c-0.1,0.1-0.1,0.2-0.1,0.4
				c0,0.3,0.1,0.5,0.2,0.6c0.1,0.1,0.3,0.2,0.6,0.2c0.1,0,0.2,0,0.3-0.1c0.1,0,0.2-0.1,0.3-0.1c0.1-0.1,0.2-0.1,0.3-0.2
				c0.1-0.1,0.2-0.2,0.3-0.3V299.9z"/>
			<path class="st11" d="M535.3,298.3c-0.1,0-0.1,0-0.2-0.1c-0.1,0-0.2,0-0.3,0c-0.1,0-0.3,0-0.4,0.1s-0.2,0.1-0.4,0.2
				c-0.1,0.1-0.2,0.1-0.3,0.2s-0.2,0.2-0.3,0.3v3.4h-1v-5.1h1v0.8c0.1-0.1,0.2-0.2,0.3-0.3s0.2-0.2,0.4-0.3c0.1-0.1,0.3-0.1,0.4-0.2
				s0.3-0.1,0.4-0.1c0.1,0,0.2,0,0.3,0c0.1,0,0.2,0,0.2,0.1L535.3,298.3z"/>
			<path class="st11" d="M539.7,302.4v-2.9c0-0.3,0-0.5,0-0.6c0-0.2-0.1-0.3-0.1-0.4c-0.1-0.1-0.1-0.2-0.2-0.2s-0.2-0.1-0.4-0.1
				c-0.1,0-0.2,0-0.3,0.1c-0.1,0-0.2,0.1-0.4,0.2c-0.1,0.1-0.3,0.2-0.4,0.3c-0.1,0.1-0.2,0.2-0.4,0.3v3.5h-1v-5.1h1v0.7
				c0.1-0.1,0.2-0.2,0.4-0.3s0.3-0.2,0.4-0.3c0.2-0.1,0.3-0.1,0.5-0.2c0.2,0,0.3-0.1,0.5-0.1c0.3,0,0.5,0,0.7,0.1s0.3,0.2,0.5,0.4
				c0.1,0.2,0.2,0.4,0.2,0.6c0,0.2,0.1,0.5,0.1,0.8v3.4H539.7z"/>
			<path class="st11" d="M543.4,295.9c0,0.2-0.1,0.4-0.2,0.4c-0.1,0.1-0.3,0.1-0.5,0.1c-0.2,0-0.4,0-0.5-0.1
				c-0.1-0.1-0.1-0.2-0.1-0.4c0-0.2,0-0.3,0.1-0.4c0.1-0.1,0.3-0.1,0.5-0.1s0.4,0,0.5,0.1S543.4,295.7,543.4,295.9z M542.2,302.4
				v-5.1h1v5.1H542.2z"/>
			<path class="st11" d="M548.1,302.4v-2.9c0-0.3,0-0.5,0-0.6c0-0.2-0.1-0.3-0.1-0.4c-0.1-0.1-0.1-0.2-0.2-0.2s-0.2-0.1-0.4-0.1
				c-0.1,0-0.2,0-0.3,0.1c-0.1,0-0.2,0.1-0.4,0.2c-0.1,0.1-0.3,0.2-0.4,0.3c-0.1,0.1-0.2,0.2-0.4,0.3v3.5h-1v-5.1h1v0.7
				c0.1-0.1,0.2-0.2,0.4-0.3s0.3-0.2,0.4-0.3c0.2-0.1,0.3-0.1,0.5-0.2c0.2,0,0.3-0.1,0.5-0.1c0.3,0,0.5,0,0.7,0.1s0.3,0.2,0.5,0.4
				c0.1,0.2,0.2,0.4,0.2,0.6c0,0.2,0.1,0.5,0.1,0.8v3.4H548.1z"/>
			<path class="st11" d="M554.9,302.3c0,0.3,0,0.6-0.1,0.9s-0.2,0.5-0.4,0.6c-0.2,0.2-0.4,0.3-0.8,0.4c-0.3,0.1-0.7,0.1-1.1,0.1
				c-0.4,0-0.8,0-1.1-0.1c-0.3-0.1-0.6-0.2-0.9-0.3l0.3-0.8c0.2,0.1,0.5,0.2,0.7,0.3c0.3,0.1,0.6,0.1,0.9,0.1c0.2,0,0.5,0,0.6-0.1
				s0.3-0.1,0.4-0.2c0.1-0.1,0.2-0.2,0.2-0.3c0-0.1,0.1-0.3,0.1-0.5v-0.5c-0.2,0.2-0.4,0.3-0.7,0.4c-0.3,0.1-0.5,0.2-0.9,0.2
				c-0.3,0-0.6-0.1-0.9-0.2c-0.2-0.1-0.5-0.3-0.6-0.5c-0.2-0.2-0.3-0.5-0.4-0.8c-0.1-0.3-0.1-0.7-0.1-1.1c0-0.3,0-0.7,0.1-1
				c0.1-0.3,0.2-0.6,0.4-0.8c0.2-0.2,0.4-0.4,0.7-0.6c0.3-0.1,0.6-0.2,1-0.2c0.3,0,0.5,0.1,0.8,0.2c0.3,0.1,0.5,0.3,0.7,0.4l0.1-0.5
				h0.9V302.3z M553.8,298.6c-0.2-0.2-0.4-0.3-0.6-0.4c-0.2-0.1-0.4-0.1-0.6-0.1c-0.2,0-0.4,0-0.5,0.1c-0.1,0.1-0.3,0.2-0.4,0.4
				c-0.1,0.2-0.2,0.3-0.2,0.5s-0.1,0.4-0.1,0.7c0,0.3,0,0.5,0.1,0.7c0,0.2,0.1,0.4,0.2,0.5c0.1,0.1,0.2,0.3,0.3,0.3
				c0.1,0.1,0.3,0.1,0.5,0.1c0.2,0,0.4-0.1,0.7-0.2c0.2-0.1,0.4-0.2,0.6-0.4V298.6z"/>
			<path class="st11" d="M560.1,301c0,0.3-0.1,0.5-0.2,0.7c-0.1,0.2-0.3,0.4-0.4,0.5c-0.2,0.1-0.4,0.2-0.6,0.3
				c-0.2,0.1-0.5,0.1-0.8,0.1c-0.3,0-0.5,0-0.7-0.1c-0.2,0-0.4-0.1-0.6-0.2c-0.2-0.1-0.3-0.2-0.4-0.3c-0.1-0.1-0.2-0.2-0.3-0.4
				l0.8-0.5c0.1,0.2,0.3,0.4,0.5,0.4s0.4,0.1,0.7,0.1c0.1,0,0.2,0,0.4,0s0.2-0.1,0.3-0.1c0.1-0.1,0.2-0.1,0.2-0.2
				c0.1-0.1,0.1-0.2,0.1-0.3c0-0.1,0-0.2-0.1-0.2s-0.1-0.1-0.2-0.2c-0.1-0.1-0.2-0.1-0.4-0.2c-0.1,0-0.3-0.1-0.5-0.1
				c-0.2-0.1-0.5-0.1-0.7-0.2s-0.4-0.2-0.6-0.3c-0.2-0.1-0.3-0.3-0.4-0.5c-0.1-0.2-0.1-0.4-0.1-0.7c0-0.2,0-0.4,0.1-0.6
				s0.2-0.3,0.4-0.5c0.2-0.1,0.4-0.2,0.6-0.3c0.2-0.1,0.5-0.1,0.8-0.1c0.2,0,0.4,0,0.6,0.1c0.2,0,0.4,0.1,0.5,0.2
				c0.2,0.1,0.3,0.2,0.4,0.3c0.1,0.1,0.2,0.2,0.3,0.4l-0.8,0.5c0-0.1-0.1-0.1-0.2-0.2s-0.1-0.1-0.2-0.2c-0.1-0.1-0.2-0.1-0.3-0.1
				c-0.1,0-0.2,0-0.4,0c-0.3,0-0.5,0.1-0.7,0.2c-0.2,0.1-0.2,0.3-0.2,0.5c0,0.1,0,0.2,0.1,0.2c0,0.1,0.1,0.1,0.2,0.2
				c0.1,0.1,0.2,0.1,0.3,0.1c0.1,0,0.3,0.1,0.4,0.1c0.3,0.1,0.6,0.2,0.8,0.2c0.2,0.1,0.4,0.2,0.6,0.3s0.3,0.3,0.4,0.5
				C560.1,300.5,560.1,300.7,560.1,301z"/>
		</g>
	</g>
</g>
<g>
	<defs>
		<rect id="SVGID_61_" x="-376.9" y="-184.6" width="1920" height="1080"/>
	</defs>
	<clipPath id="SVGID_62_">
		<use xlink:href="#SVGID_61_"  style="overflow:visible;"/>
	</clipPath>
	<polyline class="st32" points="289,291.4 375.5,291.4 375.5,200.4 399.3,200.4 	"/>
	<polyline class="st32" points="289.1,291.4 375.5,291.4 375.5,382.3 399.4,382.3 	"/>
</g>
<g>
	<defs>
		<rect id="SVGID_63_" x="-376.9" y="-184.6" width="1920" height="1080"/>
	</defs>
	<clipPath id="SVGID_64_">
		<use xlink:href="#SVGID_63_"  style="overflow:visible;"/>
	</clipPath>
	<g class="st33">
		<defs>
			<polygon id="SVGID_65_" points="389.1,204.4 389.1,196.4 401.1,200.4 			"/>
		</defs>
		<clipPath id="SVGID_66_">
			<use xlink:href="#SVGID_65_"  style="overflow:visible;"/>
		</clipPath>
		<rect x="384.1" y="191.4" class="st34" width="22" height="18"/>
	</g>
</g>
<g>
	<defs>
		<rect id="SVGID_67_" x="-376.9" y="-184.6" width="1920" height="1080"/>
	</defs>
	<clipPath id="SVGID_68_">
		<use xlink:href="#SVGID_67_"  style="overflow:visible;"/>
	</clipPath>
	<polygon class="st35" points="389.1,204.4 389.1,196.4 401.1,200.4 	"/>
</g>
<g>
	<defs>
		<rect id="SVGID_69_" x="-376.9" y="-184.6" width="1920" height="1080"/>
	</defs>
	<clipPath id="SVGID_70_">
		<use xlink:href="#SVGID_69_"  style="overflow:visible;"/>
	</clipPath>
	<g class="st36">
		<defs>
			<polygon id="SVGID_71_" points="389.1,386.4 389.1,378.4 401.1,382.4 			"/>
		</defs>
		<clipPath id="SVGID_72_">
			<use xlink:href="#SVGID_71_"  style="overflow:visible;"/>
		</clipPath>
		<rect x="384.1" y="373.4" class="st37" width="22" height="18"/>
	</g>
</g>
<g>
	<defs>
		<rect id="SVGID_73_" x="-376.9" y="-184.6" width="1920" height="1080"/>
	</defs>
	<clipPath id="SVGID_74_">
		<use xlink:href="#SVGID_73_"  style="overflow:visible;"/>
	</clipPath>
	<polygon class="st38" points="389.1,386.4 389.1,378.4 401.1,382.4 	"/>
	<polyline class="st39" points="568.1,292.9 613.1,292.9 613.1,48.2 65.2,48.2 65.2,69 	"/>
</g>
<g>
	<defs>
		<rect id="SVGID_75_" x="-376.9" y="-184.6" width="1920" height="1080"/>
	</defs>
	<clipPath id="SVGID_76_">
		<use xlink:href="#SVGID_75_"  style="overflow:visible;"/>
	</clipPath>
	<g class="st40">
		<defs>
			<polygon id="SVGID_77_" points="61.1,65.4 69.1,65.4 65.1,77.4 			"/>
		</defs>
		<clipPath id="SVGID_78_">
			<use xlink:href="#SVGID_77_"  style="overflow:visible;"/>
		</clipPath>
		<rect x="56.1" y="60.4" class="st41" width="18" height="22"/>
	</g>
</g>
<g>
	<defs>
		<rect id="SVGID_79_" x="-376.9" y="-184.6" width="1920" height="1080"/>
	</defs>
	<clipPath id="SVGID_80_">
		<use xlink:href="#SVGID_79_"  style="overflow:visible;"/>
	</clipPath>
	<polygon class="st42" points="61.1,65.4 69.1,65.4 65.1,77.4 	"/>
	<polyline class="st43" points="455.1,198.5 481.2,198.5 481.2,290.2 501.1,290.2 	"/>
	<polyline class="st43" points="451.1,382 481.4,382 481.4,290.4 504.5,290.4 	"/>
</g>
<g>
	<defs>
		<rect id="SVGID_81_" x="-376.9" y="-184.6" width="1920" height="1080"/>
	</defs>
	<clipPath id="SVGID_82_">
		<use xlink:href="#SVGID_81_"  style="overflow:visible;"/>
	</clipPath>
	<g class="st44">
		<defs>
			<polygon id="SVGID_83_" points="496.1,294.4 496.1,286.4 508.1,290.4 			"/>
		</defs>
		<clipPath id="SVGID_84_">
			<use xlink:href="#SVGID_83_"  style="overflow:visible;"/>
		</clipPath>
		<rect x="491.1" y="281.4" class="st45" width="22" height="18"/>
	</g>
</g>
<g>
	<defs>
		<rect id="SVGID_85_" x="-376.9" y="-184.6" width="1920" height="1080"/>
	</defs>
	<clipPath id="SVGID_86_">
		<use xlink:href="#SVGID_85_"  style="overflow:visible;"/>
	</clipPath>
	<polygon class="st46" points="496.1,294.4 496.1,286.4 508.1,290.4 	"/>
</g>
</svg>
